<svg width="393" height="183" viewBox="0 0 393 183" fill="none" xmlns="http://www.w3.org/2000/svg">
<g filter="url(#filter0_d_248_4735)">
<path d="M87.3224 147.929L84.2415 126.008L27.473 133.986L25.0427 116.694L53.7522 24.3992L74.6256 21.4656L45.9161 113.76L81.8112 108.715L77.0243 74.6543L95.5395 72.0521L100.326 106.113L112.816 104.358L115.246 121.651L102.757 123.406L105.838 145.327L87.3224 147.929Z" fill="#234930"/>
<path d="M195.667 150.142C230.502 150.142 258.742 121.764 258.742 86.7581C258.742 51.7523 230.502 23.3746 195.667 23.3746C160.831 23.3746 132.592 51.7523 132.592 86.7581C132.592 121.764 160.831 150.142 195.667 150.142Z" fill="#AB7127"/>
<path d="M195.667 23.3745C190.598 23.3745 185.674 23.9922 180.95 25.1265H210.382C205.658 23.9922 200.735 23.3745 195.667 23.3745Z" fill="#E09430"/>
<path d="M223.913 30.0883H167.421C166.186 30.7104 164.974 31.3719 163.787 32.073H227.545C226.358 31.3719 225.146 30.7104 223.913 30.0883Z" fill="#E09430"/>
<path d="M234.756 37.0336H156.576C155.767 37.6761 154.977 38.3377 154.2 39.0182H237.131C236.355 38.3377 235.564 37.6761 234.756 37.0336Z" fill="#E09430"/>
<path d="M242.202 43.978H149.131C148.541 44.6249 147.97 45.2908 147.406 45.9626H243.928C243.364 45.2908 242.792 44.6264 242.202 43.978Z" fill="#E09430"/>
<path d="M247.69 50.9246H143.644C143.198 51.5759 142.772 52.2404 142.351 52.9092H248.983C248.561 52.2389 248.134 51.5759 247.69 50.9246Z" fill="#E09430"/>
<path d="M251.802 57.8693H139.528C139.193 58.525 138.864 59.1851 138.551 59.8539H252.779C252.466 59.1836 252.137 58.525 251.802 57.8693Z" fill="#E09430"/>
<path d="M254.856 64.8143H136.478C136.238 65.4685 136.021 66.1345 135.801 66.7989H255.532C255.313 66.1345 255.096 65.4685 254.856 64.8143Z" fill="#E09430"/>
<path d="M256.949 71.7592H134.382C134.223 72.4178 134.064 73.0765 133.926 73.7439H257.403C257.266 73.0779 257.107 72.4178 256.949 71.7592Z" fill="#E09430"/>
<path d="M258.218 78.7053H133.115C133.032 79.3654 132.947 80.024 132.885 80.6899H258.446C258.385 80.024 258.301 79.3639 258.218 78.7053Z" fill="#E09430"/>
<path d="M258.742 86.7585C258.742 86.3867 258.72 86.0208 258.714 85.6505H132.619C132.614 86.0208 132.592 86.3867 132.592 86.7585C132.592 87.0526 132.609 87.341 132.614 87.6352H258.721C258.724 87.3424 258.742 87.0526 258.742 86.7585Z" fill="#E09430"/>
<path d="M258.465 92.5952H132.868C132.929 93.2597 133.005 93.9198 133.087 94.5799H258.247C258.326 93.9213 258.403 93.2612 258.465 92.5952Z" fill="#E09430"/>
<path d="M257.458 99.5416H133.873C134.009 100.209 134.172 100.866 134.329 101.526H257.002C257.158 100.866 257.321 100.209 257.458 99.5416Z" fill="#E09430"/>
<path d="M255.61 106.486H135.723C135.94 107.151 136.154 107.817 136.391 108.471H254.942C255.178 107.817 255.393 107.151 255.61 106.486Z" fill="#E09430"/>
<path d="M252.885 113.432H138.448C138.757 114.1 139.08 114.76 139.411 115.416H251.921C252.253 114.76 252.575 114.1 252.885 113.432Z" fill="#E09430"/>
<path d="M249.13 120.378H142.201C142.618 121.045 143.039 121.711 143.479 122.362H247.852C248.294 121.711 248.713 121.045 249.13 120.378Z" fill="#E09430"/>
<path d="M244.128 127.323H147.207C147.765 127.994 148.333 128.659 148.918 129.307H242.418C243.001 128.659 243.569 127.994 244.128 127.323Z" fill="#E09430"/>
<path d="M237.397 134.267H153.935C154.701 134.948 155.484 135.61 156.282 136.252H235.048C235.848 135.61 236.63 134.948 237.397 134.267Z" fill="#E09430"/>
<path d="M227.945 141.212H163.385C164.554 141.913 165.752 142.57 166.969 143.197H224.361C225.578 142.57 226.777 141.915 227.945 141.212Z" fill="#E09430"/>
<path d="M179.951 148.159C184.975 149.454 190.241 150.143 195.667 150.143C201.092 150.143 206.357 149.454 211.382 148.159H179.951Z" fill="#E09430"/>
<path d="M200.566 149.911C233.6 149.911 260.379 121.533 260.379 86.527C260.379 51.5213 233.6 23.1435 200.566 23.1435C167.533 23.1435 140.754 51.5213 140.754 86.527C140.754 121.533 167.533 149.911 200.566 149.911Z" fill="#FFDE63"/>
<path d="M200.567 128.195C222.282 128.195 239.886 109.54 239.886 86.527C239.886 63.5145 222.282 44.8592 200.567 44.8592C178.851 44.8592 161.247 63.5145 161.247 86.527C161.247 109.54 178.851 128.195 200.567 128.195Z" stroke="#D4AD4A" stroke-width="1.2104" stroke-miterlimit="10"/>
<path d="M200.566 124.047C220.12 124.047 235.972 107.249 235.972 86.527C235.972 65.8053 220.12 49.0071 200.566 49.0071C181.012 49.0071 165.16 65.8053 165.16 86.527C165.16 107.249 181.012 124.047 200.566 124.047Z" fill="#EDC253"/>
<path d="M204.945 67.2938C207.785 68.731 209.017 71.4153 209.155 74.1537L212.36 74.1933C213.42 74.2064 214.271 75.1285 214.257 76.2526C214.246 77.3766 213.375 78.2768 212.314 78.2636L209.11 78.2241C208.538 84.424 203.201 88.3626 195.135 88.263L193.708 88.2455L210.564 106.536C211.76 107.833 210.878 110.015 209.167 109.993L207.543 109.973C207.032 109.967 206.545 109.745 206.188 109.357L187.288 88.7607C186.934 88.3743 186.738 87.8562 186.744 87.3175L186.757 86.1891C186.77 85.065 187.64 84.1649 188.7 84.1781L193.501 84.2381C199.717 84.3157 202.597 82.2154 202.726 78.145L186.932 77.9504L186.954 75.9145C186.967 74.7904 187.837 73.8903 188.897 73.9035L202.772 74.0747C202.82 69.6707 199.739 67.2294 193.689 67.1547L188.971 67.0962C187.911 67.083 187.06 66.1609 187.073 65.0369C187.085 63.9128 187.956 63.0127 189.016 63.0258L212.481 63.3156C213.541 63.3288 214.391 64.2509 214.378 65.3749C214.367 66.499 213.496 67.3991 212.435 67.386L204.945 67.2938Z" fill="#AB7127"/>
<path d="M331.903 151.44L334.217 129.425L277.205 123.432L279.03 106.065L329.215 23.458L350.178 25.6613L299.993 108.269L336.043 112.058L339.638 77.8503L358.233 79.8047L354.637 114.012L367.18 115.33L365.355 132.697L352.812 131.379L350.498 153.394L331.903 151.44Z" fill="#234930"/>
</g>
<defs>
<filter id="filter0_d_248_4735" x="0.0429688" y="0.465637" width="392.137" height="181.929" filterUnits="userSpaceOnUse" color-interpolation-filters="sRGB">
<feFlood flood-opacity="0" result="BackgroundImageFix"/>
<feColorMatrix in="SourceAlpha" type="matrix" values="0 0 0 0 0 0 0 0 0 0 0 0 0 0 0 0 0 0 127 0" result="hardAlpha"/>
<feOffset dy="4"/>
<feGaussianBlur stdDeviation="12.5"/>
<feComposite in2="hardAlpha" operator="out"/>
<feColorMatrix type="matrix" values="0 0 0 0 0 0 0 0 0 0 0 0 0 0 0 0 0 0 0.1 0"/>
<feBlend mode="normal" in2="BackgroundImageFix" result="effect1_dropShadow_248_4735"/>
<feBlend mode="normal" in="SourceGraphic" in2="effect1_dropShadow_248_4735" result="shape"/>
</filter>
</defs>
</svg>
