<svg width="231" height="238" viewBox="0 0 231 238" fill="none" xmlns="http://www.w3.org/2000/svg">
<path d="M81.9839 17.4354C69.7514 3.96992 50.3674 -0.440945 45.2011 1.1191C43.6987 6.06635 37.9725 22.0183 49.1717 40.4022C60.3709 58.7861 79.2783 64.6534 87.9045 66.1429C88.9089 66.316 90.6089 66.6921 91.9403 64.1106C93.8049 60.5 102.22 39.7109 81.9839 17.4354Z" fill="#00AC92"/>
<path d="M59.6752 19.4996C52.6743 13.6292 46.7088 8.43509 45.2214 1.11359C45.215 1.11572 45.2075 1.1168 45.2011 1.11893C43.6987 6.06619 37.9725 22.0182 49.1717 40.4021C60.3719 58.786 79.2783 64.6532 87.9045 66.1427C88.6899 66.2784 89.8994 66.5306 91.0267 65.4044C87.3606 61.7009 80.7882 53.5149 77.6734 47.4393C74.1292 40.5249 66.9284 25.5817 59.6752 19.4996Z" fill="#00968F"/>
<path d="M90.5087 64.1743C90.061 63.7213 89.6293 63.2586 89.2019 62.7938C89.0641 61.706 89.6891 60.7925 90.1379 59.8329C90.6465 58.7494 90.8752 57.6254 91.2535 56.5045C91.8828 54.6388 93.2869 53.1878 93.4707 51.2068C93.4739 51.1651 93.4033 51.148 93.3916 51.1918C93.0037 52.6108 91.9993 53.6836 91.2588 54.9466C90.6904 55.9157 90.3976 56.9565 89.998 57.9876C89.4968 59.2826 88.6003 60.4206 88.2285 61.7007C87.0093 60.302 85.8628 58.8616 84.7868 57.3796C86.7026 50.4524 89.4434 43.928 91.9811 37.1781C91.9939 37.1439 91.9427 37.1183 91.9213 37.1504C88.065 42.8285 85.5818 49.4854 83.8134 55.9959C82.4328 53.9988 81.1453 51.9472 79.9165 49.8583C81.4498 43.0112 86.2197 37.2679 87.7648 30.4272C87.7797 30.3631 87.6664 30.3417 87.6461 30.4048C85.5967 36.7347 80.9935 42.0559 79.0552 48.3859C78.0637 46.6538 77.0998 44.9046 76.1435 43.148C77.4899 39.6988 78.88 36.2603 80.377 32.8645C81.531 30.2466 83.1103 27.6106 83.4255 24.7779C83.4372 24.6711 83.262 24.6326 83.2278 24.7405C82.2929 27.6736 80.533 30.3941 79.2016 33.1894C77.8467 36.0348 76.6008 38.9145 75.4212 41.8219C74.607 40.3228 73.7917 38.8226 72.9625 37.3277C72.9647 37.316 72.9721 37.3085 72.9743 37.2967C73.8644 30.8204 77.7303 25.1733 79.098 18.8124C79.1183 18.7173 78.9591 18.6906 78.9259 18.7793C76.8199 24.5012 73.4562 29.847 72.0853 35.7666C71.5788 34.8733 71.068 33.9811 70.5434 33.0964C70.2196 32.5504 69.8809 32.0118 69.5454 31.4722C69.8264 25.3314 69.6149 19.3702 72.7916 13.7284C72.8322 13.6557 72.7349 13.5884 72.6794 13.6568C69.009 18.2204 68.7867 24.1903 68.4138 29.7081C67.0675 27.664 65.6346 25.6744 64.0682 23.78C64.518 18.7707 65.6421 13.7839 66.7138 8.85377C66.7352 8.7544 66.5813 8.73838 66.5428 8.82065C65.391 11.2441 64.8781 13.8993 64.3502 16.4809C63.9442 18.4662 63.2187 20.6492 63.1759 22.72C62.3991 21.8267 61.6052 20.9462 60.7621 20.1042C60.1499 19.493 59.5216 18.9203 58.8997 18.3284C58.9873 18.1959 59.0269 18.0345 58.9659 17.855C58.3312 15.9936 58.4103 13.5553 58.4477 11.6041C58.4862 9.63059 58.9553 7.7938 59.45 5.87474C59.4917 5.71232 59.2737 5.64074 59.1936 5.79247C58.1624 7.75213 57.7243 10.011 57.5843 12.1598C57.4818 13.7412 57.3739 15.5171 57.6495 17.138C56.0318 15.6271 54.4151 14.1323 52.8562 12.5989C51.9971 10.3016 51.9361 8.00857 52.1819 5.56593C52.1851 5.53601 52.1413 5.5296 52.1296 5.55631C51.2844 7.37601 51.1882 9.39979 51.5857 11.3124C49.6132 9.27371 47.7732 7.11316 46.2281 4.63633C46.133 4.48353 45.8787 4.58823 45.9535 4.75919C47.3875 8.02032 49.6324 10.6574 52.121 13.1236C52.1317 13.1503 52.1392 13.1781 52.1488 13.2048C52.2022 13.3426 52.3059 13.3993 52.4202 13.4185C54.0561 15.0181 55.7754 16.5631 57.4529 18.1499C54.2741 16.9831 51.0162 15.906 47.5926 15.5726C47.5232 15.5662 47.4997 15.6645 47.5648 15.6848C51.3121 16.8666 55.0968 17.8112 58.6262 19.5176C58.7277 19.5668 58.8228 19.5732 58.9125 19.5646C59.9693 20.6225 60.9652 21.7198 61.9183 22.8461C57.345 21.567 51.7182 21.3458 47.2144 22.7648C47.147 22.7862 47.1716 22.8845 47.2357 22.8867C49.7831 22.9967 52.3475 22.5939 54.9109 22.721C57.6837 22.8589 60.3337 23.3461 62.9035 24.2854C62.9804 24.3131 63.0509 24.3206 63.1193 24.3185C64.5437 26.1157 65.8526 27.9899 67.0835 29.9186C61.4759 27.9162 54.2613 27.7484 48.5404 29.2711C48.4453 29.2957 48.441 29.4271 48.5457 29.4367C51.746 29.7156 55.0359 29.2027 58.2618 29.3598C61.6939 29.5275 65.0266 30.2082 68.1125 31.578C68.775 32.6754 69.4225 33.7845 70.0401 34.915C70.1801 35.1714 70.3169 35.43 70.4558 35.6875C64.4977 34.0837 57.6848 33.9117 51.5814 34.7408C51.5023 34.7515 51.5109 34.8605 51.5857 34.868C58.3633 35.5326 64.8087 35.2185 71.332 37.3267C72.6505 39.8238 73.9327 42.3551 75.2524 44.8672C68.7194 42.3583 60.8209 40.8955 53.8178 42.1168C53.758 42.1275 53.758 42.2173 53.821 42.2194C61.7537 42.4545 68.728 43.1757 75.9715 46.2242C77.0143 48.1786 78.0978 50.1104 79.239 52.0049C76.6083 51.4429 73.9423 51.0091 71.2497 50.7601C68.0676 50.4663 64.472 50.0634 61.3017 50.7708C61.2697 50.7783 61.274 50.8167 61.3039 50.8221C64.331 51.3863 67.59 51.2196 70.6727 51.5498C73.7864 51.8821 76.8413 52.4462 79.8919 53.0692C81.126 55.0524 82.4542 56.9736 83.8924 58.82C82.3334 58.4097 80.6302 58.2782 79.0883 58.1682C76.447 57.9801 73.7287 57.9363 71.1247 58.5336C71.0584 58.5486 71.0563 58.6437 71.129 58.6479C75.5847 58.946 81.1517 58.3605 85.1971 60.4003C86.5381 61.9913 87.9571 63.5279 89.5417 64.9511C90.1037 65.4587 91.0622 64.7342 90.5087 64.1743Z" fill="#3ADED3"/>
<path d="M194.4 137.517C205.967 126.443 209.401 109.285 207.91 104.775C203.521 103.568 189.354 98.8962 173.436 109.175C157.518 119.455 152.791 136.225 151.679 143.85C151.549 144.738 151.258 146.242 153.559 147.355C156.78 148.912 175.266 155.836 194.4 137.517Z" fill="#00AC92"/>
<path d="M192.069 117.935C197.073 111.639 201.506 106.271 207.913 104.793C207.911 104.788 207.91 104.781 207.909 104.775C203.52 103.568 189.353 98.8962 173.435 109.175C157.517 119.455 152.79 136.225 151.678 143.85C151.576 144.545 151.382 145.614 152.4 146.58C155.574 143.269 162.626 137.298 167.9 134.417C173.902 131.138 186.885 124.457 192.069 117.935Z" fill="#00968F"/>
<path d="M153.47 146.095C153.858 145.69 154.255 145.3 154.654 144.914C155.608 144.767 156.427 145.296 157.281 145.669C158.247 146.091 159.241 146.266 160.236 146.574C161.892 147.085 163.201 148.287 164.948 148.403C164.985 148.405 164.998 148.342 164.96 148.333C163.702 148.024 162.735 147.166 161.607 146.543C160.741 146.065 159.818 145.831 158.902 145.504C157.752 145.093 156.73 144.331 155.594 144.033C156.797 142.928 158.038 141.885 159.317 140.906C165.457 142.431 171.261 144.693 177.257 146.771C177.287 146.781 177.31 146.735 177.281 146.717C172.196 143.455 166.282 141.423 160.512 140.017C162.237 138.756 164.013 137.575 165.822 136.447C171.882 137.638 177.045 141.703 183.101 142.904C183.158 142.914 183.174 142.815 183.118 142.799C177.501 141.142 172.713 137.214 167.099 135.654C168.6 134.741 170.118 133.852 171.641 132.971C174.707 134.076 177.764 135.219 180.788 136.458C183.117 137.414 185.473 138.742 187.974 138.954C188.068 138.963 188.098 138.807 188.002 138.779C185.401 138.025 182.967 136.539 180.476 135.432C177.941 134.305 175.379 133.275 172.793 132.304C174.094 131.553 175.395 130.802 176.691 130.037C176.702 130.039 176.708 130.045 176.719 130.046C182.438 130.681 187.496 133.952 193.125 135.008C193.208 135.024 193.229 134.883 193.15 134.857C188.067 133.135 183.285 130.299 178.045 129.229C178.82 128.763 179.592 128.293 180.359 127.811C180.833 127.514 181.299 127.203 181.766 126.895C187.175 127.001 192.415 126.678 197.452 129.342C197.517 129.376 197.574 129.289 197.512 129.242C193.412 126.117 188.154 126.06 183.29 125.859C185.058 124.628 186.776 123.32 188.406 121.899C192.824 122.179 197.239 123.053 201.602 123.883C201.689 123.9 201.7 123.763 201.626 123.731C199.467 122.774 197.119 122.384 194.836 121.979C193.079 121.668 191.142 121.079 189.319 121.089C190.087 120.385 190.844 119.665 191.565 118.905C192.089 118.352 192.579 117.786 193.084 117.225C193.203 117.299 193.346 117.33 193.502 117.272C195.125 116.67 197.273 116.683 198.991 116.671C200.729 116.66 202.356 117.031 204.056 117.422C204.2 117.455 204.257 117.26 204.122 117.194C202.374 116.333 200.376 115.998 198.483 115.926C197.089 115.872 195.524 115.818 194.104 116.098C195.396 114.639 196.675 113.183 197.988 111.776C199.989 110.967 202.005 110.86 204.161 111.02C204.187 111.022 204.192 110.984 204.168 110.973C202.548 110.271 200.764 110.233 199.091 110.628C200.839 108.846 202.698 107.177 204.841 105.76C204.973 105.672 204.876 105.451 204.727 105.521C201.89 106.858 199.622 108.895 197.509 111.142C197.486 111.152 197.461 111.159 197.439 111.169C197.319 111.219 197.271 111.312 197.257 111.412C195.887 112.888 194.568 114.437 193.209 115.95C194.164 113.126 195.036 110.235 195.25 107.215C195.255 107.154 195.167 107.136 195.151 107.194C194.197 110.519 193.453 113.87 192.033 117.014C191.992 117.105 191.988 117.189 191.998 117.268C191.091 118.222 190.148 119.124 189.18 119.988C190.201 115.935 190.266 110.978 188.913 107.048C188.893 106.99 188.807 107.013 188.806 107.07C188.769 109.314 189.181 111.561 189.129 113.82C189.072 116.262 188.703 118.606 187.936 120.888C187.914 120.956 187.91 121.018 187.912 121.079C186.363 122.373 184.745 123.569 183.076 124.696C184.708 119.716 184.689 113.363 183.218 108.365C183.193 108.283 183.078 108.281 183.072 108.373C182.901 111.195 183.427 114.079 183.364 116.92C183.296 119.944 182.773 122.892 181.64 125.64C180.69 126.248 179.728 126.843 178.748 127.412C178.526 127.542 178.301 127.668 178.078 127.796C179.353 122.516 179.346 116.518 178.477 111.166C178.466 111.097 178.37 111.107 178.364 111.173C177.936 117.151 178.361 122.815 176.657 128.604C174.49 129.821 172.292 131.008 170.112 132.228C172.169 126.422 173.275 119.438 172.038 113.305C172.027 113.252 171.948 113.254 171.948 113.31C171.923 120.296 171.45 126.448 168.935 132.892C167.239 133.854 165.564 134.852 163.923 135.9C164.357 133.571 164.678 131.216 164.834 128.841C165.02 126.034 165.291 122.861 164.595 120.088C164.588 120.06 164.555 120.064 164.551 120.091C164.124 122.767 164.345 125.631 164.126 128.35C163.905 131.098 163.479 133.799 163.002 136.497C161.286 137.628 159.626 138.841 158.035 140.149C158.36 138.767 158.437 137.266 158.497 135.907C158.602 133.579 158.578 131.185 157.992 128.907C157.977 128.849 157.894 128.849 157.891 128.914C157.731 132.841 158.375 137.726 156.672 141.332C155.304 142.548 153.984 143.832 152.768 145.26C152.33 145.768 152.99 146.595 153.47 146.095Z" fill="#3ADED3"/>
<path d="M53.0804 48.7728C42.1398 48.9245 32.4334 55.9041 31.0796 58.8543C32.7112 61.501 37.62 70.4349 50.3664 72.7077C63.1128 74.9804 73.2851 68.7958 77.3925 65.5005C77.8702 65.1169 78.7164 64.5003 78.0839 62.8719C77.1981 60.5928 71.1791 48.5217 53.0804 48.7728Z" fill="#00968F"/>
<path d="M45.1284 59.6494C39.695 60.4679 34.9775 61.0876 31.0859 58.8427C31.0848 58.8459 31.0816 58.8501 31.0806 58.8533C32.7122 61.5001 37.621 70.434 50.3674 72.7067C63.1138 74.9794 73.2861 68.7949 77.3935 65.4995C77.7674 65.1993 78.3626 64.7548 78.3039 63.7985C75.1752 63.9758 68.8677 63.6788 64.8896 62.6626C60.3602 61.5075 50.7574 58.8021 45.1284 59.6494Z" fill="#007184"/>
<path d="M77.5416 63.542C77.1591 63.5633 76.7787 63.574 76.3994 63.5815C75.8544 63.2107 75.6909 62.5653 75.4377 61.9798C75.1513 61.3195 74.7357 60.7681 74.382 60.1515C73.7922 59.1247 73.6971 57.9141 72.8775 57.0422C72.8604 57.024 72.8241 57.0486 72.839 57.0721C73.3242 57.8126 73.4075 58.6919 73.6821 59.5286C73.8926 60.1708 74.2452 60.7179 74.5508 61.3077C74.9344 62.0492 75.0904 62.9062 75.52 63.5836C74.4044 63.5762 73.2985 63.5195 72.2022 63.4137C69.8429 59.7915 67.9933 55.9576 65.962 52.127C65.9513 52.1077 65.9193 52.1205 65.9257 52.143C66.9493 56.1425 68.9603 59.9122 71.1914 63.3026C69.7414 63.1295 68.3042 62.8934 66.8735 62.6145C64.3977 59.1974 63.7085 54.7598 61.2403 51.3395C61.2168 51.3074 61.1622 51.3501 61.1825 51.3843C63.2191 54.8282 63.7844 59.0221 65.8659 62.4168C64.6905 62.1743 63.5183 61.9114 62.3451 61.6432C61.3268 59.6632 60.3299 57.6672 59.396 55.6402C58.6758 54.0781 58.1159 52.3161 56.9651 51.0456C56.9213 50.9975 56.8347 51.0616 56.87 51.1204C57.8199 52.7093 58.3446 54.5867 59.0744 56.2995C59.817 58.0434 60.6194 59.7508 61.4593 61.4412C60.4592 61.2115 59.459 60.9807 58.4546 60.7606C58.4503 60.7553 58.4503 60.7488 58.445 60.7435C55.8805 57.7634 54.8751 53.7725 52.5521 50.6225C52.5179 50.5755 52.442 50.6364 52.4688 50.6866C54.2094 53.9146 55.279 57.5593 57.401 60.5341C56.7963 60.4059 56.1915 60.2819 55.5835 60.1654C55.2085 60.0938 54.8313 60.0319 54.4541 59.9688C51.7988 57.3969 49.0281 55.1177 47.7491 51.4399C47.7331 51.3929 47.6636 51.41 47.6721 51.4623C48.2673 54.934 50.8692 57.4119 53.2082 59.7765C51.7507 59.5692 50.2826 59.4228 48.8059 59.3747C46.7276 57.1779 44.9271 54.685 43.132 52.2381C43.0957 52.1889 43.0273 52.252 43.0487 52.3022C43.6823 53.7864 44.675 55.075 45.6281 56.3401C46.3611 57.3136 47.0567 58.5103 47.9724 59.3544C47.2608 59.3491 46.5481 59.3566 45.8322 59.4014C45.3129 59.4346 44.8043 59.4891 44.2903 59.5339C44.2657 59.4421 44.208 59.3598 44.1033 59.316C43.0113 58.8608 41.9438 57.8542 41.0794 57.0603C40.2053 56.2568 39.5642 55.3144 38.8964 54.327C38.8398 54.2437 38.7212 54.3131 38.7575 54.4093C39.2308 55.6541 40.0739 56.7515 40.9864 57.6704C41.6585 58.3468 42.4161 59.1023 43.256 59.6237C41.931 59.7509 40.6135 59.8844 39.3014 59.9763C37.924 59.4485 36.8662 58.5627 35.8629 57.4792C35.8501 57.4653 35.8297 57.4824 35.8372 57.4984C36.3202 58.6043 37.1942 59.4538 38.2147 60.0351C36.5104 60.112 34.804 60.081 33.0719 59.7915C32.9651 59.7733 32.9116 59.9293 33.0174 59.9635C35.0583 60.6164 37.1408 60.6538 39.2436 60.5149C39.2597 60.5213 39.2757 60.5287 39.2917 60.5352C39.3751 60.5661 39.4424 60.5416 39.4958 60.4977C40.8678 60.3973 42.2494 60.2381 43.6321 60.1131C41.8402 61.0812 40.0579 62.1208 38.5438 63.5313C38.5128 63.5601 38.5481 63.6093 38.5833 63.5879C40.6082 62.3698 42.5411 61.0406 44.7156 60.1291C44.7786 60.1024 44.8192 60.0629 44.8513 60.0191C45.7488 59.9646 46.64 59.9528 47.5268 59.971C45.1291 61.5225 42.7879 63.9704 41.635 66.5659C41.6179 66.6043 41.6714 66.6332 41.6981 66.6054C42.7623 65.5006 43.6022 64.1842 44.6792 63.0804C45.845 61.8858 47.1197 60.8856 48.5665 60.1013C48.6092 60.0778 48.6413 60.049 48.6669 60.0169C50.0443 60.0906 51.4099 60.2466 52.769 60.4603C49.6329 62.1903 46.6849 65.3755 45.0928 68.5597C45.0661 68.6121 45.1237 68.6666 45.1697 68.6228C46.5695 67.2914 47.6487 65.6042 49.0046 64.213C50.4471 62.7331 52.0809 61.5022 53.9273 60.657C54.6859 60.7948 55.4435 60.9455 56.199 61.1164C56.3699 61.1549 56.5409 61.1966 56.7129 61.2372C53.6174 63.2834 50.8264 66.2859 48.7695 69.3665C48.7428 69.406 48.7952 69.4466 48.8283 69.4156C51.8266 66.6257 54.2521 63.5954 57.7996 61.4947C59.4505 61.8954 61.1014 62.3249 62.7597 62.7299C59.0274 64.6757 55.2223 67.6526 52.9849 71.2962C52.9656 71.3272 53.0062 71.3625 53.0319 71.3358C56.2962 67.8535 59.3992 64.9984 63.6573 62.9468C64.9534 63.2545 66.2559 63.5356 67.5638 63.776C66.2634 64.7376 65.0057 65.7666 63.8218 66.8811C62.422 68.1986 60.8086 69.6582 59.8651 71.3689C59.8554 71.386 59.8747 71.3999 59.8886 71.3881C61.3482 70.248 62.5706 68.7136 63.9468 67.4549C65.337 66.1844 66.8072 65.0315 68.3021 63.9053C69.6869 64.1393 71.0824 64.3049 72.4875 64.3925C71.6819 64.9321 70.9446 65.647 70.281 66.2988C69.1441 67.4143 68.0424 68.6217 67.2742 70.0343C67.2549 70.0706 67.2966 70.1091 67.3276 70.0781C69.236 68.1879 71.1893 65.4461 73.7195 64.4352C74.9707 64.4641 76.2284 64.4363 77.501 64.2889C77.9594 64.2365 78.0139 63.5153 77.5416 63.542Z" fill="#3ADED3"/>
<path d="M186.782 166.416C197.707 165.802 207.109 158.416 208.337 155.412C206.594 152.835 201.311 144.118 188.48 142.389C175.65 140.659 165.748 147.268 161.784 150.735C161.323 151.139 160.504 151.79 161.205 153.39C162.185 155.628 168.712 167.433 186.782 166.416Z" fill="#00968F"/>
<path d="M194.268 155.212C199.662 154.164 204.348 153.345 208.332 155.422C208.333 155.419 208.336 155.415 208.337 155.41C206.594 152.834 201.311 144.117 188.481 142.387C175.65 140.657 165.748 147.267 161.785 150.733C161.423 151.049 160.848 151.519 160.947 152.472C164.066 152.162 170.38 152.192 174.397 153.038C178.97 154.001 188.679 156.296 194.268 155.212Z" fill="#007184"/>
<path d="M161.717 152.696C162.099 152.659 162.478 152.632 162.857 152.607C163.418 152.955 163.609 153.593 163.886 154.166C164.201 154.814 164.639 155.347 165.019 155.948C165.653 156.949 165.798 158.154 166.654 158.99C166.672 159.008 166.707 158.981 166.691 158.959C166.175 158.24 166.054 157.364 165.745 156.541C165.507 155.908 165.131 155.377 164.801 154.8C164.386 154.075 164.194 153.226 163.737 152.567C164.852 152.527 165.959 152.537 167.059 152.596C169.57 156.114 171.58 159.866 173.771 163.608C173.782 163.627 173.814 163.612 173.808 163.591C172.615 159.638 170.446 155.957 168.074 152.665C169.53 152.776 170.976 152.951 172.417 153.169C175.035 156.479 175.913 160.883 178.523 164.195C178.548 164.226 178.6 164.182 178.579 164.148C176.398 160.793 175.655 156.628 173.432 153.324C174.617 153.517 175.799 153.729 176.982 153.948C178.084 155.883 179.164 157.836 180.183 159.821C180.969 161.351 181.602 163.087 182.807 164.308C182.852 164.354 182.937 164.286 182.899 164.23C181.882 162.682 181.279 160.83 180.476 159.149C179.66 157.438 178.787 155.766 177.875 154.113C178.884 154.3 179.894 154.488 180.906 154.666C180.91 154.672 180.911 154.678 180.917 154.684C183.605 157.552 184.779 161.497 187.232 164.546C187.269 164.591 187.341 164.527 187.313 164.479C185.437 161.328 184.214 157.731 181.968 154.848C182.577 154.95 183.187 155.049 183.799 155.14C184.178 155.195 184.557 155.241 184.936 155.288C187.698 157.746 190.563 159.904 191.996 163.526C192.014 163.571 192.083 163.552 192.072 163.5C191.33 160.057 188.625 157.691 186.189 155.427C187.654 155.573 189.126 155.657 190.604 155.642C192.774 157.749 194.678 160.163 196.576 162.532C196.614 162.579 196.679 162.514 196.656 162.464C195.96 161.008 194.913 159.763 193.908 158.539C193.134 157.597 192.388 156.432 191.437 155.627C192.149 155.602 192.86 155.565 193.573 155.49C194.09 155.436 194.597 155.359 195.109 155.293C195.137 155.383 195.198 155.464 195.304 155.503C196.414 155.911 197.523 156.872 198.421 157.628C199.328 158.393 200.009 159.309 200.718 160.267C200.778 160.348 200.895 160.273 200.854 160.178C200.328 158.954 199.439 157.893 198.488 157.015C197.788 156.369 196.999 155.645 196.138 155.16C197.456 154.976 198.767 154.787 200.074 154.64C201.473 155.109 202.567 155.949 203.615 156.988C203.628 157.001 203.647 156.983 203.64 156.967C203.11 155.883 202.2 155.071 201.156 154.533C202.856 154.383 204.562 154.343 206.305 154.558C206.411 154.571 206.459 154.413 206.352 154.384C204.285 153.819 202.202 153.869 200.107 154.098C200.09 154.093 200.075 154.085 200.058 154.08C199.974 154.053 199.907 154.08 199.855 154.126C198.488 154.284 197.115 154.502 195.738 154.685C197.487 153.642 199.223 152.527 200.677 151.055C200.707 151.025 200.669 150.977 200.634 150.999C198.663 152.303 196.788 153.712 194.653 154.716C194.591 154.744 194.553 154.786 194.523 154.831C193.629 154.924 192.739 154.973 191.852 154.992C194.181 153.34 196.416 150.795 197.459 148.154C197.475 148.114 197.42 148.089 197.394 148.117C196.378 149.266 195.595 150.617 194.565 151.765C193.45 153.009 192.219 154.062 190.807 154.907C190.765 154.932 190.734 154.962 190.709 154.996C189.331 154.981 187.959 154.881 186.591 154.726C189.651 152.865 192.462 149.558 193.917 146.308C193.942 146.255 193.882 146.203 193.837 146.249C192.495 147.639 191.488 149.37 190.192 150.817C188.814 152.356 187.234 153.656 185.425 154.579C184.661 154.473 183.898 154.355 183.136 154.215C182.963 154.183 182.791 154.149 182.618 154.117C185.623 151.942 188.284 148.824 190.208 145.658C190.233 145.617 190.18 145.58 190.147 145.612C187.27 148.527 184.976 151.656 181.52 153.906C179.854 153.575 178.185 153.215 176.512 152.881C180.159 150.779 183.834 147.643 185.915 143.909C185.933 143.876 185.89 143.843 185.866 143.871C182.751 147.488 179.773 150.474 175.606 152.702C174.298 152.449 172.985 152.224 171.667 152.04C172.926 151.024 174.139 149.942 175.275 148.779C176.618 147.404 178.167 145.877 179.038 144.128C179.047 144.109 179.027 144.098 179.013 144.109C177.604 145.31 176.447 146.895 175.125 148.21C173.791 149.539 172.369 150.752 170.924 151.942C169.529 151.768 168.13 151.661 166.722 151.633C167.504 151.06 168.211 150.314 168.846 149.635C169.934 148.472 170.985 147.219 171.692 145.775C171.71 145.738 171.666 145.702 171.636 145.734C169.809 147.703 167.975 150.525 165.489 151.641C164.238 151.666 162.982 151.746 161.717 151.947C161.271 152.02 161.246 152.742 161.717 152.696Z" fill="#3ADED3"/>
<path d="M46.9771 74.16C42.5865 77.3261 40.6343 82.9102 40.9228 84.4895C42.3354 85.0985 46.8595 87.3253 52.6701 84.6294C58.4797 81.9325 60.8476 76.5396 61.5763 74.0382C61.6607 73.7476 61.8284 73.2572 61.1104 72.7774C60.1049 72.1053 54.2398 68.9222 46.9771 74.16Z" fill="#00AC92"/>
<path d="M46.8415 80.825C44.8722 82.6981 43.1369 84.2892 40.9219 84.4836C40.9219 84.4858 40.9219 84.4879 40.923 84.49C42.3355 85.0991 46.8596 87.3259 52.6703 84.63C58.4798 81.9331 60.8477 76.5402 61.5764 74.0388C61.6427 73.8112 61.7581 73.4618 61.4621 73.0911C60.245 74.0506 57.6047 75.7207 55.7038 76.4377C53.5411 77.2551 48.8824 78.8835 46.8415 80.825Z" fill="#00968F"/>
<path d="M61.0815 73.2026C60.9329 73.3202 60.7812 73.4324 60.6295 73.5424C60.3036 73.5467 60.0546 73.3319 59.7854 73.1663C59.4819 72.9793 59.1571 72.8746 58.8386 72.725C58.3076 72.4761 57.9261 72.0134 57.347 71.8926C57.3342 71.8905 57.3267 71.9108 57.3395 71.9151C57.7466 72.0775 58.0298 72.4098 58.3781 72.6716C58.6452 72.8725 58.9434 72.9932 59.2351 73.146C59.6005 73.3373 59.9072 73.6408 60.2737 73.7935C59.8196 74.1077 59.3547 74.3983 58.8814 74.6665C56.8971 73.8683 55.0603 72.8394 53.1487 71.8638C53.1391 71.8585 53.1295 71.8734 53.1381 71.8809C54.6874 73.2112 56.5723 74.1675 58.439 74.908C57.8022 75.2499 57.1525 75.562 56.4943 75.8547C54.5218 75.1719 52.9831 73.5702 51.0117 72.8842C50.9935 72.8778 50.9829 72.9109 51.001 72.9184C52.8036 73.7358 54.2237 75.2745 56.0295 76.0599C55.4845 76.2949 54.9343 76.5215 54.3829 76.7459C53.4084 76.233 52.4382 75.7062 51.484 75.1506C50.7489 74.7221 50.0223 74.1665 49.1952 73.9784C49.1643 73.9709 49.1472 74.0222 49.1771 74.0361C50.0127 74.4101 50.7585 75.0223 51.5407 75.5085C52.3367 76.0043 53.1466 76.4691 53.9662 76.9147C53.496 77.1049 53.0248 77.2962 52.5557 77.4917C52.5525 77.4906 52.5504 77.4885 52.5472 77.4874C50.6623 77.0077 49.1215 75.6763 47.2868 75.0587C47.2601 75.0501 47.2462 75.0961 47.2719 75.1089C48.8928 75.9231 50.361 77.0963 52.0653 77.7001C51.7843 77.8197 51.5032 77.9405 51.2243 78.0666C51.0523 78.1435 50.8814 78.2258 50.7104 78.307C48.9046 78.0185 47.1351 77.8817 45.5729 76.7533C45.5526 76.7384 45.5291 76.7651 45.5484 76.7843C46.775 78.0228 48.5327 78.2877 50.1516 78.5827C49.5019 78.9118 48.8661 79.2697 48.2539 79.6693C46.7878 79.3691 45.3507 78.8701 43.9296 78.3882C43.9007 78.3786 43.8911 78.4234 43.9146 78.4373C44.5931 78.8594 45.3603 79.0998 46.1062 79.3413C46.6799 79.5272 47.3008 79.8147 47.912 79.8969C47.6224 80.0967 47.3349 80.3019 47.0582 80.5231C46.8573 80.6834 46.666 80.8501 46.4705 81.0146C46.4342 80.9847 46.3882 80.9676 46.3327 80.9793C45.761 81.1044 45.0429 80.9996 44.467 80.9238C43.8847 80.8468 43.3568 80.646 42.8065 80.4355C42.7595 80.4173 42.7317 80.4804 42.7734 80.5081C43.3184 80.8789 43.9712 81.083 44.6017 81.1963C45.0654 81.2796 45.5868 81.3704 46.0751 81.3437C45.574 81.7711 45.0782 82.1996 44.5728 82.6088C43.8655 82.7862 43.1848 82.7274 42.471 82.5725C42.4625 82.5704 42.4593 82.5832 42.4668 82.5875C42.9764 82.8984 43.5716 82.9946 44.1507 82.9411C43.4818 83.4562 42.782 83.9274 41.9977 84.3014C41.9496 84.3238 41.972 84.4029 42.0244 84.3869C43.0363 84.0717 43.8911 83.4968 44.7042 82.8428C44.7128 82.8407 44.7213 82.8396 44.7288 82.8375C44.7716 82.8257 44.7919 82.798 44.8015 82.7648C45.3293 82.3353 45.8433 81.878 46.369 81.4356C45.9181 82.3364 45.4907 83.2638 45.277 84.264C45.2727 84.2843 45.3016 84.295 45.309 84.2757C45.7835 83.2072 46.1895 82.1205 46.8124 81.1332C46.8306 81.1044 46.8359 81.0766 46.8359 81.0499C47.1843 80.7731 47.5422 80.5156 47.9066 80.2709C47.3756 81.5799 47.1212 83.2361 47.3905 84.6155C47.3948 84.6358 47.4247 84.6326 47.4279 84.6134C47.5455 83.8633 47.5123 83.0918 47.6352 82.3385C47.7688 81.5232 48.0017 80.756 48.365 80.0284C48.3757 80.007 48.3799 79.9856 48.3821 79.9653C48.9612 79.6042 49.5585 79.2804 50.1708 78.9801C49.3908 80.5712 49.1001 82.6986 49.3587 84.4414C49.363 84.4702 49.4015 84.4755 49.4079 84.4456C49.597 83.5085 49.5564 82.5191 49.7103 81.5702C49.8748 80.5605 50.1879 79.5988 50.6954 78.7322C51.0416 78.573 51.3921 78.4192 51.7469 78.2739C51.827 78.2407 51.9082 78.2097 51.9894 78.1766C51.3162 79.8841 51.0374 81.8929 51.078 83.7255C51.078 83.749 51.1111 83.75 51.1154 83.7286C51.5385 81.7476 51.6614 79.8307 52.5023 77.9725C53.2845 77.6669 54.0762 77.372 54.8627 77.0654C53.9021 78.9128 53.2054 81.1995 53.3326 83.3109C53.3336 83.329 53.3603 83.3322 53.3625 83.313C53.6969 80.9751 54.1435 78.9374 55.2869 76.8976C55.8991 76.655 56.5071 76.3986 57.1055 76.1251C56.8512 76.8837 56.6343 77.6573 56.4708 78.4459C56.2774 79.3766 56.038 80.4269 56.1406 81.3875C56.1417 81.3971 56.1535 81.3971 56.1556 81.3886C56.4238 80.5124 56.4836 79.5433 56.6845 78.6425C56.8875 77.7332 57.1557 76.8484 57.4421 75.968C58.0693 75.6699 58.6816 75.3408 59.2757 74.9775C59.1026 75.4252 59.0064 75.9242 58.922 76.3762C58.7777 77.1508 58.6741 77.9533 58.7638 78.7429C58.766 78.7632 58.7938 78.7664 58.798 78.7461C59.0352 77.4383 59.0481 75.7735 59.7864 74.6452C60.3014 74.3022 60.8037 73.9335 61.277 73.5125C61.448 73.3651 61.2652 73.0573 61.0815 73.2026Z" fill="#3ADED3"/>
<path d="M28.8719 28.0757C23.7633 26.287 18.067 27.8813 16.9365 29.0214C17.2453 30.5291 18.0082 35.5137 23.5442 38.7353C29.0803 41.9569 34.8578 40.8114 37.326 39.978C37.6135 39.8807 38.1114 39.7386 38.0943 38.8742C38.0687 37.6657 37.3229 31.0345 28.8719 28.0757Z" fill="#00AC92"/>
<path d="M23.3284 31.7783C20.6646 31.2355 18.3683 30.7215 16.9408 29.0172L16.9365 29.0215C17.2453 30.5292 18.0082 35.5138 23.5442 38.7354C29.0803 41.957 34.8578 40.8115 37.326 39.9781C37.5504 39.9022 37.903 39.7964 38.0377 39.3423C36.5535 38.8935 33.6738 37.6829 31.9973 36.5353C30.09 35.2296 26.0884 32.3414 23.3284 31.7783Z" fill="#00968F"/>
<path d="M37.7281 39.0945C37.5464 39.04 37.3679 38.9801 37.1906 38.9192C37.0004 38.6542 37.0346 38.3262 37.0153 38.0121C36.995 37.6562 36.8957 37.3303 36.8348 36.9831C36.7354 36.4061 36.8967 35.8269 36.6638 35.2831C36.6585 35.2713 36.6382 35.2766 36.6414 35.2905C36.7407 35.7169 36.6307 36.14 36.6157 36.5749C36.604 36.9093 36.6755 37.2224 36.7172 37.5494C36.7696 37.9586 36.6958 38.3839 36.7803 38.7718C36.2631 38.5784 35.7588 38.3647 35.2672 38.1296C34.7864 36.046 34.578 33.9506 34.2853 31.8253C34.2842 31.8146 34.2671 31.8146 34.266 31.8264C34.0619 33.8587 34.3558 35.952 34.8163 37.9063C34.172 37.5793 33.5448 37.2256 32.9272 36.8527C32.3577 34.8439 32.7915 32.6652 32.2262 30.6574C32.2209 30.6382 32.1878 30.6489 32.192 30.6681C32.5532 32.615 32.1033 34.659 32.4934 36.5899C31.9879 36.2778 31.4879 35.9562 30.9889 35.6325C30.8521 34.5394 30.7282 33.4431 30.6384 32.3425C30.569 31.4941 30.6085 30.5805 30.2901 29.7951C30.2783 29.7652 30.227 29.7802 30.2334 29.8133C30.4044 30.713 30.3296 31.6747 30.3777 32.5947C30.4269 33.5307 30.5091 34.4614 30.6128 35.3888C30.1875 35.1121 29.7612 34.8353 29.3327 34.5618C29.3316 34.5586 29.3327 34.5554 29.3316 34.5522C28.6467 32.7314 28.8572 30.7066 28.3133 28.8484C28.3048 28.8206 28.2599 28.8367 28.2642 28.8645C28.5238 30.6596 28.402 32.5348 28.8828 34.2776C28.6232 34.1152 28.3635 33.9549 28.1007 33.7978C27.9383 33.7006 27.7737 33.6076 27.6092 33.5147C26.812 31.8681 25.9123 30.339 25.9433 28.4125C25.9433 28.3879 25.9091 28.3836 25.9038 28.4093C25.5907 30.1232 26.3782 31.7163 27.0631 33.2133C26.4209 32.8693 25.7638 32.5519 25.0864 32.2784C24.4933 30.9042 24.0809 29.4404 23.662 27.999C23.6535 27.9701 23.6107 27.9872 23.6129 28.015C23.6556 28.8121 23.8971 29.5793 24.1247 30.3294C24.2999 30.9064 24.4196 31.5806 24.7017 32.1277C24.3715 32.0038 24.0392 31.8862 23.6994 31.7858C23.4526 31.7131 23.2068 31.6522 22.96 31.5849C22.9643 31.5379 22.9515 31.4898 22.9098 31.4513C22.4802 31.0549 22.1544 30.4053 21.8883 29.8892C21.618 29.3677 21.4812 28.8206 21.338 28.2479C21.3262 28.1998 21.2589 28.2116 21.2589 28.2629C21.2675 28.9221 21.4726 29.575 21.7408 30.1563C21.9385 30.5848 22.1618 31.0645 22.4632 31.4492C21.8263 31.2836 21.1905 31.1212 20.5655 30.9417C20.0152 30.4619 19.6743 29.871 19.3922 29.1968C19.389 29.1882 19.3762 29.1935 19.3773 29.2021C19.4147 29.7973 19.6754 30.3411 20.0515 30.7846C19.2469 30.5313 18.4594 30.2268 17.7039 29.7973C17.6569 29.7706 17.6056 29.8347 17.6495 29.8678C18.4872 30.5174 19.4478 30.8893 20.449 31.1821C20.4554 31.1874 20.4618 31.1938 20.4682 31.1992C20.5013 31.228 20.5366 31.228 20.5697 31.2163C21.2247 31.4033 21.8926 31.5635 22.5572 31.7409C21.5603 31.8862 20.5558 32.0668 19.6123 32.4643C19.5931 32.4728 19.6016 32.5017 19.6209 32.4974C20.7685 32.2752 21.8926 31.9856 23.0583 31.9322C23.0925 31.9311 23.1181 31.9194 23.1395 31.9044C23.5659 32.0315 23.9826 32.1769 24.3908 32.3371C23.0135 32.6513 21.51 33.3907 20.5323 34.4005C20.5174 34.4154 20.5377 34.4378 20.5548 34.4293C21.2365 34.097 21.8509 33.6279 22.539 33.2977C23.2838 32.9409 24.0456 32.693 24.8513 32.5744C24.8748 32.5712 24.8951 32.5626 24.9122 32.5519C25.5394 32.8201 26.1474 33.1246 26.7437 33.4548C24.9924 33.7262 23.0818 34.705 21.8007 35.9135C21.7793 35.9338 21.7964 35.968 21.8253 35.9562C22.7025 35.5758 23.49 34.9753 24.3566 34.5586C25.2776 34.1162 26.2468 33.8213 27.248 33.7423C27.5771 33.9357 27.903 34.1333 28.2246 34.3417C28.2973 34.3887 28.3699 34.4368 28.4426 34.4849C26.656 34.9101 24.8502 35.8312 23.3703 36.9125C23.3511 36.9264 23.3693 36.9542 23.3896 36.9457C25.2563 36.1592 26.8986 35.1623 28.9031 34.7894C29.6019 35.2563 30.2965 35.7361 30.9974 36.2063C28.933 36.4755 26.6592 37.2128 24.9998 38.525C24.9859 38.5367 24.9988 38.5602 25.0148 38.5517C27.123 37.4885 29.0506 36.6892 31.3768 36.4595C31.9271 36.8228 32.4837 37.1743 33.0511 37.5088C32.2829 37.7353 31.5242 37.9992 30.7848 38.3155C29.9107 38.6895 28.9127 39.0934 28.184 39.7281C28.1765 39.7345 28.1829 39.7441 28.1915 39.7409C29.0634 39.4588 29.8926 38.9534 30.7453 38.603C31.6065 38.2482 32.4859 37.9629 33.3727 37.6936C33.9765 38.0377 34.5962 38.3518 35.2341 38.6307C34.7682 38.744 34.3034 38.9513 33.8846 39.1415C33.1665 39.4663 32.4495 39.8403 31.8533 40.366C31.8383 40.3799 31.8512 40.4045 31.8704 40.3959C33.0779 39.8424 34.4519 38.9 35.7993 38.8605C36.3753 39.087 36.9651 39.2879 37.5806 39.4353C37.8039 39.4877 37.9524 39.1629 37.7281 39.0945Z" fill="#3ADED3"/>
<path d="M213.813 144.159C219.069 142.866 222.969 138.419 223.293 136.846C222.211 135.752 218.849 131.994 212.452 132.32C206.054 132.646 201.841 136.762 200.229 138.808C200.041 139.046 199.702 139.437 200.189 140.152C200.871 141.151 205.118 146.298 213.813 144.159Z" fill="#00AC92"/>
<path d="M216.433 138.029C218.961 137.029 221.166 136.204 223.292 136.851C223.292 136.849 223.293 136.847 223.294 136.845C222.213 135.751 218.85 131.993 212.453 132.319C206.056 132.645 201.843 136.76 200.23 138.807C200.084 138.993 199.847 139.274 199.981 139.729C201.47 139.294 204.543 138.734 206.574 138.78C208.884 138.832 213.814 139.065 216.433 138.029Z" fill="#00968F"/>
<path d="M200.376 139.768C200.558 139.715 200.74 139.668 200.922 139.622C201.227 139.739 201.377 140.032 201.564 140.286C201.776 140.573 202.038 140.792 202.277 141.049C202.676 141.478 202.857 142.052 203.349 142.38C203.359 142.387 203.373 142.37 203.364 142.361C203.047 142.059 202.909 141.644 202.683 141.272C202.51 140.985 202.279 140.762 202.065 140.511C201.797 140.197 201.627 139.8 201.344 139.521C201.883 139.401 202.422 139.304 202.962 139.233C204.503 140.716 205.822 142.357 207.229 143.977C207.236 143.986 207.25 143.976 207.245 143.965C206.305 142.152 204.915 140.559 203.462 139.174C204.18 139.096 204.899 139.049 205.62 139.023C207.194 140.394 208.021 142.456 209.593 143.83C209.608 143.842 209.63 143.816 209.616 143.802C208.25 142.369 207.51 140.41 206.128 139.006C206.722 138.992 207.316 138.988 207.911 138.986C208.623 139.827 209.326 140.677 210.002 141.55C210.524 142.224 210.99 143.01 211.686 143.494C211.713 143.512 211.747 143.472 211.724 143.447C211.089 142.787 210.626 141.941 210.084 141.197C209.531 140.439 208.954 139.705 208.36 138.985C208.868 138.984 209.376 138.984 209.885 138.978C209.888 138.981 209.888 138.984 209.891 138.986C211.46 140.137 212.39 141.948 213.861 143.207C213.883 143.225 213.912 143.187 213.894 143.166C212.695 141.805 211.773 140.167 210.418 138.97C210.724 138.965 211.029 138.957 211.335 138.945C211.524 138.938 211.712 138.926 211.901 138.914C213.468 139.858 215.058 140.646 216.084 142.277C216.097 142.298 216.129 142.282 216.119 142.258C215.444 140.651 213.914 139.747 212.523 138.867C213.249 138.804 213.972 138.711 214.69 138.57C215.937 139.397 217.082 140.399 218.222 141.377C218.244 141.397 218.271 141.359 218.255 141.337C217.783 140.692 217.162 140.182 216.561 139.678C216.099 139.29 215.63 138.791 215.095 138.487C215.439 138.41 215.782 138.328 216.122 138.226C216.369 138.152 216.607 138.069 216.851 137.99C216.873 138.032 216.909 138.065 216.965 138.074C217.542 138.172 218.169 138.538 218.675 138.825C219.185 139.114 219.6 139.497 220.032 139.898C220.068 139.933 220.118 139.886 220.089 139.843C219.723 139.296 219.194 138.861 218.651 138.52C218.251 138.269 217.803 137.989 217.339 137.832C217.963 137.623 218.584 137.411 219.206 137.221C219.928 137.321 220.537 137.63 221.142 138.04C221.149 138.046 221.157 138.035 221.151 138.027C220.796 137.549 220.279 137.237 219.722 137.07C220.535 136.842 221.361 136.667 222.227 136.614C222.281 136.611 222.289 136.529 222.234 136.525C221.177 136.439 220.169 136.652 219.171 136.955C219.163 136.954 219.154 136.951 219.146 136.95C219.102 136.945 219.072 136.964 219.052 136.991C218.402 137.193 217.753 137.424 217.101 137.637C217.856 136.971 218.6 136.271 219.171 135.422C219.183 135.405 219.161 135.385 219.146 135.399C218.306 136.212 217.523 137.068 216.576 137.751C216.548 137.77 216.533 137.795 216.524 137.819C216.097 137.945 215.669 138.051 215.239 138.141C216.221 137.126 217.077 135.684 217.343 134.305C217.348 134.284 217.318 134.277 217.308 134.293C216.918 134.944 216.66 135.672 216.264 136.324C215.836 137.031 215.332 137.655 214.722 138.194C214.704 138.21 214.692 138.228 214.683 138.247C214.01 138.364 213.335 138.441 212.656 138.49C213.974 137.306 215.039 135.443 215.452 133.73C215.458 133.702 215.425 133.682 215.408 133.707C214.882 134.506 214.55 135.438 214.052 136.26C213.522 137.134 212.871 137.91 212.076 138.523C211.695 138.541 211.314 138.553 210.93 138.555C210.843 138.555 210.756 138.554 210.669 138.554C211.933 137.223 212.943 135.464 213.591 133.75C213.599 133.728 213.569 133.715 213.556 133.733C212.423 135.412 211.591 137.143 210.116 138.551C209.276 138.542 208.432 138.519 207.588 138.508C209.17 137.154 210.671 135.295 211.343 133.29C211.349 133.273 211.325 133.26 211.316 133.276C210.131 135.318 208.953 137.04 207.13 138.504C206.471 138.5 205.812 138.509 205.155 138.54C205.674 137.931 206.165 137.296 206.612 136.627C207.14 135.836 207.754 134.952 208.018 134.022C208.021 134.012 208.01 134.008 208.004 134.015C207.428 134.728 207.01 135.603 206.487 136.364C205.959 137.131 205.379 137.85 204.784 138.561C204.09 138.602 203.399 138.678 202.712 138.793C203.04 138.443 203.316 138.016 203.564 137.628C203.987 136.963 204.383 136.258 204.596 135.492C204.601 135.473 204.576 135.459 204.565 135.477C203.855 136.601 203.221 138.14 202.114 138.909C201.508 139.035 200.904 139.188 200.308 139.402C200.097 139.48 200.151 139.833 200.376 139.768Z" fill="#3ADED3"/>
<path d="M220.997 125.936C223.637 123.939 224.751 120.499 224.553 119.537C223.681 119.184 220.884 117.887 217.371 119.617C213.858 121.347 212.487 124.678 212.075 126.216C212.027 126.396 211.932 126.697 212.378 126.98C213.001 127.377 216.631 129.24 220.997 125.936Z" fill="#00AC92"/>
<path d="M220.986 121.861C222.164 120.688 223.203 119.692 224.553 119.541C224.553 119.541 224.553 119.539 224.553 119.537C223.681 119.184 220.884 117.887 217.371 119.617C213.857 121.347 212.486 124.678 212.075 126.216C212.038 126.356 211.972 126.571 212.158 126.794C212.889 126.191 214.479 125.133 215.631 124.667C216.941 124.137 219.766 123.076 220.986 121.861Z" fill="#00968F"/>
<path d="M212.388 126.719C212.478 126.646 212.569 126.575 212.66 126.505C212.86 126.497 213.015 126.625 213.181 126.723C213.369 126.833 213.569 126.893 213.766 126.979C214.094 127.123 214.333 127.401 214.69 127.467C214.697 127.469 214.702 127.457 214.694 127.454C214.443 127.361 214.266 127.161 214.049 127.006C213.882 126.887 213.698 126.817 213.519 126.728C213.292 126.616 213.101 126.435 212.875 126.347C213.148 126.149 213.428 125.964 213.713 125.793C214.938 126.253 216.075 126.856 217.257 127.426C217.263 127.429 217.268 127.419 217.263 127.415C216.297 126.623 215.131 126.066 213.98 125.639C214.365 125.421 214.757 125.221 215.156 125.033C216.372 125.422 217.335 126.381 218.549 126.772C218.561 126.776 218.567 126.756 218.556 126.751C217.442 126.276 216.553 125.355 215.438 124.901C215.768 124.749 216.1 124.603 216.435 124.459C217.039 124.759 217.638 125.066 218.23 125.393C218.685 125.646 219.137 125.975 219.646 126.077C219.665 126.082 219.675 126.05 219.655 126.042C219.139 125.825 218.674 125.462 218.19 125.174C217.697 124.883 217.196 124.61 216.688 124.348C216.973 124.226 217.258 124.103 217.542 123.976C217.544 123.977 217.545 123.978 217.547 123.978C218.707 124.245 219.666 125.037 220.797 125.388C220.814 125.393 220.821 125.365 220.805 125.357C219.803 124.883 218.888 124.186 217.839 123.841C218.009 123.764 218.179 123.686 218.348 123.605C218.452 123.555 218.555 123.502 218.658 123.45C219.766 123.6 220.85 123.659 221.821 124.327C221.834 124.336 221.848 124.32 221.836 124.308C221.069 123.568 219.991 123.431 218.997 123.274C219.389 123.063 219.774 122.835 220.143 122.583C221.043 122.747 221.928 123.031 222.804 123.306C222.821 123.311 222.827 123.283 222.813 123.275C222.393 123.027 221.92 122.89 221.46 122.753C221.106 122.647 220.723 122.481 220.349 122.439C220.523 122.313 220.696 122.184 220.862 122.044C220.982 121.942 221.097 121.839 221.213 121.735C221.236 121.753 221.265 121.763 221.298 121.754C221.645 121.67 222.086 121.723 222.439 121.762C222.796 121.8 223.121 121.915 223.46 122.036C223.489 122.047 223.505 122.008 223.48 121.991C223.141 121.772 222.739 121.657 222.352 121.596C222.067 121.552 221.748 121.503 221.449 121.527C221.75 121.258 222.047 120.989 222.35 120.732C222.781 120.613 223.196 120.64 223.636 120.724C223.641 120.725 223.643 120.718 223.639 120.714C223.323 120.532 222.957 120.481 222.604 120.522C223.006 120.198 223.427 119.9 223.902 119.66C223.931 119.645 223.916 119.597 223.884 119.608C223.269 119.816 222.755 120.179 222.267 120.59C222.262 120.592 222.256 120.593 222.252 120.594C222.226 120.601 222.214 120.619 222.209 120.64C221.893 120.91 221.585 121.196 221.27 121.474C221.533 120.917 221.782 120.345 221.897 119.729C221.899 119.716 221.882 119.711 221.877 119.723C221.601 120.383 221.369 121.053 221.002 121.664C220.991 121.683 220.989 121.7 220.989 121.716C220.781 121.89 220.565 122.052 220.346 122.207C220.652 121.399 220.784 120.383 220.6 119.544C220.597 119.532 220.579 119.535 220.578 119.547C220.517 120.006 220.548 120.477 220.482 120.94C220.412 121.44 220.28 121.912 220.069 122.362C220.062 122.376 220.06 122.389 220.059 122.401C219.71 122.629 219.35 122.837 218.98 123.028C219.434 122.044 219.583 120.739 219.4 119.678C219.397 119.661 219.373 119.658 219.37 119.676C219.268 120.252 219.307 120.855 219.226 121.438C219.139 122.056 218.962 122.65 218.664 123.187C218.454 123.29 218.243 123.388 218.028 123.482C217.979 123.503 217.93 123.524 217.882 123.545C218.27 122.491 218.412 121.259 218.36 120.141C218.359 120.127 218.34 120.126 218.337 120.14C218.106 121.357 218.058 122.53 217.57 123.677C217.095 123.875 216.617 124.066 216.139 124.265C216.7 123.122 217.094 121.715 216.986 120.426C216.985 120.415 216.969 120.413 216.968 120.425C216.796 121.859 216.552 123.11 215.881 124.373C215.511 124.53 215.142 124.695 214.781 124.871C214.925 124.403 215.048 123.927 215.137 123.443C215.241 122.872 215.373 122.226 215.297 121.641C215.296 121.635 215.289 121.635 215.287 121.641C215.136 122.18 215.113 122.773 215.003 123.327C214.892 123.886 214.74 124.43 214.578 124.972C214.198 125.164 213.829 125.373 213.471 125.604C213.57 125.328 213.623 125.022 213.667 124.744C213.744 124.268 213.797 123.777 213.73 123.295C213.728 123.282 213.711 123.281 213.709 123.294C213.583 124.096 213.598 125.115 213.162 125.814C212.852 126.031 212.551 126.263 212.267 126.527C212.163 126.625 212.278 126.811 212.388 126.719Z" fill="#3ADED3"/>
<path d="M116.072 237.144C161.912 237.144 199.072 232.796 199.072 227.434C199.072 222.071 161.912 217.724 116.072 217.724C70.2319 217.724 33.0713 222.071 33.0713 227.434C33.0713 232.796 70.2319 237.144 116.072 237.144Z" fill="url(#paint0_radial_248_4234)"/>
<path d="M171.231 134.451C173.393 139.571 174.471 145.772 174.462 153.048C174.453 161.638 172.96 168.936 169.996 174.952C167.032 180.958 163.126 185.869 158.291 189.677C153.455 193.484 147.937 196.335 141.735 198.237C135.522 200.139 129.103 201.271 122.473 201.643L122.443 228.067L105.126 227.884L105.156 201.019C95.209 200.041 85.322 197.97 75.5194 194.814C65.7082 191.649 56.9164 187.698 49.1333 182.961L67.3495 145.808C71.2453 148.325 75.4275 150.692 79.895 152.927C83.6391 154.857 88.0029 156.765 92.9843 158.632C97.9562 160.508 103.042 161.838 108.234 162.612L108.256 143.397C103.778 142.189 99.31 140.759 94.8414 139.109C88.0638 136.705 82.2276 134.139 77.323 131.39C72.4185 128.642 68.3806 125.546 65.2178 122.088C62.0453 118.637 59.7106 114.716 58.1944 110.333C56.6867 105.95 55.9323 100.913 55.9387 95.2399C55.9473 87.3798 57.2583 80.4344 59.8613 74.4251C62.4642 68.4061 66.0074 63.2409 70.4824 58.9208C74.9573 54.6008 80.191 51.1623 86.1854 48.6053C92.1702 46.0484 98.5535 44.436 105.334 43.7778L105.359 21.7224L122.676 21.9051L122.652 44.1817C127.406 44.8174 132.017 45.7396 136.496 46.9481C140.964 48.1662 145.251 49.5553 149.367 51.1238C153.474 52.6935 157.333 54.3369 160.936 56.054C164.538 57.7615 167.856 59.3611 170.887 60.8527L152.664 95.818C149.501 93.7504 146.031 91.8227 142.286 90.0362C139.111 88.4003 135.547 86.8648 131.583 85.4415C127.61 84.0172 123.616 82.9198 119.576 82.1484L119.553 101.805C120.856 102.116 122.224 102.524 123.659 103.048C125.104 103.571 126.616 104.067 128.204 104.516C135.267 106.779 141.655 109.245 147.349 111.925C153.042 114.605 157.908 117.747 161.945 121.36C165.973 124.97 169.078 129.332 171.231 134.451ZM126.846 161.281C128.283 160.134 129.007 158.616 129.01 156.716C129.012 154.682 128.148 152.888 126.419 151.343C124.691 149.799 122.381 148.42 119.501 147.229L119.483 163.391C122.945 163.13 125.399 162.436 126.846 161.281ZM108.306 97.9699L108.324 81.3748C102.551 82.0436 99.6658 84.4895 99.6616 88.7123C99.6594 90.891 100.371 92.684 101.815 94.0805C103.259 95.4782 105.417 96.7775 108.306 97.9699Z" fill="url(#paint1_linear_248_4234)"/>
<path d="M37.8558 111.005L23.31 114.902L26.9826 118.574L19.021 126.536L22.4477 129.964L30.4093 122.001L33.9589 125.551L37.8558 111.005Z" fill="url(#paint2_linear_248_4234)"/>
<path d="M221.6 55.9543L198.714 62.0866L204.493 67.8652L191.966 80.3914L197.358 85.7843L209.884 73.2569L215.468 78.841L221.6 55.9543Z" fill="url(#paint3_linear_248_4234)"/>
<path d="M201.559 189.685L191.846 192.288L194.298 194.74L188.981 200.057L191.27 202.346L196.587 197.029L198.957 199.399L201.559 189.685Z" fill="url(#paint4_linear_248_4234)"/>
<path d="M203.47 43.5983L189.229 57.8395" stroke="#234930" stroke-width="0.5" stroke-miterlimit="10"/>
<path d="M24.9971 91.7468L10.7559 105.988" stroke="#234930" stroke-width="0.5" stroke-miterlimit="10"/>
<path d="M18.5777 57.4003L4.33643 71.6415" stroke="#234930" stroke-width="0.5" stroke-miterlimit="10"/>
<path d="M14.7256 97.8459L0.484375 112.087" stroke="#234930" stroke-width="0.5" stroke-miterlimit="10"/>
<path d="M193.688 49.3043L179.446 63.5456" stroke="#234930" stroke-width="0.5" stroke-miterlimit="10"/>
<path d="M214.553 191.824L200.312 206.066" stroke="#234930" stroke-width="0.5" stroke-miterlimit="10"/>
<path d="M39.3199 142.534L25.0786 156.775" stroke="#234930" stroke-width="0.5" stroke-miterlimit="10"/>
<path d="M48.3008 137.313L34.0596 151.554" stroke="#234930" stroke-width="0.5" stroke-miterlimit="10"/>
<path d="M208.495 203.103L194.254 217.344" stroke="#234930" stroke-width="0.5" stroke-miterlimit="10"/>
<path d="M182.132 88.7858L167.891 103.027" stroke="#234930" stroke-width="0.5" stroke-miterlimit="10"/>
<path d="M230.484 159.3L216.243 173.541" stroke="#234930" stroke-width="0.5" stroke-miterlimit="10"/>
<defs>
<radialGradient id="paint0_radial_248_4234" cx="0" cy="0" r="1" gradientUnits="userSpaceOnUse" gradientTransform="translate(116.072 227.429) scale(77.8208 8.25679)">
<stop stop-color="#AAAAA9"/>
<stop offset="1" stop-color="#AAAAA9" stop-opacity="0"/>
</radialGradient>
<linearGradient id="paint1_linear_248_4234" x1="82.2564" y1="214.257" x2="142.005" y2="50.8345" gradientUnits="userSpaceOnUse">
<stop stop-color="#234930"/>
<stop offset="1" stop-color="#83B645"/>
</linearGradient>
<linearGradient id="paint2_linear_248_4234" x1="23.9988" y1="128.695" x2="27.6227" y2="112.482" gradientUnits="userSpaceOnUse">
<stop stop-color="#234930"/>
<stop offset="1" stop-color="#83B645"/>
</linearGradient>
<linearGradient id="paint3_linear_248_4234" x1="199.798" y1="83.7879" x2="205.5" y2="58.2795" gradientUnits="userSpaceOnUse">
<stop stop-color="#234930"/>
<stop offset="1" stop-color="#83B645"/>
</linearGradient>
<linearGradient id="paint4_linear_248_4234" x1="192.306" y1="201.499" x2="194.726" y2="190.672" gradientUnits="userSpaceOnUse">
<stop stop-color="#234930"/>
<stop offset="1" stop-color="#83B645"/>
</linearGradient>
</defs>
</svg>
