<svg width="551" height="448" viewBox="0 0 551 448" fill="none" xmlns="http://www.w3.org/2000/svg">
<path d="M120.711 118.192L120.976 118.523C124.725 123.221 126.331 129.266 125.404 135.195C124.618 140.227 122.062 144.817 118.193 148.147L114.687 151.166C109.134 155.945 102.183 158.821 94.863 159.367L91.4908 159.619C83.7343 160.197 75.9615 158.738 68.9483 155.389L58.387 150.346C55.7522 149.089 53.0235 148.037 50.2258 147.197L23.0996 139.073L35.9382 128.652C38.669 126.436 41.602 124.479 44.6988 122.805L62.7093 113.075C66.9403 110.79 71.4571 109.072 76.1414 107.968L78.9372 107.309C87.6389 105.257 96.7568 105.831 105.13 108.955L110.968 111.134C114.799 112.563 118.166 115.003 120.711 118.192Z" fill="#83B645"/>
<path d="M292.377 49.3683L291.937 51.2654C290.952 55.5124 291.171 59.9485 292.567 64.0791C294.163 68.7949 297.216 72.8866 301.29 75.7671L302.043 76.299C306.659 79.562 312.202 81.2675 317.863 81.1657L324.478 81.0467C332.266 80.9064 339.893 78.8249 346.667 74.9933L350.425 72.8657C359.457 67.7544 367.094 60.5178 372.668 51.7887L376.208 46.2414C380.318 39.8053 385.389 34.0302 391.246 29.1147L404.027 18.3883L373.502 13.5211C366.525 12.4086 359.425 12.2779 352.411 13.1332L343.024 14.2776C334.499 15.3177 326.222 17.8431 318.574 21.739L315.101 23.5094C311.249 25.4711 307.697 27.9667 304.549 30.921L301.194 34.0704C296.802 38.1916 293.734 43.5143 292.377 49.3683Z" fill="#83B645"/>
<path d="M421.312 170.656L419.717 171.784C416.15 174.31 413.356 177.773 411.646 181.785C409.696 186.367 409.253 191.445 410.381 196.293L410.59 197.187C411.866 202.677 414.876 207.616 419.178 211.28L424.206 215.561C430.125 220.602 437.218 224.085 444.839 225.694L449.07 226.585C459.233 228.73 469.769 228.363 479.758 225.515L486.105 223.706C493.469 221.606 501.112 220.636 508.77 220.829L525.482 221.25L505.893 197.441C501.415 191.999 496.192 187.211 490.374 183.216L482.591 177.871C475.52 173.015 467.645 169.436 459.327 167.298L455.549 166.327C451.359 165.249 447.039 164.769 442.714 164.899L438.104 165.037C432.073 165.219 426.23 167.174 421.312 170.656Z" fill="#83B645"/>
<path d="M94.6792 295.954C94.6792 295.954 101.78 263.243 118.457 259.021C127.982 256.609 132.372 257.576 143.233 261.18C163.556 267.924 176.998 279.211 188.232 294.147L197 305.806C201.786 312.171 205.741 319.118 208.77 326.478L216.779 345.947C220.351 354.63 223.097 363.625 224.981 372.817L229.287 393.811C230.88 401.581 231.853 409.466 232.195 417.391L233.49 447.396L288.522 447.396L288.263 439.327C287.981 430.525 286.922 421.763 285.096 413.144L284.227 409.039C282.636 401.526 280.468 394.148 277.744 386.966L274.69 378.915C270.673 368.326 268.258 357.199 267.523 345.902C267.416 344.237 267.553 342.564 267.93 340.938L269.295 335.052C271.089 327.316 274.728 320.123 279.904 314.085C286.018 306.952 294.042 301.698 303.042 298.934L311.692 296.279C318.222 294.273 325.03 293.307 331.863 293.413C342.799 293.587 353.515 296.504 363.018 301.901L363.91 302.407C365.051 303.054 366.09 303.861 367.002 304.8L381.239 319.49L385.406 322.373L383.751 315.545C383.212 313.318 382.268 311.208 380.964 309.319L375.265 301.062C374.589 300.081 373.818 299.166 372.966 298.329L364.005 289.528L377.851 284.044L385.163 279.837C391.324 276.292 396.352 271.084 399.666 264.814L403.214 258.096L393.748 265.55L387.162 269.646C382.564 272.507 377.4 274.345 372.023 275.039L345.286 278.485L321.762 279.819L299.862 282.49L308.2 263.221L317.69 246.655C321.103 240.699 325.162 235.132 329.793 230.056L333.97 225.479C338.622 220.378 343.959 215.94 349.826 212.291C349.826 212.291 357.369 207.235 362.459 204.432C368.568 201.068 378.618 196.831 378.618 196.831C378.618 196.831 384.681 194.294 387.853 193.43L409.932 187.417L401.714 186.331C394.133 185.33 386.424 185.87 379.058 187.919L375.319 188.959C370.116 190.406 365.149 192.587 360.569 195.437C355.989 198.286 354.445 199.247 350.52 201.688L331.305 213.642L334.414 196.06L338.781 177.23C339.963 172.133 341.852 167.225 344.395 162.648L351.847 149.234C353.175 146.843 354.762 144.605 356.578 142.557L370.872 126.44C365.656 127.129 360.736 129.258 356.669 132.586L354.234 134.58C352.051 136.367 350.069 138.384 348.322 140.595L339.999 151.122L335.972 155.974L335.79 151.37C335.63 147.339 334.819 143.36 333.389 139.587L329.546 129.46L328.415 142.681L327.636 162.725L325.727 183.471L322.576 200.209C321.897 203.815 320.954 207.365 319.755 210.833L318.847 213.456C316.748 219.518 314.032 225.349 310.74 230.86L303.045 243.74L303.261 241.397C304.385 229.174 304.001 216.86 302.113 204.729L301.848 203.02C297.963 189.364 291.993 176.383 284.146 164.533L280.942 159.696L283.978 175.801L288.497 198.025L289.153 203.505C290.684 216.291 290.386 229.228 288.268 241.932C287.104 248.921 285.066 255.741 282.203 262.228L275.802 276.736C273.432 282.106 270.564 287.242 267.232 292.077L262.641 298.743C258.364 304.947 253.354 310.619 247.716 315.633L241.579 321.094C241.579 321.094 236.124 304.262 233.528 293.243C229.985 278.205 227.103 254.211 227.103 254.211L225.851 231.5C225.851 231.5 226.258 212.451 228.617 203.22L242.076 150.553C244.663 140.426 248.654 130.708 253.934 121.677L266.819 99.6352L295.008 65.6697L263.217 90.1407L248.951 47.3803L249.595 56.716C251.217 80.238 247.874 103.838 239.782 125.996L236.157 135.921L219.585 173.177C219.585 173.177 215.272 184.267 213.928 190.062L209.376 209.692L206.801 223.508C205.882 228.449 205.361 233.454 205.245 238.477L204.78 258.71L200.512 248.623C197.95 242.565 196.033 236.254 194.795 229.797L190.091 205.26L188.893 177.058L189.25 160.534C189.343 156.227 189.808 151.936 190.641 147.708C190.641 147.708 193.423 134.777 194.832 126.423C198.281 105.964 200.132 73.5673 200.132 73.5673L196.277 98.5C196.277 98.5 193.602 111.511 191.134 119.499C189.222 125.689 185.968 133.903 185.968 133.903L182.185 147.591L180.771 157.858L172.464 147.539C168.515 142.633 163.812 138.38 158.529 134.935C153.235 131.483 147.426 128.887 141.317 127.244L125.956 123.111L134.079 129.793L147.909 139.607C154.695 144.422 160.58 150.383 165.299 157.22C172.021 166.962 176.195 178.219 177.441 189.972L178.577 200.687L178.787 224.81L182.034 252.519L183.304 259.552L173.333 257.26C165.342 255.424 157.712 252.283 150.752 247.966C138.307 240.247 128.434 229.035 122.376 215.743L114.999 199.556L115.31 202.815C116.411 214.327 119.639 225.539 124.833 235.882L129.547 245.27L132.372 249.772L124.4 249.915C114.394 250.096 94.6792 260.548 94.6792 295.954Z" fill="#83B645"/>
<path d="M268.683 142.944L253.265 138.781L262.225 158.922C263.791 163.554 267.822 166.929 272.676 167.671L275.904 168.165C276.517 168.259 277.138 168.293 277.757 168.267L278.941 168.218C282.14 168.086 284.938 166.032 286.01 163.027C286.609 161.346 286.613 159.511 286.019 157.828L284.654 153.958C284.283 152.906 283.666 151.955 282.856 151.185L282.108 150.475C278.332 146.892 273.719 144.303 268.683 142.944Z" fill="#83B645"/>
<path d="M312.936 99.6124L287.177 92.649L300.123 122.053C302.382 128.811 308.252 133.741 315.325 134.818L319.931 135.519C320.828 135.656 321.735 135.705 322.642 135.665L322.849 135.656C328.397 135.416 333.243 131.847 335.096 126.635C335.658 125.053 335.663 123.328 335.11 121.743L333.527 117.2C332.428 114.048 330.596 111.201 328.178 108.89L326.425 107.214C322.639 103.595 318 100.981 312.936 99.6124Z" fill="#83B645"/>
<path d="M402.815 239.184L404.602 233.268L409.436 239.078C410.895 240.835 412.029 242.836 412.781 244.991L412.821 245.104C413.475 246.98 413.819 248.95 413.838 250.937L413.856 252.701C413.874 254.458 413.472 256.193 412.682 257.764L411.798 259.525C410.995 261.12 409.57 262.316 407.855 262.831C405.538 263.527 403.024 262.888 401.327 261.171L400.845 260.681C400.098 259.925 399.516 259.021 399.141 258.03L398.407 256.097C397.557 253.854 397.392 251.411 397.934 249.076C398.298 247.507 398.972 246.025 399.918 244.717L400.416 244.027C401.479 242.555 402.29 240.92 402.815 239.184Z" fill="#83B645"/>
<path d="M132.103 167.855L133.822 157.546L122.773 162.83C119.287 164.497 116.116 166.781 113.431 169.553C111.08 171.979 109.116 174.771 107.631 177.802L106.301 180.518C105.024 183.125 104.361 185.985 104.361 188.885L104.36 192.602C104.36 195.41 105.507 198.098 107.538 200.048C110.428 202.823 114.666 203.693 118.423 202.28L119.423 201.903C120.996 201.313 122.428 200.4 123.626 199.227L126.12 196.785C129.025 193.939 131.055 190.329 131.973 186.374C132.586 183.73 132.687 180.993 132.27 178.311L132.053 176.923C131.586 173.917 131.602 170.856 132.103 167.855Z" fill="#83B645"/>
<path d="M233.688 13.0586L233.787 3.40039L243.519 10.0041C246.472 12.0085 249.041 14.5247 251.102 17.4336L251.201 17.5731C252.997 20.1081 254.369 22.9172 255.264 25.8912L256.059 28.5347C256.848 31.1574 257.001 33.9308 256.505 36.6269L255.941 39.6923C255.439 42.4169 253.836 44.8187 251.507 46.3344C248.344 48.393 244.298 48.5295 241.011 46.6886L240.081 46.1678C238.641 45.3613 237.387 44.2636 236.399 42.9453L234.461 40.3614C232.213 37.3626 230.904 33.7676 230.698 30.0264C230.559 27.513 230.922 24.9958 231.766 22.6205L232.211 21.3694C233.159 18.698 233.658 15.8899 233.688 13.0586Z" fill="#83B645"/>
<path d="M432.069 184.832L453.67 179.07L457.706 181.283L453.814 188.314C452.832 190.089 452.566 191.939 453.013 193.866C453.458 195.79 454.466 197.357 456.032 198.565L464.872 182.595L468.906 184.809L460.402 200.176C461.895 200.253 463.33 199.939 464.706 199.233C466.083 198.525 467.162 197.469 467.939 196.062L472.943 187.022L476.978 189.236L463.638 213.342L459.601 211.128L463.214 204.6C462.383 204.755 461.529 204.832 460.653 204.831C459.777 204.831 458.896 204.719 458.011 204.495L455.566 208.915L451.53 206.701L453.781 202.633C451.071 200.797 449.324 198.311 448.54 195.175C447.755 192.039 448.168 189.014 449.78 186.101L450.586 184.644L428.983 190.406L432.069 184.832Z" fill="#F3F8EC"/>
<path d="M315.408 56.2904L325.598 33.1133L330.435 31.1175L333.942 39.5444C334.828 41.6715 336.289 43.2211 338.323 44.1924C340.356 45.1632 342.467 45.385 344.656 44.8576L336.688 25.7163L341.525 23.7206L349.194 42.1401C350.319 40.8755 351.057 39.3845 351.405 37.6662C351.752 35.9474 351.574 34.245 350.872 32.5595L346.362 21.7247L351.199 19.729L363.227 48.6222L358.39 50.618L355.132 42.7926C354.681 43.6372 354.143 44.4463 353.523 45.2208C352.9 45.9949 352.175 46.6934 351.348 47.3165L353.553 52.6138L348.716 54.6094L346.686 49.7335C343.126 50.8263 339.67 50.6066 336.317 49.0744C332.963 47.5431 330.559 45.0315 329.105 41.5402L328.378 39.7945L318.19 62.972L315.408 56.2904Z" fill="#F3F8EC"/>
<path d="M57.3343 127.969L79.1572 117.111L83.9565 118.599L81.341 126.96C80.6808 129.07 80.8012 131.106 81.702 133.068C82.6018 135.027 84.0216 136.483 85.9616 137.434L91.9027 118.442L96.7018 119.93L90.9852 138.205C92.5967 137.962 94.0612 137.314 95.3789 136.26C96.6955 135.204 97.6152 133.84 98.1384 132.168L101.501 121.417L106.3 122.905L97.3328 151.573L92.5335 150.085L94.9621 142.321C94.1083 142.666 93.2123 142.936 92.2757 143.125C91.3386 143.316 90.3731 143.387 89.3783 143.341L87.7343 148.597L82.9352 147.109L84.4483 142.272C81.1484 140.899 78.7352 138.623 77.2088 135.44C75.6805 132.259 75.458 128.936 76.5416 125.472L77.0836 123.74L55.2603 134.598L57.3343 127.969Z" fill="#F3F8EC"/>
<g filter="url(#filter0_d_354_2076)">
<rect x="313" y="324.374" width="221.453" height="68" rx="6" fill="#234930" shape-rendering="crispEdges"/>
<path fill-rule="evenodd" clip-rule="evenodd" d="M368.788 368.436C367.902 369.322 366.451 369.322 365.565 368.436L359.359 362.23C358.949 361.821 358.932 361.163 359.306 360.732L359.045 360.471C358.446 359.872 357.547 359.76 356.82 360.193C355.983 360.691 355.072 361.077 354.108 361.332V358.71C357.267 357.588 359.53 354.573 359.53 351.029C359.53 346.528 355.881 342.88 351.381 342.88C346.88 342.88 343.232 346.528 343.232 351.029C343.232 353.229 344.104 355.225 345.522 356.692L344.869 357.509C344.713 357.487 344.553 357.475 344.391 357.475C343.933 357.475 343.496 357.566 343.097 357.73C341.614 355.9 340.726 353.568 340.726 351.029C340.726 345.144 345.496 340.374 351.381 340.374C357.266 340.374 362.036 345.144 362.036 351.029C362.036 353.016 361.492 354.876 360.545 356.468C360.112 357.195 360.225 358.094 360.823 358.693L361.084 358.954C361.515 358.58 362.173 358.597 362.583 359.007L368.788 365.212C369.674 366.099 369.674 367.549 368.788 368.436ZM332.837 369.805H329.662C329.436 369.805 329.252 369.989 329.252 370.215V375.963C329.252 376.189 329.436 376.374 329.662 376.374H332.837C333.063 376.374 333.248 376.189 333.248 375.963V370.215C333.248 369.989 333.063 369.805 332.837 369.805ZM339.408 362.226H336.233C336.007 362.226 335.822 362.411 335.822 362.637V375.963C335.822 376.189 336.007 376.374 336.233 376.374H339.408C339.634 376.374 339.818 376.189 339.818 375.963V362.637C339.818 362.411 339.634 362.226 339.408 362.226ZM345.978 365.028H342.803C342.577 365.028 342.393 365.212 342.393 365.438V375.963C342.393 376.189 342.577 376.374 342.803 376.374H345.978C346.204 376.374 346.388 376.189 346.388 375.963V365.438C346.388 365.212 346.204 365.028 345.978 365.028ZM352.548 357.989H349.373C349.147 357.989 348.963 358.174 348.963 358.4V375.963C348.963 376.189 349.147 376.374 349.373 376.374H352.548C352.774 376.374 352.959 376.189 352.959 375.963V358.4C352.959 358.174 352.774 357.989 352.548 357.989ZM353.209 352.644C353.209 353.885 352.202 354.892 350.96 354.892C350.637 354.892 350.33 354.824 350.053 354.701L346.196 359.531C346.475 359.906 346.64 360.37 346.64 360.873C346.64 362.115 345.633 363.122 344.391 363.122C343.149 363.122 342.142 362.115 342.142 360.873C342.142 360.692 342.164 360.517 342.204 360.348L339.461 358.867C339.05 359.305 338.467 359.579 337.82 359.579C337.501 359.579 337.199 359.512 336.924 359.393L333.046 364.316C333.33 364.692 333.498 365.16 333.498 365.667C333.498 366.909 332.491 367.916 331.249 367.916C330.007 367.916 329 366.909 329 365.667C329 364.425 330.007 363.418 331.249 363.418C331.567 363.418 331.87 363.485 332.144 363.604L336.022 358.681C335.739 358.305 335.571 357.837 335.571 357.33C335.571 356.088 336.578 355.081 337.82 355.081C339.062 355.081 340.069 356.088 340.069 357.33C340.069 357.511 340.047 357.686 340.006 357.855L342.75 359.336C343.161 358.898 343.744 358.624 344.391 358.624C344.713 358.624 345.02 358.693 345.297 358.815L349.155 353.984C348.876 353.61 348.711 353.146 348.711 352.643C348.711 351.402 349.718 350.395 350.96 350.395C352.202 350.395 353.209 351.402 353.209 352.644ZM332.348 365.667C332.348 365.059 331.856 364.567 331.249 364.567C330.641 364.567 330.149 365.059 330.149 365.667C330.149 366.274 330.641 366.767 331.249 366.767C331.856 366.767 332.348 366.274 332.348 365.667ZM338.919 357.33C338.919 356.722 338.427 356.23 337.82 356.23C337.212 356.23 336.72 356.722 336.72 357.33C336.72 357.937 337.212 358.43 337.82 358.43C338.427 358.43 338.919 357.937 338.919 357.33ZM345.491 360.873C345.491 360.266 344.998 359.773 344.391 359.773C343.783 359.773 343.291 360.266 343.291 360.873C343.291 361.48 343.783 361.973 344.391 361.973C344.998 361.973 345.491 361.48 345.491 360.873ZM352.06 352.643C352.06 352.036 351.568 351.544 350.96 351.544C350.353 351.544 349.86 352.036 349.86 352.643C349.86 353.251 350.353 353.743 350.96 353.743C351.568 353.743 352.06 353.251 352.06 352.643Z" fill="white"/>
<path d="M380.573 364.374V352.854H385.125C385.237 352.854 385.37 352.859 385.525 352.87C385.68 352.875 385.829 352.891 385.973 352.918C386.597 353.014 387.12 353.227 387.541 353.558C387.968 353.888 388.288 354.307 388.501 354.814C388.714 355.315 388.821 355.872 388.821 356.486C388.821 357.376 388.589 358.15 388.125 358.806C387.661 359.456 386.981 359.864 386.085 360.03L385.541 360.118H381.997V364.374H380.573ZM387.429 364.374L385.157 359.686L386.565 359.254L389.061 364.374H387.429ZM381.997 358.766H385.077C385.178 358.766 385.293 358.76 385.421 358.75C385.554 358.739 385.68 358.72 385.797 358.694C386.165 358.608 386.464 358.454 386.693 358.23C386.928 358 387.098 357.734 387.205 357.43C387.312 357.12 387.365 356.806 387.365 356.486C387.365 356.166 387.312 355.854 387.205 355.55C387.098 355.24 386.928 354.971 386.693 354.742C386.464 354.512 386.165 354.358 385.797 354.278C385.68 354.246 385.554 354.227 385.421 354.222C385.293 354.211 385.178 354.206 385.077 354.206H381.997V358.766ZM394.567 364.614C393.719 364.614 392.978 364.427 392.343 364.054C391.714 363.675 391.223 363.15 390.871 362.478C390.519 361.8 390.343 361.011 390.343 360.11C390.343 359.166 390.516 358.35 390.863 357.662C391.21 356.968 391.692 356.435 392.311 356.062C392.935 355.683 393.666 355.494 394.503 355.494C395.372 355.494 396.111 355.694 396.719 356.094C397.332 356.494 397.791 357.064 398.095 357.806C398.404 358.547 398.538 359.43 398.495 360.454H397.055V359.942C397.039 358.88 396.823 358.088 396.407 357.566C395.991 357.038 395.372 356.774 394.551 356.774C393.671 356.774 393.002 357.056 392.543 357.622C392.084 358.187 391.855 358.998 391.855 360.054C391.855 361.072 392.084 361.862 392.543 362.422C393.002 362.982 393.655 363.262 394.503 363.262C395.074 363.262 395.57 363.131 395.991 362.87C396.412 362.608 396.743 362.232 396.983 361.742L398.351 362.214C398.015 362.976 397.508 363.568 396.831 363.99C396.159 364.406 395.404 364.614 394.567 364.614ZM391.375 360.454V359.31H397.759V360.454H391.375ZM403.54 364.606C402.511 364.606 401.666 364.382 401.004 363.934C400.348 363.48 399.946 362.848 399.796 362.038L401.252 361.806C401.37 362.275 401.639 362.648 402.06 362.926C402.482 363.198 403.004 363.334 403.628 363.334C404.22 363.334 404.684 363.211 405.02 362.966C405.356 362.72 405.524 362.387 405.524 361.966C405.524 361.72 405.468 361.523 405.356 361.374C405.244 361.219 405.012 361.075 404.66 360.942C404.314 360.808 403.788 360.648 403.084 360.462C402.322 360.259 401.722 360.048 401.284 359.83C400.847 359.611 400.535 359.358 400.348 359.07C400.162 358.782 400.068 358.432 400.068 358.022C400.068 357.515 400.207 357.072 400.484 356.694C400.762 356.31 401.148 356.014 401.644 355.806C402.146 355.598 402.727 355.494 403.388 355.494C404.044 355.494 404.631 355.598 405.148 355.806C405.666 356.014 406.082 356.31 406.396 356.694C406.716 357.072 406.906 357.515 406.964 358.022L405.508 358.286C405.439 357.822 405.215 357.456 404.836 357.19C404.463 356.923 403.98 356.782 403.388 356.766C402.828 356.744 402.372 356.843 402.02 357.062C401.674 357.28 401.5 357.576 401.5 357.95C401.5 358.158 401.564 358.336 401.692 358.486C401.826 358.635 402.068 358.776 402.42 358.91C402.778 359.043 403.295 359.195 403.972 359.366C404.735 359.558 405.335 359.768 405.772 359.998C406.215 360.222 406.53 360.488 406.716 360.798C406.903 361.102 406.996 361.478 406.996 361.926C406.996 362.758 406.69 363.414 406.076 363.894C405.463 364.368 404.618 364.606 403.54 364.606ZM412.505 364.614C411.657 364.614 410.915 364.427 410.281 364.054C409.651 363.675 409.161 363.15 408.809 362.478C408.457 361.8 408.281 361.011 408.281 360.11C408.281 359.166 408.454 358.35 408.801 357.662C409.147 356.968 409.63 356.435 410.249 356.062C410.873 355.683 411.603 355.494 412.441 355.494C413.31 355.494 414.049 355.694 414.657 356.094C415.27 356.494 415.729 357.064 416.033 357.806C416.342 358.547 416.475 359.43 416.433 360.454H414.993V359.942C414.977 358.88 414.761 358.088 414.345 357.566C413.929 357.038 413.31 356.774 412.489 356.774C411.609 356.774 410.939 357.056 410.481 357.622C410.022 358.187 409.793 358.998 409.793 360.054C409.793 361.072 410.022 361.862 410.481 362.422C410.939 362.982 411.593 363.262 412.441 363.262C413.011 363.262 413.507 363.131 413.929 362.87C414.35 362.608 414.681 362.232 414.921 361.742L416.289 362.214C415.953 362.976 415.446 363.568 414.769 363.99C414.097 364.406 413.342 364.614 412.505 364.614ZM409.313 360.454V359.31H415.697V360.454H409.313ZM420.514 364.614C419.868 364.614 419.327 364.496 418.89 364.262C418.458 364.022 418.13 363.707 417.906 363.318C417.687 362.928 417.578 362.502 417.578 362.038C417.578 361.584 417.663 361.192 417.834 360.862C418.01 360.526 418.255 360.248 418.57 360.03C418.884 359.806 419.26 359.63 419.698 359.502C420.108 359.39 420.567 359.294 421.074 359.214C421.586 359.128 422.103 359.051 422.626 358.982C423.148 358.912 423.636 358.846 424.09 358.782L423.578 359.078C423.594 358.31 423.439 357.742 423.114 357.374C422.794 357.006 422.239 356.822 421.45 356.822C420.927 356.822 420.468 356.942 420.074 357.182C419.684 357.416 419.41 357.8 419.25 358.334L417.898 357.926C418.106 357.168 418.508 356.574 419.106 356.142C419.703 355.71 420.49 355.494 421.466 355.494C422.25 355.494 422.922 355.635 423.482 355.918C424.047 356.195 424.452 356.616 424.698 357.182C424.82 357.448 424.898 357.739 424.93 358.054C424.962 358.363 424.977 358.688 424.977 359.03V364.374H423.714V362.302L424.01 362.494C423.684 363.192 423.228 363.72 422.642 364.078C422.06 364.435 421.351 364.614 420.514 364.614ZM420.73 363.422C421.242 363.422 421.684 363.331 422.058 363.15C422.436 362.963 422.74 362.72 422.97 362.422C423.199 362.118 423.348 361.787 423.418 361.43C423.498 361.163 423.54 360.867 423.546 360.542C423.556 360.211 423.562 359.958 423.562 359.782L424.058 359.998C423.594 360.062 423.138 360.123 422.69 360.182C422.242 360.24 421.818 360.304 421.418 360.374C421.018 360.438 420.658 360.515 420.338 360.606C420.103 360.68 419.882 360.776 419.674 360.894C419.471 361.011 419.306 361.163 419.178 361.35C419.055 361.531 418.993 361.758 418.993 362.03C418.993 362.264 419.052 362.488 419.17 362.702C419.292 362.915 419.479 363.088 419.73 363.222C419.986 363.355 420.319 363.422 420.73 363.422ZM427.058 364.374V355.734H428.33V357.822L428.122 357.55C428.223 357.283 428.354 357.038 428.514 356.814C428.679 356.59 428.863 356.406 429.066 356.262C429.29 356.08 429.543 355.942 429.826 355.846C430.108 355.75 430.396 355.694 430.69 355.678C430.983 355.656 431.258 355.675 431.514 355.734V357.07C431.215 356.99 430.887 356.968 430.53 357.006C430.172 357.043 429.842 357.174 429.538 357.398C429.26 357.595 429.044 357.835 428.89 358.118C428.74 358.4 428.636 358.707 428.578 359.038C428.519 359.363 428.49 359.696 428.49 360.038V364.374H427.058ZM436.51 364.614C435.635 364.614 434.891 364.419 434.278 364.03C433.67 363.635 433.206 363.094 432.886 362.406C432.566 361.718 432.401 360.934 432.39 360.054C432.401 359.152 432.569 358.36 432.894 357.678C433.225 356.99 433.697 356.454 434.31 356.07C434.923 355.686 435.662 355.494 436.526 355.494C437.438 355.494 438.222 355.718 438.878 356.166C439.539 356.614 439.982 357.227 440.206 358.006L438.798 358.43C438.617 357.928 438.321 357.539 437.91 357.262C437.505 356.984 437.038 356.846 436.51 356.846C435.918 356.846 435.43 356.984 435.046 357.262C434.662 357.534 434.377 357.912 434.19 358.398C434.003 358.878 433.907 359.43 433.902 360.054C433.913 361.014 434.134 361.79 434.566 362.382C435.003 362.968 435.651 363.262 436.51 363.262C437.075 363.262 437.545 363.134 437.918 362.878C438.291 362.616 438.574 362.24 438.766 361.75L440.206 362.126C439.907 362.931 439.441 363.547 438.806 363.974C438.171 364.4 437.406 364.614 436.51 364.614ZM447.991 364.374V360.046C447.991 359.635 447.953 359.24 447.879 358.862C447.809 358.483 447.684 358.144 447.503 357.846C447.327 357.542 447.087 357.302 446.783 357.126C446.484 356.95 446.105 356.862 445.647 356.862C445.289 356.862 444.964 356.923 444.671 357.046C444.383 357.163 444.135 357.344 443.927 357.59C443.719 357.835 443.556 358.144 443.439 358.518C443.327 358.886 443.271 359.32 443.271 359.822L442.335 359.534C442.335 358.696 442.484 357.979 442.783 357.382C443.087 356.779 443.511 356.318 444.055 355.998C444.604 355.672 445.249 355.51 445.991 355.51C446.551 355.51 447.028 355.598 447.423 355.774C447.817 355.95 448.145 356.184 448.407 356.478C448.668 356.766 448.873 357.091 449.023 357.454C449.172 357.811 449.276 358.176 449.335 358.55C449.399 358.918 449.431 359.267 449.431 359.598V364.374H447.991ZM441.831 364.374V352.854H443.111V359.214H443.271V364.374H441.831ZM453.914 364.374L457.77 352.854H459.754L463.61 364.374H462.13L458.522 353.686H458.97L455.394 364.374H453.914ZM455.77 361.678V360.342H461.754V361.678H455.77ZM468.434 364.614C467.629 364.614 466.938 364.414 466.362 364.014C465.786 363.608 465.341 363.062 465.026 362.374C464.717 361.686 464.562 360.91 464.562 360.046C464.562 359.182 464.717 358.406 465.026 357.718C465.341 357.03 465.786 356.488 466.362 356.094C466.938 355.694 467.626 355.494 468.426 355.494C469.242 355.494 469.927 355.691 470.482 356.086C471.037 356.48 471.455 357.022 471.738 357.71C472.026 358.398 472.17 359.176 472.17 360.046C472.17 360.904 472.026 361.68 471.738 362.374C471.455 363.062 471.037 363.608 470.482 364.014C469.927 364.414 469.245 364.614 468.434 364.614ZM468.61 363.31C469.191 363.31 469.669 363.171 470.042 362.894C470.415 362.611 470.69 362.224 470.866 361.734C471.047 361.238 471.138 360.675 471.138 360.046C471.138 359.406 471.047 358.843 470.866 358.358C470.69 357.867 470.418 357.486 470.05 357.214C469.682 356.936 469.215 356.798 468.65 356.798C468.063 356.798 467.578 356.942 467.194 357.23C466.815 357.518 466.533 357.907 466.346 358.398C466.165 358.888 466.074 359.438 466.074 360.046C466.074 360.659 466.167 361.214 466.354 361.71C466.541 362.2 466.821 362.59 467.194 362.878C467.573 363.166 468.045 363.31 468.61 363.31ZM471.138 364.374V358.014H470.978V352.854H472.41V364.374H471.138ZM476.987 364.374L473.851 355.734H475.291L477.715 362.558L480.131 355.734H481.579L478.443 364.374H476.987ZM483.186 354.206V352.734H484.61V354.206H483.186ZM483.186 364.374V355.734H484.61V364.374H483.186ZM490.275 364.606C489.245 364.606 488.4 364.382 487.739 363.934C487.083 363.48 486.68 362.848 486.531 362.038L487.987 361.806C488.104 362.275 488.373 362.648 488.795 362.926C489.216 363.198 489.739 363.334 490.363 363.334C490.955 363.334 491.419 363.211 491.755 362.966C492.091 362.72 492.259 362.387 492.259 361.966C492.259 361.72 492.203 361.523 492.091 361.374C491.979 361.219 491.747 361.075 491.395 360.942C491.048 360.808 490.523 360.648 489.819 360.462C489.056 360.259 488.456 360.048 488.019 359.83C487.581 359.611 487.269 359.358 487.083 359.07C486.896 358.782 486.803 358.432 486.803 358.022C486.803 357.515 486.941 357.072 487.219 356.694C487.496 356.31 487.883 356.014 488.379 355.806C488.88 355.598 489.461 355.494 490.123 355.494C490.779 355.494 491.365 355.598 491.883 355.806C492.4 356.014 492.816 356.31 493.131 356.694C493.451 357.072 493.64 357.515 493.699 358.022L492.243 358.286C492.173 357.822 491.949 357.456 491.571 357.19C491.197 356.923 490.715 356.782 490.123 356.766C489.563 356.744 489.107 356.843 488.755 357.062C488.408 357.28 488.235 357.576 488.235 357.95C488.235 358.158 488.299 358.336 488.427 358.486C488.56 358.635 488.803 358.776 489.155 358.91C489.512 359.043 490.029 359.195 490.707 359.366C491.469 359.558 492.069 359.768 492.507 359.998C492.949 360.222 493.264 360.488 493.451 360.798C493.637 361.102 493.731 361.478 493.731 361.926C493.731 362.758 493.424 363.414 492.811 363.894C492.197 364.368 491.352 364.606 490.275 364.606ZM499.175 364.614C498.316 364.614 497.575 364.419 496.951 364.03C496.332 363.64 495.855 363.102 495.519 362.414C495.183 361.726 495.015 360.936 495.015 360.046C495.015 359.139 495.186 358.344 495.527 357.662C495.868 356.979 496.351 356.448 496.975 356.07C497.599 355.686 498.332 355.494 499.175 355.494C500.039 355.494 500.783 355.688 501.407 356.078C502.031 356.462 502.508 356.998 502.839 357.686C503.175 358.368 503.343 359.155 503.343 360.046C503.343 360.947 503.175 361.742 502.839 362.43C502.503 363.112 502.023 363.648 501.399 364.038C500.775 364.422 500.034 364.614 499.175 364.614ZM499.175 363.262C500.071 363.262 500.738 362.963 501.175 362.366C501.612 361.768 501.831 360.995 501.831 360.046C501.831 359.07 501.61 358.294 501.167 357.718C500.724 357.136 500.06 356.846 499.175 356.846C498.572 356.846 498.076 356.982 497.687 357.254C497.298 357.526 497.007 357.902 496.815 358.382C496.623 358.862 496.527 359.416 496.527 360.046C496.527 361.016 496.751 361.795 497.199 362.382C497.647 362.968 498.306 363.262 499.175 363.262ZM505.104 364.374V355.734H506.376V357.822L506.168 357.55C506.27 357.283 506.4 357.038 506.56 356.814C506.726 356.59 506.91 356.406 507.112 356.262C507.336 356.08 507.59 355.942 507.872 355.846C508.155 355.75 508.443 355.694 508.736 355.678C509.03 355.656 509.304 355.675 509.56 355.734V357.07C509.262 356.99 508.934 356.968 508.576 357.006C508.219 357.043 507.888 357.174 507.584 357.398C507.307 357.595 507.091 357.835 506.936 358.118C506.787 358.4 506.683 358.707 506.624 359.038C506.566 359.363 506.536 359.696 506.536 360.038V364.374H505.104ZM512.117 368.214L513.789 363.67L513.813 365.014L510.037 355.734H511.533L514.493 363.198H513.981L516.757 355.734H518.205L513.501 368.214H512.117Z" fill="white"/>
</g>
<g filter="url(#filter1_d_354_2076)">
<rect x="4" y="294.374" width="171.69" height="68" rx="6" fill="#234930" shape-rendering="crispEdges"/>
<path fill-rule="evenodd" clip-rule="evenodd" d="M41.1447 313.759V318.237C41.1447 318.882 40.6198 319.407 39.9746 319.407L33.4102 319.407V321.622C33.4102 321.791 33.5472 321.929 33.7155 321.929L42.9889 321.928C43.1013 321.928 43.2092 321.972 43.2899 322.051L45.4366 324.136V322.36C45.4366 322.122 45.63 321.929 45.8685 321.929L47.7101 321.928C47.8789 321.928 48.0164 321.791 48.0164 321.622L48.0164 314.065C48.0164 313.896 47.8789 313.759 47.71 313.759L41.1447 313.759Z" fill="white"/>
<path fill-rule="evenodd" clip-rule="evenodd" d="M25.6738 310.68L25.6739 318.236C25.6739 318.405 25.8112 318.542 25.98 318.542L27.8214 318.542C28.06 318.542 28.2534 318.736 28.2534 318.974V320.826L30.7608 318.649C30.8395 318.581 30.94 318.543 31.044 318.543H32.9503C32.9595 318.543 32.9688 318.542 32.9781 318.542C32.9874 318.542 32.9967 318.543 33.0058 318.543L39.9745 318.543C40.1433 318.543 40.2806 318.406 40.2806 318.237V310.68C40.2806 310.511 40.1433 310.374 39.9745 310.374H25.98C25.8112 310.374 25.6738 310.511 25.6738 310.68ZM37.4884 315.532C37.7269 315.532 37.9203 315.725 37.9203 315.964C37.9204 316.202 37.7269 316.395 37.4884 316.395H28.4653C28.2267 316.395 28.0333 316.202 28.0333 315.964C28.0333 315.725 28.2267 315.532 28.4653 315.532L37.4884 315.532ZM37.4884 313.385H28.4653C28.2267 313.385 28.0333 313.191 28.0333 312.953C28.0333 312.714 28.2267 312.521 28.4653 312.521L37.4884 312.521C37.7269 312.521 37.9203 312.714 37.9203 312.953C37.9204 313.191 37.7269 313.385 37.4884 313.385Z" fill="white"/>
<path fill-rule="evenodd" clip-rule="evenodd" d="M29.1385 324.123C26.5981 324.123 24.5312 326.19 24.5312 328.73C24.5313 331.271 26.5981 333.338 29.1385 333.338C31.679 333.338 33.7457 331.271 33.7457 328.73C33.7457 326.19 31.6789 324.123 29.1385 324.123Z" fill="white"/>
<path fill-rule="evenodd" clip-rule="evenodd" d="M44.5525 328.48C42.0121 328.48 39.9453 330.547 39.9453 333.087C39.9453 335.628 42.0121 337.695 44.5525 337.695C47.093 337.694 49.16 335.628 49.16 333.087C49.16 330.547 47.093 328.48 44.5525 328.48Z" fill="white"/>
<path fill-rule="evenodd" clip-rule="evenodd" d="M42.5455 338.559C38.6143 338.559 35.416 341.757 35.416 345.688L35.4161 346.374H53.6913V345.688C53.6913 341.757 50.4934 338.559 46.562 338.559L42.5455 338.559Z" fill="white"/>
<path fill-rule="evenodd" clip-rule="evenodd" d="M31.0604 334.202L30.4492 336.524L31.0738 342.017H35.4461C36.0567 340.841 36.9511 339.835 38.0376 339.091C37.2458 336.206 34.6237 334.202 31.6192 334.202H31.0604Z" fill="white"/>
<path fill-rule="evenodd" clip-rule="evenodd" d="M26.6554 334.202C22.9856 334.202 20 337.188 20 340.858V342.017H27.2025L27.8271 336.524L27.2159 334.202H26.6554Z" fill="white"/>
<path fill-rule="evenodd" clip-rule="evenodd" d="M28.6512 336.925L28.0723 342.017H30.2043L29.6254 336.925H28.6512Z" fill="white"/>
<path fill-rule="evenodd" clip-rule="evenodd" d="M30.167 334.202H28.1094L28.5987 336.061H29.6778L30.167 334.202Z" fill="white"/>
<path d="M64.8095 334.374V322.854H71.5295V324.278H66.2335V327.902H70.5695V329.326H66.2335V334.374H64.8095ZM75.1092 334.614C74.4639 334.614 73.9225 334.496 73.4852 334.262C73.0532 334.022 72.7252 333.707 72.5012 333.318C72.2825 332.928 72.1732 332.502 72.1732 332.038C72.1732 331.584 72.2585 331.192 72.4292 330.862C72.6052 330.526 72.8505 330.248 73.1652 330.03C73.4799 329.806 73.8559 329.63 74.2932 329.502C74.7039 329.39 75.1625 329.294 75.6692 329.214C76.1812 329.128 76.6985 329.051 77.2212 328.982C77.7439 328.912 78.2319 328.846 78.6852 328.782L78.1732 329.078C78.1892 328.31 78.0345 327.742 77.7092 327.374C77.3892 327.006 76.8345 326.822 76.0452 326.822C75.5225 326.822 75.0639 326.942 74.6692 327.182C74.2799 327.416 74.0052 327.8 73.8452 328.334L72.4932 327.926C72.7012 327.168 73.1039 326.574 73.7012 326.142C74.2985 325.71 75.0852 325.494 76.0612 325.494C76.8452 325.494 77.5172 325.635 78.0772 325.918C78.6425 326.195 79.0479 326.616 79.2932 327.182C79.4159 327.448 79.4932 327.739 79.5252 328.054C79.5572 328.363 79.5732 328.688 79.5732 329.03V334.374H78.3092V332.302L78.6052 332.494C78.2799 333.192 77.8239 333.72 77.2372 334.078C76.6559 334.435 75.9465 334.614 75.1092 334.614ZM75.3252 333.422C75.8372 333.422 76.2799 333.331 76.6532 333.15C77.0319 332.963 77.3359 332.72 77.5652 332.422C77.7945 332.118 77.9439 331.787 78.0132 331.43C78.0932 331.163 78.1359 330.867 78.1412 330.542C78.1519 330.211 78.1572 329.958 78.1572 329.782L78.6532 329.998C78.1892 330.062 77.7332 330.123 77.2852 330.182C76.8372 330.24 76.4132 330.304 76.0132 330.374C75.6132 330.438 75.2532 330.515 74.9332 330.606C74.6985 330.68 74.4772 330.776 74.2692 330.894C74.0665 331.011 73.9012 331.163 73.7732 331.35C73.6505 331.531 73.5892 331.758 73.5892 332.03C73.5892 332.264 73.6479 332.488 73.7652 332.702C73.8879 332.915 74.0745 333.088 74.3252 333.222C74.5812 333.355 74.9145 333.422 75.3252 333.422ZM91.9812 334.374L91.9892 328.846C91.9892 328.2 91.8159 327.696 91.4692 327.334C91.1279 326.966 90.6825 326.782 90.1332 326.782C89.8132 326.782 89.5092 326.856 89.2212 327.006C88.9332 327.15 88.6985 327.379 88.5172 327.694C88.3359 328.003 88.2452 328.4 88.2452 328.886L87.4932 328.582C87.4825 327.968 87.6079 327.432 87.8692 326.974C88.1359 326.51 88.4985 326.15 88.9572 325.894C89.4159 325.638 89.9332 325.51 90.5092 325.51C91.4105 325.51 92.1199 325.784 92.6372 326.334C93.1545 326.878 93.4132 327.611 93.4132 328.534L93.4052 334.374H91.9812ZM81.6452 334.374V325.734H82.9172V328.046H83.0772V334.374H81.6452ZM86.8212 334.374L86.8292 328.902C86.8292 328.24 86.6585 327.723 86.3172 327.35C85.9759 326.971 85.5225 326.782 84.9572 326.782C84.3972 326.782 83.9439 326.974 83.5972 327.358C83.2505 327.742 83.0772 328.251 83.0772 328.886L82.3252 328.438C82.3252 327.878 82.4585 327.376 82.7252 326.934C82.9919 326.491 83.3545 326.144 83.8132 325.894C84.2719 325.638 84.7919 325.51 85.3732 325.51C85.9545 325.51 86.4612 325.632 86.8932 325.878C87.3252 326.123 87.6585 326.475 87.8932 326.934C88.1279 327.387 88.2452 327.928 88.2452 328.558L88.2372 334.374H86.8212ZM95.657 324.206V322.734H97.081V324.206H95.657ZM95.657 334.374V325.734H97.081V334.374H95.657ZM99.6413 334.374V322.614H101.065V334.374H99.6413ZM104.666 338.214L106.338 333.67L106.362 335.014L102.586 325.734H104.082L107.042 333.198H106.53L109.306 325.734H110.754L106.05 338.214H104.666ZM120.014 334.614C118.868 334.614 117.894 334.36 117.094 333.854C116.294 333.347 115.684 332.643 115.262 331.742C114.846 330.84 114.638 329.798 114.638 328.614C114.638 327.43 114.846 326.387 115.262 325.486C115.684 324.584 116.294 323.88 117.094 323.374C117.894 322.867 118.868 322.614 120.014 322.614C121.166 322.614 122.142 322.867 122.942 323.374C123.742 323.88 124.35 324.584 124.766 325.486C125.182 326.387 125.39 327.43 125.39 328.614C125.39 329.798 125.182 330.84 124.766 331.742C124.35 332.643 123.742 333.347 122.942 333.854C122.142 334.36 121.166 334.614 120.014 334.614ZM120.014 333.254C120.873 333.259 121.588 333.067 122.158 332.678C122.734 332.283 123.164 331.736 123.446 331.038C123.734 330.339 123.878 329.531 123.878 328.614C123.878 327.691 123.734 326.883 123.446 326.19C123.164 325.496 122.734 324.955 122.158 324.566C121.588 324.176 120.873 323.979 120.014 323.974C119.156 323.968 118.441 324.16 117.87 324.55C117.305 324.939 116.878 325.483 116.59 326.182C116.302 326.88 116.156 327.691 116.15 328.614C116.145 329.531 116.286 330.336 116.574 331.03C116.862 331.723 117.292 332.267 117.862 332.662C118.438 333.051 119.156 333.248 120.014 333.254ZM127.821 334.374V325.262C127.821 325.038 127.832 324.811 127.853 324.582C127.874 324.347 127.922 324.12 127.997 323.902C128.072 323.678 128.194 323.472 128.365 323.286C128.562 323.067 128.778 322.912 129.013 322.822C129.248 322.726 129.485 322.667 129.725 322.646C129.97 322.624 130.202 322.614 130.421 322.614H131.517V323.798H130.501C130.08 323.798 129.765 323.902 129.557 324.11C129.349 324.312 129.245 324.622 129.245 325.038V334.374H127.821ZM126.357 326.91V325.734H131.517V326.91H126.357ZM132.901 334.374V325.262C132.901 325.038 132.912 324.811 132.933 324.582C132.954 324.347 133.002 324.12 133.077 323.902C133.152 323.678 133.274 323.472 133.445 323.286C133.642 323.067 133.858 322.912 134.093 322.822C134.328 322.726 134.565 322.667 134.805 322.646C135.05 322.624 135.282 322.614 135.501 322.614H136.597V323.798H135.581C135.16 323.798 134.845 323.902 134.637 324.11C134.429 324.312 134.325 324.622 134.325 325.038V334.374H132.901ZM131.437 326.91V325.734H136.597V326.91H131.437ZM138.266 324.206V322.734H139.69V324.206H138.266ZM138.266 334.374V325.734H139.69V334.374H138.266ZM145.731 334.614C144.856 334.614 144.112 334.419 143.499 334.03C142.891 333.635 142.427 333.094 142.107 332.406C141.787 331.718 141.621 330.934 141.611 330.054C141.621 329.152 141.789 328.36 142.115 327.678C142.445 326.99 142.917 326.454 143.531 326.07C144.144 325.686 144.883 325.494 145.747 325.494C146.659 325.494 147.443 325.718 148.099 326.166C148.76 326.614 149.203 327.227 149.427 328.006L148.019 328.43C147.837 327.928 147.541 327.539 147.131 327.262C146.725 326.984 146.259 326.846 145.731 326.846C145.139 326.846 144.651 326.984 144.267 327.262C143.883 327.534 143.597 327.912 143.411 328.398C143.224 328.878 143.128 329.43 143.123 330.054C143.133 331.014 143.355 331.79 143.787 332.382C144.224 332.968 144.872 333.262 145.731 333.262C146.296 333.262 146.765 333.134 147.139 332.878C147.512 332.616 147.795 332.24 147.987 331.75L149.427 332.126C149.128 332.931 148.661 333.547 148.027 333.974C147.392 334.4 146.627 334.614 145.731 334.614ZM154.569 334.614C153.721 334.614 152.98 334.427 152.345 334.054C151.716 333.675 151.225 333.15 150.873 332.478C150.521 331.8 150.345 331.011 150.345 330.11C150.345 329.166 150.518 328.35 150.865 327.662C151.212 326.968 151.694 326.435 152.313 326.062C152.937 325.683 153.668 325.494 154.505 325.494C155.374 325.494 156.113 325.694 156.721 326.094C157.334 326.494 157.793 327.064 158.097 327.806C158.406 328.547 158.54 329.43 158.497 330.454H157.057V329.942C157.041 328.88 156.825 328.088 156.409 327.566C155.993 327.038 155.374 326.774 154.553 326.774C153.673 326.774 153.004 327.056 152.545 327.622C152.086 328.187 151.857 328.998 151.857 330.054C151.857 331.072 152.086 331.862 152.545 332.422C153.004 332.982 153.657 333.262 154.505 333.262C155.076 333.262 155.572 333.131 155.993 332.87C156.414 332.608 156.745 332.232 156.985 331.742L158.353 332.214C158.017 332.976 157.51 333.568 156.833 333.99C156.161 334.406 155.406 334.614 154.569 334.614ZM151.377 330.454V329.31H157.761V330.454H151.377Z" fill="white"/>
</g>
<g filter="url(#filter2_d_354_2076)">
<rect x="116" y="4.37378" width="101" height="68.9882" rx="6" fill="#234930" shape-rendering="crispEdges"/>
<path fill-rule="evenodd" clip-rule="evenodd" d="M134.786 46.4821C134.845 46.8857 134.566 47.2603 134.165 47.3194C133.759 47.3786 133.387 47.0993 133.328 46.6956C133.268 46.2928 133.547 45.9174 133.949 45.8583C134.354 45.7999 134.73 46.0789 134.786 46.4821ZM154.884 30.7309C156.939 33.0108 158.472 34.9905 159.483 36.7667C161.402 40.1349 160.927 43.5302 159.046 46.0155L157.369 46.9923C156.918 47.255 156.458 47.4216 155.983 47.5031C156.181 47.2396 156.335 46.9244 156.433 46.5588C156.806 45.1762 155.979 43.8089 154.65 43.3485L154.564 43.3187L154.475 43.3023C154.168 43.2461 153.862 43.1826 153.559 43.1129C153.83 42.7502 153.989 42.3035 153.976 41.7655C153.974 41.673 153.969 41.5915 153.96 41.522C153.853 40.6361 153.374 40.0594 152.738 39.6757C152.18 39.3386 151.51 39.1708 150.897 39.07C150.454 38.9973 149.988 38.8743 149.646 38.6514C149.382 38.4786 149.192 38.2286 149.174 37.8629C149.155 37.4673 149.328 37.1481 149.6 36.9268C149.813 36.7535 150.085 36.6331 150.38 36.5737C150.499 36.5498 150.621 36.5361 150.744 36.5329C150.757 36.5336 150.77 36.5341 150.783 36.5341C150.799 36.5341 150.815 36.5335 150.831 36.5323C150.994 36.5347 151.158 36.5556 151.318 36.5963C151.811 36.7212 152.26 37.0462 152.497 37.6092C152.638 37.9468 153.027 38.1058 153.364 37.9641C153.702 37.8224 153.861 37.4338 153.719 37.0962C153.303 36.1049 152.511 35.5321 151.64 35.3113C151.576 35.2951 151.511 35.2809 151.447 35.2686V34.7547C151.447 34.3884 151.15 34.0915 150.783 34.0915C150.417 34.0915 150.12 34.3884 150.12 34.7547V35.2785C149.618 35.3798 149.146 35.5919 148.766 35.9009C148.182 36.3758 147.811 37.0653 147.853 37.9251C147.895 38.7889 148.326 39.3684 148.926 39.7602C149.449 40.1017 150.092 40.2784 150.684 40.3757C151.16 40.4538 151.668 40.5773 152.054 40.8104C152.363 40.9967 152.595 41.2692 152.644 41.6774C152.651 41.7318 152.655 41.7713 152.655 41.7966C152.663 42.1212 152.508 42.3684 152.274 42.5454C152.195 42.6054 152.108 42.6588 152.013 42.7057C150.3 42.2018 148.709 41.5486 147.017 40.9999C145.251 40.4268 143.605 41.0753 142.08 41.9592L141.04 42.5613C140.71 40.7483 141.008 38.753 142.139 36.7667C143.151 34.9906 144.684 33.0108 146.738 30.7311C146.996 30.8151 147.271 30.8606 147.556 30.8606H154.066C154.351 30.8606 154.626 30.8149 154.884 30.7309ZM147.556 29.6692H154.066C154.869 29.6692 155.526 29.0125 155.526 28.21C155.526 27.4073 154.869 26.7508 154.066 26.7508H147.556C146.753 26.7508 146.097 27.4073 146.097 28.2099C146.097 29.0126 146.753 29.6692 147.556 29.6692ZM147.503 25.56L146.304 24.3614C145.721 23.7782 145.721 22.8239 146.304 22.2407C146.8 21.7447 147.586 21.6608 148.176 22.0397C148.395 22.1804 148.647 22.2028 148.888 22.1033C149.128 22.0036 149.29 21.8097 149.346 21.5552C149.493 20.882 150.095 20.3739 150.811 20.3738C151.514 20.3738 152.127 20.8692 152.277 21.5552C152.332 21.8097 152.494 22.0036 152.735 22.1033C152.976 22.203 153.227 22.1804 153.446 22.0397C154.026 21.6675 154.812 21.7346 155.318 22.2406V22.2407C155.901 22.8239 155.901 23.7782 155.318 24.3614L154.119 25.56C154.102 25.5596 154.084 25.5593 154.066 25.5593H147.556C147.538 25.5593 147.52 25.5597 147.503 25.56ZM137.164 46.1838L141.138 53.1966L142.633 52.3336C142.778 52.2495 142.95 52.2272 143.113 52.2707L152.504 54.339C153.747 54.6712 154.915 54.5071 155.982 53.851L167.386 46.7635C168.007 46.3827 168.197 45.2644 167.769 44.5484C167.148 43.5113 165.504 43.6337 163.369 44.8765L157.969 48.0217C156.845 48.6779 155.633 48.8902 154.268 48.6716C154.018 48.6313 153.773 48.5885 153.531 48.5421C153.479 48.5383 148.937 47.3577 148.416 47.2174C148.078 47.1274 147.877 46.7815 147.97 46.4456C148.059 46.1086 148.405 45.9092 148.74 45.9993C149.272 46.1417 152.493 47.0549 153.702 47.29C154.32 47.3294 155.038 47.1576 155.283 46.2485C155.484 45.5031 155.045 44.7461 154.26 44.4742C152.054 44.0702 149.923 43.3006 148.212 42.681C147.613 42.4648 147.096 42.278 146.649 42.133C145.243 41.677 143.908 42.2755 142.677 42.99L137.164 46.1838ZM140.994 55.5141L134.916 44.7739C134.856 44.669 134.76 44.5938 134.641 44.5608C134.6 44.55 134.559 44.5444 134.518 44.5444C134.44 44.5444 134.365 44.5641 134.298 44.6021L132.23 45.7719C132.011 45.8958 131.936 46.1736 132.059 46.3913L138.137 57.1313C138.26 57.3497 138.539 57.4263 138.755 57.3033L140.823 56.133C140.927 56.0738 141.001 55.9761 141.035 55.8589C141.068 55.7413 141.053 55.619 140.994 55.5141Z" fill="white"/>
<path d="M178.32 44.8679L182.176 33.3479H184.16L188.016 44.8679H186.536L182.928 34.1799H183.376L179.8 44.8679H178.32ZM180.176 42.1719V40.8359H186.16V42.1719H180.176ZM189.608 44.8679V33.3479H191.032V44.8679H189.608ZM193.433 44.8679V33.3479H200.153V34.7719H194.857V38.3959H199.193V39.8199H194.857V44.8679H193.433Z" fill="white"/>
</g>
<g filter="url(#filter3_d_354_2076)">
<rect x="371" y="84.3738" width="151.504" height="68" rx="6" fill="#234930" shape-rendering="crispEdges"/>
<path fill-rule="evenodd" clip-rule="evenodd" d="M402.599 104.701L408.872 107.726C408.946 107.761 409.012 107.811 409.066 107.871C409.121 107.932 409.162 108.003 409.189 108.08C409.216 108.157 409.227 108.239 409.223 108.32C409.218 108.402 409.197 108.482 409.161 108.555C409.101 108.677 409.004 108.776 408.883 108.837L402.798 111.929C402.709 111.972 402.611 111.995 402.512 111.995C402.412 111.995 402.315 111.972 402.226 111.929L395.953 108.905C395.849 108.855 395.761 108.777 395.698 108.679C395.636 108.582 395.603 108.469 395.601 108.353C395.6 108.238 395.631 108.124 395.691 108.025C395.751 107.926 395.838 107.847 395.941 107.794L402.027 104.702C402.115 104.658 402.213 104.635 402.312 104.635C402.412 104.635 402.51 104.657 402.599 104.701ZM402.643 116.191L417.492 108.647C417.595 108.595 417.682 108.515 417.742 108.416C417.802 108.317 417.833 108.204 417.831 108.088C417.83 107.973 417.796 107.86 417.734 107.763C417.672 107.665 417.583 107.588 417.479 107.538C417.479 107.538 402.847 100.484 402.759 100.44C402.67 100.397 402.588 100.374 402.474 100.374C402.36 100.374 402.277 100.397 402.189 100.44L387.34 107.981C387.237 108.033 387.15 108.113 387.09 108.212C387.03 108.311 386.999 108.425 387 108.54C387.001 108.656 387.035 108.769 387.097 108.866C387.16 108.964 387.248 109.042 387.352 109.092L402.08 116.189C402.167 116.232 402.264 116.254 402.362 116.254C402.459 116.254 402.556 116.232 402.644 116.189L402.643 116.191ZM415.121 121.627C415.009 124.201 413.598 126.547 411.37 127.867C409.303 128.921 407.626 127.841 407.628 125.447C407.738 122.873 409.149 120.526 411.379 119.206C413.445 118.152 415.121 119.237 415.121 121.625V121.627ZM419.504 128.104V111.325C419.501 111.158 419.433 110.999 419.314 110.882C419.194 110.765 419.033 110.701 418.866 110.702C418.766 110.703 418.667 110.727 418.578 110.773L403.598 118.421C403.388 118.526 403.257 118.739 403.256 118.972V135.751C403.258 135.918 403.326 136.077 403.446 136.194C403.565 136.311 403.726 136.375 403.893 136.374C403.993 136.373 404.092 136.349 404.181 136.304L419.167 128.655C419.268 128.603 419.353 128.524 419.413 128.427C419.472 128.33 419.503 128.218 419.504 128.104ZM396.337 129.578L389.594 126.338C389.52 126.303 389.454 126.254 389.4 126.194C389.345 126.133 389.303 126.062 389.276 125.985C389.248 125.909 389.237 125.827 389.241 125.746C389.245 125.664 389.266 125.584 389.301 125.511C389.314 125.485 389.329 125.46 389.344 125.437L392.719 120.473C392.815 120.334 392.961 120.239 393.127 120.208C393.293 120.176 393.464 120.211 393.604 120.306C393.706 120.375 393.786 120.471 393.833 120.585L397.209 128.781C397.242 128.856 397.26 128.936 397.262 129.018C397.264 129.1 397.249 129.181 397.219 129.257C397.19 129.333 397.145 129.402 397.089 129.461C397.032 129.52 396.964 129.567 396.889 129.6C396.802 129.638 396.706 129.656 396.61 129.652C396.515 129.648 396.421 129.622 396.337 129.576V129.578Z" fill="white"/>
<path d="M434.712 124.614C433.896 124.614 433.16 124.475 432.504 124.198C431.853 123.92 431.315 123.526 430.888 123.014C430.467 122.496 430.192 121.886 430.064 121.182L431.536 120.95C431.723 121.675 432.109 122.243 432.696 122.654C433.288 123.059 433.984 123.262 434.784 123.262C435.301 123.262 435.768 123.182 436.184 123.022C436.605 122.856 436.939 122.622 437.184 122.318C437.429 122.014 437.552 121.654 437.552 121.238C437.552 120.982 437.507 120.763 437.416 120.582C437.331 120.395 437.211 120.238 437.056 120.11C436.907 119.976 436.736 119.864 436.544 119.774C436.352 119.683 436.152 119.608 435.944 119.55L433.008 118.678C432.688 118.582 432.379 118.462 432.08 118.318C431.781 118.168 431.515 117.984 431.28 117.766C431.045 117.542 430.859 117.275 430.72 116.966C430.581 116.651 430.512 116.28 430.512 115.854C430.512 115.171 430.688 114.59 431.04 114.11C431.397 113.624 431.88 113.254 432.488 112.998C433.096 112.742 433.781 112.616 434.544 112.622C435.317 112.627 436.008 112.766 436.616 113.038C437.229 113.304 437.736 113.688 438.136 114.19C438.541 114.691 438.813 115.291 438.952 115.99L437.44 116.254C437.36 115.784 437.181 115.382 436.904 115.046C436.632 114.704 436.291 114.443 435.88 114.262C435.469 114.075 435.019 113.979 434.528 113.974C434.059 113.968 433.635 114.043 433.256 114.198C432.877 114.352 432.576 114.568 432.352 114.846C432.128 115.118 432.016 115.432 432.016 115.79C432.016 116.142 432.117 116.427 432.32 116.646C432.523 116.859 432.771 117.03 433.064 117.158C433.363 117.28 433.653 117.382 433.936 117.462L436.128 118.094C436.379 118.163 436.667 118.259 436.992 118.382C437.323 118.504 437.643 118.678 437.952 118.902C438.261 119.12 438.517 119.414 438.72 119.782C438.923 120.144 439.024 120.603 439.024 121.158C439.024 121.712 438.912 122.206 438.688 122.638C438.469 123.07 438.163 123.432 437.768 123.726C437.373 124.014 436.915 124.232 436.392 124.382C435.869 124.536 435.309 124.614 434.712 124.614ZM451.03 124.374L451.038 118.846C451.038 118.2 450.865 117.696 450.518 117.334C450.177 116.966 449.731 116.782 449.182 116.782C448.862 116.782 448.558 116.856 448.27 117.006C447.982 117.15 447.747 117.379 447.566 117.694C447.385 118.003 447.294 118.4 447.294 118.886L446.542 118.582C446.531 117.968 446.657 117.432 446.918 116.974C447.185 116.51 447.547 116.15 448.006 115.894C448.465 115.638 448.982 115.51 449.558 115.51C450.459 115.51 451.169 115.784 451.686 116.334C452.203 116.878 452.462 117.611 452.462 118.534L452.454 124.374H451.03ZM440.694 124.374V115.734H441.966V118.046H442.126V124.374H440.694ZM445.87 124.374L445.878 118.902C445.878 118.24 445.707 117.723 445.366 117.35C445.025 116.971 444.571 116.782 444.006 116.782C443.446 116.782 442.993 116.974 442.646 117.358C442.299 117.742 442.126 118.251 442.126 118.886L441.374 118.438C441.374 117.878 441.507 117.376 441.774 116.934C442.041 116.491 442.403 116.144 442.862 115.894C443.321 115.638 443.841 115.51 444.422 115.51C445.003 115.51 445.51 115.632 445.942 115.878C446.374 116.123 446.707 116.475 446.942 116.934C447.177 117.387 447.294 117.928 447.294 118.558L447.286 124.374H445.87ZM457.002 124.614C456.356 124.614 455.815 124.496 455.378 124.262C454.946 124.022 454.618 123.707 454.394 123.318C454.175 122.928 454.066 122.502 454.066 122.038C454.066 121.584 454.151 121.192 454.322 120.862C454.498 120.526 454.743 120.248 455.058 120.03C455.372 119.806 455.748 119.63 456.186 119.502C456.596 119.39 457.055 119.294 457.562 119.214C458.074 119.128 458.591 119.051 459.114 118.982C459.636 118.912 460.124 118.846 460.578 118.782L460.066 119.078C460.082 118.31 459.927 117.742 459.602 117.374C459.282 117.006 458.727 116.822 457.938 116.822C457.415 116.822 456.956 116.942 456.562 117.182C456.172 117.416 455.898 117.8 455.738 118.334L454.386 117.926C454.594 117.168 454.996 116.574 455.594 116.142C456.191 115.71 456.978 115.494 457.954 115.494C458.738 115.494 459.41 115.635 459.97 115.918C460.535 116.195 460.94 116.616 461.186 117.182C461.308 117.448 461.386 117.739 461.418 118.054C461.45 118.363 461.466 118.688 461.466 119.03V124.374H460.202V122.302L460.498 122.494C460.172 123.192 459.716 123.72 459.13 124.078C458.548 124.435 457.839 124.614 457.002 124.614ZM457.218 123.422C457.73 123.422 458.172 123.331 458.546 123.15C458.924 122.963 459.228 122.72 459.458 122.422C459.687 122.118 459.836 121.787 459.906 121.43C459.986 121.163 460.028 120.867 460.034 120.542C460.044 120.211 460.05 119.958 460.05 119.782L460.546 119.998C460.082 120.062 459.626 120.123 459.178 120.182C458.73 120.24 458.306 120.304 457.906 120.374C457.506 120.438 457.146 120.515 456.826 120.606C456.591 120.68 456.37 120.776 456.162 120.894C455.959 121.011 455.794 121.163 455.666 121.35C455.543 121.531 455.482 121.758 455.482 122.03C455.482 122.264 455.54 122.488 455.658 122.702C455.78 122.915 455.967 123.088 456.218 123.222C456.474 123.355 456.807 123.422 457.218 123.422ZM463.706 124.374V112.614H465.13V124.374H463.706ZM467.69 124.374V112.614H469.114V124.374H467.69ZM475.155 124.614C474.28 124.614 473.536 124.419 472.923 124.03C472.315 123.635 471.851 123.094 471.531 122.406C471.211 121.718 471.045 120.934 471.035 120.054C471.045 119.152 471.213 118.36 471.539 117.678C471.869 116.99 472.341 116.454 472.955 116.07C473.568 115.686 474.307 115.494 475.171 115.494C476.083 115.494 476.867 115.718 477.523 116.166C478.184 116.614 478.627 117.227 478.851 118.006L477.443 118.43C477.261 117.928 476.965 117.539 476.555 117.262C476.149 116.984 475.683 116.846 475.155 116.846C474.563 116.846 474.075 116.984 473.691 117.262C473.307 117.534 473.021 117.912 472.835 118.398C472.648 118.878 472.552 119.43 472.547 120.054C472.557 121.014 472.779 121.79 473.211 122.382C473.648 122.968 474.296 123.262 475.155 123.262C475.72 123.262 476.189 123.134 476.563 122.878C476.936 122.616 477.219 122.24 477.411 121.75L478.851 122.126C478.552 122.931 478.085 123.547 477.451 123.974C476.816 124.4 476.051 124.614 475.155 124.614ZM482.861 124.614C482.216 124.614 481.674 124.496 481.237 124.262C480.805 124.022 480.477 123.707 480.253 123.318C480.034 122.928 479.925 122.502 479.925 122.038C479.925 121.584 480.01 121.192 480.181 120.862C480.357 120.526 480.602 120.248 480.917 120.03C481.232 119.806 481.608 119.63 482.045 119.502C482.456 119.39 482.914 119.294 483.421 119.214C483.933 119.128 484.45 119.051 484.973 118.982C485.496 118.912 485.984 118.846 486.437 118.782L485.925 119.078C485.941 118.31 485.786 117.742 485.461 117.374C485.141 117.006 484.586 116.822 483.797 116.822C483.274 116.822 482.816 116.942 482.421 117.182C482.032 117.416 481.757 117.8 481.597 118.334L480.245 117.926C480.453 117.168 480.856 116.574 481.453 116.142C482.05 115.71 482.837 115.494 483.813 115.494C484.597 115.494 485.269 115.635 485.829 115.918C486.394 116.195 486.8 116.616 487.045 117.182C487.168 117.448 487.245 117.739 487.277 118.054C487.309 118.363 487.325 118.688 487.325 119.03V124.374H486.061V122.302L486.357 122.494C486.032 123.192 485.576 123.72 484.989 124.078C484.408 124.435 483.698 124.614 482.861 124.614ZM483.077 123.422C483.589 123.422 484.032 123.331 484.405 123.15C484.784 122.963 485.088 122.72 485.317 122.422C485.546 122.118 485.696 121.787 485.765 121.43C485.845 121.163 485.888 120.867 485.893 120.542C485.904 120.211 485.909 119.958 485.909 119.782L486.405 119.998C485.941 120.062 485.485 120.123 485.037 120.182C484.589 120.24 484.165 120.304 483.765 120.374C483.365 120.438 483.005 120.515 482.685 120.606C482.45 120.68 482.229 120.776 482.021 120.894C481.818 121.011 481.653 121.163 481.525 121.35C481.402 121.531 481.341 121.758 481.341 122.03C481.341 122.264 481.4 122.488 481.517 122.702C481.64 122.915 481.826 123.088 482.077 123.222C482.333 123.355 482.666 123.422 483.077 123.422ZM492.669 124.606C491.64 124.606 490.794 124.382 490.133 123.934C489.477 123.48 489.074 122.848 488.925 122.038L490.381 121.806C490.498 122.275 490.768 122.648 491.189 122.926C491.61 123.198 492.133 123.334 492.757 123.334C493.349 123.334 493.813 123.211 494.149 122.966C494.485 122.72 494.653 122.387 494.653 121.966C494.653 121.72 494.597 121.523 494.485 121.374C494.373 121.219 494.141 121.075 493.789 120.942C493.442 120.808 492.917 120.648 492.213 120.462C491.45 120.259 490.85 120.048 490.413 119.83C489.976 119.611 489.664 119.358 489.477 119.07C489.29 118.782 489.197 118.432 489.197 118.022C489.197 117.515 489.336 117.072 489.613 116.694C489.89 116.31 490.277 116.014 490.773 115.806C491.274 115.598 491.856 115.494 492.517 115.494C493.173 115.494 493.76 115.598 494.277 115.806C494.794 116.014 495.21 116.31 495.525 116.694C495.845 117.072 496.034 117.515 496.093 118.022L494.637 118.286C494.568 117.822 494.344 117.456 493.965 117.19C493.592 116.923 493.109 116.782 492.517 116.766C491.957 116.744 491.501 116.843 491.149 117.062C490.802 117.28 490.629 117.576 490.629 117.95C490.629 118.158 490.693 118.336 490.821 118.486C490.954 118.635 491.197 118.776 491.549 118.91C491.906 119.043 492.424 119.195 493.101 119.366C493.864 119.558 494.464 119.768 494.901 119.998C495.344 120.222 495.658 120.488 495.845 120.798C496.032 121.102 496.125 121.478 496.125 121.926C496.125 122.758 495.818 123.414 495.205 123.894C494.592 124.368 493.746 124.606 492.669 124.606ZM501.634 124.614C500.786 124.614 500.044 124.427 499.41 124.054C498.78 123.675 498.29 123.15 497.938 122.478C497.586 121.8 497.41 121.011 497.41 120.11C497.41 119.166 497.583 118.35 497.93 117.662C498.276 116.968 498.759 116.435 499.378 116.062C500.002 115.683 500.732 115.494 501.57 115.494C502.439 115.494 503.178 115.694 503.786 116.094C504.399 116.494 504.858 117.064 505.162 117.806C505.471 118.547 505.604 119.43 505.562 120.454H504.122V119.942C504.106 118.88 503.89 118.088 503.474 117.566C503.058 117.038 502.439 116.774 501.618 116.774C500.738 116.774 500.068 117.056 499.61 117.622C499.151 118.187 498.922 118.998 498.922 120.054C498.922 121.072 499.151 121.862 499.61 122.422C500.068 122.982 500.722 123.262 501.57 123.262C502.14 123.262 502.636 123.131 503.058 122.87C503.479 122.608 503.81 122.232 504.05 121.742L505.418 122.214C505.082 122.976 504.575 123.568 503.898 123.99C503.226 124.406 502.471 124.614 501.634 124.614ZM498.442 120.454V119.31H504.826V120.454H498.442Z" fill="white"/>
</g>
<defs>
<filter id="filter0_d_354_2076" x="309" y="320.374" width="241.453" height="88" filterUnits="userSpaceOnUse" color-interpolation-filters="sRGB">
<feFlood flood-opacity="0" result="BackgroundImageFix"/>
<feColorMatrix in="SourceAlpha" type="matrix" values="0 0 0 0 0 0 0 0 0 0 0 0 0 0 0 0 0 0 127 0" result="hardAlpha"/>
<feOffset dx="6" dy="6"/>
<feGaussianBlur stdDeviation="5"/>
<feComposite in2="hardAlpha" operator="out"/>
<feColorMatrix type="matrix" values="0 0 0 0 0 0 0 0 0 0 0 0 0 0 0 0 0 0 0.05 0"/>
<feBlend mode="normal" in2="BackgroundImageFix" result="effect1_dropShadow_354_2076"/>
<feBlend mode="normal" in="SourceGraphic" in2="effect1_dropShadow_354_2076" result="shape"/>
</filter>
<filter id="filter1_d_354_2076" x="0" y="290.374" width="191.689" height="88" filterUnits="userSpaceOnUse" color-interpolation-filters="sRGB">
<feFlood flood-opacity="0" result="BackgroundImageFix"/>
<feColorMatrix in="SourceAlpha" type="matrix" values="0 0 0 0 0 0 0 0 0 0 0 0 0 0 0 0 0 0 127 0" result="hardAlpha"/>
<feOffset dx="6" dy="6"/>
<feGaussianBlur stdDeviation="5"/>
<feComposite in2="hardAlpha" operator="out"/>
<feColorMatrix type="matrix" values="0 0 0 0 0 0 0 0 0 0 0 0 0 0 0 0 0 0 0.05 0"/>
<feBlend mode="normal" in2="BackgroundImageFix" result="effect1_dropShadow_354_2076"/>
<feBlend mode="normal" in="SourceGraphic" in2="effect1_dropShadow_354_2076" result="shape"/>
</filter>
<filter id="filter2_d_354_2076" x="112" y="0.373779" width="121" height="88.9883" filterUnits="userSpaceOnUse" color-interpolation-filters="sRGB">
<feFlood flood-opacity="0" result="BackgroundImageFix"/>
<feColorMatrix in="SourceAlpha" type="matrix" values="0 0 0 0 0 0 0 0 0 0 0 0 0 0 0 0 0 0 127 0" result="hardAlpha"/>
<feOffset dx="6" dy="6"/>
<feGaussianBlur stdDeviation="5"/>
<feComposite in2="hardAlpha" operator="out"/>
<feColorMatrix type="matrix" values="0 0 0 0 0 0 0 0 0 0 0 0 0 0 0 0 0 0 0.05 0"/>
<feBlend mode="normal" in2="BackgroundImageFix" result="effect1_dropShadow_354_2076"/>
<feBlend mode="normal" in="SourceGraphic" in2="effect1_dropShadow_354_2076" result="shape"/>
</filter>
<filter id="filter3_d_354_2076" x="367" y="80.3738" width="171.504" height="88" filterUnits="userSpaceOnUse" color-interpolation-filters="sRGB">
<feFlood flood-opacity="0" result="BackgroundImageFix"/>
<feColorMatrix in="SourceAlpha" type="matrix" values="0 0 0 0 0 0 0 0 0 0 0 0 0 0 0 0 0 0 127 0" result="hardAlpha"/>
<feOffset dx="6" dy="6"/>
<feGaussianBlur stdDeviation="5"/>
<feComposite in2="hardAlpha" operator="out"/>
<feColorMatrix type="matrix" values="0 0 0 0 0 0 0 0 0 0 0 0 0 0 0 0 0 0 0.05 0"/>
<feBlend mode="normal" in2="BackgroundImageFix" result="effect1_dropShadow_354_2076"/>
<feBlend mode="normal" in="SourceGraphic" in2="effect1_dropShadow_354_2076" result="shape"/>
</filter>
</defs>
</svg>
