<svg width="21" height="16" viewBox="0 0 21 16" fill="none" xmlns="http://www.w3.org/2000/svg">
<path d="M0.674716 16V11.6534C0.674716 10.4034 0.909091 9.10369 1.37784 7.75426C1.8608 6.39062 2.5142 5.10511 3.33807 3.89773C4.17614 2.67614 5.11364 1.64631 6.15057 0.808236L9.73011 3.13068C8.89205 4.39488 8.18892 5.71591 7.62074 7.09375C7.06676 8.45739 6.79688 9.96307 6.81108 11.6108V16H0.674716ZM11.4773 16V11.6534C11.4773 10.4034 11.7116 9.10369 12.1804 7.75426C12.6634 6.39062 13.3168 5.10511 14.1406 3.89773C14.9787 2.67614 15.9162 1.64631 16.9531 0.808236L20.5327 3.13068C19.6946 4.39488 18.9915 5.71591 18.4233 7.09375C17.8693 8.45739 17.5994 9.96307 17.6136 11.6108V16H11.4773Z" fill="url(#paint0_linear_24_700)"/>
<defs>
<linearGradient id="paint0_linear_24_700" x1="-2.5" y1="24" x2="22.5" y2="24" gradientUnits="userSpaceOnUse">
<stop stop-color="#234930"/>
<stop offset="1" stop-color="#83B645"/>
</linearGradient>
</defs>
</svg>
