<svg width="15" height="15" viewBox="0 0 15 15" fill="none" xmlns="http://www.w3.org/2000/svg">
<path d="M1 5.54983C1 4.87558 1.00106 4.42041 1.04681 4.08034C1.09061 3.75475 1.16696 3.61037 1.26375 3.51358C1.36054 3.41679 1.50493 3.34044 1.83051 3.29664C2.17058 3.25089 2.62575 3.24983 3.3 3.24983H11.7C12.3742 3.24983 12.8294 3.25089 13.1695 3.29664C13.4951 3.34044 13.6395 3.41679 13.7362 3.51358C13.833 3.61037 13.9094 3.75475 13.9532 4.08034C13.9989 4.42041 14 4.87558 14 5.54983C14 5.63074 14 5.69416 13.9987 5.74854C13.9443 5.74979 13.8809 5.74983 13.8 5.74983H1.2C1.11909 5.74983 1.05567 5.7498 1.00128 5.74855C1.00003 5.69414 1 5.63072 1 5.54983ZM1.26375 13.8861C1.16696 13.7893 1.09061 13.6449 1.04681 13.3193C1.00106 12.9793 1 12.5241 1 11.8498V8.34983C1 8.26894 1.00003 8.20552 1.00128 8.15111C1.05567 8.14986 1.11909 8.14983 1.2 8.14983H13.8C13.8809 8.14983 13.9443 8.14986 13.9987 8.15112C14 8.2055 14 8.26892 14 8.34983V11.8498C14 12.5241 13.9989 12.9792 13.9532 13.3193C13.9094 13.6449 13.833 13.7893 13.7362 13.8861C13.6395 13.9829 13.4951 14.0592 13.1695 14.103C12.8294 14.1488 12.3742 14.1498 11.7 14.1498H3.3C2.62575 14.1498 2.17058 14.1488 1.83051 14.103C1.50493 14.0592 1.36054 13.9829 1.26375 13.8861Z" fill="#234930" stroke="#234930"/>
<path d="M4 1.35017V3.45017V1.35017ZM11 1.35017V3.45017V1.35017Z" fill="#234930"/>
<path d="M4 1.35017V3.45017M11 1.35017V3.45017" stroke="#234930" stroke-width="2" stroke-linecap="round"/>
</svg>
