<svg width="17" height="17" viewBox="0 0 17 17" fill="none" xmlns="http://www.w3.org/2000/svg">
<path d="M16.051 16.7546C14.1992 16.7546 12.3696 16.3511 10.5622 15.544C8.75475 14.7369 7.1103 13.5923 5.62882 12.1102C4.14734 10.6281 3.00304 8.98368 2.19593 7.17686C1.38882 5.37005 0.984968 3.54042 0.984375 1.68797C0.984375 1.42131 1.07326 1.19908 1.25104 1.02131C1.42882 0.843528 1.65104 0.754639 1.91771 0.754639H5.51771C5.72512 0.754639 5.9103 0.825157 6.07326 0.966194C6.23623 1.10723 6.33252 1.27375 6.36215 1.46575L6.93993 4.57686C6.96956 4.8139 6.96215 5.0139 6.91771 5.17686C6.87326 5.33982 6.79178 5.48056 6.67326 5.59908L4.51771 7.77686C4.814 8.32501 5.16571 8.85449 5.57282 9.36531C5.97993 9.87612 6.42823 10.3689 6.91771 10.8435C7.37697 11.3028 7.85845 11.7289 8.36215 12.1217C8.86586 12.5146 9.39919 12.8737 9.96215 13.1991L12.051 11.1102C12.1844 10.9769 12.3586 10.877 12.5737 10.8106C12.7888 10.7443 12.9998 10.7256 13.2066 10.7546L16.2733 11.3769C16.4807 11.4361 16.651 11.5437 16.7844 11.6995C16.9177 11.8554 16.9844 12.0293 16.9844 12.2213V15.8213C16.9844 16.088 16.8955 16.3102 16.7177 16.488C16.5399 16.6658 16.3177 16.7546 16.051 16.7546Z" fill="#234930"/>
</svg>
