<svg width="17" height="16" viewBox="0 0 17 16" fill="none" xmlns="http://www.w3.org/2000/svg">
<path d="M15.207 16C13.3551 16 11.5255 15.5964 9.7181 14.7893C7.91069 13.9822 6.26625 12.8376 4.78476 11.3556C3.30328 9.87348 2.15899 8.22904 1.35188 6.42222C0.544764 4.61541 0.140912 2.78578 0.14032 0.933334C0.14032 0.666667 0.229209 0.444444 0.406986 0.266667C0.584764 0.0888888 0.806987 0 1.07365 0H4.67365C4.88106 0 5.06625 0.0705184 5.22921 0.211555C5.39217 0.352593 5.48847 0.519111 5.5181 0.711111L6.09588 3.82222C6.1255 4.05926 6.1181 4.25926 6.07365 4.42222C6.02921 4.58519 5.94773 4.72593 5.82921 4.84444L3.67365 7.02222C3.96995 7.57037 4.32165 8.09985 4.72876 8.61067C5.13588 9.12148 5.58417 9.61422 6.07365 10.0889C6.53291 10.5481 7.01439 10.9742 7.5181 11.3671C8.0218 11.76 8.55513 12.1191 9.1181 12.4444L11.207 10.3556C11.3403 10.2222 11.5145 10.1224 11.7297 10.056C11.9448 9.98963 12.1557 9.97096 12.3625 10L15.4292 10.6222C15.6366 10.6815 15.807 10.789 15.9403 10.9449C16.0737 11.1007 16.1403 11.2747 16.1403 11.4667V15.0667C16.1403 15.3333 16.0514 15.5556 15.8737 15.7333C15.6959 15.9111 15.4737 16 15.207 16Z" fill="white"/>
</svg>
