<svg width="13" height="14" viewBox="0 0 13 14" fill="none" xmlns="http://www.w3.org/2000/svg">
<path d="M12.5839 2.63602C12.6914 2.5323 12.7771 2.4082 12.8361 2.27097C12.8952 2.13375 12.9263 1.98614 12.9276 1.83677C12.929 1.68739 12.9006 1.53924 12.8441 1.40095C12.7876 1.26267 12.7041 1.13702 12.5986 1.03134C12.493 0.925663 12.3674 0.84207 12.2292 0.785439C12.0909 0.728807 11.9428 0.700273 11.7934 0.7015C11.6441 0.702728 11.4964 0.733692 11.3591 0.792586C11.2219 0.851481 11.0977 0.937126 10.9939 1.04452L6.48486 5.55203L1.97736 1.04452C1.87437 0.933995 1.75017 0.845342 1.61217 0.783854C1.47417 0.722366 1.3252 0.689303 1.17414 0.686637C1.02309 0.683972 0.873045 0.71176 0.732963 0.768341C0.592881 0.824923 0.46563 0.90914 0.358802 1.01597C0.251974 1.1228 0.167757 1.25005 0.111176 1.39013C0.0545941 1.53021 0.0268068 1.68025 0.029472 1.83131C0.0321371 1.98236 0.0652001 2.13133 0.126688 2.26933C0.188176 2.40733 0.276829 2.53153 0.387359 2.63453L4.89186 7.14353L0.38436 11.651C0.18564 11.8643 0.0774545 12.1464 0.0825969 12.4378C0.0877392 12.7293 0.205808 13.0073 0.411927 13.2135C0.618047 13.4196 0.896124 13.5376 1.18758 13.5428C1.47903 13.5479 1.7611 13.4397 1.97436 13.241L6.48486 8.73353L10.9924 13.2425C11.2056 13.4412 11.4877 13.5494 11.7791 13.5443C12.0706 13.5391 12.3487 13.4211 12.5548 13.215C12.7609 13.0088 12.879 12.7308 12.8841 12.4393C12.8893 12.1479 12.7811 11.8658 12.5824 11.6525L8.07786 7.14353L12.5839 2.63602Z" fill="#234930"/>
</svg>
