<svg width="15" height="15" viewBox="0 0 15 15" fill="none" xmlns="http://www.w3.org/2000/svg">
<path d="M0.984375 5.69355C0.984375 5.01931 0.985438 4.56413 1.03119 4.22407C1.07499 3.89848 1.15134 3.7541 1.24813 3.65731C1.34492 3.56052 1.4893 3.48417 1.81489 3.44037C2.15495 3.39462 2.61013 3.39355 3.28437 3.39355H11.6844C12.3586 3.39355 12.8138 3.39462 13.1539 3.44037C13.4794 3.48417 13.6238 3.56052 13.7206 3.65731C13.8174 3.7541 13.8938 3.89848 13.9376 4.22407C13.9833 4.56413 13.9844 5.01931 13.9844 5.69355C13.9844 5.77447 13.9843 5.83788 13.9831 5.89227C13.9287 5.89352 13.8653 5.89355 13.7844 5.89355H1.18437C1.10346 5.89355 1.04004 5.89352 0.985659 5.89228C0.984405 5.83786 0.984375 5.77445 0.984375 5.69355ZM1.24813 14.0298C1.15134 13.933 1.07499 13.7886 1.03119 13.463C0.985438 13.123 0.984375 12.6678 0.984375 11.9936V8.49355C0.984375 8.41266 0.984405 8.34925 0.985659 8.29483C1.04004 8.29358 1.10346 8.29355 1.18437 8.29355H13.7844C13.8653 8.29355 13.9287 8.29359 13.9831 8.29484C13.9843 8.34923 13.9844 8.41264 13.9844 8.49355V11.9936C13.9844 12.6678 13.9833 13.123 13.9376 13.463C13.8938 13.7886 13.8174 13.933 13.7206 14.0298C13.6238 14.1266 13.4794 14.2029 13.1539 14.2467C12.8138 14.2925 12.3586 14.2936 11.6844 14.2936H3.28437C2.61013 14.2936 2.15495 14.2925 1.81489 14.2467C1.4893 14.2029 1.34492 14.1266 1.24813 14.0298Z" fill="#234930" stroke="#234930"/>
<path d="M3.98438 1.49365V3.59365V1.49365ZM10.9844 1.49365V3.59365V1.49365Z" fill="#234930"/>
<path d="M3.98438 1.49365V3.59365M10.9844 1.49365V3.59365" stroke="#234930" stroke-width="2" stroke-linecap="round"/>
</svg>
