<svg width="15" height="9" viewBox="0 0 15 9" fill="none" xmlns="http://www.w3.org/2000/svg">
<path d="M7.51632 8.05654C7.38419 8.05729 7.25321 8.03262 7.13089 7.98397C7.00856 7.93531 6.89731 7.86361 6.8035 7.77299L0.779636 1.90644C0.590584 1.72232 0.484375 1.47261 0.484375 1.21223C0.484375 0.95185 0.590584 0.702135 0.779636 0.51802C0.968689 0.333904 1.2251 0.230469 1.49246 0.230469C1.75982 0.230469 2.01623 0.333904 2.20528 0.51802L7.51632 5.70014L12.8274 0.527797C13.0194 0.367615 13.2665 0.283912 13.5191 0.293417C13.7718 0.302922 14.0115 0.404934 14.1903 0.579068C14.3691 0.753202 14.4739 0.986631 14.4836 1.23271C14.4934 1.47879 14.4074 1.71939 14.243 1.90644L8.2191 7.77299C8.0321 7.95363 7.7797 8.05546 7.51632 8.05654Z" fill="#3B3B3B"/>
</svg>
