<svg width="27" height="27" viewBox="0 0 27 27" fill="#83B645" xmlns="http://www.w3.org/2000/svg">
<g clip-path="url(#clip0_248_1407)">
<path d="M21.0676 13.6936C20.4686 13.6936 19.9844 14.179 19.9844 14.7769V23.4436C19.9844 24.0405 19.499 24.5269 18.9011 24.5269H3.73437C3.13631 24.5269 2.65111 24.0405 2.65111 23.4436V8.27686C2.65111 7.67998 3.13631 7.19359 3.73437 7.19359H12.4011C13.0002 7.19359 13.4844 6.70819 13.4844 6.11032C13.4844 5.51225 13.0002 5.02686 12.4011 5.02686H3.73437C1.94255 5.02686 0.484375 6.48503 0.484375 8.27686V23.4436C0.484375 25.2354 1.94255 26.6936 3.73437 26.6936H18.9011C20.6929 26.6936 22.1511 25.2354 22.1511 23.4436V14.7769C22.1511 14.1778 21.6667 13.6936 21.0676 13.6936Z"/>
<path d="M10.6416 12.7066C10.5658 12.7823 10.5148 12.8788 10.4932 12.9827L9.72734 16.8135C9.69164 16.991 9.74797 17.1741 9.87572 17.3031C9.97867 17.406 10.1173 17.4612 10.2594 17.4612C10.2939 17.4612 10.3298 17.458 10.3655 17.4505L14.1951 16.6846C14.3012 16.6628 14.3976 16.612 14.4724 16.536L23.0437 7.96468L19.2141 4.13525L10.6416 12.7066Z" />
<path d="M25.6914 1.48655C24.6353 0.430263 22.9171 0.430263 21.8618 1.48655L20.3625 2.98579L24.1922 6.81541L25.6914 5.31598C26.2028 4.80578 26.4845 4.12539 26.4845 3.40176C26.4845 2.67813 26.2028 1.99774 25.6914 1.48655Z" />
</g>
<defs>
<clipPath id="clip0_248_1407">
<rect width="26" height="26" fill="white" transform="translate(0.484375 0.643555)"/>
</clipPath>
</defs>
</svg>
