<svg width="21" height="15" viewBox="0 0 21 15" fill="none" xmlns="http://www.w3.org/2000/svg">
<path d="M16.8796 13.5388L4.08817 0.747823L4.08543 0.744698C4.01618 0.67601 3.93408 0.621636 3.84381 0.584678C3.75355 0.547721 3.65689 0.528904 3.55935 0.529303C3.46181 0.529702 3.36531 0.549309 3.27535 0.587004C3.18539 0.624698 3.10373 0.679743 3.03504 0.748995C2.96636 0.818247 2.91198 0.900349 2.87502 0.990615C2.83807 1.08088 2.81925 1.17754 2.81965 1.27508C2.82045 1.47207 2.89948 1.66066 3.03934 1.79939L4.15926 2.91931C2.8011 3.84948 1.63206 5.02926 0.71434 6.39587C0.564477 6.61713 0.484375 6.87824 0.484375 7.14548C0.484375 7.41272 0.564477 7.67382 0.71434 7.89509C3.05692 11.3623 6.77059 13.3935 10.4843 13.3681C11.6872 13.3725 12.8821 13.1722 14.0179 12.7759L15.8307 14.5888C15.9704 14.724 16.1576 14.799 16.3519 14.7977C16.5463 14.7963 16.7324 14.7188 16.8702 14.5818C17.008 14.4447 17.0866 14.259 17.089 14.0647C17.0914 13.8703 17.0175 13.6828 16.8831 13.5424L16.8796 13.5388ZM10.4843 11.3521C9.78067 11.3519 9.08836 11.1753 8.4706 10.8385C7.85284 10.5017 7.32933 10.0155 6.94792 9.42423C6.56652 8.83298 6.33937 8.15557 6.28723 7.45391C6.2351 6.75225 6.35965 6.04871 6.6495 5.40759L7.81942 6.57751C7.72518 7.02157 7.74339 7.48214 7.87239 7.91737C8.00139 8.35261 8.23709 8.74871 8.55808 9.0697C8.87908 9.39069 9.27518 9.6264 9.71041 9.7554C10.1456 9.8844 10.6062 9.90261 11.0503 9.80837L12.2202 10.9783C11.6749 11.2255 11.083 11.353 10.4843 11.3521Z" fill="#656567"/>
<path d="M20.2542 6.39394C17.9116 2.9248 14.1979 0.893546 10.4843 0.918936C9.28136 0.914579 8.08646 1.11483 6.95068 1.51112L8.74756 3.308C9.52728 2.95514 10.396 2.84829 11.238 3.0017C12.08 3.1551 12.8552 3.56146 13.4604 4.16664C14.0656 4.77181 14.4719 5.54705 14.6253 6.38904C14.7787 7.23102 14.6719 8.09976 14.319 8.87948L16.8089 11.3693C18.1673 10.4393 19.3365 9.2595 20.2542 7.89276C20.404 7.67154 20.484 7.41051 20.484 7.14335C20.484 6.87619 20.404 6.61516 20.2542 6.39394Z" fill="#656567"/>
<path d="M10.4845 4.41931C10.2942 4.41934 10.1045 4.43924 9.91846 4.47869L13.1493 7.70916C13.2336 7.31224 13.2281 6.90152 13.1333 6.507C13.0385 6.11248 12.8567 5.74411 12.6013 5.42882C12.3459 5.11353 12.0233 4.85926 11.6571 4.68461C11.2909 4.50995 10.8902 4.41931 10.4845 4.41931Z" fill="#656567"/>
</svg>
