<svg width="100" height="16" viewBox="0 0 100 16" fill="none" xmlns="http://www.w3.org/2000/svg">
<path d="M8.15297 0.364502C12.6573 0.364502 16.3058 3.83899 16.3058 8.12848C16.3058 12.418 12.6573 15.8925 8.15297 15.8925C3.64862 15.8925 0.000103077 12.418 0.000103077 8.12848C-0.0224187 3.86044 3.64862 0.364502 8.15297 0.364502Z" fill="#EA5817"/>
<path d="M7.04925 8.45009L7.38708 7.69943H6.50873C6.50873 7.72088 7.04925 8.45009 7.04925 8.45009ZM6.8916 6.94877L7.36456 7.72087L7.70238 6.94877H6.8916ZM6.8916 6.94877L7.36456 6.00508H6.30604L6.8916 6.94877ZM4.23404 6.00508L5.27004 7.93535L6.32856 6.00508H4.23404ZM5.29256 7.93535L4.18899 9.95141H6.3736L5.8556 8.98628L5.29256 7.93535ZM5.83308 6.94877L6.35108 8.02114L6.50873 7.72087L6.91412 6.94877H5.83308ZM6.35108 8.02114L5.8556 8.98628H6.82404L6.35108 8.02114ZM7.04925 8.45009L6.82404 8.98628H7.45464L7.04925 8.45009ZM6.3736 9.95141H7.27447L6.80151 8.98628L6.3736 9.95141ZM7.34203 11.7744L6.3736 9.97286L5.56282 11.7744H7.34203ZM8.15282 9.95141L7.99516 9.73694L7.43212 8.96483H8.85099L8.15282 9.95141ZM5.42769 4.52521L6.91412 2.68073H4.3016L5.42769 4.52521ZM7.13934 4.52521H5.42769L6.32856 6.00508L7.13934 4.52521ZM4.23404 6.00508L5.42769 4.52521H3.44578L4.23404 6.00508ZM4.23404 6.00508H1.14856L2.65752 7.97825L4.23404 6.00508ZM4.18899 9.95141L3.19804 11.753H5.56282L4.18899 9.95141ZM1.05847 9.95141H4.18899L2.65752 7.9568L1.05847 9.95141ZM4.90969 13.2329H6.6889L5.56282 11.753C5.56282 11.7744 4.90969 13.2329 4.90969 13.2329ZM9.25638 8.45009L8.91856 7.69943H9.7969L9.25638 8.45009ZM9.39151 6.94877L8.91856 7.72087L8.58073 6.94877H9.39151ZM9.39151 6.94877L8.91856 6.00508H9.97708L9.39151 6.94877ZM12.0491 6.00508L11.0131 7.93535L9.95455 6.00508H12.0491ZM11.0131 7.93535L12.1166 9.95141H9.90951L10.4275 8.98628L11.0131 7.93535ZM10.4726 6.94877L9.95455 8.02114L9.7969 7.72087L9.39151 6.94877H10.4726ZM9.95455 8.02114L10.45 8.98628H9.4816L9.95455 8.02114ZM9.25638 8.47154L9.4816 9.00772H8.85099L9.25638 8.47154ZM9.90951 9.95141H9.00864L9.4816 8.98628L9.90951 9.95141ZM8.94108 11.7744L9.90951 9.97286L10.7203 11.7744H8.94108ZM8.15282 6.94877H8.58073L8.15282 6.00508L7.7249 6.94877H8.15282ZM8.15282 8.98628L8.26542 8.8147L8.91856 7.72087H7.38708L8.15282 8.98628ZM8.15282 11.7744L9.03116 9.97286H7.29699L7.97264 11.3669L8.15282 11.7744ZM10.8554 4.52521L9.36899 2.68073H11.9815L10.8554 4.52521ZM9.14377 4.52521H10.8554L9.95455 6.00508L9.14377 4.52521ZM12.0491 6.00508L10.8554 4.52521H12.8373L12.0491 6.00508ZM12.0491 6.00508H15.1346L13.6256 7.97825L12.0491 6.00508ZM12.1166 9.95141L13.1076 11.753H10.7428L12.1166 9.95141ZM15.2472 9.95141H12.1166L13.6481 7.9568L15.2472 9.95141ZM11.3959 13.2329H9.61673L10.7428 11.753L11.3959 13.2329ZM8.15282 2.68073H9.39151L8.15282 1.15796L6.91412 2.68073H8.15282ZM8.15282 4.52521H9.16629L8.15282 2.68073L7.13934 4.52521H8.15282ZM8.15282 6.00508H8.91856L8.46812 5.10429L8.17534 4.52521L7.4096 6.00508H8.15282ZM8.15282 13.2329L8.35551 12.8468L8.94108 11.753H7.34203C7.34203 11.7744 8.15282 13.2329 8.15282 13.2329ZM8.15282 15.1417L9.61673 13.2329H6.71143L8.15282 15.1417Z" fill="white"/>
<path d="M25.8328 3.02441H24.0761C23.513 3.02441 23.0626 3.45336 23.0626 3.98955V13.2763H24.8193C25.3823 13.2763 25.8328 12.8473 25.8328 12.3112V3.02441ZM28.7606 3.02441H34.7063V4.74021C34.7063 5.25495 34.2784 5.66245 33.7379 5.66245H30.5398V6.97074H34.0082V8.68654C34.0082 9.20128 33.5802 9.60878 33.0397 9.60878H30.5623V12.3326C30.5623 12.8473 30.1119 13.2763 29.5714 13.2763H27.7922V3.9681C27.7922 3.43191 28.2201 3.02441 28.7606 3.02441ZM21.1257 3.02441H19.369C18.806 3.02441 18.3556 3.45336 18.3556 3.98955V13.2763H20.1123C20.6753 13.2763 21.1257 12.8473 21.1257 12.3112V3.02441ZM39.0305 3.02441H37.2513C36.7108 3.02441 36.2603 3.45336 36.2603 3.9681V13.2763H41.4403C41.9809 13.2763 42.4088 12.8688 42.4088 12.3541V10.6383H39.0305V3.02441Z" fill="#202143"/>
<path d="M53.6917 5.53296H56.5745C56.7772 5.53296 56.9573 5.70454 56.9573 5.89756V6.62678C56.9573 6.81981 56.7772 6.99139 56.5745 6.99139H54.0746C53.8493 6.99139 53.6467 7.16296 53.6467 7.39889V8.70718H56.5745C56.7772 8.70718 56.9573 8.87876 56.9573 9.07179V9.801C56.9573 9.99403 56.7772 10.1656 56.5745 10.1656H53.6467V11.4739C53.6467 11.6884 53.8268 11.8814 54.0746 11.8814H56.5745C56.7772 11.8814 56.9573 12.053 56.9573 12.246V12.9752C56.9573 13.1682 56.7772 13.3398 56.5745 13.3398H53.6917C52.8359 13.3398 52.1377 12.675 52.1377 11.86V7.05573C52.1602 6.19783 52.8359 5.53296 53.6917 5.53296Z" fill="#202143"/>
<path d="M90.4925 5.53296H93.3753C93.578 5.53296 93.7582 5.70454 93.7582 5.89756V6.62678C93.7582 6.81981 93.578 6.99139 93.3753 6.99139H90.8754C90.6502 6.99139 90.4475 7.16296 90.4475 7.39889V8.70718H93.3753C93.578 8.70718 93.7582 8.87876 93.7582 9.07179V9.801C93.7582 9.99403 93.578 10.1656 93.3753 10.1656H90.4475V11.4739C90.4475 11.6884 90.6277 11.8814 90.8754 11.8814H93.3753C93.578 11.8814 93.7582 12.053 93.7582 12.246V12.9752C93.7582 13.1682 93.578 13.3398 93.3753 13.3398H90.4925C89.6367 13.3398 88.9385 12.675 88.9385 11.86V7.05573C88.9385 6.19783 89.6367 5.53296 90.4925 5.53296Z" fill="#202143"/>
<path d="M77.2047 5.89756V12.9323C77.2047 13.1254 77.3849 13.2969 77.5876 13.2969H78.3533C78.556 13.2969 78.7362 13.1254 78.7362 12.9323V5.89756C78.7362 5.70454 78.556 5.53296 78.3533 5.53296H77.5876C77.3849 5.53296 77.2047 5.70454 77.2047 5.89756Z" fill="#202143"/>
<path d="M70.7859 5.89756V12.9323C70.7859 13.1254 70.9661 13.2969 71.1688 13.2969H71.9345C72.1372 13.2969 72.3174 13.1254 72.3174 12.9323V10.2085H73.1056L74.8398 13.0181C74.9749 13.1897 75.1776 13.2969 75.4028 13.2969H76.2361C76.5515 13.2969 76.619 13.0181 76.4839 12.7822L74.7722 9.99403C75.6281 9.60797 76.1911 8.79297 76.1911 7.89218V7.84928C76.1911 6.56244 75.0875 5.53296 73.7588 5.53296H71.1688C70.9661 5.53296 70.7859 5.70454 70.7859 5.89756ZM72.3174 8.77152V6.96994H73.7137C74.2317 6.96994 74.6596 7.37744 74.6596 7.87073C74.6596 8.36402 74.2317 8.77152 73.7137 8.77152H72.3174Z" fill="#202143"/>
<path d="M63.9844 5.89756V10.4659V10.4873V10.5731C63.9844 12.0744 65.2681 13.2755 66.8447 13.2969C68.4212 13.2969 69.6824 12.0744 69.7049 10.5731V5.89756C69.7049 5.70454 69.5247 5.53296 69.3221 5.53296H68.5563C68.3536 5.53296 68.1734 5.70454 68.1734 5.89756V10.4659V10.4873V10.5731C68.1734 11.2594 67.5879 11.8385 66.8447 11.8385C66.124 11.8385 65.5159 11.2809 65.5159 10.5731V5.89756C65.5159 5.70454 65.3357 5.53296 65.133 5.53296H64.3673C64.1646 5.53296 63.9844 5.70454 63.9844 5.89756Z" fill="#202143"/>
<path d="M85.0197 5.53296H79.9973C79.7946 5.53296 79.6144 5.70454 79.6144 5.89756V6.62678C79.6144 6.81981 79.7946 6.99139 79.9973 6.99139H81.7315V12.9323C81.7315 13.1254 81.9117 13.2969 82.1144 13.2969H82.8801C83.0828 13.2969 83.263 13.1254 83.263 12.9323V6.99139H84.9971C85.1998 6.99139 85.38 6.81981 85.38 6.62678V5.89756C85.4025 5.70454 85.2224 5.53296 85.0197 5.53296Z" fill="#202143"/>
<path d="M86.3034 5.89756V12.9323C86.3034 13.1254 86.4835 13.2969 86.6862 13.2969H87.452C87.6547 13.2969 87.8349 13.1254 87.8349 12.9323V5.89756C87.8349 5.70454 87.6547 5.53296 87.452 5.53296H86.6862C86.4835 5.53296 86.3034 5.70454 86.3034 5.89756Z" fill="#202143"/>
<path d="M62.5203 5.53296H60.9888H60.9663H60.8987C60.651 5.53296 60.4032 5.55441 60.1555 5.61875C59.8852 5.68309 59.6375 5.76888 59.3898 5.89756C59.142 6.0477 58.8943 6.24073 58.7141 6.4552C58.5114 6.73402 58.3312 7.03428 58.2412 7.37744C58.106 7.80639 58.061 8.23534 58.061 8.68573V10.1442C58.061 10.5731 58.106 11.0235 58.2412 11.431C58.3312 11.7527 58.4889 12.0744 58.7141 12.3318C58.8943 12.5677 59.1195 12.7608 59.3898 12.9109C59.615 13.0396 59.8852 13.1468 60.1555 13.2111C60.4032 13.2755 60.651 13.2969 60.8987 13.2969H60.9663H60.9888H62.5203C62.723 13.2969 62.9031 13.1254 62.9031 12.9323V12.2031C62.9031 12.0101 62.723 11.8385 62.5203 11.8385H60.8987C60.6735 11.86 60.4483 11.8171 60.2456 11.7098C60.0429 11.5811 59.8852 11.3881 59.8177 11.1736C59.6825 10.8305 59.6375 10.4873 59.6375 10.1227V8.66429C59.6375 8.38547 59.66 8.08521 59.7276 7.80639C59.8177 7.2702 60.3357 6.9056 60.8987 6.94849H62.5203C62.723 6.94849 62.9031 6.77691 62.9031 6.58389V5.85467C62.9031 5.68309 62.723 5.53296 62.5203 5.53296Z" fill="#202143"/>
<path d="M50.4261 5.53296H48.3991C47.3856 5.53296 46.2596 5.83322 45.8091 6.84125C45.3587 7.74205 45.629 8.81442 46.4397 9.45784C46.6875 9.62942 46.9803 9.75811 47.273 9.8439C47.5883 9.92969 47.9262 10.0155 48.2415 10.1013C48.3991 10.1442 48.5793 10.1656 48.7369 10.23C48.8721 10.2728 48.9847 10.3157 49.0973 10.4015C49.4576 10.7232 49.4802 11.238 49.1423 11.5811C49.1198 11.6026 49.0973 11.624 49.0522 11.6455C48.782 11.7742 48.4892 11.8385 48.1964 11.8171H45.9668C45.7641 11.8171 45.5839 11.9886 45.6064 12.1817V12.9109C45.6064 13.1039 45.7641 13.2755 45.9668 13.2755H48.1964C48.5568 13.2755 48.8946 13.2326 49.2324 13.1468C49.5703 13.0825 49.8856 12.9323 50.1783 12.7607C50.4486 12.5677 50.6738 12.3318 50.8315 12.053C51.0116 11.7098 51.0792 11.3238 51.0792 10.9377C51.1017 10.5731 51.0116 10.2085 50.854 9.86534C50.7189 9.60797 50.5162 9.3935 50.2684 9.22192C50.0207 9.05034 49.7279 8.92166 49.4351 8.83587C48.827 8.72863 48.2189 8.55705 47.6334 8.34258C47.2956 8.04231 47.273 7.54902 47.5883 7.24875C47.6109 7.22731 47.6334 7.20586 47.6559 7.18441C47.8811 7.07717 48.1289 7.01283 48.3991 7.03428H50.4036C50.6062 7.03428 50.7864 6.8627 50.7639 6.66967V5.94046C50.8089 5.70454 50.6288 5.53296 50.4261 5.53296Z" fill="#202143"/>
<path d="M99.3434 5.53296H97.3164C96.3029 5.53296 95.1769 5.83322 94.7264 6.84125C94.276 7.74205 94.5462 8.81442 95.357 9.45784C95.6048 9.62942 95.8976 9.75811 96.1903 9.8439C96.5056 9.92969 96.8435 10.0155 97.1588 10.1013C97.3164 10.1442 97.4966 10.1656 97.6542 10.23C97.7894 10.2728 97.902 10.3157 98.0146 10.4015C98.3749 10.7232 98.3975 11.238 98.0596 11.5811C98.0371 11.6026 98.0146 11.624 97.9695 11.6455C97.6993 11.7742 97.4065 11.8385 97.1137 11.8171H94.8841C94.6814 11.8171 94.5012 11.9886 94.5237 12.1817V12.9109C94.5237 13.1039 94.6814 13.2755 94.8841 13.2755H97.1137C97.4741 13.2755 97.8119 13.2326 98.1497 13.1468C98.4875 13.0825 98.8029 12.9323 99.0956 12.7607C99.3659 12.5677 99.5911 12.3318 99.7488 12.053C99.9289 11.7098 99.9965 11.3238 99.9965 10.9377C100.019 10.5731 99.9289 10.2085 99.7713 9.86534C99.6362 9.60797 99.4335 9.3935 99.1857 9.22192C98.938 9.05034 98.6452 8.92166 98.3524 8.83587C97.7443 8.72863 97.1362 8.55705 96.5507 8.34258C96.2129 8.04231 96.1903 7.54902 96.5056 7.24875C96.5282 7.22731 96.5507 7.20586 96.5732 7.18441C96.7984 7.07717 97.0462 7.01283 97.3164 7.03428H99.3209C99.5235 7.03428 99.7037 6.8627 99.6812 6.66967V5.94046C99.7262 5.70454 99.5686 5.53296 99.3434 5.53296Z" fill="#202143"/>
</svg>
