<svg width="21" height="20" viewBox="0 0 21 20" fill="none" xmlns="http://www.w3.org/2000/svg">
<path d="M11.1683 0.000488281C12.2933 0.00348813 12.8642 0.00948782 13.3572 0.0234871L13.5512 0.0304867C13.7752 0.0384863 13.9962 0.0484858 14.2632 0.0604851C15.3271 0.110483 16.0531 0.278474 16.6901 0.525461C17.35 0.779448 17.906 1.12343 18.462 1.6784C18.9704 2.17827 19.3639 2.78293 19.6149 3.45031C19.8619 4.08728 20.0299 4.81324 20.0799 5.87819C20.0919 6.14417 20.1019 6.36516 20.1099 6.59015L20.1159 6.78414C20.1309 7.27612 20.1369 7.84709 20.1389 8.97203L20.1399 9.71799V11.0279C20.1423 11.7573 20.1347 12.4867 20.1169 13.2158L20.1109 13.4098C20.1029 13.6348 20.0929 13.8558 20.0809 14.1218C20.0309 15.1867 19.8609 15.9117 19.6149 16.5496C19.3646 17.2174 18.9711 17.8222 18.462 18.3215C17.9619 18.8298 17.3573 19.2233 16.6901 19.4745C16.0531 19.7215 15.3271 19.8895 14.2632 19.9395C14.0259 19.9506 13.7886 19.9606 13.5512 19.9695L13.3572 19.9755C12.8642 19.9895 12.2933 19.9965 11.1683 19.9985L10.4224 19.9995H9.11344C8.38374 20.002 7.65404 19.9943 6.92455 19.9765L6.73056 19.9705C6.49318 19.9615 6.25586 19.9511 6.0186 19.9395C4.95465 19.8895 4.22869 19.7215 3.59072 19.4745C2.92342 19.2239 2.319 18.8304 1.81981 18.3215C1.31088 17.8219 0.917081 17.2172 0.66587 16.5496C0.418883 15.9127 0.250891 15.1867 0.200894 14.1218C0.189753 13.8845 0.179753 13.6472 0.170895 13.4098L0.165896 13.2158C0.147469 12.4867 0.139135 11.7573 0.140897 11.0279V8.97203C0.138106 8.24267 0.14544 7.5133 0.162896 6.78414L0.169895 6.59015C0.177895 6.36516 0.187894 6.14417 0.199894 5.87819C0.249891 4.81324 0.417883 4.08828 0.66487 3.45031C0.915971 2.78225 1.31056 2.1774 1.82081 1.6784C2.31988 1.1699 2.9239 0.776435 3.59072 0.525461C4.22869 0.278474 4.95365 0.110483 6.0186 0.0604851C6.28458 0.0484858 6.50657 0.0384863 6.73056 0.0304867L6.92455 0.024487C7.6537 0.00672067 8.38307 -0.000946343 9.11244 0.00148816L11.1683 0.000488281ZM10.1404 5.00023C8.81437 5.00023 7.54267 5.52699 6.60503 6.46462C5.6674 7.40226 5.14064 8.67396 5.14064 9.99998C5.14064 11.326 5.6674 12.5977 6.60503 13.5353C7.54267 14.473 8.81437 14.9997 10.1404 14.9997C11.4664 14.9997 12.7381 14.473 13.6757 13.5353C14.6134 12.5977 15.1401 11.326 15.1401 9.99998C15.1401 8.67396 14.6134 7.40226 13.6757 6.46462C12.7381 5.52699 11.4664 5.00023 10.1404 5.00023ZM10.1404 7.00013C10.5343 7.00006 10.9244 7.07759 11.2884 7.22829C11.6524 7.37898 11.9831 7.5999 12.2617 7.87841C12.5404 8.15693 12.7614 8.48759 12.9122 8.85152C13.063 9.21546 13.1407 9.60553 13.1407 9.99948C13.1408 10.3934 13.0633 10.7835 12.9126 11.1475C12.7619 11.5115 12.541 11.8422 12.2625 12.1208C11.9839 12.3994 11.6533 12.6205 11.2893 12.7713C10.9254 12.9221 10.5353 12.9998 10.1414 12.9998C9.34578 12.9998 8.58275 12.6838 8.02017 12.1212C7.45759 11.5586 7.14154 10.7956 7.14154 9.99998C7.14154 9.20437 7.45759 8.44134 8.02017 7.87876C8.58275 7.31618 9.34578 7.00013 10.1414 7.00013M15.3911 3.50031C15.0596 3.50031 14.7417 3.632 14.5073 3.86641C14.2729 4.10081 14.1412 4.41874 14.1412 4.75024C14.1412 5.08175 14.2729 5.39967 14.5073 5.63408C14.7417 5.86849 15.0596 6.00018 15.3911 6.00018C15.7226 6.00018 16.0405 5.86849 16.275 5.63408C16.5094 5.39967 16.6411 5.08175 16.6411 4.75024C16.6411 4.41874 16.5094 4.10081 16.275 3.86641C16.0405 3.632 15.7226 3.50031 15.3911 3.50031Z" fill="#234930"/>
</svg>
