<svg width="21" height="20" viewBox="0 0 21 20" fill="none" xmlns="http://www.w3.org/2000/svg">
<path d="M20.1404 19.9999V12.675C20.1404 9.07495 19.3654 6.32495 15.1654 6.32495C13.1404 6.32495 11.7904 7.42495 11.2404 8.47495H11.1904V6.64995H7.21538V19.9999H11.3654V13.3749C11.3654 11.6249 11.6904 9.94995 13.8404 9.94995C15.9654 9.94995 15.9904 11.925 15.9904 13.4749V19.9749H20.1404V19.9999Z" fill="#234930"/>
<path d="M0.465279 6.6499H4.61528V19.9999H0.465279V6.6499Z" fill="#234930"/>
<path d="M2.54032 0C1.21532 0 0.14032 1.075 0.14032 2.4C0.14032 3.725 1.21532 4.825 2.54032 4.825C3.86532 4.825 4.94032 3.725 4.94032 2.4C4.94032 1.075 3.86532 0 2.54032 0Z" fill="#234930"/>
</svg>
