<svg width="17" height="12" viewBox="0 0 17 12" fill="none" xmlns="http://www.w3.org/2000/svg">
<path fill-rule="evenodd" clip-rule="evenodd" d="M5.87792 7.0672L8.14192 8.6152L10.3243 7.1096L15.2163 11.936C15.0873 11.9781 14.9507 11.9995 14.8067 12H1.47392C1.29792 12 1.12992 11.9656 0.97552 11.904L5.87792 7.0672ZM16.1403 3.1008V10.6664C16.1403 10.864 16.0971 11.0512 16.0203 11.22L11.2251 6.4888L16.1403 3.1008ZM0.14032 3.1432L4.97392 6.4488L0.22512 11.1352C0.16949 10.9851 0.140783 10.8264 0.14032 10.6664L0.14032 3.1432ZM14.8067 0C15.5427 0 16.1403 0.5968 16.1403 1.3336V1.8024L8.13872 7.3184L0.14032 1.848V1.3336C0.14032 0.5976 0.73712 0 1.47392 0H14.8067Z" fill="white"/>
</svg>
