<svg width="22" height="17" viewBox="0 0 22 17" fill="none" xmlns="http://www.w3.org/2000/svg">
<path fill-rule="evenodd" clip-rule="evenodd" d="M8.13451 10.1776L11.1532 12.2416L14.063 10.2341L20.5857 16.6693C20.4136 16.7255 20.2316 16.7539 20.0396 16.7546H2.26251C2.02784 16.7546 1.80384 16.7088 1.59798 16.6266L8.13451 10.1776ZM21.8177 4.88904V14.9765C21.8177 15.24 21.7601 15.4896 21.6577 15.7146L15.2641 9.40637L21.8177 4.88904ZM0.484375 4.94557L6.92917 9.35304L0.597442 15.6016C0.523269 15.4015 0.484993 15.1899 0.484375 14.9765L0.484375 4.94557ZM20.0396 0.754639C21.0209 0.754639 21.8177 1.55037 21.8177 2.53277V3.15784L11.1489 10.5125L0.484375 3.21864V2.53277C0.484375 1.55144 1.28011 0.754639 2.26251 0.754639H20.0396Z" fill="#234930"/>
</svg>
