<svg width="15" height="21" viewBox="0 0 15 21" fill="none" xmlns="http://www.w3.org/2000/svg">
<path d="M7.98438 10.2546C7.32133 10.2546 6.68545 9.99125 6.21661 9.52241C5.74777 9.05357 5.48438 8.41768 5.48438 7.75464C5.48438 7.0916 5.74777 6.45571 6.21661 5.98687C6.68545 5.51803 7.32133 5.25464 7.98438 5.25464C8.64742 5.25464 9.2833 5.51803 9.75214 5.98687C10.221 6.45571 10.4844 7.0916 10.4844 7.75464C10.4844 8.08294 10.4197 8.40803 10.2941 8.71135C10.1684 9.01466 9.98429 9.29026 9.75214 9.52241C9.52 9.75455 9.2444 9.9387 8.94108 10.0643C8.63777 10.19 8.31268 10.2546 7.98438 10.2546ZM7.98438 0.754639C6.12786 0.754639 4.34738 1.49214 3.03463 2.80489C1.72187 4.11765 0.984375 5.89812 0.984375 7.75464C0.984375 13.0046 7.98438 20.7546 7.98438 20.7546C7.98438 20.7546 14.9844 13.0046 14.9844 7.75464C14.9844 5.89812 14.2469 4.11765 12.9341 2.80489C11.6214 1.49214 9.84089 0.754639 7.98438 0.754639Z" fill="#234930"/>
</svg>
