<svg width="17" height="16" viewBox="0 0 17 16" fill="none" xmlns="http://www.w3.org/2000/svg">
<path d="M5.74032 7.6C5.20989 7.6 4.70118 7.38929 4.32611 7.01421C3.95103 6.63914 3.74032 6.13043 3.74032 5.6C3.74032 5.06957 3.95103 4.56086 4.32611 4.18579C4.70118 3.81071 5.20989 3.6 5.74032 3.6C6.27075 3.6 6.77946 3.81071 7.15453 4.18579C7.52961 4.56086 7.74032 5.06957 7.74032 5.6C7.74032 5.86264 7.68859 6.12272 7.58808 6.36537C7.48757 6.60802 7.34025 6.8285 7.15453 7.01421C6.96882 7.19993 6.74834 7.34725 6.50569 7.44776C6.26304 7.54827 6.00296 7.6 5.74032 7.6ZM5.74032 0C4.25511 0 2.83073 0.589998 1.78052 1.6402C0.730318 2.69041 0.14032 4.11479 0.14032 5.6C0.14032 9.8 5.74032 16 5.74032 16C5.74032 16 11.3403 9.8 11.3403 5.6C11.3403 4.11479 10.7503 2.69041 9.70012 1.6402C8.64991 0.589998 7.22553 0 5.74032 0Z" fill="white"/>
</svg>
