<svg width="600" height="130" viewBox="0 0 600 130" fill="none" xmlns="http://www.w3.org/2000/svg">
<g clip-path="url(#clip0_85_22)">
<path d="M293.8 2.5C215.4 45.7 137 -27.6 0.0999756 12.1V125.6C137 85.9 215.4 159.2 293.8 116.1V2.5Z" fill="#4AA435"/>
<path d="M600.1 2.5H293.8V115.7H600.1V2.5Z" fill="#005DA0"/>
<path d="M35 85.3999H23.5V41.3999H34.5V46.7999C35.6 44.7999 37.3 43.2 39.7 42C42.1 40.8 44.5 40.2 47 40.2C53.2 40.2 57.4 42.6 59.6 47.5C62.7 42.6 67.2 40.2 73.1 40.2C77.4 40.2 81.1 41.5999 84.1 44.3999C87.1 47.1999 88.6 51.3999 88.6 56.8999V85.3999H77.4V59.2999C77.4 56.7999 76.8 54.7999 75.5 53.2999C74.3 51.7999 72.4 51 69.8 51C67.4 51 65.5 51.8 64.1 53.5C62.7 55.2 61.9 57.2 61.9 59.7V85.3999H50.5V59.2999C50.5 56.7999 49.9 54.7999 48.6 53.2999C47.3 51.7999 45.4 51 43 51C40.6 51 38.6 51.8 37.2 53.5C35.7 55.1 35 57.2 35 59.7" fill="white"/>
<path d="M103.3 46.7C107.5 42.3 112.9 40.1 119.3 40.1C125.7 40.1 131 42.3 135.3 46.7C139.5 51.1 141.7 56.7 141.7 63.4C141.7 70.1 139.6 75.7 135.3 80.1C131 84.5 125.7 86.7 119.3 86.7C112.9 86.7 107.6 84.5 103.3 80.1C99.1 75.7 96.9 70.1 96.9 63.4C97 56.7 99.1 51.1 103.3 46.7ZM111.7 72.6C113.8 74.8 116.4 75.9 119.4 75.9C122.4 75.9 125 74.8 127.1 72.6C129.2 70.4 130.3 67.3 130.3 63.4C130.3 59.5 129.2 56.4 127.1 54.2C125 52 122.4 50.9 119.4 50.9C116.4 50.9 113.8 52 111.7 54.2C109.6 56.4 108.5 59.5 108.5 63.4C108.5 67.4 109.5 70.4 111.7 72.6Z" fill="white"/>
<path d="M162.3 60.1V85.3999H150.8V41.3999H162V46.7999C163.2 44.6999 164.9 42.9999 167.2 41.8999C169.4 40.7999 171.8 40.2 174.3 40.2C179.3 40.2 183.2 41.8 185.8 45.1C188.4 48.3 189.7 52.5 189.7 57.7V85.3999H178.1V59.7C178.1 57.1 177.4 54.9999 176.2 53.3999C174.9 51.7999 172.9 51 170.3 51C167.9 51 165.9 51.9 164.5 53.6C163 55.3 162.3 57.5 162.3 60.1Z" fill="white"/>
<path d="M229.9 69.9L239.5 72.8C238.3 76.9 236.1 80.2 232.7 82.8C229.3 85.4 225.1 86.7 220.1 86.7C214 86.7 208.8 84.6 204.5 80.3C200.2 76 198.1 70.3 198.1 63.2C198.1 56.4 200.2 50.8 204.3 46.5C208.5 42.2 213.4 40 219 40C225.6 40 230.7 42 234.5 46.1C238.2 50.2 240.1 55.7 240.1 62.8V64.4V65.8L240 66.4H209.5C209.6 69.3 210.7 71.7 212.8 73.6C214.9 75.5 217.4 76.5 220.3 76.5C225.1 76.6 228.4 74.3 229.9 69.9ZM209.7 58.4H228.8C228.7 56 227.8 53.9 226.3 52.2C224.7 50.5 222.4 49.7 219.3 49.7C216.5 49.7 214.3 50.6 212.5 52.4C210.8 54.2 209.9 56.2 209.7 58.4Z" fill="white"/>
<path d="M263.4 102.8H251.1L261.2 79.9L243.1 41.4H256L267.3 67.2L277.8 41.4H290.1" fill="white"/>
<path d="M319.9 51.2001C316.8 51.2001 314.3 52.3 312.2 54.5C310.1 56.7 309.1 59.7 309.1 63.5C309.1 67.3 310.2 70.3001 312.3 72.6001C314.4 74.8001 317 76 320.1 76C322.8 76 325 75.3 326.6 73.8C328.2 72.3 329.3 70.6001 329.9 68.6001L340 72.1001C339 76.2001 336.7 79.6001 333.2 82.6001C329.7 85.5001 325.3 87 320 87C313.6 87 308.3 84.8 304 80.3C299.7 75.9 297.6 70.3001 297.6 63.6001C297.6 56.9001 299.7 51.3 304 46.9C308.2 42.5 313.5 40.3 319.7 40.3C325.1 40.3 329.6 41.8001 333 44.6001C336.5 47.5001 338.7 51.0001 339.7 55.1001L329.4 58.7001C328 53.7001 324.8 51.2001 319.9 51.2001Z" fill="white"/>
<path d="M351.1 46.7999C355.3 42.3999 360.7 40.2 367.1 40.2C373.5 40.2 378.8 42.3999 383.1 46.7999C387.4 51.1999 389.5 56.8 389.5 63.5C389.5 70.2 387.4 75.8 383.1 80.2C378.9 84.6 373.5 86.7999 367.1 86.7999C360.7 86.7999 355.4 84.6 351.1 80.2C346.9 75.8 344.7 70.2 344.7 63.5C344.8 56.8 346.9 51.1999 351.1 46.7999ZM359.4 72.7999C361.5 74.9999 364.1 76.1 367.1 76.1C370.1 76.1 372.7 74.9999 374.8 72.7999C376.9 70.5999 378 67.5 378 63.6C378 59.7 376.9 56.5999 374.8 54.3999C372.7 52.1999 370.1 51.1 367.1 51.1C364.1 51.1 361.5 52.1999 359.4 54.3999C357.3 56.5999 356.2 59.7 356.2 63.6C356.3 67.5 357.3 70.5999 359.4 72.7999Z" fill="white"/>
<path d="M410.1 60.2001V85.5H398.6V41.5H409.8V46.9C411 44.8 412.7 43.1 415 42C417.2 40.9 419.6 40.3 422.1 40.3C427.1 40.3 431 41.9 433.6 45.2C436.2 48.5 437.5 52.6 437.5 57.8V85.5H426V59.8C426 57.2 425.3 55.1 424.1 53.5C422.8 51.9 420.8 51.1001 418.2 51.1001C415.8 51.1001 413.8 52.0001 412.4 53.7001C410.8 55.4001 410.1 57.6001 410.1 60.2001Z" fill="white"/>
<path d="M463.3 28.3999V41.5H471.9V52H463.3V70.3999C463.3 72.1999 463.7 73.5999 464.5 74.2999C465.3 75.0999 466.6 75.5 468.3 75.5C469.9 75.5 471 75.4 471.8 75.1V84.8999C470.1 85.5999 468 86 465.3 86C461.1 86 457.9 84.7999 455.4 82.3999C453 79.9999 451.8 76.6999 451.8 72.3999V51.8999H444.1V41.3999H446.3C448.4 41.3999 450.1 40.8 451.2 39.5C452.3 38.2 452.9 36.4999 452.9 34.3999V28.2" fill="white"/>
<path d="M507.1 41.4V53.4C505.9 53.2 504.8 53 503.6 53C500.3 53 497.7 54 495.6 55.9C493.6 57.8 492.6 61 492.6 65.4V85.5H481.1V41.5H492.3V48C494.4 43.4 498.4 41.1 504.4 41.1C505 41.2 505.9 41.3 507.1 41.4Z" fill="white"/>
<path d="M517.9 46.7999C522.1 42.3999 527.5 40.2 533.9 40.2C540.3 40.2 545.6 42.3999 549.9 46.7999C554.1 51.1999 556.3 56.8 556.3 63.5C556.3 70.2 554.2 75.8 549.9 80.2C545.7 84.6 540.3 86.7999 533.9 86.7999C527.5 86.7999 522.2 84.6 517.9 80.2C513.7 75.8 511.5 70.2 511.5 63.5C511.6 56.8 513.7 51.1999 517.9 46.7999ZM526.3 72.7999C528.4 74.9999 531 76.1 534 76.1C537 76.1 539.5 74.9999 541.7 72.7999C543.8 70.5999 544.9 67.5 544.9 63.6C544.9 59.7 543.8 56.5999 541.7 54.3999C539.6 52.1999 537 51.1 534 51.1C531 51.1 528.4 52.1999 526.3 54.3999C524.2 56.5999 523.1 59.7 523.1 63.6C523.1 67.5 524.1 70.5999 526.3 72.7999Z" fill="white"/>
<path d="M576.9 20.8H565.4V85.5H576.9V20.8Z" fill="white"/>
</g>
<defs>
<clipPath id="clip0_85_22">
<rect width="600" height="130" fill="white"/>
</clipPath>
</defs>
</svg>
