<svg width="57" height="57" viewBox="0 0 57 57" fill="none" xmlns="http://www.w3.org/2000/svg">
<g clip-path="url(#clip0_248_1241)">
<path d="M42.109 29.7843C41.203 29.7843 40.4684 29.0498 40.4684 28.1437C40.4684 27.2376 41.203 26.5031 42.109 26.5031H46.9476C46.5802 22.4429 44.8466 18.4841 41.7451 15.3827C38.6437 12.2813 34.6849 10.5477 30.6247 10.1802V15.0187C30.6247 15.9248 29.8901 16.6593 28.984 16.6593C28.078 16.6593 27.3434 15.9248 27.3434 15.0187V10.1802C23.2832 10.5476 19.3244 12.2812 16.2229 15.3826C13.1215 18.4841 11.388 22.4429 11.0205 26.5031H15.859C16.7651 26.5031 17.4997 27.2376 17.4997 28.1437C17.4997 29.0498 16.7651 29.7843 15.859 29.7843H11.0205C11.3879 33.8446 13.1215 37.8033 16.2229 40.9047C19.3244 44.0061 23.2832 45.7397 27.3434 46.1071V41.2687C27.3434 40.3626 28.078 39.6281 28.984 39.6281C29.8901 39.6281 30.6247 40.3626 30.6247 41.2687V46.1072C34.6849 45.7398 38.6437 44.0063 41.7451 40.9048C44.8466 37.8034 46.5801 33.8447 46.9476 29.7844H42.109V29.7843ZM37.1047 22.3432L30.1441 29.3038C29.8238 29.6242 29.4039 29.7843 28.984 29.7843C28.5641 29.7843 28.1443 29.6242 27.824 29.3037L20.8634 22.3431C20.2227 21.7024 20.2227 20.6637 20.8634 20.0229C21.504 19.3822 22.5428 19.3822 23.1836 20.0229L28.984 25.8235L34.7845 20.0231C35.4251 19.3823 36.464 19.3823 37.1047 20.0231C37.7454 20.6638 37.7454 21.7025 37.1047 22.3432Z" fill="#234930"/>
<path d="M48.7607 8.36724C43.4576 3.06409 36.4342 0.143555 28.9844 0.143555C24.6794 0.143555 20.5369 1.12366 16.6718 3.05665C15.0851 3.85016 13.5676 4.80249 12.1481 5.88946L12.3301 5.34346C12.6165 4.48388 12.152 3.55474 11.2924 3.26818C10.4331 2.98173 9.5037 3.44624 9.21714 4.30582L6.89697 11.2664C6.46866 12.5511 7.69606 13.7668 8.97225 13.3417L15.9329 11.0216C16.7925 10.735 17.257 9.80585 16.9705 8.94627C16.6883 8.10004 15.7836 7.63837 14.9356 7.89737C19.029 5.00866 23.9 3.4248 28.9844 3.4248C42.6144 3.4248 53.7031 14.5136 53.7031 28.1436C53.7031 41.7735 42.6144 52.8623 28.9844 52.8623C15.3544 52.8623 4.26562 41.7735 4.26562 28.1436C4.26562 27.2375 3.53106 26.5029 2.625 26.5029C1.71894 26.5029 0.984375 27.2375 0.984375 28.1436C0.984375 35.5934 3.90491 42.6168 9.20806 47.9199C14.5111 53.223 21.5345 56.1436 28.9844 56.1436C36.4342 56.1436 43.4576 53.223 48.7607 47.9199C54.0638 42.6168 56.9844 35.5934 56.9844 28.1436C56.9844 20.6937 54.0638 13.6703 48.7607 8.36724Z" fill="#234930"/>
</g>
<defs>
<clipPath id="clip0_248_1241">
<rect width="56" height="56" fill="white" transform="translate(0.984375 0.143555)"/>
</clipPath>
</defs>
</svg>
