<svg width="57" height="57" viewBox="0 0 57 57" fill="none" xmlns="http://www.w3.org/2000/svg">
<g clip-path="url(#clip0_248_1190)">
<path d="M56.4844 49.7704V52.858C56.4844 53.6893 56.1431 54.445 55.5973 54.9941C55.0483 55.5432 54.2925 55.8811 53.458 55.8811H42.7895C41.9583 55.8811 41.2025 55.5432 40.6534 54.9941C40.1044 54.445 39.7664 53.6893 39.7664 52.858V49.7704C39.7664 48.0871 40.4511 46.558 41.5612 45.4511C42.6681 44.3443 44.1961 43.6563 45.8772 43.6563H50.3725C52.0525 43.6563 53.5816 44.3443 54.6884 45.4511C55.7953 46.558 56.4844 48.0871 56.4844 49.7704ZM11.0916 43.6563H6.59625C4.91625 43.6563 3.38719 44.3443 2.28031 45.4511C1.17016 46.558 0.484375 48.0871 0.484375 49.7704V52.858C0.484375 53.6893 0.822344 54.445 1.37141 54.9941C1.92047 55.5432 2.67625 55.8811 3.5075 55.8811H14.1759C15.0105 55.8811 15.7663 55.5432 16.3153 54.9941C16.8611 54.445 17.2023 53.6893 17.2023 52.858V49.7704C17.2023 48.0871 16.5144 46.558 15.4075 45.4511C14.2995 44.3443 12.7716 43.6563 11.0916 43.6563ZM8.84391 43.4857C10.1061 43.4857 11.2502 42.9738 12.0748 42.1458C12.9028 41.3211 13.4147 40.1771 13.4147 38.9149C13.4147 37.6527 12.9028 36.5086 12.0748 35.6807C11.2502 34.8527 10.1061 34.3408 8.84391 34.3408C7.58172 34.3408 6.43766 34.8527 5.60969 35.6807C4.78172 36.5086 4.26984 37.6527 4.26984 38.9149C4.26984 40.1771 4.78172 41.3211 5.60969 42.1458C6.43766 42.9749 7.58172 43.4857 8.84391 43.4857ZM30.732 43.6563H26.2367C24.5567 43.6563 23.0277 44.3443 21.9208 45.4511C20.8106 46.558 20.1259 48.086 20.1259 49.7704V52.858C20.1259 53.6893 20.4639 54.445 21.013 54.9941C21.562 55.5432 22.3178 55.8811 23.1491 55.8811H33.8175C34.652 55.8811 35.4078 55.5432 35.9569 54.9941C36.5027 54.445 36.8439 53.6893 36.8439 52.858V49.7704C36.8439 48.0871 36.1559 46.558 35.0491 45.4511C33.9411 44.3443 32.4131 43.6563 30.732 43.6563ZM28.4844 34.343C27.2222 34.343 26.0781 34.8549 25.2502 35.6828C24.4222 36.5108 23.9103 37.6549 23.9103 38.9171C23.9103 40.1793 24.4222 41.3233 25.2502 42.148C26.0781 42.976 27.2222 43.4879 28.4844 43.4879C29.7466 43.4879 30.8906 42.976 31.7153 42.148C32.5433 41.3233 33.0552 40.1793 33.0552 38.9171C33.0552 37.6549 32.5433 36.5108 31.7153 35.6828C30.8906 34.8549 29.7466 34.343 28.4844 34.343ZM48.1248 34.343C46.8627 34.343 45.7186 34.8549 44.8906 35.6828C44.0627 36.5108 43.5508 37.6549 43.5508 38.9171C43.5508 40.1793 44.0627 41.3233 44.8906 42.148C45.7186 42.976 46.8627 43.4879 48.1248 43.4879C49.387 43.4879 50.5311 42.976 51.3558 42.148C52.1838 41.3233 52.6956 40.1793 52.6956 38.9171C52.6956 37.6549 52.1838 36.5108 51.3558 35.6828C50.5311 34.8549 49.387 34.343 48.1248 34.343ZM31.1039 13.5639C31.7733 12.8946 32.1889 11.9671 32.1889 10.9444C32.1889 9.92176 31.7733 8.99426 31.1039 8.32488C30.4345 7.65551 29.507 7.23988 28.4844 7.23988C27.4617 7.23988 26.5342 7.65551 25.8648 8.32488C25.1955 8.99426 24.7798 9.92176 24.7798 10.9444C24.7798 11.9671 25.1955 12.8946 25.8648 13.5639C26.5342 14.2333 27.4617 14.6489 28.4844 14.6489C29.507 14.6489 30.4345 14.2333 31.1039 13.5639ZM5.70266 30.0577C5.36141 29.7164 5.36141 29.1619 5.70266 28.8207C6.04391 28.4794 6.59844 28.4794 6.93969 28.8207L7.96891 29.8466V23.5061C7.96891 23.0227 8.35938 22.6322 8.84281 22.6322H27.6094V21.4827H27.2933C26.8842 21.4827 26.5397 21.2038 26.4434 20.8254L26.0934 19.7469L26.0125 19.4932C25.6898 19.4035 25.3803 19.2919 25.0763 19.1672C24.7722 19.0403 24.4747 18.8971 24.1859 18.7363L23.9475 18.8577L22.8877 19.4002C22.5431 19.5774 22.1341 19.4997 21.8737 19.2394L20.1905 17.5561C19.905 17.2707 19.8591 16.843 20.045 16.5083L20.5689 15.4791L20.6903 15.2439C20.5317 14.953 20.3862 14.6544 20.2627 14.3514C20.1358 14.0507 20.0275 13.7411 19.9345 13.4185L19.683 13.3343L18.5509 12.9689C18.1637 12.8421 17.922 12.4702 17.9494 12.0786V9.75332C17.9494 9.36613 18.2009 9.03691 18.5509 8.92535V8.92207L19.683 8.55348L19.9345 8.47254C20.0275 8.14988 20.1358 7.84035 20.2627 7.53957C20.3862 7.23223 20.5328 6.93473 20.6903 6.64707L20.5689 6.40863L20.0297 5.34879C19.8525 5.00426 19.9302 4.5952 20.1905 4.33488L21.0305 3.4916L21.8737 2.6516C22.1559 2.36613 22.5869 2.3202 22.9216 2.50613L23.9475 3.03004L24.1859 3.15145C24.4747 2.99285 24.7722 2.84738 25.0763 2.72379C25.3803 2.59691 25.6898 2.48863 26.0125 2.39566L26.0934 2.1441L26.462 1.01207C26.5834 0.643477 26.9236 0.407227 27.2933 0.407227H29.6744C30.0834 0.407227 30.4247 0.686133 30.5209 1.06457L30.8709 2.14301L30.9552 2.39457C31.2745 2.48754 31.5873 2.59582 31.8881 2.7227C32.1922 2.84629 32.4897 2.99285 32.7806 3.15035L33.0158 3.02895L34.0756 2.48973C34.4223 2.31254 34.8325 2.3902 35.0928 2.65051L36.7761 4.33379C37.0583 4.61598 37.1075 5.04691 36.9183 5.3816L36.3944 6.40754L36.273 6.64598C36.4338 6.93473 36.577 7.23223 36.7039 7.53848C36.8275 7.83926 36.9391 8.14879 37.0298 8.47145L37.2836 8.55238L38.4156 8.92098C38.7842 9.04238 39.0205 9.38254 39.0172 9.75223H39.0205V12.1333C39.0205 12.5424 38.7416 12.8836 38.3631 12.9799L37.2847 13.3299L37.0309 13.4141C36.9412 13.7368 36.8297 14.0463 36.705 14.3471C36.5781 14.6511 36.4348 14.9486 36.2741 15.2396L36.3955 15.4747L36.938 16.5379C37.1119 16.8824 37.0375 17.2914 36.7772 17.5518L35.9339 18.3918L35.0939 19.235C34.8084 19.5205 34.3775 19.5664 34.0461 19.3772L33.0169 18.8533L32.7817 18.7319C32.4908 18.8927 32.1922 19.036 31.8892 19.1629C31.5884 19.2864 31.2756 19.398 30.9563 19.4888L30.872 19.7425L30.5067 20.8746C30.3853 21.2432 30.0452 21.4794 29.6755 21.4794H29.3594V22.63H48.1259C48.6094 22.63 48.9998 23.0205 48.9998 23.5039V29.8444L50.0291 28.8185C50.3703 28.4772 50.9216 28.4772 51.2661 28.8185C51.6073 29.1597 51.6073 29.7143 51.2661 30.0555L48.7428 32.5766C48.4016 32.9179 47.847 32.9179 47.5058 32.5766L44.9847 30.0555C44.6434 29.7143 44.6434 29.1597 44.9847 28.8185C45.3259 28.4772 45.8805 28.4772 46.2217 28.8185L47.2509 29.8444V24.3811H29.3583V29.8466L30.3875 28.8207C30.7288 28.4794 31.28 28.4794 31.6245 28.8207C31.9658 29.1619 31.9658 29.7164 31.6245 30.0577L29.1013 32.5788C28.76 32.92 28.2055 32.92 27.8642 32.5788L25.3431 30.0577C25.0019 29.7164 25.0019 29.1619 25.3431 28.8207C25.6844 28.4794 26.2389 28.4794 26.5802 28.8207L27.6094 29.8466V24.3811H9.71781V29.8466L10.747 28.8207C11.0883 28.4794 11.6395 28.4794 11.9841 28.8207C12.3253 29.1619 12.3253 29.7164 11.9841 30.0577L9.46078 32.5788C9.11953 32.92 8.565 32.92 8.22375 32.5788L5.70266 30.0577ZM28.4844 16.3979C29.9916 16.3979 31.3522 15.7875 32.3409 14.801C33.3264 13.8155 33.9378 12.4505 33.9378 10.9444C33.9378 9.43723 33.3275 8.07332 32.3409 7.08785C31.3522 6.0991 29.9905 5.49098 28.4844 5.49098C26.9783 5.49098 25.6133 6.0991 24.6278 7.08785C23.6391 8.07332 23.0277 9.43832 23.0277 10.9444C23.0277 12.4516 23.638 13.8155 24.6278 14.801C25.6133 15.7875 26.9772 16.3979 28.4844 16.3979Z" fill="#234930"/>
</g>
<defs>
<clipPath id="clip0_248_1190">
<rect width="56" height="56" fill="white" transform="translate(0.484375 0.143555)"/>
</clipPath>
</defs>
</svg>
