<svg width="57" height="57" viewBox="0 0 57 57" fill="none" xmlns="http://www.w3.org/2000/svg">
<g clip-path="url(#clip0_248_1225)">
<path fill-rule="evenodd" clip-rule="evenodd" d="M16.7829 51.6326C16.7714 51.701 16.7465 51.7664 16.7095 51.825C16.6725 51.8837 16.6242 51.9344 16.5674 51.9742L11.0088 55.8819C10.8939 55.9624 10.7519 55.9941 10.6137 55.9699C10.4756 55.9458 10.3527 55.8678 10.272 55.7531L0.577233 41.9611C0.496811 41.8463 0.465212 41.7042 0.489365 41.5661C0.513518 41.428 0.591451 41.3051 0.706077 41.2243L6.26473 37.3167C6.37966 37.2366 6.52162 37.2051 6.65964 37.2292C6.79766 37.2534 6.92055 37.3311 7.00148 37.4454L7.75442 38.5173C7.75551 38.5173 7.75551 38.5185 7.75551 38.5196L16.6957 51.2375C16.7357 51.2943 16.764 51.3585 16.779 51.4264C16.794 51.4942 16.7955 51.5643 16.7832 51.6327L16.7829 51.6326ZM55.3873 39.1469C55.9623 38.6969 56.3406 38.0417 56.4425 37.3187C56.5445 36.5957 56.3623 35.8614 55.9342 35.27C55.5061 34.6785 54.8655 34.276 54.1468 34.147C53.4282 34.0181 52.6875 34.1726 52.0805 34.5783C52.061 34.5908 52.0399 34.6038 52.0194 34.6152L36.0178 43.1726C35.9262 43.2245 35.824 43.2547 35.719 43.2609H35.7147C35.6995 43.262 35.6861 43.262 35.671 43.262H35.6667C35.6202 43.2608 35.5739 43.255 35.5286 43.2446L21.4629 40.3427C21.3744 40.3244 21.2903 40.2888 21.2155 40.238C21.1408 40.1872 21.0767 40.1222 21.027 40.0466C20.9774 39.9711 20.9431 39.8865 20.9261 39.7977C20.9092 39.7089 20.9098 39.6176 20.9281 39.5291C20.9465 39.4406 20.982 39.3565 21.0328 39.2817C21.0836 39.2069 21.1486 39.1429 21.2242 39.0932C21.2997 39.0435 21.3843 39.0092 21.4731 38.9923C21.5619 38.9753 21.6532 38.976 21.7417 38.9943L35.4423 41.8204C36.8041 40.3378 37.4147 39.1166 37.209 38.2792C37.052 37.6346 36.3679 37.1008 35.1769 36.6943L21.725 33.0328C21.1591 32.8675 20.5657 32.818 19.9803 32.8874C19.3949 32.9568 18.8295 33.1436 18.318 33.4366L9.32745 38.3614L16.8337 49.0392L18.3792 47.9673C18.4606 47.9107 18.5534 47.8723 18.651 47.8549C18.7486 47.8374 18.8489 47.8412 18.9449 47.8661L33.0665 51.5405C34.9876 52.0407 36.795 51.7299 38.4385 50.6181L55.3873 39.1469ZM54.5359 18.98C54.6918 18.9487 54.832 18.8644 54.9327 18.7413C55.0334 18.6182 55.0883 18.464 55.088 18.3049V13.5531C55.0879 13.3942 55.0329 13.2402 54.9323 13.1172C54.8316 12.9942 54.6916 12.9098 54.5359 12.8782L51.2046 12.2001C50.9929 11.5344 50.7248 10.8881 50.4031 10.2681L52.2809 7.43273C52.3683 7.30008 52.4073 7.14135 52.3914 6.98328C52.3754 6.82522 52.3055 6.67747 52.1934 6.56495L48.8315 3.20396C48.7194 3.0917 48.5719 3.02166 48.4141 3.00571C48.2563 2.98976 48.0978 3.02889 47.9655 3.11646L45.1285 4.9941C44.5087 4.67261 43.8626 4.40458 43.1972 4.19293L42.5199 0.861805C42.4884 0.706111 42.404 0.566099 42.2811 0.465466C42.1582 0.364833 42.0043 0.309761 41.8454 0.30957H37.0911C36.9322 0.309662 36.7783 0.364701 36.6554 0.465353C36.5324 0.566004 36.4481 0.706073 36.4167 0.861805L35.7395 4.19293C35.0741 4.40447 34.4279 4.6725 33.8081 4.9941L30.9711 3.11679C30.8388 3.02923 30.6803 2.99011 30.5224 3.00606C30.3646 3.022 30.2171 3.09204 30.105 3.20429L26.7435 6.56495C26.631 6.6773 26.5609 6.82508 26.5449 6.98323C26.529 7.14138 26.5682 7.30018 26.656 7.43273L28.5336 10.2681C28.2119 10.8882 27.9437 11.5347 27.732 12.2005L24.4002 12.8777C24.2447 12.9094 24.1049 12.994 24.0045 13.117C23.9042 13.24 23.8495 13.3939 23.8497 13.5527V18.3054C23.8492 18.4642 23.9038 18.6183 24.0041 18.7414C24.1045 18.8645 24.2445 18.949 24.4002 18.9804L27.733 19.6586C27.9442 20.324 28.212 20.9702 28.5336 21.5899L26.6564 24.4264C26.5686 24.5587 26.5293 24.7174 26.5453 24.8754C26.5612 25.0333 26.6314 25.1809 26.7439 25.293L30.1054 28.654C30.2174 28.7665 30.3649 28.8367 30.5228 28.8526C30.6808 28.8686 30.8393 28.8293 30.9716 28.7415L33.8081 26.8641C34.428 27.1853 35.0742 27.4531 35.7395 27.6646L36.4167 30.9975C36.4485 31.1529 36.5329 31.2926 36.6558 31.393C36.7787 31.4934 36.9324 31.5483 37.0911 31.5485H41.8454C42.0041 31.5484 42.1579 31.4935 42.2808 31.3931C42.4037 31.2927 42.4881 31.1529 42.5199 30.9975L43.1972 27.6646C43.8629 27.4533 44.5094 27.1854 45.1296 26.8641L47.9655 28.7413C48.0977 28.8291 48.2562 28.8684 48.4142 28.8524C48.5721 28.8365 48.7196 28.7663 48.8315 28.6538L52.1936 25.2928C52.3057 25.1805 52.3757 25.033 52.3916 24.8751C52.4076 24.7172 52.3685 24.5586 52.2811 24.4262L50.4025 21.59C50.7247 20.9705 50.9927 20.3243 51.2035 19.6587L54.5359 18.9805V18.98ZM39.4691 8.57755C40.9231 8.57773 42.3444 9.00905 43.5533 9.81699C44.7622 10.6249 45.7044 11.7732 46.2607 13.1166C46.8169 14.46 46.9624 15.9381 46.6786 17.3642C46.3948 18.7902 45.6945 20.1001 44.6663 21.1282C43.6381 22.1562 42.3281 22.8563 40.902 23.1399C39.476 23.4235 37.9978 23.2778 36.6545 22.7213C35.3112 22.1648 34.1631 21.2225 33.3553 20.0135C32.5476 18.8045 32.1165 17.3831 32.1165 15.9291C32.1188 13.9799 32.8942 12.1111 34.2726 10.7329C35.651 9.35469 37.5199 8.57955 39.4691 8.57755ZM39.4691 21.9046C38.2874 21.9047 37.1322 21.5545 36.1496 20.8981C35.167 20.2418 34.401 19.3087 33.9487 18.2171C33.4963 17.1254 33.3778 15.9241 33.6082 14.7651C33.8385 13.606 34.4074 12.5414 35.2429 11.7057C36.0784 10.87 37.1429 10.3008 38.3018 10.0701C39.4608 9.8394 40.6621 9.95756 41.7539 10.4096C42.8457 10.8617 43.779 11.6274 44.4356 12.6098C45.0923 13.5923 45.4428 14.7474 45.443 15.9291C45.441 17.513 44.8111 19.0315 43.6912 20.1517C42.5714 21.2718 41.053 21.9022 39.4691 21.9046ZM42.7635 13.7823C42.8925 13.9116 42.9649 14.0868 42.9649 14.2694C42.9649 14.4521 42.8925 14.6273 42.7635 14.7566L39.4425 18.0759C39.3787 18.1399 39.3028 18.1907 39.2193 18.2254C39.1358 18.2601 39.0463 18.2779 38.9558 18.2779C38.8654 18.2779 38.7759 18.2601 38.6923 18.2254C38.6088 18.1907 38.533 18.1399 38.4691 18.0759L36.174 15.7808C36.045 15.6517 35.9725 15.4766 35.9726 15.2942C35.9727 15.1117 36.0452 14.9367 36.1743 14.8077C36.3034 14.6787 36.4784 14.6062 36.6609 14.6063C36.8434 14.6064 37.0184 14.6789 37.1474 14.808L38.9559 16.6156L41.7887 13.7828C41.8527 13.7188 41.9287 13.668 42.0123 13.6334C42.096 13.5987 42.1856 13.5809 42.2761 13.5809C42.3666 13.5809 42.4563 13.5987 42.5399 13.6334C42.6235 13.668 42.6995 13.7188 42.7635 13.7828V13.7823Z" fill="#234930"/>
</g>
<defs>
<clipPath id="clip0_248_1225">
<rect width="56" height="56" fill="white" transform="translate(0.484375 0.143555)"/>
</clipPath>
</defs>
</svg>
