<svg width="57" height="57" viewBox="0 0 57 57" fill="none" xmlns="http://www.w3.org/2000/svg">
<g clip-path="url(#clip0_248_1206)">
<path d="M1.85939 28.1438C1.85942 29.4397 1.95211 30.7339 2.13677 32.0165C2.19936 32.4475 2.38868 32.8502 2.68065 33.1733C2.97262 33.4964 3.35407 33.7255 3.77652 33.8313C4.12098 33.9196 4.48185 33.9222 4.82754 33.8388C5.17323 33.7554 5.49321 33.5885 5.75948 33.3528C6.02575 33.1171 6.23021 32.8197 6.35495 32.4867C6.47969 32.1537 6.52091 31.7952 6.47502 31.4425C5.7767 26.7107 6.58858 21.8792 8.79513 17.6355C11.0017 13.3918 14.4905 9.95214 18.7651 7.80603C23.0397 5.65992 27.8822 4.91668 32.6037 5.68208C37.3251 6.44748 41.6849 8.68253 45.0625 12.0692L43.1813 13.9504C43.0964 14.0353 43.0364 14.1418 43.0078 14.2585C42.9793 14.3751 42.9833 14.4973 43.0194 14.6118C43.0555 14.7263 43.1223 14.8287 43.2125 14.9079C43.3028 14.987 43.413 15.0399 43.5313 15.0608L51.8858 16.5343C51.9897 16.5527 52.0965 16.5457 52.1971 16.514C52.2977 16.4823 52.3892 16.4268 52.4638 16.3521C52.5383 16.2775 52.5938 16.1859 52.6254 16.0852C52.657 15.9846 52.6638 15.8778 52.6453 15.7739L51.1683 7.42028C51.1474 7.30205 51.0945 7.1918 51.0154 7.10154C50.9362 7.01128 50.8338 6.94446 50.7193 6.90837C50.6048 6.87227 50.4826 6.86829 50.3659 6.89683C50.2493 6.92538 50.1428 6.98538 50.0579 7.07028L48.1469 8.98128C44.3588 5.18125 39.5278 2.59141 34.2661 1.53999C29.0045 0.488569 23.5492 1.02292 18.5916 3.07531C13.634 5.1277 9.39734 8.60572 6.41857 13.0686C3.4398 17.5314 1.85303 22.7781 1.85939 28.1438Z" fill="#234930"/>
<path d="M51.734 28.1434C51.7371 32.6431 50.4048 37.0424 47.906 40.7844C45.4072 44.5264 41.8541 47.4427 37.6967 49.1641C33.5393 50.8854 28.9647 51.3344 24.552 50.454C20.1393 49.5737 16.0871 47.4038 12.9085 44.2189L14.7906 42.3368C14.8755 42.2519 14.9355 42.1454 14.964 42.0288C14.9926 41.9121 14.9886 41.7899 14.9525 41.6754C14.9164 41.5609 14.8496 41.4585 14.7593 41.3793C14.6691 41.3002 14.5588 41.2473 14.4406 41.2264L6.08608 39.7529C5.98219 39.7345 5.87539 39.7415 5.77477 39.7732C5.67414 39.8049 5.58266 39.8605 5.50809 39.9351C5.43353 40.0098 5.37809 40.1013 5.34649 40.202C5.31489 40.3026 5.30806 40.4094 5.32658 40.5133L6.80008 48.8669C6.82094 48.9852 6.87382 49.0954 6.95299 49.1857C7.03216 49.2759 7.13457 49.3428 7.24907 49.3788C7.36358 49.4149 7.48579 49.4189 7.60241 49.3904C7.71902 49.3618 7.82557 49.3018 7.91046 49.2169L9.82146 47.3059C13.8463 51.3339 19.0373 53.9923 24.658 54.904C30.2788 55.8157 36.0439 54.9344 41.1356 52.3852C46.2273 49.836 50.387 45.7482 53.0247 40.7018C55.6624 35.6553 56.6442 29.9065 55.8307 24.2707C55.7684 23.8397 55.5793 23.4371 55.2874 23.1139C54.9956 22.7907 54.6142 22.5617 54.1918 22.4559C53.8473 22.3676 53.4863 22.365 53.1406 22.4484C52.7948 22.5319 52.4748 22.6988 52.2085 22.9347C51.9422 23.1705 51.7377 23.468 51.6131 23.8011C51.4884 24.1342 51.4473 24.4929 51.4933 24.8456C51.6537 25.9375 51.7341 27.0398 51.734 28.1434Z" fill="#234930"/>
<path d="M44.7344 24.8623H41.4575C41.1635 23.7326 40.716 22.6486 40.1275 21.6406L42.441 19.3271C42.502 19.2661 42.5504 19.1937 42.5834 19.1141C42.6164 19.0345 42.6334 18.9491 42.6334 18.8629C42.6334 18.7767 42.6164 18.6913 42.5834 18.6116C42.5504 18.532 42.502 18.4596 42.441 18.3987L38.7293 14.6869C38.6683 14.6259 38.5959 14.5776 38.5163 14.5446C38.4366 14.5116 38.3513 14.4946 38.2651 14.4946C38.1788 14.4946 38.0935 14.5116 38.0138 14.5446C37.9342 14.5776 37.8618 14.6259 37.8009 14.6869L35.4874 17.0004C34.4793 16.4119 33.3953 15.9644 32.2656 15.6704V12.3936C32.2656 12.2195 32.1965 12.0526 32.0734 11.9295C31.9503 11.8064 31.7834 11.7373 31.6094 11.7373H26.3594C26.1853 11.7373 26.0184 11.8064 25.8953 11.9295C25.7723 12.0526 25.7031 12.2195 25.7031 12.3936V15.6704C24.5735 15.9644 23.4895 16.4119 22.4814 17.0004L20.1679 14.6869C20.1069 14.6259 20.0346 14.5776 19.9549 14.5446C19.8753 14.5116 19.7899 14.4946 19.7037 14.4946C19.6175 14.4946 19.5321 14.5116 19.4525 14.5446C19.3728 14.5776 19.3004 14.6259 19.2395 14.6869L15.5278 18.3987C15.4668 18.4596 15.4184 18.532 15.3854 18.6116C15.3524 18.6913 15.3354 18.7767 15.3354 18.8629C15.3354 18.9491 15.3524 19.0345 15.3854 19.1141C15.4184 19.1937 15.4668 19.2661 15.5278 19.3271L17.8412 21.6406C17.2527 22.6486 16.8052 23.7326 16.5113 24.8623H13.2344C13.0603 24.8623 12.8934 24.9314 12.7703 25.0545C12.6473 25.1776 12.5781 25.3445 12.5781 25.5186V30.7686C12.5781 30.9426 12.6473 31.1095 12.7703 31.2326C12.8934 31.3557 13.0603 31.4248 13.2344 31.4248H16.5113C16.8052 32.5545 17.2527 33.6385 17.8412 34.6466L15.5278 36.9601C15.4668 37.021 15.4184 37.0934 15.3854 37.173C15.3524 37.2527 15.3354 37.338 15.3354 37.4242C15.3354 37.5105 15.3524 37.5958 15.3854 37.6755C15.4184 37.7551 15.4668 37.8275 15.5278 37.8884L19.2395 41.6011C19.3004 41.662 19.3728 41.7104 19.4525 41.7434C19.5321 41.7764 19.6175 41.7934 19.7037 41.7934C19.7899 41.7934 19.8753 41.7764 19.9549 41.7434C20.0346 41.7104 20.1069 41.662 20.1679 41.6011L22.4814 39.2867C23.4893 39.8755 24.5734 40.323 25.7031 40.6167V43.8936C25.7031 44.0676 25.7723 44.2345 25.8953 44.3576C26.0184 44.4807 26.1853 44.5498 26.3594 44.5498H31.6094C31.7834 44.5498 31.9503 44.4807 32.0734 44.3576C32.1965 44.2345 32.2656 44.0676 32.2656 43.8936V40.6167C33.3954 40.323 34.4794 39.8755 35.4874 39.2867L37.8009 41.6011C37.8618 41.662 37.9342 41.7104 38.0138 41.7434C38.0935 41.7764 38.1788 41.7934 38.2651 41.7934C38.3513 41.7934 38.4366 41.7764 38.5163 41.7434C38.5959 41.7104 38.6683 41.662 38.7293 41.6011L42.441 37.8884C42.502 37.8275 42.5504 37.7551 42.5834 37.6755C42.6164 37.5958 42.6334 37.5105 42.6334 37.4242C42.6334 37.338 42.6164 37.2527 42.5834 37.173C42.5504 37.0934 42.502 37.021 42.441 36.9601L40.1275 34.6466C40.716 33.6385 41.1635 32.5545 41.4575 31.4248H44.7344C44.9084 31.4248 45.0753 31.3557 45.1984 31.2326C45.3215 31.1095 45.3906 30.9426 45.3906 30.7686V25.5186C45.3906 25.3445 45.3215 25.1776 45.1984 25.0545C45.0753 24.9314 44.9084 24.8623 44.7344 24.8623ZM28.9844 35.7998C27.4701 35.7998 25.9899 35.3508 24.7308 34.5095C23.4717 33.6682 22.4904 32.4725 21.9109 31.0735C21.3314 29.6745 21.1798 28.1351 21.4752 26.6499C21.7707 25.1647 22.4998 23.8005 23.5706 22.7298C24.6413 21.659 26.0055 20.9298 27.4907 20.6344C28.9759 20.339 30.5153 20.4906 31.9143 21.0701C33.3133 21.6496 34.509 22.6309 35.3503 23.89C36.1916 25.149 36.6406 26.6293 36.6406 28.1436C36.6383 30.1734 35.8309 32.1195 34.3956 33.5548C32.9603 34.9901 31.0142 35.7975 28.9844 35.7998Z" fill="#234930"/>
<path d="M28.9844 21.7998C27.7297 21.7998 26.5032 22.1719 25.46 22.8689C24.4168 23.566 23.6037 24.5567 23.1235 25.7159C22.6434 26.8751 22.5177 28.1506 22.7625 29.3812C23.0073 30.6117 23.6115 31.7421 24.4987 32.6293C25.3859 33.5165 26.5162 34.1206 27.7468 34.3654C28.9773 34.6102 30.2529 34.4846 31.412 34.0044C32.5712 33.5243 33.562 32.7112 34.259 31.668C34.9561 30.6247 35.3281 29.3982 35.3281 28.1436C35.3263 26.4617 34.6573 24.8492 33.468 23.6599C32.2788 22.4706 30.6663 21.8017 28.9844 21.7998ZM28.9844 31.8623C28.2489 31.8623 27.5299 31.6442 26.9184 31.2356C26.3068 30.827 25.8302 30.2462 25.5487 29.5667C25.2672 28.8871 25.1936 28.1394 25.3371 27.4181C25.4806 26.6967 25.8347 26.0341 26.3548 25.514C26.8749 24.9939 27.5375 24.6397 28.2589 24.4963C28.9803 24.3528 29.728 24.4264 30.4075 24.7079C31.087 24.9893 31.6678 25.466 32.0764 26.0775C32.485 26.6891 32.7031 27.4081 32.7031 28.1436C32.7031 29.1298 32.3113 30.0757 31.6139 30.7731C30.9165 31.4705 29.9707 31.8623 28.9844 31.8623Z" fill="#234930"/>
</g>
<defs>
<clipPath id="clip0_248_1206">
<rect width="56" height="56" fill="white" transform="translate(0.984375 0.143555)"/>
</clipPath>
</defs>
</svg>
