<svg width="173" height="47" viewBox="0 0 173 47" fill="none" xmlns="http://www.w3.org/2000/svg">
<rect y="0.065918" width="172.964" height="46" rx="6" fill="white"/>
<path d="M24.1537 10.0659H10.6792C10.3041 10.0659 10 10.37 10 10.9601V35.6016C10 35.7618 10.3041 36.0659 10.6792 36.0659H29.285C29.6602 36.0659 29.9643 35.7618 29.9643 35.6016V16.0914C29.9643 15.7683 29.9211 15.6643 29.845 15.5877L24.4425 10.1852C24.3659 10.1091 24.2619 10.0659 24.1537 10.0659Z" fill="#E9E9E0"/>
<path d="M24.3929 10.1357V15.6371H29.8942L24.3929 10.1357Z" fill="#D9D7CA"/>
<path d="M16.0423 25.5375C15.8807 25.5375 15.7256 25.4851 15.5933 25.3862C15.11 25.0236 15.045 24.6201 15.0756 24.3452C15.1601 23.5894 16.0947 22.7982 17.8544 21.9922C18.5526 20.4619 19.217 18.5765 19.6131 17.0012C19.1497 15.9927 18.6994 14.6844 19.0276 13.9169C19.1428 13.6481 19.2862 13.4419 19.5541 13.3528C19.66 13.3175 19.9274 13.2729 20.0258 13.2729C20.2598 13.2729 20.4655 13.5743 20.6113 13.76C20.7483 13.9346 21.0589 14.3046 20.4381 16.9181C21.064 18.2106 21.9507 19.5273 22.8004 20.429C23.4091 20.3189 23.9328 20.2628 24.3595 20.2628C25.0865 20.2628 25.5271 20.4322 25.7068 20.7814C25.8554 21.0702 25.7946 21.4077 25.5257 21.7842C25.2671 22.1459 24.9106 22.3372 24.495 22.3372C23.9305 22.3372 23.273 21.9806 22.5399 21.2763C21.2227 21.5516 19.6846 22.0428 18.4412 22.5865C18.0531 23.4102 17.6812 24.0736 17.3348 24.5602C16.8589 25.2264 16.4485 25.5375 16.0423 25.5375ZM17.2782 23.1576C16.286 23.7152 15.8816 24.1734 15.8524 24.4316C15.8477 24.4743 15.8352 24.5867 16.0525 24.7529C16.1216 24.7311 16.5256 24.5467 17.2782 23.1576ZM23.6096 21.0952C23.988 21.3863 24.0804 21.5335 24.3279 21.5335C24.4365 21.5335 24.7462 21.5289 24.8897 21.3288C24.9589 21.2317 24.9858 21.1695 24.9965 21.1361C24.9394 21.1059 24.8637 21.0446 24.4509 21.0446C24.2165 21.0451 23.9216 21.0553 23.6096 21.0952ZM20.1414 18.0393C19.8095 19.1879 19.3712 20.4281 18.8999 21.5512C19.8703 21.1746 20.9251 20.8459 21.9159 20.6133C21.2891 19.8853 20.6628 18.9762 20.1414 18.0393ZM19.8596 14.1105C19.8141 14.1258 19.2421 14.9263 19.9042 15.6037C20.3448 14.6217 19.8796 14.104 19.8596 14.1105Z" fill="#CC4B4C"/>
<path d="M29.285 36.0657H10.6792C10.3041 36.0657 10 35.7616 10 35.3865V28.1729H29.9643V35.3865C29.9643 35.7616 29.6602 36.0657 29.285 36.0657Z" fill="#CC4B4C"/>
<path d="M15.0538 34.6728H14.2919V29.9946H15.6374C15.8361 29.9946 16.0329 30.0262 16.2275 30.0898C16.422 30.1534 16.5966 30.2486 16.7512 30.3753C16.9058 30.5021 17.0307 30.6558 17.1259 30.8355C17.221 31.0151 17.2689 31.2171 17.2689 31.4418C17.2689 31.6791 17.2285 31.8936 17.1482 32.0862C17.0678 32.2789 16.9555 32.4409 16.8115 32.5719C16.6676 32.7028 16.494 32.8045 16.2911 32.8765C16.0882 32.9484 15.8635 32.9842 15.6183 32.9842H15.0533L15.0538 34.6728ZM15.0538 30.5722V32.4256H15.752C15.8449 32.4256 15.9368 32.4098 16.0283 32.3778C16.1193 32.3462 16.2029 32.2942 16.279 32.2223C16.3552 32.1503 16.4164 32.05 16.4629 31.921C16.5093 31.7919 16.5325 31.6322 16.5325 31.4418C16.5325 31.3657 16.5218 31.2775 16.5009 31.1786C16.4796 31.0792 16.4364 30.984 16.3709 30.893C16.305 30.802 16.2131 30.7259 16.0947 30.6646C15.9763 30.6033 15.8194 30.5727 15.6248 30.5727L15.0538 30.5722Z" fill="white"/>
<path d="M21.941 32.2037C21.941 32.5886 21.8997 32.9178 21.8171 33.1908C21.7344 33.4638 21.63 33.6922 21.5027 33.8765C21.3755 34.0608 21.233 34.2057 21.0742 34.3116C20.9154 34.4174 20.7622 34.4963 20.6141 34.5497C20.466 34.6027 20.3304 34.6366 20.2078 34.6514C20.0853 34.6653 19.9943 34.6728 19.9348 34.6728H18.1641V29.9946H19.5732C19.9669 29.9946 20.3128 30.0573 20.6108 30.1817C20.9089 30.3062 21.1568 30.4728 21.3537 30.6799C21.5506 30.887 21.6973 31.1233 21.7948 31.3875C21.8923 31.6521 21.941 31.9242 21.941 32.2037ZM19.6813 34.1142C20.1976 34.1142 20.57 33.9494 20.7984 33.6193C21.0268 33.2892 21.1411 32.811 21.1411 32.1847C21.1411 31.9901 21.1178 31.7975 21.0714 31.6071C21.0245 31.4167 20.9349 31.2445 20.8017 31.0899C20.6684 30.9353 20.4873 30.8104 20.2589 30.7152C20.0305 30.62 19.7343 30.5722 19.3703 30.5722H18.926V34.1142H19.6813Z" fill="white"/>
<path d="M23.82 30.5722V32.0449H25.7751V32.5654H23.82V34.6728H23.0456V29.9946H25.9715V30.5722H23.82Z" fill="white"/>
<path d="M41.3643 28.5659V16.9979H43.3083V28.5659H41.3643ZM45.8183 28.5659V20.2939H47.7223V21.4779C47.8503 21.2646 48.0236 21.0593 48.2423 20.8619C48.4663 20.6646 48.741 20.5046 49.0663 20.3819C49.3916 20.2593 49.773 20.1979 50.2103 20.1979C50.7223 20.1979 51.197 20.2993 51.6343 20.5019C52.077 20.7046 52.4316 21.0219 52.6983 21.4539C52.9703 21.8859 53.1063 22.4433 53.1063 23.1259V28.5659H51.1543V23.3579C51.1543 22.8139 51.005 22.4113 50.7063 22.1499C50.4076 21.8833 50.0316 21.7499 49.5783 21.7499C49.269 21.7499 48.9756 21.8033 48.6983 21.9099C48.421 22.0113 48.1943 22.1686 48.0183 22.3819C47.8476 22.5899 47.7623 22.8513 47.7623 23.1659V28.5659H45.8183ZM57.152 28.5659L54.096 20.2939H55.88L57.864 26.0859H57.968L59.944 20.2939H61.736L58.688 28.5659H57.152ZM66.568 28.7259C65.7734 28.7259 65.072 28.5579 64.464 28.2219C63.8614 27.8806 63.3894 27.3953 63.048 26.7659C62.712 26.1366 62.544 25.3873 62.544 24.5179C62.544 23.6699 62.696 22.9179 63 22.2619C63.3094 21.6006 63.7547 21.0806 64.336 20.7019C64.9227 20.3233 65.6294 20.1339 66.456 20.1339C67.272 20.1339 67.9574 20.3073 68.512 20.6539C69.0667 21.0006 69.488 21.4859 69.776 22.1099C70.064 22.7286 70.208 23.4539 70.208 24.2859V24.8779H64.488C64.4827 25.3473 64.5574 25.7633 64.712 26.1259C64.8667 26.4886 65.096 26.7739 65.4 26.9819C65.704 27.1846 66.08 27.2859 66.528 27.2859C66.9867 27.2859 67.384 27.1846 67.72 26.9819C68.0614 26.7739 68.288 26.4593 68.4 26.0379H70.176C70.08 26.6139 69.8507 27.1019 69.488 27.5019C69.1307 27.9019 68.6934 28.2059 68.176 28.4139C67.664 28.6219 67.128 28.7259 66.568 28.7259ZM64.48 23.6699H68.368C68.368 23.2699 68.296 22.9099 68.152 22.5899C68.0134 22.2646 67.8027 22.0086 67.52 21.8219C67.2374 21.6299 66.88 21.5339 66.448 21.5339C66.0214 21.5339 65.6614 21.6379 65.368 21.8459C65.0747 22.0539 64.8534 22.3233 64.704 22.6539C64.5547 22.9793 64.48 23.3179 64.48 23.6699ZM75.1894 28.7259C74.6134 28.7259 74.0668 28.6353 73.5494 28.4539C73.0374 28.2673 72.6054 27.9766 72.2534 27.5819C71.9068 27.1873 71.6881 26.6779 71.5974 26.0539H73.3094C73.3841 26.3579 73.5148 26.6059 73.7014 26.7979C73.8934 26.9899 74.1174 27.1313 74.3734 27.2219C74.6348 27.3073 74.9041 27.3499 75.1814 27.3499C75.6774 27.3499 76.0774 27.2646 76.3814 27.0939C76.6854 26.9233 76.8374 26.6593 76.8374 26.3019C76.8374 26.0406 76.7521 25.8326 76.5814 25.6779C76.4161 25.5233 76.1441 25.4059 75.7654 25.3259L74.1974 24.9659C73.4934 24.8113 72.9308 24.5553 72.5094 24.1979C72.0881 23.8406 71.8748 23.3366 71.8694 22.6859C71.8641 22.1953 71.9868 21.7579 72.2374 21.3739C72.4881 20.9899 72.8614 20.6886 73.3574 20.4699C73.8534 20.2459 74.4641 20.1339 75.1894 20.1339C76.1548 20.1339 76.9281 20.3499 77.5094 20.7819C78.0961 21.2086 78.3974 21.8193 78.4134 22.6139H76.7574C76.6988 22.2566 76.5308 21.9793 76.2534 21.7819C75.9761 21.5793 75.6161 21.4779 75.1734 21.4779C74.7148 21.4779 74.3388 21.5659 74.0454 21.7419C73.7521 21.9179 73.6054 22.1873 73.6054 22.5499C73.6054 22.8006 73.7148 22.9979 73.9334 23.1419C74.1574 23.2859 74.4961 23.4086 74.9494 23.5099L76.4374 23.8699C76.8641 23.9766 77.2134 24.1206 77.4854 24.3019C77.7574 24.4833 77.9681 24.6833 78.1174 24.9019C78.2721 25.1153 78.3788 25.3366 78.4374 25.5659C78.5014 25.7899 78.5334 25.9979 78.5334 26.1899C78.5334 26.7233 78.3948 27.1793 78.1174 27.5579C77.8454 27.9313 77.4588 28.2193 76.9574 28.4219C76.4614 28.6246 75.8721 28.7259 75.1894 28.7259ZM83.5133 28.6299C82.8573 28.6299 82.348 28.5446 81.9853 28.3739C81.628 28.1979 81.38 27.9499 81.2413 27.6299C81.1026 27.3099 81.0333 26.9286 81.0333 26.4859V21.6699H79.6893V20.2939H81.0893L81.5773 17.8379H82.9773V20.2859H84.8253V21.6699H82.9773L82.9853 26.4139C82.9853 26.6593 83.012 26.8406 83.0653 26.9579C83.124 27.0699 83.2146 27.1446 83.3373 27.1819C83.4653 27.2139 83.6333 27.2299 83.8413 27.2299H84.8653V28.4619C84.7533 28.5046 84.588 28.5419 84.3693 28.5739C84.156 28.6113 83.8706 28.6299 83.5133 28.6299ZM89.884 28.7259C89.0947 28.7259 88.4067 28.5579 87.82 28.2219C87.2334 27.8806 86.7774 27.3926 86.452 26.7579C86.132 26.1233 85.972 25.3606 85.972 24.4699C85.972 23.6059 86.1294 22.8486 86.444 22.1979C86.7587 21.5473 87.2067 21.0406 87.788 20.6779C88.3747 20.3153 89.076 20.1339 89.892 20.1339C90.6814 20.1339 91.3667 20.3073 91.948 20.6539C92.5294 21.0006 92.9774 21.4966 93.292 22.1419C93.612 22.7873 93.772 23.5633 93.772 24.4699C93.772 25.3073 93.62 26.0459 93.316 26.6859C93.0174 27.3206 92.5774 27.8193 91.996 28.1819C91.42 28.5446 90.716 28.7259 89.884 28.7259ZM89.892 27.2459C90.34 27.2459 90.708 27.1233 90.996 26.8779C91.2894 26.6326 91.508 26.2966 91.652 25.8699C91.796 25.4433 91.868 24.9579 91.868 24.4139C91.868 23.9073 91.804 23.4406 91.676 23.0139C91.548 22.5873 91.3374 22.2459 91.044 21.9899C90.756 21.7286 90.372 21.5979 89.892 21.5979C89.4387 21.5979 89.0627 21.7179 88.764 21.9579C88.4707 22.1926 88.252 22.5233 88.108 22.9499C87.964 23.3713 87.892 23.8593 87.892 24.4139C87.892 24.9153 87.956 25.3819 88.084 25.8139C88.212 26.2406 88.4227 26.5873 88.716 26.8539C89.0094 27.1153 89.4014 27.2459 89.892 27.2459ZM95.5527 28.5659V20.2939H97.4167V22.0859C97.55 21.6753 97.7393 21.3259 97.9847 21.0379C98.2353 20.7446 98.5287 20.5206 98.8647 20.3659C99.2007 20.2113 99.566 20.1339 99.9607 20.1339C100.057 20.1339 100.15 20.1393 100.241 20.1499C100.331 20.1606 100.398 20.1793 100.441 20.2059V22.0699C100.382 22.0433 100.305 22.0246 100.209 22.0139C100.118 22.0033 100.038 21.9979 99.9687 21.9979C99.5687 21.9659 99.214 21.9819 98.9047 22.0459C98.6007 22.1099 98.342 22.2193 98.1287 22.3739C97.9207 22.5233 97.7633 22.7153 97.6567 22.9499C97.55 23.1793 97.4967 23.4486 97.4967 23.7579V28.5659H95.5527ZM110.525 28.7259C109.463 28.7259 108.551 28.4833 107.789 27.9979C107.031 27.5073 106.447 26.8139 106.037 25.9179C105.631 25.0166 105.429 23.9473 105.429 22.7099C105.429 21.4779 105.631 20.4246 106.037 19.5499C106.442 18.6753 107.023 18.0059 107.781 17.5419C108.543 17.0726 109.458 16.8379 110.525 16.8379C111.373 16.8379 112.125 17.0113 112.781 17.3579C113.437 17.6993 113.965 18.1633 114.365 18.7499C114.77 19.3366 115.01 19.9899 115.085 20.7099H113.029C112.949 20.2833 112.799 19.9019 112.581 19.5659C112.367 19.2299 112.085 18.9633 111.733 18.7659C111.381 18.5686 110.959 18.4699 110.469 18.4699C109.855 18.4699 109.333 18.6166 108.901 18.9099C108.474 19.1979 108.146 19.6566 107.917 20.2859C107.693 20.9153 107.581 21.7313 107.581 22.7339C107.581 24.2539 107.831 25.3606 108.333 26.0539C108.834 26.7473 109.546 27.0939 110.469 27.0939C110.959 27.0939 111.381 26.9873 111.733 26.7739C112.085 26.5553 112.367 26.2673 112.581 25.9099C112.799 25.5473 112.949 25.1526 113.029 24.7259H115.085C115.021 25.2486 114.887 25.7499 114.685 26.2299C114.487 26.7099 114.207 27.1393 113.845 27.5179C113.482 27.8913 113.026 28.1873 112.477 28.4059C111.933 28.6193 111.282 28.7259 110.525 28.7259ZM116.99 28.5659V16.6779H118.91V21.4939C119.044 21.2859 119.22 21.0859 119.438 20.8939C119.657 20.6966 119.924 20.5366 120.238 20.4139C120.558 20.2859 120.94 20.2219 121.382 20.2219C121.91 20.2219 122.393 20.3233 122.83 20.5259C123.268 20.7286 123.617 21.0219 123.878 21.4059C124.14 21.7846 124.27 22.2379 124.27 22.7659V28.5659H122.318V23.0939C122.318 22.6673 122.166 22.3366 121.862 22.1019C121.564 21.8673 121.185 21.7499 120.726 21.7499C120.422 21.7499 120.132 21.8033 119.854 21.9099C119.577 22.0166 119.353 22.1766 119.182 22.3899C119.017 22.5979 118.934 22.8593 118.934 23.1739V28.5659H116.99ZM128.695 28.7259C128.167 28.7259 127.692 28.6299 127.271 28.4379C126.855 28.2406 126.527 27.9606 126.287 27.5979C126.052 27.2299 125.935 26.7846 125.935 26.2619C125.935 25.3499 126.263 24.6619 126.919 24.1979C127.58 23.7339 128.631 23.4913 130.071 23.4699L131.311 23.4379V22.8779C131.311 22.4406 131.18 22.0993 130.919 21.8539C130.663 21.6033 130.263 21.4806 129.719 21.4859C129.313 21.4913 128.945 21.5873 128.615 21.7739C128.284 21.9553 128.065 22.2619 127.959 22.6939H126.303C126.335 22.1286 126.497 21.6566 126.791 21.2779C127.089 20.8939 127.497 20.6086 128.015 20.4219C128.532 20.2299 129.129 20.1339 129.807 20.1339C130.596 20.1339 131.239 20.2379 131.735 20.4459C132.231 20.6539 132.596 20.9553 132.831 21.3499C133.065 21.7393 133.183 22.2113 133.183 22.7659V28.5659H131.543L131.383 27.0779C131.089 27.7019 130.713 28.1339 130.255 28.3739C129.801 28.6086 129.281 28.7259 128.695 28.7259ZM129.327 27.4059C129.567 27.4059 129.804 27.3633 130.039 27.2779C130.273 27.1873 130.484 27.0673 130.671 26.9179C130.863 26.7633 131.015 26.5926 131.127 26.4059C131.244 26.2193 131.305 26.0246 131.311 25.8219V24.5179L130.295 24.5339C129.793 24.5393 129.353 24.5926 128.975 24.6939C128.601 24.7953 128.311 24.9579 128.103 25.1819C127.895 25.4006 127.791 25.6939 127.791 26.0619C127.791 26.4833 127.937 26.8139 128.231 27.0539C128.524 27.2886 128.889 27.4059 129.327 27.4059ZM135.256 28.5659V20.2939H137.12V22.0859C137.253 21.6753 137.442 21.3259 137.688 21.0379C137.938 20.7446 138.232 20.5206 138.568 20.3659C138.904 20.2113 139.269 20.1339 139.664 20.1339C139.76 20.1339 139.853 20.1393 139.944 20.1499C140.034 20.1606 140.101 20.1793 140.144 20.2059V22.0699C140.085 22.0433 140.008 22.0246 139.912 22.0139C139.821 22.0033 139.741 21.9979 139.672 21.9979C139.272 21.9659 138.917 21.9819 138.608 22.0459C138.304 22.1099 138.045 22.2193 137.832 22.3739C137.624 22.5233 137.466 22.7153 137.36 22.9499C137.253 23.1793 137.2 23.4486 137.2 23.7579V28.5659H135.256ZM144.873 28.6299C144.217 28.6299 143.707 28.5446 143.345 28.3739C142.987 28.1979 142.739 27.9499 142.601 27.6299C142.462 27.3099 142.393 26.9286 142.393 26.4859V21.6699H141.049V20.2939H142.449L142.937 17.8379H144.337V20.2859H146.185V21.6699H144.337L144.345 26.4139C144.345 26.6593 144.371 26.8406 144.425 26.9579C144.483 27.0699 144.574 27.1446 144.697 27.1819C144.825 27.2139 144.993 27.2299 145.201 27.2299H146.225V28.4619C146.113 28.5046 145.947 28.5419 145.729 28.5739C145.515 28.6113 145.23 28.6299 144.873 28.6299ZM151.427 28.7259C150.633 28.7259 149.931 28.5579 149.323 28.2219C148.721 27.8806 148.249 27.3953 147.907 26.7659C147.571 26.1366 147.403 25.3873 147.403 24.5179C147.403 23.6699 147.555 22.9179 147.859 22.2619C148.169 21.6006 148.614 21.0806 149.195 20.7019C149.782 20.3233 150.489 20.1339 151.315 20.1339C152.131 20.1339 152.817 20.3073 153.371 20.6539C153.926 21.0006 154.347 21.4859 154.635 22.1099C154.923 22.7286 155.067 23.4539 155.067 24.2859V24.8779H149.347C149.342 25.3473 149.417 25.7633 149.571 26.1259C149.726 26.4886 149.955 26.7739 150.259 26.9819C150.563 27.1846 150.939 27.2859 151.387 27.2859C151.846 27.2859 152.243 27.1846 152.579 26.9819C152.921 26.7739 153.147 26.4593 153.259 26.0379H155.035C154.939 26.6139 154.71 27.1019 154.347 27.5019C153.99 27.9019 153.553 28.2059 153.035 28.4139C152.523 28.6219 151.987 28.7259 151.427 28.7259ZM149.339 23.6699H153.227C153.227 23.2699 153.155 22.9099 153.011 22.5899C152.873 22.2646 152.662 22.0086 152.379 21.8219C152.097 21.6299 151.739 21.5339 151.307 21.5339C150.881 21.5339 150.521 21.6379 150.227 21.8459C149.934 22.0539 149.713 22.3233 149.563 22.6539C149.414 22.9793 149.339 23.3179 149.339 23.6699ZM156.928 28.5659V20.2939H158.792V22.0859C158.925 21.6753 159.114 21.3259 159.36 21.0379C159.61 20.7446 159.904 20.5206 160.24 20.3659C160.576 20.2113 160.941 20.1339 161.336 20.1339C161.432 20.1339 161.525 20.1393 161.616 20.1499C161.706 20.1606 161.773 20.1793 161.816 20.2059V22.0699C161.757 22.0433 161.68 22.0246 161.584 22.0139C161.493 22.0033 161.413 21.9979 161.344 21.9979C160.944 21.9659 160.589 21.9819 160.28 22.0459C159.976 22.1099 159.717 22.2193 159.504 22.3739C159.296 22.5233 159.138 22.7153 159.032 22.9499C158.925 23.1793 158.872 23.4486 158.872 23.7579V28.5659H156.928Z" fill="#234930"/>
</svg>
