<svg width="21" height="27" viewBox="0 0 21 27" fill="none" xmlns="http://www.w3.org/2000/svg">
<path d="M14.6381 0.209473H1.16362C0.788482 0.209473 0.484375 0.51358 0.484375 1.10369V25.7452C0.484375 25.9054 0.788482 26.2095 1.16362 26.2095H19.7694C20.1446 26.2095 20.4487 25.9054 20.4487 25.7452V6.23497C20.4487 5.91183 20.4055 5.80783 20.3293 5.73122L14.9269 0.328794C14.8503 0.252651 14.7463 0.209473 14.6381 0.209473Z" fill="#E9E9E0"/>
<path d="M14.877 0.279297V5.78062H20.3783L14.877 0.279297Z" fill="#D9D7CA"/>
<path d="M6.52675 15.6811C6.36518 15.6811 6.2101 15.6286 6.07778 15.5297C5.59446 15.1671 5.52946 14.7636 5.5601 14.4888C5.6446 13.7329 6.57921 12.9418 8.33885 12.1358C9.03714 10.6055 9.70153 8.72004 10.0976 7.14472C9.63421 6.13629 9.18385 4.82793 9.5121 4.06047C9.62725 3.79165 9.77071 3.5855 10.0386 3.49636C10.1445 3.46108 10.4119 3.4165 10.5103 3.4165C10.7443 3.4165 10.95 3.71783 11.0958 3.90354C11.2327 4.07811 11.5434 4.44815 10.9226 7.06161C11.5485 8.35418 12.4352 9.6709 13.2849 10.5725C13.8936 10.4625 14.4173 10.4063 14.844 10.4063C15.571 10.4063 16.0116 10.5758 16.1913 10.9249C16.3399 11.2137 16.2791 11.5513 16.0102 11.9278C15.7516 12.2895 15.3951 12.4808 14.9795 12.4808C14.415 12.4808 13.7575 12.1242 13.0244 11.4199C11.7072 11.6952 10.1691 12.1864 8.92571 12.7301C8.53757 13.5537 8.16568 14.2172 7.81932 14.7038C7.34343 15.37 6.933 15.6811 6.52675 15.6811ZM7.76268 13.3011C6.7705 13.8588 6.3661 14.317 6.33685 14.5751C6.33221 14.6179 6.31968 14.7302 6.53696 14.8964C6.60614 14.8746 7.01007 14.6903 7.76268 13.3011ZM14.0941 11.2388C14.4725 11.5299 14.5649 11.6771 14.8124 11.6771C14.921 11.6771 15.2307 11.6724 15.3742 11.4723C15.4434 11.3753 15.4703 11.3131 15.481 11.2796C15.4239 11.2495 15.3482 11.1882 14.9354 11.1882C14.701 11.1886 14.4061 11.1989 14.0941 11.2388ZM10.6259 8.18286C10.294 9.3315 9.85568 10.5716 9.38443 11.6947C10.3548 11.3182 11.4096 10.9895 12.4004 10.7569C11.7736 10.0289 11.1473 9.11979 10.6259 8.18286ZM10.3441 4.25408C10.2986 4.2694 9.7266 5.06983 10.3887 5.74722C10.8293 4.76525 10.3641 4.24758 10.3441 4.25408Z" fill="#CC4B4C"/>
<path d="M19.7694 26.2093H1.16362C0.788482 26.2093 0.484375 25.9052 0.484375 25.53V18.3164H20.4487V25.53C20.4487 25.9052 20.1446 26.2093 19.7694 26.2093Z" fill="#CC4B4C"/>
<path d="M5.53826 24.8163H4.77637V20.1382H6.12187C6.32058 20.1382 6.51744 20.1698 6.71197 20.2334C6.90651 20.297 7.08108 20.3921 7.23569 20.5189C7.3903 20.6456 7.51519 20.7993 7.61037 20.979C7.70555 21.1587 7.75337 21.3606 7.75337 21.5854C7.75337 21.8226 7.71297 22.0371 7.63265 22.2298C7.55233 22.4225 7.43997 22.5845 7.29605 22.7154C7.15212 22.8464 6.97847 22.948 6.77558 23.02C6.57269 23.092 6.34797 23.1277 6.10283 23.1277H5.5378L5.53826 24.8163ZM5.53826 20.7158V22.5692H6.23655C6.3294 22.5692 6.42133 22.5534 6.5128 22.5214C6.6038 22.4898 6.68737 22.4378 6.76351 22.3658C6.83965 22.2939 6.90094 22.1936 6.94737 22.0645C6.9938 21.9354 7.01701 21.7757 7.01701 21.5854C7.01701 21.5092 7.00633 21.421 6.98544 21.3221C6.96408 21.2228 6.9209 21.1276 6.85544 21.0366C6.78951 20.9456 6.69758 20.8694 6.57919 20.8081C6.4608 20.7469 6.30387 20.7162 6.10933 20.7162L5.53826 20.7158Z" fill="white"/>
<path d="M12.4254 22.3473C12.4254 22.7321 12.3841 23.0613 12.3014 23.3343C12.2188 23.6073 12.1143 23.8358 11.9871 24.0201C11.8599 24.2044 11.7174 24.3493 11.5586 24.4551C11.3998 24.561 11.2466 24.6399 11.0985 24.6933C10.9504 24.7462 10.8148 24.7801 10.6922 24.795C10.5697 24.8089 10.4787 24.8163 10.4192 24.8163H8.64844V20.1382H10.0575C10.4513 20.1382 10.7972 20.2009 11.0952 20.3253C11.3933 20.4497 11.6412 20.6164 11.8381 20.8235C12.0349 21.0305 12.1817 21.2669 12.2792 21.531C12.3767 21.7957 12.4254 22.0678 12.4254 22.3473ZM10.1657 24.2578C10.682 24.2578 11.0544 24.093 11.2828 23.7629C11.5112 23.4328 11.6254 22.9545 11.6254 22.3282C11.6254 22.1337 11.6022 21.941 11.5558 21.7506C11.5089 21.5603 11.4193 21.388 11.286 21.2334C11.1528 21.0788 10.9717 20.9539 10.7433 20.8588C10.5149 20.7636 10.2187 20.7158 9.85465 20.7158H9.41033V24.2578H10.1657Z" fill="white"/>
<path d="M14.3047 20.7158V22.1885H16.2598V22.7089H14.3047V24.8163H13.5303V20.1382H16.4562V20.7158H14.3047Z" fill="white"/>
</svg>
