<svg width="26" height="27" viewBox="0 0 26 27" fill="none" xmlns="http://www.w3.org/2000/svg">
<path fill-rule="evenodd" clip-rule="evenodd" d="M2.44251 18.4963C2.48438 18.78 2.28826 19.0433 2.00589 19.0849C1.72089 19.1265 1.4594 18.9301 1.41758 18.6464C1.37577 18.3632 1.57183 18.0994 1.8542 18.0578C2.1392 18.0168 2.4033 18.2128 2.44251 18.4963ZM16.5702 7.42437C18.0144 9.02692 19.0921 10.4185 19.8031 11.667C21.1516 14.0346 20.8179 16.4213 19.4958 18.1683L18.317 18.8549C17.9998 19.0396 17.6767 19.1567 17.3427 19.2139C17.482 19.0288 17.5898 18.8072 17.6592 18.5502C17.9214 17.5783 17.3397 16.6172 16.4059 16.2936L16.3454 16.2726L16.2825 16.2611C16.0666 16.2216 15.8521 16.177 15.6388 16.128C15.8294 15.873 15.9412 15.559 15.9322 15.1809C15.9306 15.1158 15.9269 15.0586 15.921 15.0097C15.8454 14.3869 15.5085 13.9816 15.0618 13.7119C14.6694 13.4749 14.1988 13.3569 13.7674 13.2861C13.4562 13.235 13.1284 13.1486 12.8884 12.9919C12.7024 12.8704 12.569 12.6947 12.5566 12.4376C12.5431 12.1595 12.6645 11.9352 12.8558 11.7796C13.0056 11.6578 13.1968 11.5731 13.4041 11.5314C13.4875 11.5146 13.5733 11.505 13.6599 11.5027C13.6691 11.5032 13.6784 11.5035 13.6877 11.5035C13.6989 11.5035 13.71 11.5031 13.721 11.5023C13.8356 11.504 13.951 11.5187 14.0638 11.5473C14.4103 11.6351 14.7258 11.8635 14.892 12.2593C14.9915 12.4966 15.2647 12.6083 15.502 12.5087C15.7393 12.4092 15.8511 12.136 15.7515 11.8987C15.4589 11.2018 14.9019 10.7993 14.2895 10.644C14.2446 10.6327 14.1994 10.6227 14.1539 10.614V10.2528C14.1539 9.99531 13.9451 9.78658 13.6877 9.78658C13.4302 9.78658 13.2215 9.99531 13.2215 10.2528V10.621C12.8683 10.6922 12.5366 10.8413 12.2694 11.0585C11.8588 11.3923 11.5985 11.877 11.6279 12.4814C11.6573 13.0885 11.9603 13.4959 12.3822 13.7713C12.7499 14.0114 13.2016 14.1356 13.618 14.2039C13.9525 14.2588 14.3096 14.3456 14.581 14.5095C14.798 14.6405 14.9611 14.832 14.9959 15.1189C15.0005 15.1572 15.003 15.185 15.0035 15.2027C15.0089 15.4309 14.8997 15.6047 14.7358 15.7291C14.6802 15.7713 14.6185 15.8088 14.5523 15.8417C13.3482 15.4875 12.2295 15.0284 11.0404 14.6427C9.79899 14.2399 8.64212 14.6957 7.56962 15.317L6.83917 15.7402C6.60672 14.4659 6.81614 13.0633 7.61128 11.6671C8.32237 10.4186 9.40011 9.02697 10.8442 7.42448C11.0254 7.48352 11.2187 7.51555 11.4191 7.51555H15.9954C16.1958 7.5155 16.389 7.48341 16.5702 7.42437ZM11.4191 6.67806H15.9953C16.5595 6.67806 17.0211 6.21642 17.0211 5.65235C17.0211 5.08813 16.5596 4.62659 15.9953 4.62659H11.4191C10.8548 4.62659 10.3933 5.08813 10.3933 5.6523C10.3933 6.21647 10.8548 6.67806 11.4191 6.67806ZM11.3817 3.78957L10.5392 2.94706C10.1293 2.53713 10.1293 1.86629 10.5392 1.45636C10.8879 1.10767 11.4398 1.04874 11.8548 1.31504C12.0089 1.41397 12.1859 1.42972 12.3551 1.35974C12.5242 1.28966 12.6381 1.15342 12.6772 0.974468C12.7805 0.501263 13.2042 0.144148 13.7073 0.144043C14.2013 0.144043 14.6321 0.492261 14.7374 0.974468C14.7764 1.15342 14.8904 1.28966 15.0595 1.35974C15.2287 1.42983 15.4056 1.41397 15.5597 1.31504C15.9673 1.05345 16.5195 1.10061 16.8752 1.45626V1.45636C17.2852 1.86629 17.2852 2.53713 16.8752 2.94706L16.0327 3.78957C16.0203 3.78931 16.0079 3.7891 15.9954 3.7891H11.4191C11.4066 3.7891 11.3942 3.78936 11.3817 3.78957ZM4.1143 18.2866L6.90778 23.2161L7.95887 22.6094C8.06083 22.5504 8.18116 22.5347 8.2962 22.5653L14.8974 24.0191C15.7707 24.2527 16.5918 24.1373 17.3422 23.6761L25.3583 18.6941C25.795 18.4264 25.9283 17.6403 25.6276 17.137C25.191 16.4081 24.0353 16.4941 22.5344 17.3677L18.7385 19.5785C17.9488 20.0398 17.0964 20.189 16.1368 20.0353C15.9616 20.0071 15.7891 19.977 15.6191 19.9443C15.5825 19.9417 12.3899 19.1118 12.0239 19.0132C11.786 18.9499 11.6448 18.7067 11.7101 18.4707C11.7729 18.2338 12.0161 18.0936 12.2514 18.1569C12.6253 18.257 14.8896 18.8989 15.7394 19.0642C16.1735 19.0919 16.6781 18.9711 16.8507 18.3321C16.9919 17.8081 16.6833 17.276 16.1316 17.0849C14.5811 16.8009 13.0828 16.2599 11.8801 15.8244C11.4591 15.6724 11.0957 15.5411 10.7819 15.4392C9.79349 15.1187 8.85483 15.5394 7.98934 16.0416L4.1143 18.2866ZM6.8065 24.8451L2.534 17.2956C2.49218 17.2218 2.42419 17.169 2.34049 17.1457C2.31176 17.1381 2.28303 17.1342 2.25419 17.1342C2.19933 17.1342 2.14699 17.1481 2.09994 17.1748L0.646146 17.9971C0.4919 18.0842 0.43956 18.2795 0.525817 18.4325L4.79833 25.9819C4.88463 26.1354 5.08075 26.1893 5.23238 26.1028L6.68618 25.2802C6.7594 25.2386 6.81169 25.1699 6.83519 25.0875C6.85879 25.0048 6.84832 24.9188 6.8065 24.8451Z" fill="#234930"/>
</svg>
