<svg width="27" height="27" viewBox="0 0 27 27" fill="none" xmlns="http://www.w3.org/2000/svg">
<path d="M5.97332 17.4771C2.94672 17.4771 0.484375 19.9394 0.484375 22.966V26.1438H2.21773V23.5438C2.21773 23.3842 2.34709 23.2549 2.50662 23.2549C2.66615 23.2549 2.79551 23.3842 2.79551 23.5438V26.1438H9.15114V23.5438C9.15114 23.3842 9.2805 23.2549 9.44003 23.2549C9.59955 23.2549 9.72892 23.3842 9.72892 23.5438V26.1438H11.4623V22.966C11.4623 19.9394 8.99993 17.4771 5.97332 17.4771Z" fill="#234930"/>
<path d="M8.5731 14.2992C8.5731 12.8656 7.40673 11.6992 5.97308 11.6992C4.53942 11.6992 3.37305 12.8656 3.37305 14.2992C3.37305 15.7329 4.53942 16.8993 5.97308 16.8993C7.40673 16.8993 8.5731 15.7329 8.5731 14.2992Z" fill="#234930"/>
<path d="M16.3293 8.81032H24.1739V0.143555H2.7959V8.81032H10.6404C10.7269 8.81032 10.8089 8.84908 10.8637 8.91599L13.4849 12.1105L16.106 8.91599C16.1609 8.84908 16.2428 8.81032 16.3293 8.81032ZM6.55149 1.87691H20.4183C20.5779 1.87691 20.7072 2.00627 20.7072 2.1658C20.7072 2.32533 20.5779 2.45469 20.4183 2.45469H6.55149C6.39197 2.45469 6.2626 2.32533 6.2626 2.1658C6.2626 2.00627 6.39197 1.87691 6.55149 1.87691ZM6.55149 4.18804H20.4183C20.5779 4.18804 20.7072 4.31741 20.7072 4.47694C20.7072 4.63646 20.5779 4.76583 20.4183 4.76583H6.55149C6.39197 4.76583 6.2626 4.63646 6.2626 4.47694C6.2626 4.31741 6.39197 4.18804 6.55149 4.18804ZM6.55149 7.07696C6.39197 7.07696 6.2626 6.9476 6.2626 6.78807C6.2626 6.62855 6.39197 6.49918 6.55149 6.49918H20.4183C20.5779 6.49918 20.7072 6.62855 20.7072 6.78807C20.7072 6.9476 20.5779 7.07696 20.4183 7.07696H6.55149Z" fill="#234930"/>
<path d="M20.9958 17.4771C17.9692 17.4771 15.5068 19.9394 15.5068 22.966V26.1438H17.2402V23.5438C17.2402 23.3842 17.3695 23.2549 17.5291 23.2549C17.6887 23.2549 17.818 23.3842 17.818 23.5438V26.1438H24.1736V23.5438C24.1736 23.3842 24.3029 23.2549 24.4625 23.2549C24.6221 23.2549 24.7514 23.3842 24.7514 23.5438V26.1438H26.4847V22.966C26.4847 19.9394 24.0224 17.4771 20.9958 17.4771Z" fill="#234930"/>
<path d="M18.3965 14.2992C18.3965 15.7329 19.5629 16.8993 20.9965 16.8993C22.4302 16.8993 23.5965 15.7329 23.5965 14.2992C23.5965 12.8656 22.4302 11.6992 20.9965 11.6992C19.5629 11.6992 18.3965 12.8656 18.3965 14.2992Z" fill="#234930"/>
</svg>
