<svg width="27" height="27" viewBox="0 0 27 27" fill="none" xmlns="http://www.w3.org/2000/svg">
<path fill-rule="evenodd" clip-rule="evenodd" d="M19.6016 26.3308H1.0123C0.721487 26.3308 0.484375 26.0936 0.484375 25.8028V0.671971C0.484375 0.381257 0.721538 0.144043 1.0123 0.144043H15.6475V3.03276C15.6475 3.91124 16.3623 4.62611 17.2408 4.62611H20.1296V13.4565C19.7116 13.517 19.3133 13.6701 18.923 13.9003L18.3309 13.6941C17.5774 13.4316 16.9525 13.5403 16.2085 13.716C15.7651 13.8208 15.2769 13.9586 14.8506 13.7239L14.8252 13.71L13.5695 13.1305C12.9078 12.8251 12.1189 13.1126 11.8089 13.7723L10.4266 16.7132C10.2735 17.039 10.258 17.4029 10.383 17.7404C10.5086 18.0797 10.7549 18.3434 11.0849 18.4917C11.5008 18.6787 11.9389 18.8908 12.3623 19.0552C12.484 19.1024 12.5162 19.2576 12.5432 19.3708L12.7341 20.1713C12.635 20.3562 12.5358 20.541 12.4369 20.7259C12.2746 21.0286 12.2419 21.3836 12.3413 21.7121C12.4408 22.0408 12.6648 22.3178 12.9683 22.4801C13.1635 22.5844 13.375 22.633 13.5839 22.6313C13.5159 23.1512 13.7692 23.6875 14.2554 23.9478C14.5581 24.1098 14.9139 24.1402 15.2415 24.0408C15.3184 24.0175 15.3926 23.9874 15.4633 23.9511C15.5784 24.1893 15.7671 24.3946 16.0179 24.5288C16.3213 24.6911 16.6756 24.7252 17.0048 24.6254C17.0438 24.6136 17.082 24.6 17.1193 24.5848C17.229 24.8568 17.431 25.0935 17.7097 25.2425C18.0128 25.4046 18.3671 25.4385 18.6961 25.3388C18.9551 25.2603 19.1803 25.1051 19.3437 24.8948L19.73 25.1071C19.8581 25.1775 19.993 25.2238 20.1296 25.2477V25.8027C20.1296 26.0936 19.8924 26.3308 19.6016 26.3308ZM13.1246 21.4751C13.1603 21.593 13.2396 21.6975 13.3542 21.7585C13.5804 21.8797 13.8774 21.7922 13.9989 21.5644C14.0002 21.5632 14.5806 20.4775 14.5806 20.4775C14.7021 20.25 14.6133 19.9538 14.3853 19.8318C14.1572 19.7098 13.861 19.7986 13.7387 20.0271C13.7377 20.0291 13.1583 21.1122 13.1583 21.1122C13.097 21.2265 13.089 21.3575 13.1246 21.4751ZM13.2267 13.8736C12.972 13.7561 12.6688 13.8666 12.5495 14.1204L11.1672 17.0614C11.1067 17.1902 11.101 17.3229 11.1504 17.4564C11.1998 17.5899 11.2905 17.687 11.4204 17.7454C11.9255 17.9725 12.525 18.2404 12.6584 18.2924C13.0998 18.4636 13.2568 18.8357 13.3392 19.1811C13.4666 19.0843 13.6104 19.0089 13.7682 18.961C14.1141 18.8563 14.4791 18.8921 14.7965 19.0617C15.1123 19.23 15.3447 19.5136 15.4502 19.8593C15.4636 19.9049 15.4752 19.9507 15.4844 19.9965C15.7604 19.9607 16.0404 20.0109 16.2903 20.1445C16.5904 20.3046 16.8138 20.5689 16.9258 20.8917C17.256 20.8054 17.6006 20.8453 17.9017 21.0065C18.2024 21.1666 18.4255 21.4312 18.5372 21.7537C18.8679 21.6674 19.2121 21.7076 19.514 21.8688C19.6612 21.9473 19.7894 22.0515 19.8957 22.1743L21.2663 22.9322C21.4969 23.0591 21.7877 22.9744 21.9148 22.7438C22.0405 22.5152 21.9542 22.2234 21.7228 22.0931L19.7714 20.9949C19.5614 20.8767 19.4872 20.6106 19.6056 20.4006C19.7235 20.1906 19.9896 20.1161 20.1997 20.2343L22.6672 21.6131C22.898 21.7402 23.1886 21.6558 23.3158 21.4249C23.4414 21.1966 23.3552 20.9048 23.1238 20.7742C23.1163 20.7698 21.1728 19.6706 21.1728 19.6706C20.9628 19.5522 20.8887 19.2861 21.0076 19.076C21.126 18.8663 21.3923 18.7921 21.6024 18.9108L23.8679 20.1908C24.0959 20.3194 24.3916 20.2193 24.5123 20C24.6372 19.7727 24.5499 19.4804 24.318 19.3483L21.1571 17.5467C20.6635 17.2651 20.0141 17.5282 19.2625 17.8324C18.1167 18.2962 16.5477 18.9314 15.2612 17.1588C15.1887 17.0584 15.1619 16.9318 15.1876 16.8108C15.2139 16.6896 15.2901 16.5854 15.3976 16.5236C16.3273 15.9911 17.1074 15.4089 17.7174 14.7925C17.8314 14.6774 17.946 14.5691 18.0615 14.4669C17.4675 14.2599 16.9437 14.3833 16.3965 14.5124C15.7737 14.6596 15.1297 14.8118 14.4558 14.4409L13.2267 13.8736ZM21.9031 14.6041C21.0689 14.2633 20.2816 13.9413 19.0989 14.759C18.8461 14.9335 18.5903 15.1515 18.3378 15.4066C17.7746 15.9754 17.0846 16.5146 16.2806 17.0134C17.0234 17.7385 17.8037 17.4811 18.9352 17.0235C19.5112 16.79 20.1004 16.5514 20.6802 16.5514C20.9871 16.5514 21.2913 16.6183 21.5893 16.7882L24.7507 18.5899C24.8751 18.6612 24.9847 18.7492 25.0776 18.8498L26.1734 18.3827C26.4271 18.2745 26.5494 17.9844 26.4497 17.7273L25.2641 14.6696C25.2092 14.5282 25.1072 14.4276 24.9649 14.3749C24.8226 14.3222 24.6797 14.332 24.5459 14.4036L23.8795 14.7603C23.1779 15.1253 22.5298 14.8604 21.9031 14.6041ZM20.7721 24.2016C20.8985 23.9717 20.8141 23.6807 20.5833 23.5527L20.1974 23.3407C20.1714 23.4632 20.1282 23.5829 20.0677 23.6961L19.7939 24.2085L20.1241 24.39C20.3546 24.5166 20.6455 24.4322 20.7721 24.2016ZM18.4588 24.5558C18.5815 24.5187 18.6819 24.4368 18.7414 24.3251L19.2979 23.2845C19.4176 23.0562 19.3318 22.7613 19.1027 22.6388C18.8744 22.5168 18.5779 22.6056 18.456 22.8341C18.4557 22.8343 17.8997 23.8747 17.8997 23.8747C17.7752 24.1068 17.8632 24.3966 18.0956 24.521C18.2068 24.5805 18.336 24.5931 18.4588 24.5558ZM16.7675 23.8423C16.8903 23.8049 16.9907 23.7231 17.0502 23.6114L17.6864 22.4226C17.8079 22.1948 17.7186 21.8985 17.491 21.7765C17.263 21.6546 16.9662 21.7436 16.844 21.9721C16.844 21.9724 16.208 23.161 16.208 23.161C16.0839 23.3931 16.172 23.6832 16.4039 23.8072C16.5155 23.867 16.6448 23.8794 16.7675 23.8423ZM15.0039 23.2578C15.1223 23.222 15.2276 23.1433 15.2881 23.0307C15.2896 23.0271 16.0741 21.5603 16.0741 21.5603C16.193 21.3379 16.1032 21.0342 15.879 20.9145C15.6525 20.7931 15.3552 20.8803 15.233 21.1083C15.2325 21.1093 14.4457 22.58 14.4457 22.58C14.3242 22.8078 14.4135 23.1046 14.6415 23.2263C14.7535 23.2866 14.8855 23.2938 15.0039 23.2578ZM16.4658 0.189819V3.03281C16.4658 3.45968 16.814 3.80783 17.2408 3.80783H20.0838C20.0582 3.75177 20.0219 3.70021 19.975 3.65326L16.6157 0.294003C16.57 0.249301 16.52 0.214522 16.4658 0.189819ZM3.52004 6.95923L3.98776 6.61942V10.8659C3.98776 11.4729 4.48444 11.9696 5.09149 11.9696H6.50496V8.30539C6.50496 8.01984 6.73859 7.78621 7.02414 7.78621H8.12546C8.41101 7.78621 8.64465 8.01984 8.64465 8.30539V11.9696H10.0581C10.6651 11.9696 11.1618 11.4729 11.1618 10.8659V6.61947L11.6296 6.95928C11.9748 7.20938 12.4574 7.13236 12.7075 6.78717C12.9577 6.44199 12.8806 5.95938 12.5354 5.70922L8.04113 2.44392C7.77737 2.24394 7.40385 2.22992 7.12193 2.4342L2.61429 5.70922C2.26911 5.95938 2.19203 6.44199 2.44219 6.78717C2.69224 7.13226 3.17485 7.20933 3.52004 6.95923ZM3.98776 22.7219H10.2697C10.5029 22.7219 10.692 22.5328 10.692 22.2996C10.692 22.0663 10.5029 21.8772 10.2697 21.8772H3.98776C3.75449 21.8772 3.5654 22.0663 3.5654 22.2996C3.5654 22.5328 3.75449 22.7219 3.98776 22.7219ZM3.98776 17.6535H8.52742C8.76064 17.6535 8.94978 17.4644 8.94978 17.2312C8.94978 16.9979 8.7607 16.8088 8.52742 16.8088H3.98776C3.75449 16.8088 3.5654 16.9979 3.5654 17.2312C3.5654 17.4644 3.75449 17.6535 3.98776 17.6535ZM3.98776 15.1193H8.52742C8.76064 15.1193 8.94978 14.9302 8.94978 14.6969C8.94978 14.4637 8.7607 14.2746 8.52742 14.2746H3.98776C3.75449 14.2746 3.5654 14.4637 3.5654 14.6969C3.5654 14.9302 3.75449 15.1193 3.98776 15.1193ZM3.98776 20.1877H10.2697C10.5029 20.1877 10.692 19.9986 10.692 19.7654C10.692 19.5321 10.5029 19.343 10.2697 19.343H3.98776C3.75449 19.343 3.5654 19.5322 3.5654 19.7654C3.5654 19.9986 3.75449 20.1877 3.98776 20.1877Z" fill="#234930"/>
</svg>
