<svg width="27" height="23" viewBox="0 0 27 23" fill="none" xmlns="http://www.w3.org/2000/svg">
<path d="M0.484375 7.31982V19.8091C0.484375 21.3227 1.71938 22.5577 3.23295 22.5577H23.7358C25.2494 22.5577 26.4844 21.3227 26.4844 19.8091V7.31982H0.484375ZM10.8259 19.3857H4.99166C4.53016 19.3857 4.15595 19.0115 4.15595 18.55C4.15595 18.0885 4.53016 17.7143 4.99166 17.7143H10.8259C11.2874 17.7143 11.6616 18.0885 11.6616 18.55C11.6616 19.0115 11.2874 19.3857 10.8259 19.3857ZM21.9771 15.3269H4.99166C4.53016 15.3269 4.15595 14.9527 4.15595 14.4912C4.15595 14.0297 4.53016 13.6555 4.99166 13.6555H21.9771C22.4386 13.6555 22.8128 14.0297 22.8128 14.4912C22.8128 14.9527 22.4386 15.3269 21.9771 15.3269ZM21.9771 11.2774H5.00466C4.54316 11.2774 4.16895 10.9032 4.16895 10.4417C4.16895 9.98018 4.54316 9.60597 5.00466 9.60597H21.9771C22.4386 9.60597 22.8128 9.98018 22.8128 10.4417C22.8128 10.9032 22.4386 11.2774 21.9771 11.2774Z" fill="#234930"/>
<path d="M23.7358 0.290527H3.23295C1.71938 0.290527 0.484375 1.52553 0.484375 3.0391V5.92696H26.4844V3.0391C26.4844 1.52553 25.2494 0.290527 23.7358 0.290527ZM4.47352 4.25367C4.03059 4.25367 3.67123 3.89431 3.67123 3.45138C3.67123 3.00846 4.03059 2.6491 4.47352 2.6491C4.91645 2.6491 5.2758 3.00846 5.2758 3.45138C5.2758 3.89431 4.91645 4.25367 4.47352 4.25367ZM7.30102 4.25367C6.85809 4.25367 6.49873 3.89431 6.49873 3.45138C6.49873 3.00846 6.85809 2.6491 7.30102 2.6491C7.74395 2.6491 8.1033 3.00846 8.1033 3.45138C8.1033 3.89431 7.74395 4.25367 7.30102 4.25367ZM10.1285 4.25367C9.68559 4.25367 9.32623 3.89431 9.32623 3.45138C9.32623 3.00846 9.68559 2.6491 10.1285 2.6491C10.5714 2.6491 10.9308 3.00846 10.9308 3.45138C10.9308 3.89431 10.5714 4.25367 10.1285 4.25367Z" fill="#234930"/>
</svg>
