<svg width="17" height="17" viewBox="0 0 17 17" fill="none" xmlns="http://www.w3.org/2000/svg">
<path d="M15.793 16.1436L9.67815 10.0287C9.1899 10.4447 8.62841 10.7666 7.99368 10.9945C7.35895 11.2223 6.72097 11.3362 6.07974 11.3362C4.51603 11.3362 3.19254 10.7949 2.10928 9.71231C1.02601 8.62969 0.484375 7.30653 0.484375 5.74282C0.484375 4.17912 1.02536 2.8553 2.10732 1.77139C3.18929 0.687469 4.51212 0.144859 6.07583 0.143557C7.63954 0.142255 8.96368 0.683889 10.0482 1.76846C11.1328 2.85303 11.6751 4.17684 11.6751 5.73989C11.6751 6.41824 11.555 7.07477 11.3148 7.7095C11.0745 8.34423 10.7588 8.88716 10.3676 9.33831L16.4824 15.4522L15.793 16.1436ZM6.08071 10.3588C7.37621 10.3588 8.46989 9.91282 9.36176 9.02094C10.2536 8.12907 10.6996 7.03506 10.6996 5.73892C10.6996 4.44277 10.2536 3.34909 9.36176 2.45787C8.46989 1.56665 7.37621 1.12071 6.08071 1.12006C4.78522 1.11941 3.69121 1.56534 2.79869 2.45787C1.90616 3.35039 1.46023 4.44407 1.46088 5.73892C1.46153 7.03376 1.90746 8.12744 2.79869 9.01997C3.68991 9.91249 4.78359 10.3584 6.07974 10.3578" fill="#212121"/>
</svg>
