<svg width="7" height="5" viewBox="0 0 7 5" fill="none" xmlns="http://www.w3.org/2000/svg">
<path d="M3.39231 0.643563C3.33297 0.643183 3.27415 0.655789 3.21922 0.680659C3.16428 0.705528 3.11432 0.742172 3.07219 0.788489L0.366972 3.78695C0.282072 3.88105 0.234375 4.00868 0.234375 4.14177C0.234375 4.27485 0.282072 4.40248 0.366972 4.49658C0.451872 4.59069 0.567022 4.64355 0.68709 4.64355C0.807157 4.64355 0.922307 4.59069 1.00721 4.49658L3.39231 1.84794L5.77741 4.49159C5.86366 4.57346 5.97461 4.61624 6.08808 4.61138C6.20156 4.60652 6.3092 4.55438 6.38949 4.46538C6.46979 4.37638 6.51683 4.25707 6.52121 4.1313C6.5256 4.00553 6.487 3.88255 6.41314 3.78695L3.70792 0.788489C3.62394 0.696164 3.51059 0.644115 3.39231 0.643563Z" fill="#212121"/>
</svg>
