<svg width="36" height="36" viewBox="0 0 36 36" fill="none" xmlns="http://www.w3.org/2000/svg">
<path d="M11.2854 16.6828H3.68923C2.28902 16.6828 1.00315 16.1838 0 15.3545V27.6583L6.30611 27.6586C6.25774 27.2261 6.23201 26.7867 6.23201 26.3414C6.23201 22.3466 8.23331 18.811 11.2854 16.6828Z" fill="#234930"/>
<path d="M24.7147 16.6828C27.7668 18.8111 29.7681 22.3466 29.7681 26.3414C29.7681 26.7867 29.7424 27.2261 29.694 27.6586H36V15.3545C34.9969 16.1838 33.7111 16.6828 32.3108 16.6828H24.7147Z" fill="#234930"/>
<path d="M18 16.6827C12.6742 16.6827 8.34137 21.0156 8.34137 26.3414C8.34137 31.6671 12.6742 36 18 36C23.3257 36 27.6586 31.6671 27.6586 26.3414C27.6586 21.0156 23.3257 16.6827 18 16.6827ZM22.1543 29.0786C22.0146 29.8591 21.5614 30.5757 20.8782 31.0964C20.3586 31.4924 19.7274 31.7516 19.0565 31.8514V33.2716H16.9435V31.6893C16.0001 31.4233 15.1422 30.9131 14.5097 30.2151L16.0729 28.7987C16.634 29.418 17.516 29.7881 18.4319 29.7886H18.4332C19.3415 29.7886 19.9827 29.2388 20.0779 28.707C20.207 27.9856 19.263 27.5541 18.8512 27.4021C17.9261 27.0607 16.9826 26.6578 16.4518 26.4251C15.3391 25.9373 14.6346 24.7948 14.7595 23.5862L14.774 23.4685C14.9396 22.3188 15.7678 21.3781 16.9435 20.9951V19.4109H19.0565V20.8511C20.4768 21.0915 21.4701 21.9097 21.5287 21.9589L20.1713 23.5735C20.1713 23.5735 18.9499 22.5935 17.6294 22.9903C17.0112 23.176 16.8867 23.5968 16.8619 23.7693C16.8608 23.7773 16.8597 23.786 16.8586 23.7953C16.8263 24.0937 16.9999 24.3764 17.2753 24.4956C17.7005 24.6795 18.6117 25.0653 19.5816 25.4233C21.8133 26.2471 22.3738 27.8516 22.1543 29.0786Z" fill="#234930"/>
<path d="M26.4375 4.82302V0H9.5625V4.82302H0V10.8842C0 12.9184 1.65495 14.5734 3.68923 14.5734H16.9453V12.0701H19.0547V14.5734H32.3108C34.3451 14.5734 36 12.9184 36 10.8842V4.82302H26.4375ZM11.6719 2.10938H24.3281V4.82302H11.6719V2.10938Z" fill="#234930"/>
</svg>
