<svg width="36" height="36" viewBox="0 0 36 36" fill="none" xmlns="http://www.w3.org/2000/svg">
<path d="M3.94031 16.598C3.94031 14.4795 5.66859 12.7512 7.78711 12.7512C9.90563 12.7512 11.6339 14.4795 11.6339 16.598C11.6339 18.7165 9.90563 20.4448 7.78711 20.4448C5.66859 20.4448 3.94031 18.7165 3.94031 16.598ZM9.05063 29.7823C9.05063 26.9283 10.8802 24.485 13.4234 23.5639C12.5065 22.86 11.3625 22.4438 10.125 22.4438H5.44922C2.4518 22.4438 0 24.8949 0 27.893V31.1042C0 32.3361 1.00688 33.3422 2.23594 33.3422H9.0682C9.05625 33.2269 9.04992 33.1109 9.04992 32.9935V29.7823H9.05063ZM30.5508 22.4438H25.875C24.6375 22.4438 23.4935 22.8622 22.5766 23.5639C25.1198 24.485 26.9494 26.9283 26.9494 29.7823V32.9935C26.9494 33.1109 26.943 33.2269 26.9311 33.3422H33.7634C34.9931 33.3422 35.9993 32.3361 35.9993 31.1042V27.893C36 24.8949 33.5482 22.4438 30.5508 22.4438ZM28.2129 20.4448C30.3314 20.4448 32.0597 18.7165 32.0597 16.598C32.0597 14.4795 30.3314 12.7512 28.2129 12.7512C26.0944 12.7512 24.3661 14.4795 24.3661 16.598C24.3661 18.7165 26.0937 20.4448 28.2129 20.4448ZM20.3379 24.3331H15.6621C12.6647 24.3331 10.2129 26.7849 10.2129 29.7823V32.9935C10.2129 34.2254 11.2198 35.2315 12.4488 35.2315H23.5505C24.7802 35.2315 25.7864 34.2246 25.7864 32.9935V29.7823C25.7871 26.7849 23.3353 24.3331 20.3379 24.3331ZM14.1532 18.4873C14.1532 20.6058 15.8815 22.3341 18 22.3341C20.1185 22.3341 21.8468 20.6058 21.8468 18.4873C21.8468 16.3688 20.1185 14.6405 18 14.6405C15.8815 14.6405 14.1532 16.3688 14.1532 18.4873ZM11.8315 6.93707C11.8315 3.53887 14.6018 0.768555 18 0.768555C21.3961 0.768555 24.1685 3.53887 24.1685 6.93707C24.1685 10.3353 21.3961 13.1056 18 13.1056C14.6018 13.1063 11.8315 10.3353 11.8315 6.93707ZM15.8295 8.43191C15.9033 8.61121 15.9891 8.77082 16.0826 8.91426C16.4355 9.45215 16.9137 9.7791 17.4199 9.9366V10.5624C17.4199 10.883 17.6794 11.1446 18 11.1446C18.3206 11.1446 18.5801 10.8837 18.5801 10.5624V10.0062C18.7495 9.97598 18.9113 9.92816 19.0624 9.86699C19.1862 9.81496 19.3015 9.75309 19.4091 9.68348C19.5188 9.61176 19.62 9.52598 19.7142 9.43035C19.9793 9.15965 20.1488 8.8123 20.1987 8.44809C20.2507 8.07332 20.1748 7.68098 19.9455 7.33012C19.878 7.22676 19.7944 7.12691 19.6945 7.02918C19.3359 6.67832 18.8634 6.56863 18.3649 6.4491C17.9606 6.35559 17.5317 6.25363 17.3004 6.01668C17.2505 5.96465 17.2125 5.90137 17.1886 5.83105C17.1548 5.7277 17.1485 5.61379 17.1724 5.49988C17.1963 5.3923 17.2484 5.29246 17.3299 5.21301C17.3939 5.14902 17.4797 5.0977 17.5873 5.06184C17.6231 5.04777 17.659 5.03793 17.6948 5.0302C17.7884 5.00629 17.8882 4.99223 17.988 4.98801H18C18.0141 4.98801 18.0281 4.98801 18.0422 4.9859C18.2074 4.9859 18.3713 5.0098 18.5203 5.06535C18.7298 5.1434 18.9049 5.28473 18.9766 5.50199C18.9844 5.52379 18.9907 5.54418 18.9949 5.56387C19.073 5.87254 19.3859 6.06449 19.6966 5.98645C20.0074 5.91051 20.1966 5.59762 20.1213 5.28684C20.1073 5.23129 20.0911 5.17715 20.0756 5.12934C19.8766 4.54363 19.44 4.16887 18.9197 3.97762C18.81 3.93543 18.6968 3.90379 18.5808 3.88199V3.30965C18.5808 2.98902 18.3213 2.72957 18.0007 2.72957C17.6801 2.72957 17.4206 2.98902 17.4206 3.30965V3.90379H17.4185C17.3468 3.92137 17.2793 3.94176 17.2153 3.96355C16.9383 4.05707 16.707 4.20262 16.5234 4.38191C16.2703 4.62941 16.1086 4.93598 16.039 5.2552C15.9715 5.5702 15.9891 5.90066 16.091 6.2016C16.1691 6.43082 16.2963 6.64387 16.47 6.82316C16.9404 7.3034 17.5402 7.44684 18.1027 7.57832C18.4416 7.65777 18.7601 7.73371 18.8881 7.85957C18.9218 7.89121 18.9499 7.92707 18.9759 7.96504C19.0434 8.0684 19.0673 8.18441 19.0519 8.2941C19.0357 8.41152 18.978 8.52895 18.8866 8.62316C18.855 8.6548 18.8191 8.68504 18.7748 8.71316C18.7249 8.7448 18.6729 8.77293 18.6195 8.79473C18.3825 8.89457 18.0914 8.91848 17.808 8.84254C17.5289 8.7666 17.2582 8.5873 17.0564 8.28074C16.9988 8.19074 16.9467 8.09512 16.901 7.98754C16.7794 7.69223 16.4384 7.55301 16.1438 7.67465C15.8477 7.7984 15.7078 8.1373 15.8295 8.43191Z" fill="#234930"/>
</svg>
