<svg width="40" height="36" viewBox="0 0 40 36" fill="none" xmlns="http://www.w3.org/2000/svg">
<path d="M17.5576 0H18.9422V5.53842H17.5576V0Z" fill="#234930"/>
<path d="M8.65039 2.75749L9.84941 2.06519L12.619 6.86127L11.4199 7.55357L8.65039 2.75749Z" fill="#234930"/>
<path d="M2.31497 9.5999L3.00727 8.40088L7.8037 11.1704L7.1114 12.3694L2.31497 9.5999Z" fill="#234930"/>
<path d="M0.25 17.3076H5.78842V18.6922H0.25V17.3076Z" fill="#234930"/>
<path d="M2.31549 26.4006L7.11192 23.6317L7.80422 24.8311L3.00746 27.5999L2.31549 26.4006Z" fill="#234930"/>
<path d="M8.65063 33.2432L11.4195 28.4464L12.6185 29.1387L9.84999 33.9351L8.65063 33.2432Z" fill="#234930"/>
<path d="M17.5576 30.4615H18.9422V36H17.5576V30.4615Z" fill="#234930"/>
<path d="M18.25 27.6922C18.4575 27.6922 18.6563 27.6868 18.8557 27.6682L18.9872 27.6638C19.0143 27.6574 19.042 27.6537 19.0697 27.652C19.2621 27.6398 19.449 27.6209 19.6424 27.5905C19.8763 27.5573 20.0984 27.5212 20.313 27.4688C20.5277 27.416 20.7244 27.3758 20.9103 27.3197C21.1507 27.2555 21.3873 27.1784 21.6195 27.0885C21.8071 27.0229 21.9657 26.9549 22.1242 26.8856L22.3838 26.766C23.5913 26.2001 24.6666 25.3868 25.5398 24.3788L25.7595 22.8461H15.9162L16.2062 21.9462L20.4986 8.57648C20.1261 8.48656 19.7482 8.41963 19.3672 8.37636C19.2185 8.35709 19.0724 8.34526 18.9264 8.33884C18.6793 8.31416 18.4653 8.30774 18.25 8.30774C12.8971 8.30774 8.55774 12.6471 8.55774 18C8.55774 23.3528 12.8971 27.6922 18.25 27.6922Z" fill="#234930"/>
<path d="M29.7857 15.2307L34.3251 0.227905H24.6785L17.8144 21.4614H27.3556L27.243 22.2521L26.8837 24.7715L26.883 24.7735L25.5646 33.9969L39.0534 15.2307H29.7857Z" fill="#234930"/>
</svg>
