<svg width="37" height="36" viewBox="0 0 37 36" fill="none" xmlns="http://www.w3.org/2000/svg">
<path d="M26.9354 14.3466C27.5996 15.675 27.9982 17.2691 27.9982 18.8632C27.9982 24.5754 23.3487 29.092 17.7694 29.092C12.0572 29.092 7.54059 24.4426 7.54059 18.8632C7.54059 13.2839 11.9244 8.63443 17.6365 8.63443C19.2306 8.63443 20.6919 9.03296 22.0203 9.56432L27.0683 4.51635C24.4114 2.78942 21.0904 1.72668 17.6365 1.72668C8.2048 1.72668 0.5 9.43148 0.5 18.8632C0.5 28.295 8.2048 35.9997 17.6365 35.9997C27.0683 35.9997 34.7731 28.295 34.7731 18.8632C34.7731 15.4093 33.7103 12.0883 31.8506 9.43148L26.9354 14.3466Z" fill="#234930"/>
<path d="M19.3634 12.2214C18.832 12.0885 18.1678 11.9557 17.6365 11.9557C13.9169 11.9557 10.7287 15.011 10.7287 18.8634C10.7287 22.583 13.7841 25.7712 17.6365 25.7712C21.356 25.7712 24.5442 22.7158 24.5442 18.8634C24.5442 18.1992 24.4114 17.6679 24.2785 17.0037L20.0276 21.2546C18.6992 22.583 16.5737 22.583 15.2453 21.2546C13.9169 19.9262 13.9169 17.8007 15.2453 16.4723L19.3634 12.2214Z" fill="#234930"/>
<path d="M34.7731 3.45387H33.0461V1.72694C33.0461 0.797048 32.2491 0 31.3192 0C30.3893 0 29.5922 0.797048 29.5922 1.72694V4.51661L16.441 17.6679C15.7768 18.3321 15.7768 19.3948 16.441 20.059C17.1052 20.7232 18.1679 20.7232 18.8321 20.059L31.9834 6.90775H34.7731C35.7029 6.90775 36.5 6.1107 36.5 5.18081C36.5 4.25092 35.7029 3.45387 34.7731 3.45387Z" fill="#234930"/>
</svg>
