<svg width="143" height="44" viewBox="0 0 143 44" fill="none" xmlns="http://www.w3.org/2000/svg">
<path d="M22.0446 0.977295C10.2842 0.977295 0.75 10.3896 0.75 22.0001C0.75 33.611 10.2842 43.0226 22.0446 43.0226C33.8064 43.0226 43.3395 33.611 43.3395 22.0001C43.3395 10.3904 33.8064 0.978299 22.0444 0.978299L22.0446 0.977295ZM31.8102 31.2982C31.4288 31.9157 30.61 32.1116 29.9845 31.7325C24.9847 28.7175 18.6906 28.0346 11.2782 29.7066C10.5639 29.8672 9.8519 29.4254 9.68916 28.72C9.52565 28.0145 9.97142 27.3116 10.6875 27.151C18.7992 25.3214 25.7572 26.1091 31.3703 29.4957C31.9959 29.8748 32.1942 30.6806 31.8102 31.2982ZM34.4167 25.5739C33.9361 26.3451 32.9138 26.5886 32.1332 26.1142C26.4092 22.6407 17.6839 21.6348 10.9135 23.6637C10.0355 23.9256 9.10812 23.437 8.84163 22.5717C8.57717 21.7048 9.07226 20.7911 9.94879 20.5275C17.6824 18.2108 27.2967 19.333 33.8699 23.3208C34.6506 23.7953 34.8973 24.8042 34.4167 25.5739ZM34.6404 19.6132C27.7773 15.5887 16.4539 15.2187 9.90123 17.1821C8.849 17.4971 7.73625 16.9107 7.41737 15.8719C7.0985 14.8326 7.692 13.7348 8.745 13.4189C16.267 11.1646 28.7715 11.6001 36.6732 16.2311C37.6217 16.7857 37.9319 17.9924 37.3699 18.9256C36.8105 19.8599 35.5849 20.168 34.6414 19.6132H34.6404ZM58.6857 20.3844C55.0087 19.5188 54.3552 18.9113 54.3552 17.6347C54.3552 16.4287 55.5046 15.6171 57.2159 15.6171C58.8739 15.6171 60.5165 16.2334 62.2406 17.5021C62.2915 17.5406 62.3576 17.5559 62.4211 17.5458C62.4873 17.5363 62.5432 17.5014 62.5813 17.4489L64.3766 14.9506C64.4503 14.8476 64.43 14.7058 64.3308 14.6272C62.2787 13.0022 59.9698 12.2122 57.2693 12.2122C53.2999 12.2122 50.5257 14.5642 50.5257 17.9294C50.5257 21.5382 52.9185 22.816 57.0532 23.8023C60.5699 24.6024 61.165 25.2727 61.165 26.4706C61.165 27.7986 59.9647 28.6246 58.0322 28.6246C55.886 28.6246 54.134 27.9091 52.176 26.2372C52.1277 26.1945 52.0615 26.1769 52.0005 26.1794C51.9344 26.1844 51.8759 26.2146 51.8352 26.2623L49.8213 28.6271C49.7374 28.7275 49.7475 28.8731 49.8442 28.9585C52.1226 30.9668 54.9248 32.0262 57.9508 32.0262C62.2279 32.0262 64.992 29.7191 64.992 26.1468C64.9996 23.1325 63.1713 21.4631 58.6933 20.3876L58.6857 20.3844ZM74.6701 16.8045C72.8164 16.8045 71.2957 17.5255 70.0395 19.0029V17.34C70.0395 17.2087 69.9327 17.1017 69.8005 17.1017H66.5075C66.3753 17.1017 66.2685 17.2087 66.2685 17.34V35.8169C66.2685 35.9475 66.3753 36.0554 66.5075 36.0554H69.8005C69.9327 36.0554 70.0395 35.9475 70.0395 35.8169V29.9852C71.2957 31.3735 72.8164 32.0538 74.6701 32.0538C78.1157 32.0538 81.6045 29.4354 81.6045 24.4299C81.6096 19.4234 78.1207 16.8043 74.6726 16.8043L74.6701 16.8045ZM77.7749 24.4299C77.7749 26.9777 76.1856 28.7576 73.9072 28.7576C71.6568 28.7576 69.9582 26.8974 69.9582 24.4299C69.9582 21.9622 71.6568 20.1024 73.9072 20.1024C76.1475 20.1022 77.7749 21.922 77.7749 24.4299ZM90.5426 16.8045C86.1053 16.8045 82.6292 20.1775 82.6292 24.4844C82.6292 28.7451 86.0824 32.0814 90.4892 32.0814C94.9417 32.0814 98.428 28.72 98.428 24.4299C98.428 20.1544 94.9646 16.805 90.5426 16.805V16.8045ZM90.5426 28.7827C88.1828 28.7827 86.4028 26.91 86.4028 24.4287C86.4028 21.9361 88.1218 20.1273 90.4892 20.1273C92.8642 20.1273 94.6544 21.9993 94.6544 24.4831C94.6544 26.9752 92.9253 28.7827 90.5426 28.7827ZM107.903 17.1017H104.279V13.4451C104.279 13.314 104.172 13.2071 104.04 13.2071H100.747C100.615 13.2071 100.506 13.314 100.506 13.4451V17.1017H98.9239C98.7916 17.1017 98.6848 17.2087 98.6848 17.34V20.1333C98.6848 20.2644 98.7916 20.3716 98.9239 20.3716H100.506V27.6003C100.506 30.5199 101.978 32.0011 104.884 32.0011C106.064 32.0011 107.043 31.7601 107.966 31.2429C108.043 31.2028 108.088 31.1224 108.088 31.0371V28.376C108.088 28.2957 108.045 28.2179 107.974 28.1752C107.903 28.13 107.814 28.1275 107.74 28.1652C107.107 28.479 106.494 28.6246 105.807 28.6246C104.752 28.6246 104.279 28.1501 104.279 27.0907V20.3728H107.903C108.035 20.3728 108.142 20.2659 108.142 20.1346V17.3415C108.147 17.2102 108.04 17.1032 107.905 17.1032L107.903 17.1017ZM120.525 17.116V16.6669C120.525 15.3457 121.039 14.7565 122.188 14.7565C122.875 14.7565 123.427 14.8911 124.045 15.0944C124.121 15.118 124.2 15.1062 124.261 15.0613C124.324 15.0163 124.36 14.9443 124.36 14.868V12.1291C124.36 12.0244 124.294 11.9318 124.19 11.9009C123.539 11.7094 122.705 11.5128 121.454 11.5128C118.415 11.5128 116.805 13.2033 116.805 16.3998V17.0877H115.224C115.091 17.0877 114.982 17.1946 114.982 17.3257V20.1333C114.982 20.2644 115.091 20.3716 115.224 20.3716H116.805V31.5191C116.805 31.6521 116.915 31.7576 117.047 31.7576H120.337C120.472 31.7576 120.579 31.6521 120.579 31.5191V20.3723H123.653L128.363 31.5191C127.829 32.6889 127.302 32.9224 126.585 32.9224C126.005 32.9224 125.392 32.7517 124.769 32.4128C124.711 32.3827 124.64 32.3777 124.579 32.3952C124.515 32.4178 124.462 32.463 124.436 32.5233L123.32 34.9408C123.267 35.0563 123.312 35.1893 123.424 35.2496C124.589 35.8722 125.639 36.1383 126.939 36.1383C129.369 36.1383 130.715 35.0186 131.897 32.0111L137.608 17.4414C137.639 17.3681 137.629 17.2852 137.583 17.2202C137.54 17.1557 137.466 17.1168 137.387 17.1168H133.959C133.855 17.1168 133.764 17.1813 133.73 17.2765L130.219 27.1761L126.374 17.2699C126.338 17.1778 126.249 17.1168 126.15 17.1168H120.525V17.116ZM113.207 17.1017H109.914C109.782 17.1017 109.673 17.2087 109.673 17.34V31.5191C109.673 31.6521 109.782 31.7576 109.914 31.7576H113.207C113.339 31.7576 113.449 31.6521 113.449 31.5191V17.341C113.449 17.2097 113.342 17.1027 113.207 17.1027V17.1017ZM111.58 10.6452C110.275 10.6452 109.217 11.6875 109.217 12.9751C109.217 14.2635 110.275 15.307 111.58 15.307C112.884 15.307 113.939 14.2635 113.939 12.9751C113.939 11.6878 112.882 10.6452 111.58 10.6452ZM140.421 21.6609C139.119 21.6609 138.104 20.6279 138.104 19.3734C138.104 18.119 139.132 17.0741 140.433 17.0741C141.735 17.0741 142.75 18.1069 142.75 19.3604C142.75 20.6148 141.723 21.6609 140.421 21.6609ZM140.433 17.3016C139.246 17.3016 138.348 18.2329 138.348 19.3734C138.348 20.5134 139.241 21.4322 140.421 21.4322C141.608 21.4322 142.506 20.5016 142.506 19.3604C142.506 18.2204 141.613 17.3016 140.433 17.3016ZM140.947 19.5956L141.603 20.5014H141.049L140.459 19.6704H139.953V20.5014H139.49V18.1004H140.573C141.14 18.1004 141.512 18.3858 141.512 18.8663C141.514 19.2599 141.283 19.5004 140.95 19.5956H140.947ZM140.556 18.5123H139.953V19.2717H140.556C140.856 19.2717 141.036 19.1264 141.036 18.8917C141.036 18.6446 140.856 18.5123 140.556 18.5123Z" fill="#1ED760"/>
</svg>
