<svg width="53" height="57" viewBox="0 0 53 57" fill="none" xmlns="http://www.w3.org/2000/svg">
<path fill-rule="evenodd" clip-rule="evenodd" d="M38.8365 22.2675C37.9359 20.6865 36.5006 18.8966 34.5305 16.7838H34.651C35.2712 16.7838 35.7785 16.2765 35.7785 15.6564C35.7785 15.0362 35.2712 14.5289 34.651 14.5289H33.7755L33.7746 14.5265L35.6181 12.683C36.4042 11.8969 35.6851 11.1301 35.6181 11.0444C35.2774 10.609 34.6201 10.6017 34.1721 10.8893C34.0028 10.998 33.8084 11.0154 33.6224 10.9384C33.4365 10.8614 33.3112 10.7116 33.2683 10.5149C33.1526 9.98486 32.679 9.60219 32.1361 9.60219C31.5831 9.60231 31.1174 9.99477 31.0039 10.5149C30.961 10.7116 30.8357 10.8614 30.6498 10.9384C30.4639 11.0153 30.2694 10.9979 30.1 10.8893C29.6439 10.5965 29.0373 10.6613 28.654 11.0445C28.2034 11.4951 28.2034 12.2324 28.654 12.683L30.5 14.529H29.6211C29.0009 14.529 28.4935 15.0363 28.4935 15.6565C28.4935 16.2767 29.0009 16.784 29.6211 16.784H29.7416C27.7714 18.8967 26.3361 20.6866 25.4355 22.2676C22.5571 27.3218 26.6519 32.4552 32.1359 32.3627C37.6201 32.4551 41.715 27.3216 38.8365 22.2675ZM33.0479 28.3883V28.4338C33.0479 28.9494 32.63 29.3672 32.1146 29.3672C31.5992 29.3672 31.1813 28.9493 31.1813 28.4338V28.3685C30.2333 28.0943 29.4968 27.4133 29.2533 26.4367C29.1305 25.9374 29.4358 25.4329 29.9351 25.3102C30.4345 25.1873 30.9389 25.4927 31.0617 25.992C31.1722 26.4352 31.6407 26.6212 32.0572 26.64C32.0999 26.6374 32.1424 26.6376 32.1852 26.6408C32.4635 26.6298 33.1498 26.5087 33.1416 26.1635L33.135 26.1109C33.0804 25.6612 32.3259 25.5285 31.9707 25.4701C30.6973 25.2611 29.5013 24.6249 29.4314 23.1822C29.3755 22.0308 30.124 21.1387 31.1814 20.7953V20.7129C31.1814 20.1975 31.5993 19.7796 32.1147 19.7796C32.6301 19.7796 33.048 20.1975 33.048 20.7129V20.7836C33.7731 21.0132 34.4197 21.5223 34.7712 22.3592C34.9705 22.8344 34.7469 23.3812 34.2718 23.5806C33.7966 23.7799 33.2498 23.5563 33.0504 23.0812C32.8938 22.7081 32.5618 22.522 32.1715 22.5069C32.1361 22.509 32.1007 22.5091 32.0652 22.5074C31.7336 22.5231 31.2716 22.6983 31.2908 23.0948C31.3087 23.4652 31.9912 23.5871 32.2698 23.6328C33.575 23.8471 34.809 24.4243 34.9872 25.8922C34.9943 25.9508 34.9988 26.0272 35.001 26.1199C35.0297 27.3303 34.1417 28.1065 33.0479 28.3883ZM14.1458 52.4906L6.18331 38.4213C5.79831 37.741 4.9267 37.4994 4.24641 37.8844L1.538 39.4173C0.857712 39.8023 0.616212 40.6739 1.0011 41.3542L8.9636 55.4234C9.3486 56.1037 10.2202 56.3453 10.9005 55.9603L13.6088 54.4274C14.2892 54.0424 14.5307 53.1708 14.1458 52.4906ZM4.63713 42.4439C4.10875 42.5211 3.6177 42.1553 3.54046 41.627C3.46323 41.0986 3.82898 40.6075 4.35736 40.5303C4.88575 40.4531 5.3768 40.8188 5.45403 41.3472C5.53138 41.8756 5.16551 42.3666 4.63713 42.4439ZM29.8814 41.9827C30.9792 42.117 31.8835 41.7766 32.1884 40.6384C32.4641 39.6092 31.8148 38.6411 30.8436 38.3034C27.8241 37.7502 24.8954 36.6915 22.5922 35.8588C19.3434 34.6844 18.4111 34.3624 15.1073 36.2752L9.08633 39.7612L14.0209 48.4803L14.5624 48.1676C14.7841 48.0402 15.0364 48.0145 15.2653 48.0756L28.4905 51.6163C30.1464 52.0601 31.711 51.86 33.1752 50.9587C39.2549 47.2216 45.3306 43.4775 51.4074 39.7357C51.9948 39.374 52.2842 38.5398 52.1998 37.726C52.1652 37.3917 52.0638 37.067 51.8902 36.7873C51.7253 36.5216 51.4928 36.2953 51.1877 36.1407C50.2255 35.6533 48.5628 35.7939 46.0026 37.285L35.9558 43.1366C35.1556 43.6026 34.3325 43.8987 33.478 44.0423C30.9996 44.4586 27.2488 43.2837 25.0324 42.6508C24.3162 42.4463 23.5892 42.2386 22.8763 42.0477C22.379 41.9148 22.0836 41.4039 22.2165 40.9065C22.3493 40.4092 22.8602 40.1138 23.3576 40.2467C24.1303 40.4538 24.8418 40.6569 25.5429 40.8571C27.0154 41.2774 28.4423 41.6849 29.8814 41.9827ZM49.5229 16.8338C49.085 14.9932 48.3555 13.2353 47.3635 11.6245L48.8661 8.24139L44.8775 4.25302L41.4933 5.75604C39.8827 4.76437 38.1254 4.03486 36.2854 3.59701L34.9564 0.143555H29.3159L27.9865 3.59701C26.1465 4.03486 24.389 4.76437 22.7786 5.75604L19.3944 4.25302L15.4059 8.24162L16.9088 11.6254C15.917 13.236 15.1875 14.9936 14.7497 16.8337L11.2966 18.1628V23.8033L14.7491 25.1323C15.1871 26.9727 15.9165 28.7307 16.9086 30.3416L15.4059 33.7245L15.5953 33.9139C18.7265 32.4532 20.1824 33.0083 23.2266 34.1088C25.4782 34.9229 28.3439 35.9588 31.2091 36.48C31.2614 36.4873 31.3137 36.4991 31.3657 36.5158C33.3002 37.1429 34.5266 39.1143 33.9894 41.1197C33.9226 41.3688 33.8372 41.6034 33.7338 41.8225C34.4508 41.8225 34.4475 41.8601 35.0848 41.4889L36.2853 38.37C38.1257 37.9321 39.8838 37.2026 41.4945 36.2106L42.9995 36.8791L45.0693 35.6736C46.2817 34.9675 47.3626 34.5186 48.3175 34.2732L48.8661 33.7247L47.3632 30.3405C48.3547 28.73 49.0842 26.9727 49.5221 25.1326L52.9755 23.8034V18.1627L49.5229 16.8338ZM32.1361 34.8645C24.469 34.8645 18.2547 28.6502 18.2547 20.9833C18.2547 13.3159 24.469 7.10167 32.1361 7.10167C39.8033 7.10167 46.0175 13.316 46.0175 20.9833C46.0175 28.6502 39.8033 34.8645 32.1361 34.8645Z" fill="#234930"/>
</svg>
