<svg width="57" height="57" viewBox="0 0 57 57" fill="none" xmlns="http://www.w3.org/2000/svg">
<path d="M56.4844 28.1436C56.4844 35.5696 53.5344 42.6915 48.2833 47.9425C43.0323 53.1936 35.9104 56.1436 28.4844 56.1436C21.0583 56.1436 13.9364 53.1936 8.68538 47.9425C3.43437 42.6915 0.484375 35.5696 0.484375 28.1436C0.484375 27.6131 0.695089 27.1044 1.07016 26.7293C1.44523 26.3543 1.95394 26.1436 2.48437 26.1436C3.01481 26.1436 3.52351 26.3543 3.89859 26.7293C4.27366 27.1044 4.48437 27.6131 4.48437 28.1436C4.47636 33.4997 6.25758 38.705 9.54529 42.9334C12.833 47.1617 17.4388 50.1708 22.6317 51.483C27.8246 52.7952 33.307 52.3353 38.2087 50.1764C43.1105 48.0175 47.1507 44.2832 49.6881 39.5662C52.2254 34.8492 53.1146 29.4199 52.2145 24.14C51.3143 18.86 48.6764 14.032 44.7194 10.4223C40.7624 6.81251 35.7131 4.62784 30.3729 4.21501C25.0327 3.80219 19.7077 5.18486 15.2429 8.14357H16.4844C17.0148 8.14357 17.5235 8.35428 17.8986 8.72935C18.2737 9.10443 18.4844 9.61313 18.4844 10.1436C18.4844 10.674 18.2737 11.1827 17.8986 11.5578C17.5235 11.9329 17.0148 12.1436 16.4844 12.1436H10.4844C10.2217 12.1437 9.96155 12.0921 9.71883 11.9916C9.47611 11.8912 9.25557 11.7439 9.06982 11.5581C8.88408 11.3724 8.73676 11.1518 8.63631 10.9091C8.53585 10.6664 8.48422 10.4063 8.48437 10.1436V4.14357C8.48437 3.61314 8.69509 3.10443 9.07016 2.72936C9.44523 2.35428 9.95394 2.14357 10.4844 2.14357C11.0148 2.14357 11.5235 2.35428 11.8986 2.72936C12.2737 3.10443 12.4844 3.61314 12.4844 4.14357V5.17141C16.6819 2.24576 21.601 0.526505 26.7072 0.200459C31.8133 -0.125588 36.9111 0.954049 41.4467 3.32205C45.9823 5.69005 49.7821 9.25584 52.4333 13.6319C55.0845 18.008 56.4856 23.027 56.4844 28.1436ZM46.4844 28.1436C46.4844 31.7036 45.4287 35.1837 43.4508 38.1438C41.4729 41.1039 38.6617 43.411 35.3727 44.7734C32.0836 46.1358 28.4644 46.4922 24.9727 45.7977C21.4811 45.1032 18.2738 43.3888 15.7564 40.8715C13.2391 38.3541 11.5248 35.1468 10.8302 31.6552C10.1357 28.1635 10.4922 24.5443 11.8545 21.2553C13.2169 17.9662 15.524 15.155 18.4841 13.1771C21.4442 11.1992 24.9243 10.1436 28.4844 10.1436C33.2567 10.1488 37.832 12.0469 41.2065 15.4214C44.5811 18.7959 46.4791 23.3713 46.4844 28.1436ZM35.5937 30.4796L30.4844 27.0732V18.1436C30.4844 17.6131 30.2737 17.1044 29.8986 16.7294C29.5235 16.3543 29.0148 16.1436 28.4844 16.1436C27.9539 16.1436 27.4452 16.3543 27.0702 16.7294C26.6951 17.1044 26.4844 17.6131 26.4844 18.1436V28.1436C26.4844 28.4728 26.5658 28.7969 26.7211 29.0872C26.8765 29.3775 27.1011 29.6249 27.375 29.8076L33.375 33.8076C33.8163 34.0956 34.3536 34.1979 34.8699 34.092C35.3862 33.9861 35.8399 33.6807 36.1322 33.2422C36.4246 32.8036 36.532 32.2674 36.4312 31.7501C36.3304 31.2328 36.0294 30.7762 35.5937 30.4796Z" fill="#234930"/>
</svg>
