<svg width="57" height="57" viewBox="0 0 57 57" fill="none" xmlns="http://www.w3.org/2000/svg">
<path d="M28.1509 29.6748C36.2711 29.6748 42.9165 23.036 42.9165 14.9092C42.9165 11.4118 40.0652 8.34668 36.354 8.34668C32.7732 8.34668 29.7915 11.2708 29.7915 14.9092C29.7915 20.4224 25.2696 24.7529 19.9478 24.7529C18.7994 24.7529 17.6837 24.5561 16.6665 24.1623C19.3571 27.5091 23.5244 29.6748 28.1509 29.6748ZM34.7134 13.2686H37.9946V16.5498H34.7134V13.2686Z" fill="#234930"/>
<path d="M26.5103 14.9092C26.5103 9.39526 31.0321 5.06543 36.354 5.06543C37.5023 5.06543 38.6181 5.2623 39.6353 5.65605C36.9446 2.30907 32.7773 0.143555 28.1509 0.143555C20.0307 0.143555 13.3853 6.78174 13.3853 14.9092C13.3853 18.5331 16.3465 21.4717 19.9478 21.4717C23.5367 21.4717 26.5103 18.5403 26.5103 14.9092ZM18.3071 13.2686H21.5884V16.5498H18.3071V13.2686Z" fill="#234930"/>
<path d="M49.479 18.1904V30.0722L39.1546 40.3966L36.8346 38.0767L45.7988 29.1125C42.6153 27.0041 38.2733 27.3533 35.4759 30.1555L29.7915 35.8399V56.1436H42.9165V48.401L56.1509 35.276V13.2686H54.5103C51.792 13.2686 49.479 15.4721 49.479 18.1904Z" fill="#234930"/>
<path d="M13.3853 56.1436H26.5103V35.8399L20.8257 30.1554C18.0283 27.3532 13.6865 27.004 10.5029 29.1124L19.4671 38.0766L17.1471 40.3965L6.82275 30.0722V18.1904C6.82275 15.4721 4.5098 13.2686 1.7915 13.2686H0.150879V35.276L13.3853 48.401V56.1436Z" fill="#234930"/>
</svg>
