<svg width="57" height="57" viewBox="0 0 57 57" fill="none" xmlns="http://www.w3.org/2000/svg">
<path d="M30.6101 41.9303C30.6101 43.1292 29.6289 44.1103 28.4301 44.1103H17.0451C15.8461 44.1103 14.865 43.1292 14.865 41.9303C14.5613 39.6413 13.5206 37.6424 11.7688 35.9937C8.66721 33.0744 6.7302 28.9316 6.7302 24.336C6.7302 15.4954 13.8969 8.32873 22.7376 8.32873C24.1604 8.32873 25.5396 8.51537 26.8528 8.86367C26.7906 9.09663 26.7353 9.33288 26.6878 9.57242C26.4231 10.9069 26.4091 12.1947 26.4855 13.4918C25.3116 13.0835 24.0506 12.861 22.7377 12.861C16.4391 12.861 11.3331 17.967 11.3331 24.2656C11.3331 30.5642 16.4392 35.6702 22.7377 35.6702C25.2309 35.6702 27.5368 34.8696 29.4136 33.5122C29.6676 33.7757 29.9722 33.999 30.337 34.1676C31.9155 34.8973 33.6933 34.1502 35.3025 33.9257C35.3852 33.9141 35.4798 33.9014 35.582 33.8896C35.0191 34.645 34.3913 35.3492 33.7066 35.9936C31.9548 37.6424 30.9139 39.6411 30.6104 41.9301L30.6101 41.9303ZM12.2459 7.67629C12.4637 8.05513 12.9473 8.1858 13.3263 7.96805C13.7051 7.75031 13.8358 7.26668 13.618 6.88772L12.6928 5.28517C12.475 4.90633 11.9914 4.77566 11.6125 4.9934C11.2335 5.21115 11.1029 5.69478 11.3207 6.07373L12.2459 7.67629ZM3.12661 23.4709H1.27907C0.84017 23.4709 0.484375 23.8267 0.484375 24.2656C0.484375 24.7045 0.84017 25.0603 1.27907 25.0603H3.1265C3.5654 25.0603 3.92119 24.7045 3.92119 24.2656C3.92119 23.8267 3.56551 23.4709 3.12661 23.4709ZM6.14826 13.7741L4.54571 12.8488C4.16687 12.6311 3.68313 12.7617 3.46538 13.1406C3.24763 13.5194 3.3783 14.0032 3.75715 14.2209L5.3597 15.1462C5.73854 15.3639 6.22228 15.2332 6.44003 14.8544C6.65777 14.4756 6.5271 13.9918 6.14826 13.7741ZM22.7375 5.44944C23.1764 5.44944 23.5322 5.09365 23.5322 4.65475V2.80732C23.5322 2.36842 23.1764 2.01263 22.7375 2.01263C22.2986 2.01263 21.9428 2.36842 21.9428 2.80732V4.65475C21.9428 5.09365 22.2986 5.44944 22.7375 5.44944ZM24.2843 25.6792V28.2605C24.2843 28.6994 24.6401 29.0552 25.079 29.0552C25.5179 29.0552 25.8737 28.6994 25.8737 28.2605V25.6792C25.8737 25.2404 25.5179 24.8846 25.079 24.8846C24.6401 24.8846 24.2843 25.2404 24.2843 25.6792ZM17.2598 25.2803V28.6596C17.2598 29.0985 17.6156 29.4543 18.0545 29.4543C18.4934 29.4543 18.8491 29.0985 18.8491 28.6596V25.2803C18.8491 24.8414 18.4934 24.4856 18.0545 24.4856C17.6156 24.4856 17.2598 24.8414 17.2598 25.2803ZM19.6013 26.3604V27.5794C19.6013 28.0183 19.9571 28.3741 20.396 28.3741C20.8349 28.3741 21.1907 28.0183 21.1907 27.5794V26.3604C21.1907 25.9215 20.8349 25.5657 20.396 25.5657C19.9571 25.5657 19.6013 25.9215 19.6013 26.3604ZM21.9428 23.8755V30.0642C21.9428 30.5031 22.2986 30.8589 22.7375 30.8589C23.1764 30.8589 23.5322 30.5031 23.5322 30.0642V23.8755C23.5322 23.4366 23.1764 23.0808 22.7375 23.0808C22.2986 23.0808 21.9428 23.4366 21.9428 23.8755ZM28.2882 15.9133C28.1125 14.0522 27.8343 11.9604 28.2466 9.88167C28.9479 6.34574 31.5897 3.55728 34.9412 1.88582C37.3554 0.681857 40.043 0.0899243 42.7107 0.147369C45.3591 0.204474 47.988 0.901419 50.3103 2.2751C53.4812 4.15058 55.9004 7.21741 56.7022 11.2974C58.3084 19.4744 50.5352 23.9271 52.3552 35.235C52.4336 35.7211 52.0637 36.1562 51.5711 36.1562H39.8976C39.6763 35.5396 39.4589 34.8761 39.1935 34.2821C38.3243 32.3377 37.0963 32.0705 35.0824 32.3516C32.5817 32.7008 30.389 33.9725 29.8735 30.735C29.7345 29.8615 29.7889 28.9979 29.5031 28.8041C28.8358 28.5884 28.6051 27.8514 28.8634 27.3371C29.0434 26.9787 29.511 26.8091 29.867 26.6375C30.2494 26.4533 30.5476 26.3425 30.588 26.3177C30.0524 26.1931 29.43 26.0328 29.1613 25.9658C28.3931 25.7739 28.3726 25.2344 28.6476 24.6813C28.752 24.1479 28.9992 23.63 28.7799 23.3821C28.43 22.9871 27.7009 22.906 27.0143 22.8358C24.9877 22.6287 25.0439 21.6097 26.0118 20.1104C27.3608 18.0455 28.2708 16.5905 28.2879 15.9133H28.2882ZM33.3584 14.9192C33.3584 15.1386 33.5098 15.3227 33.725 15.365L35.0457 15.6255L35.9967 17.9211L35.2468 19.0393C35.1247 19.2213 35.1478 19.4586 35.3029 19.6137L37.0334 21.3442C37.1885 21.4993 37.4258 21.5224 37.6079 21.4003L38.726 20.6504L41.0216 21.6015L41.2821 22.9221C41.3245 23.1373 41.5087 23.2886 41.7279 23.2886H44.1751C44.3944 23.2886 44.5786 23.1373 44.6209 22.9221L44.8813 21.6015L47.177 20.6503L48.2951 21.4002C48.4772 21.5223 48.7145 21.4992 48.8696 21.3441L50.6001 19.6136C50.755 19.4585 50.7783 19.2212 50.6561 19.0391L49.9063 17.921L50.8573 15.6254L52.178 15.3649C52.3931 15.3225 52.5446 15.1383 52.5446 14.9191V12.4718C52.5446 12.2525 52.3931 12.0684 52.178 12.026L50.8573 11.7657L49.9063 9.47002L50.6561 8.35189C50.7783 8.16979 50.7551 7.93252 50.6001 7.77744L48.8696 6.04694C48.7145 5.89186 48.4772 5.8687 48.2951 5.99086L47.177 6.74071L44.8813 5.78957L44.6209 4.46891C44.5785 4.25377 44.3943 4.10244 44.1751 4.10244H41.7278C41.5084 4.10244 41.3243 4.25377 41.282 4.46891L41.0215 5.78957L38.7259 6.74071L37.6077 5.99086C37.4257 5.86881 37.1884 5.89186 37.0334 6.04694L35.3029 7.77744C35.1478 7.93252 35.1247 8.16979 35.2468 8.35189L35.9967 9.47002L35.0457 11.7657L33.725 12.026C33.5099 12.0684 33.3584 12.2525 33.3584 12.4718V14.9192ZM42.9515 18.6152C45.6685 18.6152 47.8711 16.4127 47.8711 13.6956C47.8711 10.9786 45.6685 8.77603 42.9515 8.77603C40.2344 8.77603 38.0319 10.9786 38.0319 13.6956C38.0319 16.4127 40.2344 18.6152 42.9515 18.6152ZM54.1486 42.7813H41.5029V39.8306C41.5029 39.4349 41.0527 39.2909 40.8001 39.5049L33.0907 46.035C32.8572 46.2327 32.8572 46.5971 33.0907 46.795L40.8001 53.3252C41.0529 53.5393 41.5029 53.3953 41.5029 52.9995V50.0487H54.1486C54.5862 50.0487 54.9433 49.6918 54.9433 49.254V43.5761C54.9433 43.1384 54.5862 42.7814 54.1486 42.7814V42.7813ZM28.7931 48.8964H16.682C16.2431 48.8964 15.8873 49.2522 15.8873 49.6911C15.8873 50.13 16.2431 50.4858 16.682 50.4858H28.7931C29.232 50.4858 29.5878 50.13 29.5878 49.6911C29.5878 49.2522 29.232 48.8964 28.7931 48.8964ZM29.1346 45.7413H16.3405C15.9016 45.7413 15.5458 46.0971 15.5458 46.5359C15.5458 46.9748 15.9016 47.3306 16.3405 47.3306H29.1346C29.5735 47.3306 29.9293 46.9748 29.9293 46.5359C29.9293 46.0971 29.5735 45.7413 29.1346 45.7413ZM27.8422 52.0517H17.6328C17.1939 52.0517 16.8381 52.4075 16.8381 52.8464C16.8381 53.2853 17.1939 53.6411 17.6328 53.6411H19.7859V54.4795C19.7859 55.3947 20.5348 56.1436 21.45 56.1436H24.0252C24.9402 56.1436 25.6893 55.3945 25.6893 54.4795V53.6411H27.8422C28.2811 53.6411 28.6369 53.2853 28.6369 52.8464C28.6369 52.4075 28.2811 52.0517 27.8422 52.0517Z" fill="#234930"/>
</svg>
