<svg width="59" height="57" viewBox="0 0 59 57" fill="none" xmlns="http://www.w3.org/2000/svg">
<path fill-rule="evenodd" clip-rule="evenodd" d="M10.0828 11.4922C15.5687 11.4922 20.0147 15.9382 20.0147 21.4241C20.0147 26.9099 15.5687 31.3561 10.0828 31.3561C4.59701 31.3561 0.150879 26.9099 0.150879 21.4241C0.150879 15.9382 4.59701 11.4922 10.0828 11.4922ZM15.9753 26.8852C17.3041 25.452 18.1165 23.533 18.1165 21.4241C18.1165 16.9868 14.5202 13.3905 10.0828 13.3905C5.64546 13.3905 2.04916 16.9868 2.04916 21.4241C2.04916 23.533 2.86151 25.452 4.19042 26.8852C5.06814 24.4801 7.3755 22.7627 10.0828 22.7627C12.7901 22.7627 15.0976 24.4801 15.9753 26.8852ZM10.0828 22.2913C8.33746 22.2913 6.91054 20.8643 6.91054 19.1189C6.91054 17.3735 8.33746 15.9466 10.0828 15.9466C11.8282 15.9466 13.2552 17.3735 13.2552 19.1189C13.2552 20.8643 11.8282 22.2913 10.0828 22.2913ZM31.3631 1.63394C32.156 1.82235 32.9123 2.13556 33.6073 2.56386L35.0657 1.91536L36.7837 3.63331L36.1377 5.09178C36.5659 5.78679 36.8792 6.54302 37.0676 7.3384L38.5555 7.91097V10.3411L37.0676 10.9137C36.8792 11.7066 36.5635 12.4628 36.1377 13.1578L36.7837 14.6163L35.0657 16.3342L33.6073 15.6882C32.9146 16.1165 32.156 16.4297 31.3631 16.6182L30.7905 18.106H28.3604L27.7878 16.6182C26.9925 16.4297 26.2362 16.114 25.5412 15.6882L24.0828 16.3342L22.3648 14.6163L23.0133 13.1578C22.585 12.4653 22.2718 11.7066 22.0809 10.9137L20.593 10.3411V7.91097L22.0809 7.3384C22.2718 6.54302 22.585 5.78679 23.0133 5.09178L22.3648 3.63331L24.0828 1.91536L25.5412 2.56386C26.2362 2.13556 26.9925 1.82235 27.7854 1.63394L28.3604 0.143555H30.7905L31.3631 1.63394ZM29.5742 4.88629C27.2322 4.88629 25.3357 6.78279 25.3357 9.1248C25.3357 11.4668 27.2322 13.3658 29.5742 13.3658C31.9163 13.3658 33.8152 11.4668 33.8152 9.1248C33.8152 6.78279 31.9163 4.88629 29.5742 4.88629ZM49.0672 30.4069C44.1207 30.4069 40.086 26.3722 40.086 21.4257C40.086 16.4791 44.1207 12.4444 49.0672 12.4444C54.0138 12.4444 58.0485 16.4791 58.0485 21.4257C58.0485 26.3722 54.0138 30.4069 49.0672 30.4069ZM48.1181 16.1807C47.9406 16.2234 47.7674 16.2779 47.6001 16.3437C46.3598 16.8317 45.4681 17.9036 45.5394 19.3588C45.629 21.2547 47.3247 22.0691 48.9237 22.3295C49.3377 22.3977 49.7821 22.4949 50.1731 22.6726C50.5766 22.8558 50.9284 23.1319 50.9896 23.6417L50.9897 23.6427C51.0365 24.0283 50.8549 24.3018 50.5896 24.4847C50.1909 24.7596 49.6491 24.8784 49.1629 24.8894H49.1607C48.2669 24.9116 47.336 24.5283 47.1086 23.6143C46.982 23.1059 46.4666 22.7959 45.9582 22.9225C45.4499 23.0489 45.1399 23.5643 45.2664 24.0727C45.6232 25.5057 46.7752 26.3983 48.1181 26.6864V27.1102C48.1181 27.634 48.5434 28.0593 49.0672 28.0593C49.591 28.0593 50.0164 27.634 50.0164 27.1102V26.7004C51.6067 26.395 53.1019 25.2947 52.8742 23.4147C52.6411 21.4763 50.8611 20.7246 49.2305 20.4561L49.2288 20.4559C48.8465 20.3936 48.4414 20.2987 48.0913 20.1277C47.7491 19.9607 47.4564 19.7119 47.4355 19.2691L47.4354 19.2667C47.4069 18.6925 47.8057 18.3028 48.2951 18.1102C49.1669 17.7672 50.3831 17.9825 50.8379 19.0662C51.0405 19.5492 51.5973 19.7768 52.0803 19.5741C52.5633 19.3714 52.7909 18.8147 52.5882 18.3316C52.0766 17.1124 51.0896 16.4175 50.0164 16.17V15.7441C50.0164 15.2203 49.591 14.795 49.0672 14.795C48.5434 14.795 48.1181 15.2203 48.1181 15.7441V16.1807ZM6.30713 42.8296C6.31021 42.8352 6.31341 42.8407 6.3165 42.8461L11.5531 52.0992C11.5559 52.104 11.5586 52.1089 11.5615 52.1138L12.7123 54.1474C12.8142 54.3291 12.7516 54.5612 12.5709 54.6634L12.5696 54.664L10.0451 56.0948C9.86356 56.1966 9.63149 56.134 9.52934 55.9533L9.52898 55.9526L2.09816 42.8224L2.0978 42.8219C1.99542 42.6412 2.05794 42.4101 2.2378 42.3085L2.23863 42.3081L4.76762 40.8763C4.94867 40.7741 5.18038 40.8402 5.28371 41.0212L6.30713 42.8296ZM4.38227 42.3755C3.80875 42.4573 3.41272 42.9899 3.4947 43.5634C3.58001 44.1368 4.11259 44.5363 4.68599 44.451C5.25951 44.369 5.65554 43.8331 5.57356 43.2596C5.48825 42.6861 4.95567 42.29 4.38227 42.3755ZM12.7379 50.3384L8.42691 42.7211L15.0125 38.9081C16.5315 38.0297 18.058 37.3323 19.7263 37.874L19.7267 37.8743C21.8952 38.5774 25.4308 40.0757 29.0431 40.7394C29.8616 41.0318 30.3909 41.848 30.164 42.6912L30.1639 42.6916C29.9398 43.5266 29.2241 43.9264 28.2497 43.8193C26.2674 43.4094 24.4267 42.8076 22.3846 42.2588C21.8787 42.1229 21.3577 42.4233 21.2217 42.9292C21.0857 43.4351 21.3861 43.9561 21.892 44.0921C23.9856 44.6547 27.9335 45.692 27.9465 45.6941C27.9465 45.6941 29.0667 45.8765 29.0678 45.8766C30.7308 46.1413 32.2566 45.9064 33.7126 45.0578L42.7222 39.8106C44.7938 38.6038 46.22 38.3504 47.1495 38.7372C47.8562 39.0312 48.1351 39.7392 48.1173 40.4075C48.1023 40.9719 47.8916 41.5401 47.4489 41.8126L31.0995 51.8789L31.0986 51.8793C29.8264 52.6646 28.4317 52.8419 26.9878 52.4568L15.1293 49.2787C14.8862 49.2134 14.6271 49.2476 14.409 49.3735L12.7379 50.3384ZM30.5234 28.887C30.5234 29.4108 30.0981 29.8361 29.5742 29.8361C29.0504 29.8361 28.6251 29.4108 28.6251 28.887V22.4309C28.6251 21.9071 29.0504 21.4818 29.5742 21.4818C30.0981 21.4818 30.5234 21.9071 30.5234 22.4309V28.887ZM33.0237 32.4192C32.6129 32.7443 32.0154 32.6746 31.6905 32.2638C31.3654 31.853 31.435 31.2556 31.8459 30.9306L37.3936 26.5412C37.8044 26.2161 38.4019 26.2857 38.7268 26.6966C39.0519 27.1073 38.9823 27.7048 38.5714 28.0298L33.0237 32.4192ZM27.3026 30.9306C27.7135 31.2556 27.7831 31.853 27.458 32.2638C27.1331 32.6746 26.5356 32.7443 26.1248 32.4192L20.5771 28.0298C20.1662 27.7048 20.0966 27.1073 20.4217 26.6966C20.7466 26.2857 21.3441 26.2161 21.7549 26.5412L27.3026 30.9306Z" fill="#234930"/>
</svg>
