<svg width="55" height="57" viewBox="0 0 55 57" fill="none" xmlns="http://www.w3.org/2000/svg">
<path d="M26.6694 24.4199V33.3447H26.659C25.8382 33.033 24.7057 32.607 23.4694 32.2537C23.1265 32.1395 22.7629 32.046 22.4096 31.9628C21.5151 31.7329 20.6055 31.5662 19.6875 31.4641V24.4199C19.6867 24.3195 19.7255 24.2228 19.7955 24.1509C19.8656 24.0789 19.9611 24.0374 20.0615 24.0355H26.2953C26.3957 24.0374 26.4913 24.0789 26.5613 24.1509C26.6314 24.2228 26.6702 24.3195 26.6694 24.4199Z" fill="#234930"/>
<path d="M36.6128 16.2951V34.1237C36.4258 34.1237 36.2284 34.1237 36.0206 34.1341L35.0336 34.1757C33.7557 34.2172 32.4258 34.2692 31.0959 34.2172C30.5349 34.1861 30.057 34.1549 29.6206 34.0926V16.2951C29.6206 16.2432 29.6308 16.1919 29.6506 16.144C29.6704 16.096 29.6995 16.0525 29.7362 16.0158C29.7729 15.9792 29.8164 15.9501 29.8643 15.9303C29.9122 15.9104 29.9636 15.9002 30.0154 15.9003H36.218C36.2699 15.9002 36.3212 15.9104 36.3692 15.9303C36.4171 15.9501 36.4606 15.9792 36.4973 16.0158C36.5339 16.0525 36.563 16.096 36.5828 16.144C36.6027 16.1919 36.6129 16.2432 36.6128 16.2951Z" fill="#234930"/>
<path d="M46.5562 6.61185V32.2535C46.0263 32.6276 45.4757 33.0432 44.9043 33.5003C43.9796 34.238 43.0341 35.0276 42.1094 35.8588C41.982 35.6556 41.8321 35.4674 41.6627 35.2977C41.2511 34.9217 40.7615 34.6415 40.2289 34.4769C40.0107 34.4042 39.7925 34.3523 39.564 34.3003V6.61185C39.5639 6.56 39.5741 6.50865 39.594 6.46074C39.6138 6.41283 39.6429 6.3693 39.6795 6.33264C39.7162 6.29597 39.7597 6.26689 39.8076 6.24705C39.8555 6.22722 39.9069 6.21702 39.9587 6.21704H46.1717C46.2748 6.21916 46.373 6.26176 46.4449 6.33563C46.5168 6.40951 46.5568 6.50873 46.5562 6.61185Z" fill="#234930"/>
<path d="M6.19147 18.8964L16.3538 9.67857C16.4058 9.63146 16.4667 9.59535 16.533 9.57242C16.5992 9.54949 16.6695 9.54022 16.7394 9.54515C16.8093 9.55008 16.8776 9.56913 16.94 9.60113C17.0023 9.63313 17.0576 9.67744 17.1024 9.73137L19.7604 12.9305L29.2476 3.35381L26.7467 1.48984C26.7132 1.46488 26.688 1.43041 26.6744 1.39091C26.6608 1.35142 26.6594 1.30875 26.6704 1.26846C26.6814 1.22817 26.7043 1.19213 26.7361 1.16505C26.7679 1.13797 26.8071 1.1211 26.8487 1.11664L35.8941 0.145336C35.9431 0.140073 35.9927 0.146511 36.0387 0.16412C36.0847 0.181728 36.126 0.210007 36.1589 0.246633C36.1919 0.283259 36.2158 0.327188 36.2285 0.374813C36.2412 0.422439 36.2425 0.472402 36.2321 0.520601L34.3113 9.47857C34.3026 9.51906 34.282 9.55603 34.2522 9.58474C34.2223 9.61345 34.1846 9.6326 34.1438 9.63971C34.103 9.64683 34.061 9.6416 34.0232 9.62469C33.9854 9.60778 33.9535 9.57996 33.9317 9.5448L32.1783 6.72748L20.4204 19.5262C20.3702 19.5808 20.3089 19.6241 20.2406 19.653C20.1723 19.682 20.0985 19.696 20.0244 19.694C19.9502 19.6921 19.8773 19.6743 19.8106 19.6419C19.7439 19.6094 19.6849 19.563 19.6376 19.5058L16.5722 15.8L9.12575 22.9008C9.07131 22.9527 9.00625 22.9922 8.93506 23.0165C8.86387 23.0408 8.78826 23.0493 8.71344 23.0415C8.63862 23.0337 8.56639 23.0098 8.50173 22.9713C8.43708 22.9329 8.38155 22.8808 8.33897 22.8188L6.11221 19.5752C6.04109 19.4716 6.00993 19.3457 6.0245 19.2209C6.03908 19.0961 6.0984 18.9808 6.19147 18.8964Z" fill="#234930"/>
<path d="M11.7492 55.9316C11.553 56.0904 11.3018 56.1648 11.0508 56.1384C10.7998 56.1121 10.5695 55.9871 10.4107 55.7909L1.02998 44.2074C0.951321 44.1103 0.892567 43.9986 0.857068 43.8788C0.821569 43.759 0.810021 43.6333 0.823083 43.509C0.836145 43.3847 0.873562 43.2642 0.933196 43.1544C0.992831 43.0446 1.07351 42.9476 1.17064 42.8689L4.77689 39.9487C4.97464 39.7907 5.22689 39.7174 5.47853 39.7448C5.73016 39.7722 5.96072 39.8981 6.11982 40.095L15.4976 51.6727C15.5762 51.7697 15.6349 51.8814 15.6704 52.0011C15.7058 52.1209 15.7173 52.2465 15.7042 52.3707C15.6911 52.4949 15.6536 52.6153 15.5939 52.7251C15.5342 52.8348 15.4535 52.9317 15.3563 53.0102L11.7492 55.9316Z" fill="#234930"/>
<path d="M31.7199 49.6563H31.6783C27.9277 49.6563 23.2939 47.5784 16.5821 49.8953L7.79248 39.0381C8.68701 37.4796 9.94485 36.1603 11.459 35.1925C12.973 34.2247 14.6986 33.6371 16.4886 33.4796C22.3736 32.9193 25.8181 36.1669 31.003 36.2848C34.424 36.444 37.9498 35.897 39.5641 36.4511H39.5745C39.9447 36.565 40.3678 36.7831 40.3953 37.1679C40.4045 37.191 40.4081 37.2159 40.4056 37.2407C40.3195 38.4454 37.1231 40.3451 35.9796 40.8043C32.6342 42.1654 26.1302 39.9939 22.5458 41.1264V41.1368H22.525C22.2897 41.2202 22.0965 41.3925 21.9869 41.6169C21.8773 41.8412 21.8602 42.0996 21.9391 42.3364C22.0181 42.5733 22.1868 42.7697 22.4091 42.8834C22.6313 42.9972 22.8893 43.0191 23.1276 42.9446C26.2237 41.9576 32.7692 44.1602 36.6965 42.581C38.2342 41.9434 39.6452 41.0355 40.8628 39.9004C40.8627 39.8991 40.863 39.8977 40.8635 39.8964C40.864 39.8951 40.8648 39.894 40.8658 39.893C40.8667 39.892 40.8679 39.8913 40.8692 39.8908C40.8704 39.8903 40.8718 39.89 40.8732 39.89C43.0014 37.7622 52.0299 29.4675 54.1096 31.4952C55.9664 33.495 43.422 49.6563 31.7199 49.6563Z" fill="#234930"/>
</svg>
