<svg width="8" height="6" viewBox="0 0 8 6" fill="none" xmlns="http://www.w3.org/2000/svg">
<path d="M4.01825 5.54479C3.94275 5.54528 3.8679 5.52924 3.79801 5.49759C3.72811 5.46595 3.66453 5.41932 3.61093 5.36039L0.168721 1.54505C0.0606907 1.42531 0 1.26291 0 1.09357C0 0.924231 0.0606907 0.761828 0.168721 0.642088C0.276751 0.522348 0.423271 0.455078 0.576048 0.455078C0.728826 0.455078 0.875346 0.522348 0.983376 0.642088L4.01825 4.0123L7.05313 0.648447C7.16288 0.544271 7.30406 0.489835 7.44844 0.496017C7.59283 0.502198 7.72979 0.568543 7.83197 0.681791C7.93414 0.795039 7.99399 0.946851 7.99957 1.10689C8.00515 1.26693 7.95604 1.4234 7.86205 1.54505L4.41984 5.36039C4.31299 5.47786 4.16876 5.54409 4.01825 5.54479Z" fill="#212121"/>
</svg>
