<svg width="100" height="15" viewBox="0 0 100 15" fill="none" xmlns="http://www.w3.org/2000/svg">
<path d="M23.3638 11.0401L28.1816 3.21651L32.997 11.0401H23.3638ZM14.9789 3.21651H24.6195L19.8042 11.0401L14.9789 3.21651ZM1.18901 0.029541C0.87276 0.031969 0.570349 0.150621 0.347646 0.359651C0.124943 0.568682 -1.07556e-05 0.851159 6.9438e-10 1.14556V5.31507H11.8568V8.94154H6.9438e-10V13.1111C-1.07556e-05 13.4055 0.124943 13.6879 0.347646 13.897C0.570349 14.106 0.87276 14.2246 1.18901 14.2271H35.4146C35.7308 14.2246 36.0332 14.106 36.2559 13.897C36.4787 13.6879 36.6036 13.4055 36.6036 13.1111V1.14556C36.6036 0.851159 36.4787 0.568682 36.2559 0.359651C36.0332 0.150621 35.7308 0.031969 35.4146 0.029541H1.18901ZM49.3984 10.1542V4.35323H50.8421V10.1496H49.3984V10.1542ZM50.1153 1.6725C50.2426 1.66794 50.3695 1.68787 50.4882 1.73102C50.6069 1.77418 50.7147 1.83964 50.805 1.92331C50.8924 2.0087 50.9605 2.10947 51.0055 2.21971C51.0505 2.32996 51.0714 2.44745 51.067 2.56531C51.0696 2.67951 51.0478 2.79305 51.0028 2.89933C50.9579 3.0056 50.8906 3.10247 50.805 3.18429C50.672 3.31051 50.5017 3.39714 50.3158 3.43319C50.1299 3.46925 49.9366 3.4531 49.7606 3.3868C49.5845 3.3205 49.4335 3.20704 49.3268 3.0608C49.2201 2.91455 49.1624 2.7421 49.1611 2.56531C49.157 2.44742 49.1789 2.33001 49.2253 2.22027C49.2718 2.11053 49.3418 2.01079 49.4312 1.92717C49.5205 1.84356 49.6273 1.77783 49.745 1.73404C49.8626 1.69024 49.9886 1.6693 50.1153 1.6725ZM55.9466 8.78047C56.2286 8.60599 56.438 8.34697 56.5399 8.04643L57.8278 8.54116C57.6408 9.08066 57.2569 9.54224 56.7426 9.84586C56.2083 10.1759 55.5792 10.3476 54.9381 10.3383C54.3698 10.3459 53.8099 10.2091 53.319 9.9425C52.8397 9.68696 52.4507 9.30721 52.1992 8.8495C51.9255 8.35626 51.787 7.80766 51.7962 7.25256C51.7849 6.69203 51.9261 6.13795 52.2066 5.64182C52.4669 5.18698 52.8581 4.80853 53.3363 4.54882C53.8347 4.28289 54.4007 4.14622 54.9752 4.15304C55.6189 4.1387 56.2515 4.31164 56.7846 4.64777C57.2733 4.95546 57.6302 5.41318 57.7932 5.94096L56.5276 6.4564C56.4383 6.15517 56.2367 5.89334 55.959 5.71776C55.6691 5.5301 55.3233 5.43191 54.9702 5.43703C54.7426 5.42899 54.516 5.46913 54.3075 5.55442C54.099 5.63972 53.9139 5.76795 53.7664 5.92945C53.4712 6.31283 53.3115 6.77217 53.3093 7.24383C53.307 7.71548 53.4625 8.17611 53.754 8.56187C53.8998 8.72584 54.0843 8.85622 54.2931 8.94284C54.5019 9.02946 54.7294 9.06996 54.9579 9.06119C55.3109 9.06616 55.6567 8.96798 55.9466 8.78047ZM62.4405 4.35323H64.3043L62.2378 6.55995L64.2499 10.1496H62.5641L61.2119 7.64144L60.1119 8.81498V10.1496H58.6287V1.86579H60.1119V6.86599L62.4355 4.36704L62.4405 4.35323ZM70.4101 6.94882C70.4101 7.19647 70.3811 7.44337 70.3235 7.68516H65.874C65.8679 7.88577 65.906 8.08542 65.9859 8.27181C66.0659 8.45821 66.1859 8.6274 66.3388 8.76896C66.4956 8.90606 66.6802 9.0127 66.8818 9.08263C67.0834 9.15256 67.298 9.18438 67.5129 9.17625C67.8826 9.18194 68.2465 9.09106 68.5635 8.91393C68.8541 8.75847 69.0784 8.51473 69.1988 8.22361L70.3903 8.65851C70.2079 9.17182 69.8356 9.60813 69.3397 9.88958C68.792 10.2055 68.157 10.3654 67.5129 10.3498C66.9472 10.3618 66.3888 10.2289 65.8987 9.96551C65.4296 9.71477 65.0531 9.33775 64.8185 8.88402C64.5523 8.37652 64.4201 7.8172 64.4329 7.25256C64.419 6.6893 64.5513 6.13123 64.8185 5.62572C65.0558 5.17739 65.4264 4.80199 65.8864 4.54422C66.3629 4.29495 66.8989 4.16059 67.4455 4.15335C67.9921 4.14612 68.5319 4.26625 69.0159 4.5028C69.4486 4.73861 69.8022 5.08205 70.0368 5.49455C70.2875 5.9432 70.4133 6.44322 70.4027 6.94882H70.4101ZM65.8814 6.63358H68.9071C68.9069 6.27652 68.758 5.93343 68.4918 5.67634C68.3541 5.55514 68.1918 5.46075 68.0143 5.39871C67.8369 5.33668 67.6479 5.30824 67.4585 5.31507C67.0615 5.30341 66.6745 5.43254 66.3758 5.67634C66.0844 5.92454 65.9058 6.26693 65.8765 6.63358H65.8814ZM73.2503 4.5097C73.5351 4.36052 73.8582 4.28653 74.1847 4.2957C74.4331 4.29789 74.681 4.31711 74.9263 4.35323V5.69475C74.6811 5.65814 74.4331 5.63891 74.1847 5.63722C73.9852 5.62592 73.7853 5.65367 73.598 5.71866C73.4106 5.78366 73.24 5.88447 73.0971 6.0146C72.8254 6.30812 72.6871 6.68858 72.7115 7.07538V10.1496H71.2283V4.35323H72.6027L72.6768 5.09187C72.7917 4.84298 72.9939 4.63774 73.2503 4.5097ZM78.3722 2.59752V4.35323H80.1026V5.55208H78.3722V8.15688C78.358 8.29093 78.3726 8.42626 78.415 8.55504C78.4574 8.68381 78.5269 8.80346 78.6194 8.90703C78.8251 9.07052 79.0911 9.15305 79.361 9.13713C79.6107 9.13249 79.8592 9.10395 80.1026 9.05199V10.145C79.7086 10.2586 79.2989 10.3183 78.8864 10.3222C78.6131 10.3377 78.3395 10.2987 78.0837 10.2078C77.8279 10.1169 77.5959 9.97628 77.4032 9.79523C77.0367 9.39469 76.8507 8.87773 76.8841 8.35247V5.55208H75.4479V4.35323H76.8841V2.74249L78.3673 2.58832L78.3722 2.59752ZM46.5755 2.59752V4.35323H48.3058V5.55208H46.5755V8.15688C46.5612 8.29093 46.5758 8.42626 46.6182 8.55504C46.6607 8.68381 46.7301 8.80346 46.8227 8.90703C47.0281 9.07095 47.2942 9.15354 47.5642 9.13713C47.8139 9.13223 48.0624 9.1037 48.3058 9.05199V10.145C47.9117 10.2584 47.5021 10.3181 47.0896 10.3222C46.8164 10.3372 46.5429 10.298 46.2872 10.2072C46.0315 10.1163 45.7994 9.97591 45.6065 9.79523C45.2408 9.39421 45.0549 8.8776 45.0873 8.35247V5.55208H43.6511V4.35323H45.0873V2.74249L46.5705 2.58832L46.5755 2.59752ZM83.7833 4.15304C84.5768 4.15304 85.1948 4.34173 85.6274 4.726C86.06 5.11028 86.2776 5.66023 86.2776 6.37586V10.2508H84.9872L84.9081 9.43396C84.7232 9.72146 84.4539 9.95379 84.1319 10.1036C83.772 10.2726 83.3731 10.3571 82.9701 10.3498C82.4198 10.3713 81.8816 10.195 81.4671 9.85736C81.2816 9.6807 81.1354 9.47163 81.037 9.24217C80.9387 9.0127 80.89 8.76739 80.894 8.52036C80.8979 8.27333 80.9542 8.02946 81.0598 7.80279C81.1654 7.57612 81.3181 7.37114 81.5092 7.19964C81.9644 6.85357 82.5412 6.67653 83.1283 6.70261H84.8339V6.12965C84.8416 6.0121 84.819 5.89453 84.7678 5.78683C84.7166 5.67912 84.6384 5.58442 84.5398 5.51066C84.3009 5.35505 84.0126 5.27886 83.7215 5.29436C83.3878 5.27984 83.0585 5.37065 82.7871 5.55208C82.6665 5.63532 82.5657 5.74081 82.4908 5.86196C82.416 5.98311 82.3687 6.11731 82.3521 6.25621L81.1161 5.94096C81.1542 5.67565 81.2518 5.42077 81.4026 5.19283C81.5533 4.96489 81.7539 4.769 81.9912 4.61785C82.5258 4.29359 83.1557 4.13271 83.7932 4.15764L83.7833 4.15304ZM84.8216 7.92217V7.66445H83.4348C83.1465 7.64407 82.8595 7.71636 82.6215 7.86925C82.5341 7.93906 82.465 8.02659 82.4196 8.12511C82.3742 8.22364 82.3536 8.33054 82.3595 8.43761C82.3546 8.5467 82.3777 8.6553 82.4266 8.7545C82.4756 8.85371 82.5492 8.94068 82.6413 9.00828C82.8662 9.16351 83.1431 9.23934 83.4224 9.22227C83.6084 9.23281 83.7946 9.20633 83.9686 9.1446C84.1427 9.08286 84.3006 8.98729 84.4318 8.86426C84.563 8.74122 84.6646 8.59356 84.7296 8.4311C84.7947 8.26865 84.8219 8.09515 84.8092 7.92217H84.8216ZM90.69 4.15304C91.0672 4.13768 91.443 4.20555 91.7867 4.35111C92.1303 4.49668 92.4322 4.71581 92.6676 4.99063C93.1619 5.55208 93.3894 6.30683 93.3894 7.25256C93.405 7.82003 93.2904 8.38408 93.0532 8.90703C92.8564 9.34198 92.5273 9.71389 92.1064 9.97702C91.6825 10.231 91.1866 10.3608 90.6826 10.3498C90.328 10.3561 89.9767 10.2852 89.6567 10.1427C89.3647 10.0188 89.1181 9.81798 88.9473 9.56513V12.5887H87.4641V4.36704H88.7668L88.8237 5.05735C88.9993 4.77619 89.2563 4.54657 89.5653 4.39465C89.9062 4.22978 90.286 4.14673 90.6702 4.15304H90.69ZM91.4909 8.65391C91.7586 8.22638 91.8858 7.73517 91.8568 7.24106C91.8917 6.74329 91.7568 6.24798 91.4711 5.82591C91.3476 5.66824 91.1841 5.54143 90.9952 5.45673C90.8063 5.37203 90.5979 5.33206 90.3884 5.34038C90.1792 5.33059 89.9708 5.37042 89.7828 5.45616C89.5947 5.54189 89.4331 5.6707 89.3131 5.83051C89.0372 6.25423 88.9078 6.74662 88.9423 7.24106C88.9423 7.88075 89.0758 8.36168 89.3378 8.68382C89.4617 8.83921 89.6243 8.96418 89.8116 9.04797C89.999 9.13176 90.2054 9.17184 90.4131 9.16475C90.6243 9.17229 90.8341 9.12928 91.0223 9.03985C91.2106 8.95041 91.3711 8.81754 91.4884 8.65391H91.4909ZM98.1479 8.91393C98.4384 8.75847 98.6627 8.51473 98.7832 8.22361L99.9771 8.65851C99.7946 9.17238 99.4212 9.60885 98.9241 9.88958C98.3767 10.2061 97.7415 10.3661 97.0973 10.3498C96.5324 10.3617 95.9748 10.2288 95.4856 9.96551C95.0159 9.71479 94.6385 9.33783 94.4029 8.88402C94.1365 8.37576 94.0043 7.81565 94.0172 7.25026C94.0036 6.68777 94.1359 6.13051 94.4029 5.62572C94.6409 5.17653 95.0124 4.80037 95.4732 4.54192C95.9498 4.29381 96.4854 4.1603 97.0314 4.15347C97.5774 4.14663 98.1167 4.2667 98.6003 4.5028C99.0376 4.73682 99.3956 5.08044 99.6335 5.49455C99.8842 5.9432 100.01 6.44322 99.9994 6.94882C99.9988 7.19708 99.9707 7.44461 99.9153 7.68746H95.4658C95.4601 7.88789 95.4986 8.08728 95.579 8.2733C95.6593 8.45932 95.7798 8.62802 95.933 8.76896C96.0894 8.906 96.2736 9.0126 96.4748 9.08254C96.676 9.15247 96.8901 9.18433 97.1047 9.17625C97.4744 9.18194 97.8383 9.09106 98.1553 8.91393H98.1479ZM95.9676 5.67634C95.6791 5.92599 95.5025 6.26789 95.4732 6.63358H98.4989C98.501 6.27609 98.3518 5.93221 98.0836 5.67634C97.9458 5.55533 97.7834 5.46123 97.606 5.39958C97.4285 5.33793 97.2396 5.30998 97.0503 5.31738C96.6543 5.30497 96.2681 5.43331 95.9701 5.67634H95.9676Z" fill="#161E2B"/>
</svg>
