<svg width="21" height="18" viewBox="0 0 21 18" fill="none" xmlns="http://www.w3.org/2000/svg">
<path d="M20.1403 2.78583C19.4042 3.12043 18.6107 3.34032 17.7885 3.44548C18.6298 2.93879 19.2799 2.13573 19.5858 1.17015C18.7923 1.64816 17.9128 1.98277 16.9854 2.17397C16.2302 1.35179 15.169 0.873779 13.9644 0.873779C11.7178 0.873779 9.88219 2.70934 9.88219 4.97512C9.88219 5.30017 9.92044 5.61565 9.98736 5.91202C6.58392 5.73994 3.55332 4.10514 1.53611 1.62904C1.18238 2.23133 0.98162 2.93879 0.98162 3.68449C0.98162 5.10896 1.69864 6.37091 2.80762 7.08793C2.12885 7.08793 1.49787 6.89672 0.943379 6.60992V6.6386C0.943379 8.62712 2.35829 10.2906 4.2321 10.6635C3.6305 10.8281 2.99892 10.851 2.38697 10.7304C2.64664 11.5454 3.15517 12.2585 3.8411 12.7695C4.52703 13.2805 5.35585 13.5637 6.21107 13.5793C4.76138 14.727 2.96441 15.3473 1.11546 15.3384C0.790415 15.3384 0.465368 15.3193 0.14032 15.281C1.95676 16.4474 4.11738 17.1262 6.43095 17.1262C13.9644 17.1262 18.104 10.8738 18.104 5.45313C18.104 5.27148 18.104 5.0994 18.0944 4.91776C18.8975 4.34414 19.5858 3.61757 20.1403 2.78583Z" fill="#234930"/>
</svg>
