<svg width="21" height="17" viewBox="0 0 21 17" fill="none" xmlns="http://www.w3.org/2000/svg">
<path d="M20.96 2C20.19 2.35 19.36 2.58 18.5 2.69C19.38 2.16 20.06 1.32 20.38 0.31C19.55 0.81 18.63 1.16 17.66 1.36C16.87 0.5 15.76 0 14.5 0C12.15 0 10.23 1.92 10.23 4.29C10.23 4.63 10.27 4.96 10.34 5.27C6.78001 5.09 3.61001 3.38 1.50001 0.79C1.13001 1.42 0.920009 2.16 0.920009 2.94C0.920009 4.43 1.67001 5.75 2.83001 6.5C2.12001 6.5 1.46001 6.3 0.880009 6V6.03C0.880009 8.11 2.36001 9.85 4.32001 10.24C3.69085 10.4129 3.03005 10.4369 2.39001 10.31C2.66162 11.1625 3.19355 11.9084 3.91103 12.4429C4.6285 12.9775 5.49546 13.2737 6.39001 13.29C4.87368 14.4905 2.99402 15.1394 1.06001 15.13C0.720008 15.13 0.380009 15.11 0.0400085 15.07C1.94001 16.29 4.20001 17 6.62001 17C14.5 17 18.83 10.46 18.83 4.79C18.83 4.6 18.83 4.42 18.82 4.23C19.66 3.63 20.38 2.87 20.96 2Z" fill="#1DA1F2"/>
</svg>
