<svg width="56" height="56" viewBox="0 0 56 56" fill="none" xmlns="http://www.w3.org/2000/svg">
<g clip-path="url(#clip0_24_41)">
<path d="M27.998 16.5027C24.3775 16.5027 21.4333 19.4468 21.4333 23.0674C21.4333 26.6879 24.3775 29.6321 27.998 29.6321C31.6185 29.6321 34.5627 26.6879 34.5627 23.0674C34.5627 19.4468 31.6185 16.5027 27.998 16.5027Z" fill="white"/>
<path d="M32.4409 3.85406L29.1584 0.462333C28.4601 -0.236027 27.3664 -0.0663865 26.8377 0.462333L23.5554 3.85406C22.9143 4.49511 22.9143 5.53373 23.5554 6.17478C24.1964 6.81583 25.235 6.81583 25.8761 6.17478L26.3569 5.69397V9.93795C26.3569 10.8451 27.0909 11.5791 27.9981 11.5791C28.9052 11.5791 29.6283 10.8451 29.6283 9.93795V5.69397L30.1091 6.17478C30.7502 6.81583 31.7997 6.81583 32.4408 6.17478C33.082 5.53384 33.082 4.49511 32.4409 3.85406Z" fill="white"/>
<path d="M32.4407 49.807C31.7996 49.166 30.7501 49.166 30.109 49.807L29.6282 50.2879V46.0439C29.6283 45.1367 28.9052 44.4027 27.9981 44.4027C27.0909 44.4027 26.3569 45.1367 26.3569 46.0439V50.2879L25.8761 49.807C25.235 49.166 24.1964 49.166 23.5554 49.807C22.9143 50.4481 22.9143 51.4867 23.5554 52.1278L26.8377 55.5195C27.492 56.1738 28.5316 56.1463 29.1584 55.5195L32.4408 52.1278C33.0817 51.4867 33.0817 50.448 32.4407 49.807Z" fill="white"/>
<path d="M9.94504 26.3497H5.70106L6.18187 25.8689C6.82292 25.2278 6.82292 24.1892 6.18187 23.5482C5.54082 22.9071 4.5022 22.9071 3.86115 23.5482L0.469424 26.8305C-0.229155 27.5291 -0.0595145 28.6224 0.469424 29.1512L3.86115 32.4336C4.5022 33.0746 5.54082 33.0746 6.18187 32.4336C6.82292 31.7925 6.82292 30.7539 6.18187 30.1129L5.70106 29.6321H9.94504C10.8522 29.6322 11.5862 28.8981 11.5862 27.991C11.5862 27.0838 10.8522 26.3497 9.94504 26.3497Z" fill="white"/>
<path d="M55.5267 26.8306L52.135 23.5483C51.494 22.9072 50.4553 22.9072 49.8143 23.5483C49.1732 24.1893 49.1732 25.228 49.8143 25.869L50.2951 26.3498H46.0511C45.144 26.3498 44.4099 27.0838 44.4099 27.991C44.4099 28.8982 45.144 29.6322 46.0511 29.6322H50.2951L49.8143 30.113C49.1732 30.754 49.1732 31.7927 49.8143 32.4337C50.4553 33.0748 51.494 33.0748 52.135 32.4337L55.5267 29.1514C56.0919 28.5861 56.2028 27.5067 55.5267 26.8306Z" fill="white"/>
<path d="M16.2506 39.7382C15.6096 39.0972 14.571 39.0972 13.9299 39.7382L10.9298 42.7385V42.059C10.9298 41.1518 10.1957 40.4178 9.28858 40.4178C8.38142 40.4178 7.6474 41.1518 7.6474 42.059V46.7004C7.6474 46.9178 7.69421 47.1231 7.77077 47.3129C8.00396 47.891 8.69379 48.3416 9.28858 48.3416H13.93C14.8372 48.3416 15.5712 47.6076 15.5712 46.7004C15.5712 45.7932 14.8372 45.0592 13.93 45.0592H13.2505L16.2507 42.059C16.8918 41.4179 16.8918 40.3794 16.2506 39.7382Z" fill="white"/>
<path d="M46.7075 7.64026H42.066C41.1589 7.64026 40.4248 8.37428 40.4248 9.28143C40.4248 10.1886 41.1589 10.9226 42.066 10.9226H42.7456L39.7453 13.9229C39.1041 14.5639 39.1041 15.6026 39.7453 16.2436C40.3864 16.8847 41.425 16.8847 42.066 16.2436L45.0663 13.2433V13.9229C45.0663 14.83 45.8003 15.5641 46.7075 15.5641C47.6146 15.5641 48.3486 14.83 48.3486 13.9229V9.28143C48.3486 8.4795 47.6631 7.64026 46.7075 7.64026Z" fill="white"/>
<path d="M46.7075 40.4178C45.8003 40.4178 45.0663 41.1518 45.0663 42.059V42.7385L42.066 39.7382C41.425 39.0972 40.3864 39.0972 39.7453 39.7382C39.1043 40.3793 39.1043 41.4179 39.7453 42.059L42.7456 45.0592H42.066C41.1589 45.0592 40.4249 45.7932 40.4249 46.7004C40.4249 47.6076 41.1589 48.3416 42.066 48.3416H46.7075C47.5094 48.3416 48.3487 47.6558 48.3487 46.7004V42.059C48.3487 41.1518 47.6145 40.4178 46.7075 40.4178Z" fill="white"/>
<path d="M16.2506 13.9229L13.2504 10.9226H13.9299C14.8371 10.9226 15.5711 10.1886 15.5711 9.28143C15.5711 8.37428 14.8371 7.64026 13.9299 7.64026H9.28858C8.30135 7.64026 7.6474 8.53101 7.6474 9.28143V13.9229C7.6474 14.83 8.38142 15.5641 9.28858 15.5641C10.1957 15.5641 10.9298 14.83 10.9298 13.9229V13.2433L13.93 16.2436C14.5711 16.8847 15.6096 16.8847 16.2506 16.2436C16.8917 15.6026 16.8917 14.5639 16.2506 13.9229Z" fill="white"/>
<path d="M35.284 29.6322C33.4803 31.6321 30.8971 32.9146 27.9981 32.9146C25.0991 32.9146 22.5158 31.6321 20.7122 29.6322C19.1375 31.3783 18.151 33.6657 18.151 36.1969V37.8381C18.151 38.7452 18.885 39.4793 19.7922 39.4793H36.204C37.1111 39.4793 37.8342 38.7452 37.8342 37.8381V36.1969C37.8341 33.6657 36.8586 31.3783 35.284 29.6322Z" fill="white"/>
</g>
<defs>
<clipPath id="clip0_24_41">
<rect width="56" height="56" fill="white"/>
</clipPath>
</defs>
</svg>
