<svg xmlns="http://www.w3.org/2000/svg" xmlns:xlink="http://www.w3.org/1999/xlink" width="150" zoomAndPan="magnify" viewBox="0 0 375 374.999991" height="150" preserveAspectRatio="xMidYMid meet" version="1.0"><defs><clipPath id="d5350eb566"><path d="M 260.054688 140.902344 L 335.804688 140.902344 L 335.804688 216.652344 L 260.054688 216.652344 Z M 260.054688 140.902344 " clip-rule="nonzero"/></clipPath><clipPath id="52653a8db4"><path d="M 58.542969 81.691406 L 132.042969 81.691406 L 132.042969 137.941406 L 58.542969 137.941406 Z M 58.542969 81.691406 " clip-rule="nonzero"/></clipPath><clipPath id="c86387e9d7"><path d="M 219.609375 81.691406 L 307.933594 81.691406 L 307.933594 137.941406 L 219.609375 137.941406 Z M 219.609375 81.691406 " clip-rule="nonzero"/></clipPath><clipPath id="22a82c9cb5"><path d="M 96 144.429688 L 267.570312 144.429688 L 267.570312 334 L 96 334 Z M 96 144.429688 " clip-rule="nonzero"/></clipPath><clipPath id="00c37824ef"><path d="M 39.328125 144.429688 L 101.578125 144.429688 L 101.578125 216 L 39.328125 216 Z M 39.328125 144.429688 " clip-rule="nonzero"/></clipPath><clipPath id="f211491977"><path d="M 39.328125 144.429688 L 82 144.429688 L 82 223.929688 L 39.328125 223.929688 Z M 39.328125 144.429688 " clip-rule="nonzero"/></clipPath></defs><path fill="#83B645" d="M 178.503906 54.121094 L 178.503906 52.75 C 178.503906 52.410156 178.441406 52.089844 178.3125 51.777344 C 178.183594 51.464844 178 51.191406 177.761719 50.953125 C 177.523438 50.714844 177.25 50.53125 176.9375 50.402344 C 176.628906 50.273438 176.304688 50.210938 175.96875 50.210938 C 175.628906 50.210938 175.308594 50.273438 174.996094 50.402344 C 174.683594 50.53125 174.410156 50.714844 174.171875 50.953125 C 173.933594 51.191406 173.75 51.464844 173.621094 51.777344 C 173.492188 52.089844 173.429688 52.410156 173.429688 52.75 L 173.429688 54.121094 C 173.429688 54.457031 173.492188 54.78125 173.621094 55.09375 C 173.75 55.402344 173.933594 55.679688 174.171875 55.917969 C 174.410156 56.152344 174.683594 56.335938 174.996094 56.464844 C 175.308594 56.59375 175.628906 56.660156 175.96875 56.660156 C 176.304688 56.660156 176.628906 56.59375 176.9375 56.464844 C 177.25 56.335938 177.523438 56.152344 177.761719 55.917969 C 178 55.679688 178.183594 55.402344 178.3125 55.09375 C 178.441406 54.78125 178.503906 54.457031 178.503906 54.121094 Z M 178.503906 54.121094 " fill-opacity="1" fill-rule="nonzero"/><path fill="#83B645" d="M 175.96875 106.203125 C 175.628906 106.203125 175.304688 106.269531 174.992188 106.398438 C 174.679688 106.527344 174.402344 106.714844 174.164062 106.953125 C 173.925781 107.195312 173.746094 107.46875 173.617188 107.785156 C 173.488281 108.097656 173.425781 108.421875 173.429688 108.761719 L 173.429688 110.132812 C 173.429688 110.46875 173.492188 110.792969 173.621094 111.105469 C 173.75 111.414062 173.933594 111.691406 174.171875 111.929688 C 174.410156 112.167969 174.683594 112.351562 174.996094 112.480469 C 175.308594 112.605469 175.628906 112.671875 175.96875 112.671875 C 176.304688 112.671875 176.628906 112.605469 176.9375 112.480469 C 177.25 112.351562 177.523438 112.167969 177.761719 111.929688 C 178 111.691406 178.183594 111.414062 178.3125 111.105469 C 178.441406 110.792969 178.503906 110.46875 178.503906 110.132812 L 178.503906 108.761719 C 178.511719 108.421875 178.449219 108.09375 178.324219 107.78125 C 178.195312 107.464844 178.011719 107.1875 177.773438 106.949219 C 177.535156 106.707031 177.257812 106.523438 176.945312 106.394531 C 176.632812 106.265625 176.304688 106.203125 175.96875 106.203125 Z M 175.96875 106.203125 " fill-opacity="1" fill-rule="nonzero"/><path fill="#83B645" d="M 203.269531 78.882812 C 202.933594 78.882812 202.609375 78.949219 202.296875 79.078125 C 201.984375 79.207031 201.710938 79.390625 201.472656 79.628906 C 201.234375 79.867188 201.050781 80.140625 200.921875 80.449219 C 200.792969 80.761719 200.730469 81.085938 200.730469 81.421875 C 200.730469 81.757812 200.792969 82.082031 200.921875 82.394531 C 201.050781 82.703125 201.234375 82.980469 201.472656 83.21875 C 201.710938 83.457031 201.984375 83.636719 202.296875 83.765625 C 202.609375 83.894531 202.933594 83.960938 203.269531 83.960938 L 204.660156 83.960938 C 204.996094 83.960938 205.320312 83.894531 205.632812 83.765625 C 205.941406 83.636719 206.214844 83.457031 206.453125 83.21875 C 206.691406 82.980469 206.875 82.703125 207.003906 82.394531 C 207.132812 82.082031 207.199219 81.757812 207.199219 81.421875 C 207.199219 81.085938 207.132812 80.761719 207.003906 80.449219 C 206.875 80.140625 206.691406 79.867188 206.453125 79.628906 C 206.214844 79.390625 205.941406 79.207031 205.632812 79.078125 C 205.320312 78.949219 204.996094 78.882812 204.660156 78.882812 Z M 203.269531 78.882812 " fill-opacity="1" fill-rule="nonzero"/><path fill="#83B645" d="M 147.292969 78.882812 C 146.957031 78.882812 146.632812 78.949219 146.324219 79.078125 C 146.011719 79.207031 145.738281 79.390625 145.5 79.628906 C 145.261719 79.867188 145.078125 80.140625 144.949219 80.449219 C 144.820312 80.761719 144.753906 81.085938 144.753906 81.421875 C 144.753906 81.757812 144.820312 82.082031 144.949219 82.394531 C 145.078125 82.703125 145.261719 82.980469 145.5 83.21875 C 145.738281 83.457031 146.011719 83.636719 146.324219 83.765625 C 146.632812 83.894531 146.957031 83.960938 147.292969 83.960938 L 148.667969 83.960938 C 149.003906 83.960938 149.328125 83.894531 149.636719 83.765625 C 149.949219 83.636719 150.222656 83.457031 150.460938 83.21875 C 150.699219 82.980469 150.882812 82.703125 151.011719 82.394531 C 151.140625 82.082031 151.203125 81.757812 151.203125 81.421875 C 151.203125 81.085938 151.140625 80.761719 151.011719 80.449219 C 150.882812 80.140625 150.699219 79.867188 150.460938 79.628906 C 150.222656 79.390625 149.949219 79.207031 149.636719 79.078125 C 149.328125 78.949219 149.003906 78.882812 148.667969 78.882812 Z M 147.292969 78.882812 " fill-opacity="1" fill-rule="nonzero"/><path fill="#83B645" d="M 213.308594 67.867188 C 213.195312 67.546875 213.027344 67.261719 212.800781 67.011719 C 212.574219 66.761719 212.308594 66.566406 212 66.421875 C 211.695312 66.28125 211.375 66.203125 211.035156 66.1875 C 210.699219 66.171875 210.371094 66.226562 210.054688 66.34375 C 209.738281 66.457031 209.457031 66.628906 209.207031 66.855469 C 208.957031 67.082031 208.761719 67.347656 208.621094 67.652344 C 208.476562 67.957031 208.398438 68.28125 208.382812 68.617188 C 208.367188 68.953125 208.417969 69.277344 208.53125 69.59375 C 209.933594 73.414062 210.628906 77.355469 210.621094 81.421875 C 210.621094 82.085938 210.601562 82.753906 210.566406 83.417969 C 210.527344 84.082031 210.46875 84.746094 210.394531 85.40625 C 210.320312 86.066406 210.222656 86.726562 210.109375 87.378906 C 209.996094 88.035156 209.863281 88.6875 209.714844 89.335938 C 209.5625 89.984375 209.390625 90.628906 209.203125 91.265625 C 209.015625 91.902344 208.808594 92.535156 208.585938 93.164062 C 208.359375 93.789062 208.117188 94.410156 207.855469 95.019531 C 207.597656 95.632812 207.320312 96.238281 207.023438 96.835938 C 206.730469 97.429688 206.417969 98.019531 206.085938 98.597656 C 205.757812 99.175781 205.414062 99.742188 205.050781 100.300781 C 204.691406 100.859375 204.3125 101.40625 203.917969 101.945312 C 203.527344 102.480469 203.117188 103.007812 202.695312 103.519531 C 202.269531 104.035156 201.832031 104.535156 201.378906 105.023438 C 200.929688 105.511719 200.460938 105.984375 199.984375 106.445312 C 199.503906 106.90625 199.011719 107.355469 198.503906 107.789062 C 198 108.222656 197.480469 108.640625 196.953125 109.042969 C 196.421875 109.445312 195.882812 109.832031 195.332031 110.203125 C 194.78125 110.578125 194.21875 110.933594 193.644531 111.273438 C 193.074219 111.613281 192.492188 111.933594 191.902344 112.242188 C 191.308594 112.546875 190.710938 112.835938 190.101562 113.109375 C 189.496094 113.378906 188.878906 113.632812 188.257812 113.871094 C 187.636719 114.105469 187.007812 114.324219 186.375 114.523438 C 185.738281 114.722656 185.097656 114.90625 184.453125 115.070312 C 183.808594 115.230469 183.160156 115.375 182.507812 115.503906 C 181.851562 115.628906 181.195312 115.734375 180.535156 115.824219 C 179.875 115.910156 179.214844 115.980469 178.550781 116.03125 C 177.886719 116.082031 177.222656 116.113281 176.558594 116.125 C 175.894531 116.136719 175.226562 116.128906 174.5625 116.101562 C 173.898438 116.074219 173.234375 116.027344 172.570312 115.964844 C 171.910156 115.898438 171.25 115.816406 170.59375 115.710938 C 169.933594 115.609375 169.28125 115.488281 168.628906 115.347656 C 167.980469 115.207031 167.335938 115.046875 166.691406 114.871094 C 166.050781 114.691406 165.414062 114.496094 164.785156 114.28125 C 164.15625 114.066406 163.53125 113.835938 162.914062 113.585938 C 162.300781 113.335938 161.691406 113.066406 161.089844 112.78125 C 160.488281 112.496094 159.894531 112.195312 159.3125 111.875 C 158.726562 111.558594 158.152344 111.222656 157.589844 110.867188 C 157.023438 110.515625 156.46875 110.148438 155.925781 109.761719 C 155.382812 109.378906 154.851562 108.980469 154.332031 108.566406 C 153.8125 108.148438 153.304688 107.71875 152.808594 107.277344 C 152.3125 106.832031 151.832031 106.375 151.359375 105.902344 C 150.890625 105.429688 150.4375 104.945312 149.996094 104.445312 C 149.554688 103.949219 149.128906 103.4375 148.714844 102.914062 C 148.304688 102.394531 147.90625 101.859375 147.527344 101.3125 C 147.144531 100.769531 146.78125 100.210938 146.429688 99.644531 C 146.082031 99.078125 145.75 98.503906 145.433594 97.917969 C 145.117188 97.332031 144.820312 96.738281 144.535156 96.132812 C 144.253906 95.53125 143.992188 94.921875 143.746094 94.304688 C 143.496094 93.683594 143.269531 93.058594 143.058594 92.429688 C 142.847656 91.796875 142.65625 91.160156 142.480469 90.519531 C 142.308594 89.875 142.152344 89.230469 142.015625 88.578125 C 141.878906 87.925781 141.761719 87.273438 141.664062 86.613281 C 141.5625 85.957031 141.484375 85.296875 141.421875 84.632812 C 141.363281 83.96875 141.320312 83.304688 141.296875 82.640625 C 141.273438 81.976562 141.269531 81.3125 141.285156 80.644531 C 141.300781 79.980469 141.335938 79.316406 141.390625 78.652344 C 141.445312 77.988281 141.515625 77.328125 141.609375 76.667969 C 141.699219 76.011719 141.8125 75.355469 141.941406 74.703125 C 142.070312 74.050781 142.21875 73.402344 142.386719 72.757812 C 142.554688 72.113281 142.738281 71.472656 142.941406 70.839844 C 143.144531 70.207031 143.367188 69.578125 143.609375 68.957031 C 143.847656 68.339844 144.105469 67.726562 144.378906 67.117188 C 144.65625 66.511719 144.949219 65.914062 145.257812 65.328125 C 145.566406 64.738281 145.894531 64.15625 146.238281 63.585938 C 146.578125 63.015625 146.9375 62.457031 147.3125 61.90625 C 147.6875 61.359375 148.078125 60.820312 148.484375 60.292969 C 148.890625 59.765625 149.3125 59.25 149.75 58.746094 C 150.183594 58.246094 150.636719 57.753906 151.097656 57.277344 C 151.5625 56.800781 152.039062 56.339844 152.53125 55.886719 C 153.023438 55.4375 153.523438 55.003906 154.039062 54.582031 C 154.554688 54.164062 155.085938 53.757812 155.625 53.367188 C 156.164062 52.976562 156.710938 52.601562 157.273438 52.246094 C 157.832031 51.886719 158.402344 51.542969 158.984375 51.21875 C 159.566406 50.894531 160.152344 50.585938 160.753906 50.292969 C 161.351562 50 161.957031 49.726562 162.570312 49.46875 C 163.183594 49.214844 163.804688 48.976562 164.433594 48.753906 C 165.058594 48.53125 165.695312 48.328125 166.332031 48.144531 C 166.972656 47.960938 167.617188 47.792969 168.265625 47.648438 C 168.914062 47.5 169.566406 47.371094 170.222656 47.261719 C 170.878906 47.152344 171.539062 47.058594 172.199219 46.988281 C 172.863281 46.917969 173.523438 46.863281 174.1875 46.828125 C 174.855469 46.796875 175.519531 46.78125 176.183594 46.785156 C 176.851562 46.789062 177.515625 46.8125 178.179688 46.855469 C 178.84375 46.898438 179.503906 46.960938 180.164062 47.042969 C 180.824219 47.125 181.484375 47.222656 182.136719 47.34375 C 182.792969 47.460938 183.445312 47.597656 184.089844 47.753906 C 184.738281 47.910156 185.378906 48.085938 186.015625 48.277344 C 186.652344 48.472656 187.285156 48.683594 187.910156 48.914062 C 188.53125 49.144531 189.152344 49.390625 189.761719 49.65625 C 190.371094 49.921875 190.972656 50.203125 191.566406 50.503906 C 192.160156 50.800781 192.746094 51.117188 193.324219 51.453125 C 193.898438 51.785156 194.464844 52.136719 195.019531 52.5 C 195.574219 52.867188 196.121094 53.25 196.652344 53.648438 C 197.1875 54.042969 197.710938 54.457031 198.21875 54.882812 C 198.730469 55.3125 199.226562 55.753906 199.710938 56.210938 C 200.195312 56.664062 200.667969 57.136719 201.125 57.617188 L 176.0625 78.074219 L 168.351562 71.023438 C 168.128906 70.816406 167.875 70.65625 167.59375 70.542969 C 167.3125 70.429688 167.019531 70.367188 166.714844 70.359375 C 166.410156 70.347656 166.117188 70.394531 165.828125 70.492188 C 165.539062 70.589844 165.277344 70.738281 165.042969 70.929688 C 164.804688 71.121094 164.609375 71.351562 164.453125 71.613281 C 164.300781 71.875 164.195312 72.15625 164.140625 72.457031 C 164.089844 72.757812 164.089844 73.058594 164.144531 73.359375 C 164.199219 73.660156 164.304688 73.941406 164.460938 74.203125 L 173.863281 89.828125 C 174.292969 90.539062 174.917969 90.945312 175.742188 91.050781 L 176.042969 91.050781 C 176.78125 91.070312 177.410156 90.8125 177.921875 90.277344 L 213.0625 54.554688 C 213.3125 54.328125 213.507812 54.0625 213.652344 53.753906 C 213.796875 53.449219 213.875 53.128906 213.890625 52.792969 C 213.90625 52.457031 213.859375 52.128906 213.742188 51.8125 C 213.628906 51.496094 213.460938 51.214844 213.230469 50.964844 C 213.003906 50.714844 212.738281 50.519531 212.433594 50.375 C 212.128906 50.230469 211.808594 50.152344 211.472656 50.136719 C 211.136719 50.121094 210.808594 50.167969 210.492188 50.28125 C 210.175781 50.394531 209.890625 50.566406 209.640625 50.792969 L 205.203125 54.421875 C 204.65625 53.832031 204.085938 53.261719 203.5 52.707031 C 202.914062 52.152344 202.3125 51.617188 201.695312 51.097656 C 201.078125 50.582031 200.441406 50.082031 199.792969 49.601562 C 199.144531 49.125 198.480469 48.664062 197.804688 48.226562 C 197.128906 47.789062 196.4375 47.371094 195.734375 46.976562 C 195.03125 46.582031 194.320312 46.207031 193.59375 45.855469 C 192.867188 45.503906 192.132812 45.171875 191.386719 44.867188 C 190.640625 44.558594 189.886719 44.273438 189.125 44.011719 C 188.359375 43.753906 187.589844 43.515625 186.8125 43.300781 C 186.035156 43.085938 185.25 42.898438 184.460938 42.734375 C 183.671875 42.566406 182.878906 42.425781 182.082031 42.308594 C 181.28125 42.191406 180.480469 42.097656 179.679688 42.03125 C 178.875 41.964844 178.070312 41.917969 177.265625 41.902344 C 176.457031 41.882812 175.652344 41.886719 174.84375 41.917969 C 174.039062 41.949219 173.234375 42.003906 172.433594 42.085938 C 171.628906 42.164062 170.832031 42.269531 170.035156 42.398438 C 169.238281 42.527344 168.449219 42.679688 167.660156 42.859375 C 166.875 43.035156 166.09375 43.238281 165.320312 43.460938 C 164.542969 43.6875 163.777344 43.9375 163.019531 44.210938 C 162.261719 44.480469 161.511719 44.777344 160.769531 45.09375 C 160.027344 45.414062 159.296875 45.753906 158.578125 46.117188 C 157.855469 46.480469 157.148438 46.863281 156.453125 47.269531 C 155.753906 47.675781 155.070312 48.105469 154.402344 48.554688 C 153.730469 49 153.074219 49.46875 152.433594 49.957031 C 151.792969 50.445312 151.164062 50.953125 150.554688 51.480469 C 149.945312 52.007812 149.351562 52.554688 148.773438 53.117188 C 148.195312 53.679688 147.636719 54.261719 147.09375 54.859375 C 146.554688 55.457031 146.03125 56.070312 145.527344 56.699219 C 145.023438 57.328125 144.539062 57.972656 144.074219 58.632812 C 143.609375 59.289062 143.164062 59.964844 142.742188 60.648438 C 142.320312 61.335938 141.917969 62.035156 141.535156 62.746094 C 141.15625 63.457031 140.796875 64.179688 140.460938 64.914062 C 140.125 65.644531 139.8125 66.386719 139.519531 67.140625 C 139.230469 67.894531 138.960938 68.652344 138.71875 69.421875 C 138.472656 70.191406 138.253906 70.964844 138.058594 71.746094 C 137.859375 72.53125 137.6875 73.316406 137.539062 74.109375 C 137.390625 74.902344 137.265625 75.699219 137.167969 76.5 C 137.066406 77.300781 136.992188 78.101562 136.941406 78.90625 C 136.890625 79.710938 136.867188 80.519531 136.867188 81.324219 C 136.863281 82.132812 136.886719 82.9375 136.9375 83.742188 C 136.984375 84.546875 137.058594 85.351562 137.15625 86.148438 C 137.253906 86.949219 137.375 87.746094 137.519531 88.539062 C 137.667969 89.332031 137.839844 90.121094 138.03125 90.90625 C 138.226562 91.6875 138.445312 92.464844 138.6875 93.230469 C 138.929688 94 139.195312 94.761719 139.484375 95.515625 C 139.773438 96.269531 140.085938 97.011719 140.417969 97.746094 C 140.753906 98.480469 141.109375 99.203125 141.488281 99.914062 C 141.867188 100.625 142.265625 101.328125 142.6875 102.015625 C 143.109375 102.703125 143.550781 103.375 144.015625 104.035156 C 144.476562 104.695312 144.960938 105.34375 145.464844 105.972656 C 145.964844 106.605469 146.488281 107.21875 147.027344 107.816406 C 147.566406 108.417969 148.125 109 148.699219 109.5625 C 149.277344 110.128906 149.867188 110.675781 150.476562 111.203125 C 151.085938 111.730469 151.710938 112.242188 152.351562 112.730469 C 152.992188 113.222656 153.648438 113.691406 154.316406 114.140625 C 154.988281 114.589844 155.667969 115.019531 156.363281 115.429688 C 157.058594 115.835938 157.765625 116.222656 158.488281 116.589844 C 159.207031 116.953125 159.9375 117.296875 160.675781 117.617188 C 161.414062 117.9375 162.164062 118.234375 162.921875 118.507812 C 163.683594 118.78125 164.449219 119.03125 165.222656 119.257812 C 165.996094 119.488281 166.777344 119.691406 167.5625 119.871094 C 168.347656 120.050781 169.140625 120.203125 169.933594 120.335938 C 170.730469 120.464844 171.53125 120.574219 172.332031 120.65625 C 173.132812 120.738281 173.9375 120.792969 174.746094 120.828125 C 175.550781 120.859375 176.355469 120.867188 177.164062 120.851562 C 177.96875 120.835938 178.773438 120.792969 179.578125 120.726562 C 180.382812 120.664062 181.183594 120.570312 181.980469 120.457031 C 182.777344 120.34375 183.574219 120.203125 184.363281 120.039062 C 185.152344 119.875 185.9375 119.6875 186.714844 119.476562 C 187.492188 119.265625 188.261719 119.027344 189.027344 118.769531 C 189.792969 118.511719 190.546875 118.230469 191.292969 117.925781 C 192.039062 117.617188 192.777344 117.289062 193.503906 116.941406 C 194.230469 116.589844 194.945312 116.21875 195.648438 115.824219 C 196.351562 115.429688 197.042969 115.015625 197.71875 114.578125 C 198.398438 114.140625 199.0625 113.683594 199.710938 113.207031 C 200.363281 112.730469 200.996094 112.234375 201.617188 111.71875 C 202.238281 111.203125 202.839844 110.667969 203.425781 110.113281 C 204.015625 109.5625 204.582031 108.992188 205.136719 108.402344 C 205.6875 107.816406 206.222656 107.210938 206.734375 106.589844 C 207.25 105.96875 207.746094 105.332031 208.222656 104.683594 C 208.699219 104.03125 209.15625 103.367188 209.589844 102.6875 C 210.023438 102.007812 210.4375 101.316406 210.832031 100.613281 C 211.226562 99.910156 211.597656 99.191406 211.945312 98.464844 C 212.292969 97.738281 212.621094 97 212.925781 96.253906 C 213.230469 95.507812 213.507812 94.753906 213.765625 93.988281 C 214.023438 93.222656 214.257812 92.453125 214.46875 91.671875 C 214.679688 90.894531 214.867188 90.109375 215.027344 89.320312 C 215.191406 88.53125 215.328125 87.738281 215.441406 86.9375 C 215.554688 86.140625 215.644531 85.339844 215.707031 84.535156 C 215.773438 83.730469 215.8125 82.925781 215.828125 82.121094 C 215.84375 81.3125 215.835938 80.507812 215.800781 79.703125 C 215.765625 78.894531 215.707031 78.089844 215.625 77.289062 C 215.539062 76.488281 215.433594 75.6875 215.300781 74.894531 C 215.167969 74.097656 215.011719 73.304688 214.828125 72.519531 C 214.648438 71.734375 214.445312 70.953125 214.214844 70.179688 C 213.988281 69.410156 213.734375 68.640625 213.460938 67.882812 Z M 213.308594 67.867188 " fill-opacity="1" fill-rule="nonzero"/><g clip-path="url(#d5350eb566)"><path fill="#83B645" d="M 297.875 216.546875 C 277.019531 216.546875 260.054688 199.582031 260.054688 178.726562 C 260.054688 157.871094 277.019531 140.902344 297.875 140.902344 C 318.730469 140.902344 335.699219 157.871094 335.699219 178.726562 C 335.699219 199.582031 318.730469 216.546875 297.875 216.546875 Z M 297.875 216.546875 " fill-opacity="1" fill-rule="nonzero"/></g><path fill="#83B645" d="M 297.875 210.363281 C 280.429688 210.363281 266.238281 196.167969 266.238281 178.726562 C 266.238281 161.28125 280.429688 147.085938 297.875 147.085938 C 315.320312 147.085938 329.511719 161.28125 329.511719 178.726562 C 329.511719 196.167969 315.320312 210.363281 297.875 210.363281 Z M 297.875 210.363281 " fill-opacity="1" fill-rule="nonzero"/><path fill="#83B645" d="M 275.261719 200.878906 L 274.300781 199.929688 C 273.984375 199.605469 273.691406 199.265625 273.382812 198.933594 C 273.226562 198.769531 273.082031 198.597656 272.941406 198.421875 L 272.511719 197.898438 C 272.21875 197.554688 271.957031 197.183594 271.6875 196.820312 C 270.617188 195.359375 269.667969 193.808594 268.851562 192.183594 C 268.046875 190.554688 267.398438 188.84375 266.898438 187.09375 C 266.394531 185.339844 266.039062 183.542969 265.835938 181.726562 C 265.621094 179.910156 265.601562 178.074219 265.726562 176.246094 C 265.851562 174.421875 266.117188 172.601562 266.558594 170.816406 C 267.449219 167.261719 268.949219 163.851562 270.984375 160.792969 C 273.042969 157.753906 275.601562 155.054688 278.546875 152.863281 C 281.507812 150.703125 284.820312 149.015625 288.332031 147.988281 C 290.089844 147.476562 291.882812 147.121094 293.695312 146.914062 C 295.507812 146.707031 297.332031 146.640625 299.144531 146.753906 C 300.957031 146.875 302.757812 147.144531 304.519531 147.570312 C 305.398438 147.785156 306.265625 148.035156 307.125 148.320312 C 307.976562 148.617188 308.816406 148.945312 309.640625 149.3125 L 309.609375 149.382812 C 306.277344 148.050781 302.71875 147.292969 299.132812 147.160156 C 297.339844 147.089844 295.542969 147.179688 293.761719 147.414062 C 291.984375 147.652344 290.226562 148.03125 288.511719 148.5625 C 285.089844 149.640625 281.859375 151.300781 278.984375 153.445312 C 276.121094 155.605469 273.625 158.246094 271.628906 161.222656 C 269.628906 164.199219 268.160156 167.523438 267.265625 170.996094 C 266.816406 172.734375 266.546875 174.511719 266.40625 176.296875 C 266.273438 178.085938 266.261719 179.882812 266.4375 181.671875 C 266.78125 185.238281 267.703125 188.757812 269.226562 192.011719 C 270.742188 195.261719 272.8125 198.253906 275.316406 200.824219 Z M 275.261719 200.878906 " fill-opacity="1" fill-rule="nonzero"/><path fill="#234930" d="M 292.144531 182.386719 L 289.671875 182.386719 L 307.578125 205.289062 L 299.730469 205.289062 L 281.824219 182.386719 L 281.75 182.292969 L 281.75 176.203125 L 292.144531 176.203125 C 295.511719 176.203125 298.359375 173.9375 299.246094 170.84375 L 281.816406 170.84375 L 285.816406 164.660156 L 298.242188 164.660156 C 296.910156 162.714844 294.671875 161.433594 292.144531 161.433594 L 281.835938 161.433594 L 283.355469 159.085938 L 285.835938 155.25 L 313.867188 155.25 L 309.125 161.433594 L 303.527344 161.433594 C 304.171875 162.429688 304.691406 163.511719 305.058594 164.660156 L 314 164.660156 L 309.257812 170.84375 L 305.558594 170.84375 C 305.234375 173.03125 304.382812 175.050781 303.140625 176.765625 C 302.71875 177.351562 302.246094 177.902344 301.738281 178.414062 C 299.28125 180.867188 295.890625 182.386719 292.144531 182.386719 Z M 292.144531 182.386719 " fill-opacity="1" fill-rule="nonzero"/><g clip-path="url(#52653a8db4)"><path fill="#83B645" d="M 176.308594 81.691406 C 103.597656 81.691406 44.683594 140.65625 44.683594 213.316406 C 44.683594 285.976562 103.597656 344.941406 176.308594 344.941406 C 249.023438 344.941406 307.933594 285.976562 307.933594 213.316406 C 307.933594 140.65625 249.023438 81.691406 176.308594 81.691406 Z M 176.308594 336.609375 C 108.214844 336.609375 53.015625 281.410156 53.015625 213.316406 C 53.015625 145.222656 108.214844 90.023438 176.308594 90.023438 C 244.402344 90.023438 299.601562 145.222656 299.601562 213.316406 C 299.601562 281.410156 244.402344 336.609375 176.308594 336.609375 Z M 176.308594 336.609375 " fill-opacity="1" fill-rule="nonzero"/></g><g clip-path="url(#c86387e9d7)"><path fill="#83B645" d="M 176.308594 81.691406 C 103.597656 81.691406 44.683594 140.65625 44.683594 213.316406 C 44.683594 285.976562 103.597656 344.941406 176.308594 344.941406 C 249.023438 344.941406 307.933594 285.976562 307.933594 213.316406 C 307.933594 140.65625 249.023438 81.691406 176.308594 81.691406 Z M 176.308594 336.609375 C 108.214844 336.609375 53.015625 281.410156 53.015625 213.316406 C 53.015625 145.222656 108.214844 90.023438 176.308594 90.023438 C 244.402344 90.023438 299.601562 145.222656 299.601562 213.316406 C 299.601562 281.410156 244.402344 336.609375 176.308594 336.609375 Z M 176.308594 336.609375 " fill-opacity="1" fill-rule="nonzero"/></g><g clip-path="url(#22a82c9cb5)"><path fill="#83B645" d="M 182.5 144.617188 C 165.171875 144.734375 154.5 148.78125 148.214844 156.417969 C 141.367188 164.738281 140.121094 176.574219 140.035156 190.71875 C 135.660156 191.980469 135.632812 196.308594 135.640625 199.914062 C 136.5 205.066406 139.796875 210.6875 144.089844 212.605469 C 146.207031 219.746094 149.027344 227.164062 152.542969 233.941406 C 155.269531 239.203125 158.359375 244.109375 161.886719 248.140625 L 158.3125 260.558594 C 142.234375 267.871094 122.445312 274.457031 110.21875 281.480469 C 105.789062 284.492188 100.664062 291.089844 100.527344 300.484375 C 98.945312 310.582031 97.523438 321 96.0625 331.21875 C 95.863281 332.476562 96.988281 333.773438 98.261719 333.757812 L 265.363281 333.757812 C 266.636719 333.777344 267.761719 332.476562 267.5625 331.21875 L 263.164062 300.484375 C 263.164062 292.019531 259.03125 284.429688 253.132812 281.277344 C 248.828125 279.125 224.550781 267.523438 205.242188 260.351562 L 201.601562 247.660156 C 204.957031 243.722656 207.914062 238.992188 210.53125 233.941406 C 214.035156 227.183594 216.871094 219.796875 218.984375 212.671875 C 219.050781 212.671875 219.121094 212.671875 219.191406 212.671875 C 224.398438 211.199219 227.03125 204.457031 227.984375 199.914062 C 227.65625 194.527344 226.789062 192.574219 223.175781 190.71875 C 224.125 178.523438 222.976562 167.507812 218.226562 159.160156 C 208.640625 147.941406 197.203125 144.933594 182.5 144.617188 Z M 192.324219 174.390625 C 199.164062 176.890625 206.9375 177.851562 212.523438 182.417969 C 214.566406 187.078125 215.722656 193.398438 216.097656 198.335938 C 216.097656 199.226562 216.703125 200.085938 217.539062 200.394531 C 215.621094 210.132812 211.820312 221.914062 206.617188 231.949219 C 203.28125 238.386719 199.347656 244.066406 195.074219 248.070312 C 190.796875 252.074219 186.300781 254.382812 181.539062 254.382812 C 176.773438 254.382812 172.277344 252.074219 168 248.070312 C 163.726562 244.066406 159.792969 238.386719 156.457031 231.949219 C 151.273438 221.945312 147.515625 210.242188 145.601562 200.53125 C 146.796875 200.605469 147.941406 199.53125 147.9375 198.335938 C 148.304688 192.503906 149.140625 187.382812 150.6875 182.691406 C 158.34375 182.226562 163.894531 183.742188 170.199219 183.652344 C 176.425781 183.5625 183.160156 181.476562 192.324219 174.390625 Z M 198.027344 251.363281 L 200.363281 259.527344 C 193.828125 268.378906 187.484375 278.976562 181.8125 287.722656 C 175.214844 278.695312 170.214844 268.097656 163.261719 259.460938 L 165.460938 251.707031 C 170.160156 255.972656 175.570312 258.773438 181.539062 258.773438 C 187.671875 258.773438 193.234375 255.832031 198.027344 251.363281 Z M 161.199219 264.054688 L 178.375 290.46875 C 176.210938 293.214844 174.839844 296.867188 173.222656 300.074219 C 172.8125 300.890625 172.988281 301.964844 173.636719 302.609375 L 175.011719 303.914062 L 172.261719 318.9375 L 151.167969 268.308594 C 154.679688 266.847656 158.179688 265.371094 161.199219 264.054688 Z M 202.492188 264.054688 C 205.714844 265.234375 209.144531 266.574219 212.59375 267.96875 L 191.292969 318.871094 L 188.546875 303.914062 L 189.917969 302.613281 C 190.570312 301.964844 190.742188 300.890625 190.332031 300.074219 C 188.726562 296.914062 187.132812 293.382812 185.246094 290.539062 C 191.761719 280.546875 196.761719 272.683594 202.492188 264.054688 Z M 216.578125 269.613281 C 220.621094 271.292969 224.574219 273.003906 228.398438 274.691406 L 212.9375 297.671875 C 212.390625 298.503906 212.511719 299.707031 213.210938 300.417969 L 220.496094 307.6875 L 200.570312 329.367188 L 191.636719 329.367188 L 192.738281 326.757812 Z M 147.113281 270.023438 L 171.917969 329.367188 L 162.984375 329.367188 L 143.058594 307.6875 L 150.34375 300.417969 C 151.042969 299.707031 151.164062 298.503906 150.617188 297.671875 L 135.296875 274.894531 C 139.199219 273.285156 143.207031 271.636719 147.113281 270.023438 Z M 147.113281 270.023438 " fill-opacity="1" fill-rule="nonzero"/></g><g clip-path="url(#00c37824ef)"><path fill="#83B645" d="M 87.484375 215.175781 C 90.601562 215.175781 93.121094 212.65625 93.121094 209.539062 C 93.121094 199.582031 93.121094 179.285156 93.121094 172.417969 C 93.121094 170.925781 93.714844 169.488281 94.773438 168.429688 C 96.257812 166.945312 98.4375 164.765625 99.925781 163.277344 C 100.980469 162.222656 101.578125 160.785156 101.578125 159.292969 C 101.578125 156.996094 101.578125 153.398438 101.578125 150.355469 C 101.578125 148.855469 100.980469 147.425781 99.925781 146.367188 C 98.867188 145.3125 97.4375 144.71875 95.941406 144.71875 C 84.148438 144.71875 57 144.71875 45.210938 144.71875 C 43.710938 144.71875 42.28125 145.3125 41.222656 146.367188 C 40.167969 147.425781 39.574219 148.855469 39.574219 150.355469 C 39.574219 163.554688 39.574219 196.339844 39.574219 209.539062 C 39.574219 211.035156 40.167969 212.46875 41.222656 213.523438 C 42.28125 214.582031 43.710938 215.175781 45.210938 215.175781 C 55.496094 215.175781 77.195312 215.175781 87.484375 215.175781 " fill-opacity="1" fill-rule="evenodd"/></g><path fill="#234930" d="M 84.667969 212.355469 C 86.222656 212.355469 87.484375 211.097656 87.484375 209.539062 L 87.484375 151.761719 C 87.484375 150.207031 86.222656 148.945312 84.667969 148.945312 L 46.617188 148.945312 C 45.0625 148.945312 43.800781 150.207031 43.800781 151.761719 L 43.800781 209.539062 C 43.800781 211.097656 45.0625 212.355469 46.617188 212.355469 L 84.667969 212.355469 " fill-opacity="1" fill-rule="evenodd"/><g clip-path="url(#f211491977)"><path fill="#83B645" d="M 75.550781 223.53125 C 77.109375 223.84375 78.710938 223.398438 79.925781 222.316406 C 81.144531 221.230469 81.847656 219.625 81.847656 217.925781 C 81.847656 203.292969 81.847656 169.332031 81.847656 156.832031 C 81.847656 154.089844 80.027344 151.734375 77.511719 151.230469 C 69.957031 149.710938 54.359375 146.570312 45.613281 144.816406 C 44.058594 144.503906 42.457031 144.949219 41.242188 146.03125 C 40.023438 147.113281 39.320312 148.722656 39.320312 150.417969 C 39.320312 165.054688 39.320312 199.015625 39.320312 211.515625 C 39.320312 214.257812 41.140625 216.613281 43.65625 217.117188 C 51.210938 218.636719 66.808594 221.773438 75.550781 223.53125 " fill-opacity="1" fill-rule="evenodd"/></g></svg>