<svg xmlns="http://www.w3.org/2000/svg" xmlns:xlink="http://www.w3.org/1999/xlink" width="150" zoomAndPan="magnify" viewBox="0 0 375 374.999991" height="150" preserveAspectRatio="xMidYMid meet" version="1.0"><defs><clipPath id="f3a17a0d93"><path d="M 46.695312 46.695312 L 327.945312 46.695312 L 327.945312 327.945312 L 46.695312 327.945312 Z M 46.695312 46.695312 " clip-rule="nonzero"/></clipPath></defs><path fill="#83B645" d="M 105.742188 128.449219 C 93.214844 128.449219 83.03125 118.265625 83.03125 105.742188 C 83.03125 93.214844 93.214844 83.03125 105.742188 83.03125 C 118.265625 83.03125 128.449219 93.214844 128.449219 105.742188 C 128.449219 118.265625 118.265625 128.449219 105.742188 128.449219 Z M 137.535156 105.742188 C 137.535156 88.210938 123.269531 73.945312 105.742188 73.945312 C 88.210938 73.945312 73.945312 88.210938 73.945312 105.742188 C 73.945312 123.269531 88.210938 137.535156 105.742188 137.535156 C 123.269531 137.535156 137.535156 123.269531 137.535156 105.742188 " fill-opacity="1" fill-rule="nonzero"/><path fill="#83B645" d="M 273.792969 142.074219 L 264.707031 142.074219 L 264.707031 87.574219 L 273.792969 87.574219 Z M 246.542969 142.074219 L 246.542969 105.742188 L 255.625 105.742188 L 255.625 142.074219 Z M 228.375 114.824219 L 237.457031 114.824219 L 237.457031 142.074219 L 228.375 142.074219 Z M 219.289062 142.074219 L 210.207031 142.074219 L 210.207031 96.65625 L 219.289062 96.65625 Z M 282.875 78.488281 L 255.625 78.488281 L 255.625 96.65625 L 237.457031 96.65625 L 237.457031 105.742188 L 228.375 105.742188 L 228.375 87.574219 L 201.121094 87.574219 L 201.121094 151.160156 L 282.875 151.160156 L 282.875 78.488281 " fill-opacity="1" fill-rule="nonzero"/><path fill="#83B645" d="M 284.933594 252.429688 C 282.414062 249.328125 279.699219 246.308594 276.863281 243.472656 C 274.042969 240.632812 271.023438 237.9375 267.921875 235.417969 C 275.601562 230.679688 282.253906 228.355469 286.515625 228.355469 C 288.394531 228.355469 289.832031 228.800781 290.683594 229.652344 C 293.46875 232.4375 291.800781 241.324219 284.933594 252.429688 Z M 290.683594 290.683594 C 287.898438 293.46875 278.992188 291.820312 267.886719 284.917969 C 270.988281 282.398438 274.023438 279.71875 276.863281 276.863281 C 279.699219 274.023438 282.414062 271.007812 284.933594 267.902344 C 291.800781 279.007812 293.46875 287.898438 290.683594 290.683594 Z M 229.652344 290.683594 C 226.863281 287.898438 228.53125 279.007812 235.398438 267.902344 C 237.917969 271.007812 240.632812 274.023438 243.472656 276.863281 C 246.308594 279.71875 249.34375 282.398438 252.449219 284.917969 C 241.34375 291.800781 232.4375 293.46875 229.652344 290.683594 Z M 260.167969 240.808594 C 263.519531 243.417969 266.960938 246.398438 270.441406 249.875 C 273.917969 253.371094 276.949219 256.8125 279.558594 260.167969 C 276.949219 263.519531 273.917969 266.960938 270.441406 270.457031 C 266.960938 273.933594 263.519531 276.949219 260.167969 279.558594 C 256.8125 276.949219 253.371094 273.933594 249.894531 270.457031 C 246.417969 266.960938 243.382812 263.519531 240.773438 260.167969 C 243.382812 256.8125 246.417969 253.371094 249.894531 249.875 C 253.371094 246.398438 256.8125 243.417969 260.167969 240.808594 Z M 229.652344 229.652344 C 230.503906 228.800781 231.9375 228.355469 233.820312 228.355469 C 238.078125 228.355469 244.730469 230.679688 252.414062 235.417969 C 249.308594 237.9375 246.292969 240.632812 243.472656 243.472656 C 240.632812 246.308594 237.917969 249.328125 235.398438 252.429688 C 228.53125 241.324219 226.863281 232.4375 229.652344 229.652344 Z M 297.105469 223.226562 C 289.371094 215.492188 274.539062 219.980469 260.167969 229.652344 C 245.796875 219.980469 230.964844 215.492188 223.226562 223.226562 C 215.511719 230.964844 220 245.796875 229.667969 260.167969 C 220 274.539062 215.511719 289.371094 223.226562 297.105469 C 225.960938 299.820312 229.5625 301.042969 233.714844 301.042969 C 241.359375 301.042969 250.871094 296.945312 260.167969 290.683594 C 269.464844 296.945312 278.972656 301.042969 286.621094 301.042969 C 290.773438 301.042969 294.375 299.820312 297.105469 297.105469 C 304.824219 289.371094 300.335938 274.539062 290.664062 260.167969 C 300.335938 245.796875 304.824219 230.964844 297.105469 223.226562 " fill-opacity="1" fill-rule="nonzero"/><path fill="#83B645" d="M 260.167969 264.707031 C 262.667969 264.707031 264.707031 262.667969 264.707031 260.167969 C 264.707031 257.664062 262.667969 255.625 260.167969 255.625 C 257.664062 255.625 255.625 257.664062 255.625 260.167969 C 255.625 262.667969 257.664062 264.707031 260.167969 264.707031 " fill-opacity="1" fill-rule="nonzero"/><g clip-path="url(#f3a17a0d93)"><path fill="#83B645" d="M 260.167969 319.210938 C 227.609375 319.210938 201.121094 292.722656 201.121094 260.167969 C 201.121094 227.609375 227.609375 201.121094 260.167969 201.121094 C 292.722656 201.121094 319.210938 227.609375 319.210938 260.167969 C 319.210938 292.722656 292.722656 319.210938 260.167969 319.210938 Z M 173.871094 264.707031 C 138.8125 264.707031 110.28125 236.179688 110.28125 201.121094 C 110.28125 166.0625 138.8125 137.535156 173.871094 137.535156 C 175.164062 137.535156 176.566406 137.675781 177.933594 137.765625 C 179.121094 141.066406 180.46875 144.277344 182.121094 147.308594 C 179.40625 146.882812 176.65625 146.617188 173.871094 146.617188 C 143.816406 146.617188 119.367188 171.066406 119.367188 201.121094 C 119.367188 231.175781 143.816406 255.625 173.871094 255.625 C 180.257812 255.625 186.554688 254.402344 192.550781 252.199219 C 192.234375 254.828125 192.039062 257.46875 192.039062 260.167969 C 192.039062 260.753906 192.109375 261.339844 192.125 261.921875 C 186.128906 263.734375 180.007812 264.707031 173.871094 264.707031 Z M 119.367188 267.371094 L 107.621094 255.625 L 117.007812 246.238281 C 120.464844 250.585938 124.40625 254.523438 128.75 257.984375 Z M 80.917969 314.902344 C 78.132812 317.6875 74.445312 319.210938 70.503906 319.210938 C 62.378906 319.210938 55.777344 312.613281 55.777344 304.488281 C 55.777344 300.546875 57.304688 296.859375 60.089844 294.070312 L 96.65625 257.503906 L 117.484375 278.335938 Z M 95.664062 155.703125 L 93.445312 146.847656 L 92.523438 144.417969 L 87.34375 142.308594 L 77.546875 148.195312 L 63.285156 133.949219 L 69.175781 124.140625 L 66.902344 118.601562 L 55.777344 115.816406 L 55.777344 95.664062 L 66.886719 92.878906 L 69.175781 87.34375 L 63.285156 77.53125 L 77.546875 63.285156 L 87.34375 69.175781 L 92.878906 66.921875 L 95.664062 55.777344 L 115.816406 55.777344 L 118.035156 64.632812 L 118.957031 67.0625 L 124.140625 69.175781 L 133.949219 63.285156 L 148.195312 77.53125 L 142.308594 87.34375 L 144.59375 92.878906 L 155.703125 95.664062 L 155.703125 115.816406 L 146.847656 118.035156 L 144.417969 118.957031 L 142.289062 124.191406 L 148 133.292969 C 135.847656 137.941406 125.257812 145.714844 117.238281 155.703125 Z M 242 55.777344 C 274.554688 55.777344 301.042969 82.269531 301.042969 114.824219 C 301.042969 147.382812 274.554688 173.871094 242 173.871094 C 209.441406 173.871094 182.953125 147.382812 182.953125 114.824219 C 182.953125 82.269531 209.441406 55.777344 242 55.777344 Z M 228.320312 199.96875 C 228.195312 193.242188 226.847656 186.695312 224.328125 180.539062 C 227.644531 181.445312 231.035156 182.136719 234.53125 182.527344 C 235.894531 187 236.78125 191.539062 237.136719 196.136719 C 234.105469 197.21875 231.140625 198.476562 228.320312 199.96875 Z M 194.734375 241.324219 C 188.277344 244.695312 181.125 246.542969 173.871094 246.542969 C 148.816406 246.542969 128.449219 226.171875 128.449219 201.121094 C 128.449219 176.070312 148.816406 155.703125 173.871094 155.703125 C 179.386719 155.703125 184.800781 156.730469 189.960938 158.699219 C 195.851562 165.691406 203.125 171.421875 211.359375 175.589844 C 216.539062 183.167969 219.289062 191.964844 219.289062 201.121094 C 219.289062 202.648438 219.148438 204.28125 218.953125 206.054688 C 207.472656 214.816406 198.851562 227.113281 194.734375 241.324219 Z M 260.167969 192.039062 C 255.324219 192.039062 250.621094 192.550781 246.0625 193.527344 C 245.691406 189.925781 245.015625 186.378906 244.09375 182.847656 C 280.675781 181.730469 310.128906 151.691406 310.128906 114.824219 C 310.128906 77.246094 279.558594 46.695312 242 46.695312 C 204.4375 46.695312 173.871094 77.246094 173.871094 114.824219 C 173.871094 119.507812 174.347656 124.066406 175.253906 128.484375 C 174.792969 128.484375 174.332031 128.449219 173.871094 128.449219 C 168.050781 128.449219 162.410156 129.214844 156.980469 130.507812 L 153.910156 125.628906 L 164.785156 122.914062 L 164.785156 88.566406 L 153.820312 85.832031 L 159.640625 76.128906 L 135.351562 51.859375 L 125.648438 57.660156 L 122.914062 46.695312 L 88.566406 46.695312 L 85.832031 57.660156 L 76.128906 51.859375 L 51.839844 76.128906 L 57.660156 85.832031 L 46.695312 88.566406 L 46.695312 122.914062 L 57.660156 125.648438 L 51.839844 135.351562 L 76.128906 159.621094 L 85.832031 153.820312 L 88.566406 164.785156 L 111.027344 164.785156 C 104.816406 175.484375 101.199219 187.886719 101.199219 201.121094 C 101.199219 214.871094 105.101562 227.664062 111.753906 238.644531 L 101.199219 249.203125 L 96.65625 244.660156 L 53.667969 287.648438 C 49.179688 292.136719 46.695312 298.117188 46.695312 304.488281 C 46.695312 317.617188 57.375 328.296875 70.503906 328.296875 C 76.855469 328.296875 82.835938 325.8125 87.34375 321.324219 L 130.332031 278.335938 L 125.789062 273.792969 L 136.34375 263.238281 C 147.308594 269.890625 160.121094 273.792969 173.871094 273.792969 C 180.292969 273.792969 186.714844 272.886719 193.011719 271.148438 C 198.28125 303.492188 226.351562 328.296875 260.167969 328.296875 C 297.726562 328.296875 328.296875 297.726562 328.296875 260.167969 C 328.296875 222.589844 297.726562 192.039062 260.167969 192.039062 " fill-opacity="1" fill-rule="nonzero"/></g><path fill="#83B645" d="M 155.703125 205.664062 L 164.785156 205.664062 L 164.785156 196.578125 L 155.703125 196.578125 L 155.703125 205.664062 " fill-opacity="1" fill-rule="nonzero"/><path fill="#83B645" d="M 137.535156 205.664062 L 146.617188 205.664062 L 146.617188 196.578125 L 137.535156 196.578125 L 137.535156 205.664062 " fill-opacity="1" fill-rule="nonzero"/><path fill="#83B645" d="M 192.039062 205.664062 L 201.121094 205.664062 L 201.121094 196.578125 L 192.039062 196.578125 L 192.039062 205.664062 " fill-opacity="1" fill-rule="nonzero"/><path fill="#83B645" d="M 173.871094 205.664062 L 182.953125 205.664062 L 182.953125 196.578125 L 173.871094 196.578125 L 173.871094 205.664062 " fill-opacity="1" fill-rule="nonzero"/><path fill="#83B645" d="M 97.988281 283.425781 L 104.410156 277.003906 L 97.988281 270.582031 L 91.5625 277.003906 L 97.988281 283.425781 " fill-opacity="1" fill-rule="nonzero"/><path fill="#83B645" d="M 66.191406 302.375 L 72.617188 308.796875 L 78.71875 302.695312 L 72.296875 296.273438 L 66.191406 302.375 " fill-opacity="1" fill-rule="nonzero"/><path fill="#83B645" d="M 78.71875 289.847656 L 85.140625 296.273438 L 91.5625 289.847656 L 85.140625 283.425781 L 78.71875 289.847656 " fill-opacity="1" fill-rule="nonzero"/></svg>