<svg width="48" height="56" viewBox="0 0 48 56" fill="none" xmlns="http://www.w3.org/2000/svg">
<path d="M37.9569 4.48003C38.4739 4.48003 38.8185 4.04926 38.8185 3.6185V1.72311C38.8185 1.3785 38.56 1.03388 38.3015 0.947726C38.1292 0.861572 38.0431 0.861572 37.9569 0.861572C37.44 0.861572 37.0954 1.29234 37.0954 1.72311V3.6185C37.0954 3.70465 37.0954 3.87696 37.1816 3.96311C37.2677 4.30773 37.5262 4.48003 37.9569 4.48003Z" fill="white"/>
<path d="M31.84 5.16924C31.9261 5.25539 31.9261 5.34155 32.0123 5.4277H32.0984C32.1846 5.51385 32.2707 5.51385 32.3569 5.60001H32.5292H32.7015C32.7877 5.60001 32.96 5.60001 33.0461 5.51385C33.1323 5.4277 33.2184 5.4277 33.3046 5.34154L33.3907 5.25539C33.3907 5.16924 33.4769 5.16924 33.4769 5.08308C33.5631 4.91078 33.5631 4.65231 33.4769 4.39385L32.7015 2.58462C32.6154 2.41231 32.5292 2.32616 32.3569 2.15385C32.0984 1.98155 31.84 1.98155 31.5815 2.0677C31.1507 2.24001 30.8923 2.75693 31.0646 3.1877L31.84 5.16924Z" fill="white"/>
<path d="M42.523 5.42777C42.6092 5.51392 42.6954 5.60007 42.7815 5.60007C42.8677 5.68623 43.04 5.68623 43.1261 5.68623C43.2123 5.68623 43.2984 5.68623 43.3846 5.60007H43.4707C43.5569 5.60007 43.643 5.51392 43.7292 5.42777C43.7292 5.42777 43.8154 5.42777 43.8154 5.34161C43.9015 5.25546 43.9015 5.1693 43.9877 5.1693C43.9877 5.1693 43.9877 5.08315 44.0738 5.08315L44.8492 3.27392C45.0215 2.84315 44.8492 2.32623 44.4184 2.15392C43.9877 1.98161 43.4707 2.15392 43.2984 2.58469L42.523 4.39392C42.2646 4.82469 42.3507 5.1693 42.523 5.42777Z" fill="white"/>
<path d="M15.6431 39.1139L18.8308 44.3693L22.0185 41.1816L17.7108 36.8739L15.6431 39.1139Z" fill="white"/>
<path d="M27.8769 35.237V33.4277C24.7754 35.4093 21.5877 35.4093 18.5723 33.4277V35.237L23.2246 39.9754L27.8769 35.237Z" fill="white"/>
<path d="M26.5846 17.1447C24.4308 18.8677 21.3292 19.2123 18.8308 18.0062C18.0554 19.557 16.3323 22.4 14.0062 23.0031C14.3508 25.3293 15.5569 28 17.3662 30.0677C24 37.6493 31.7539 30.1539 32.6154 22.8308C30.2031 21.8831 27.7908 19.1262 26.5846 17.1447Z" fill="white"/>
<path d="M30.8923 39.1139L28.7384 36.8739L24.5169 41.1816L27.6184 44.3693L30.8923 39.1139Z" fill="white"/>
<path d="M17.5384 16.4555C17.7107 15.9386 18.4 15.7662 18.8307 16.0247C21.2431 17.5755 24.3446 17.0586 26.1538 15.077C26.5846 14.6462 27.36 14.7324 27.6184 15.3355C28.3938 17.1447 30.72 19.8155 32.6154 20.9355V16.2832C32.6154 9.47701 23.1384 9.90778 23.0523 9.90778C17.3661 9.90778 13.403 13.6124 13.92 21.1939C15.643 20.4186 17.1077 17.5755 17.5384 16.4555Z" fill="white"/>
<path d="M34.5969 32.9108C34.5969 33.8585 35.3723 34.6339 36.32 34.6339H39.5077C40.4554 34.6339 41.2307 33.8585 41.2307 32.9108V32.7385H34.5107V32.9108H34.5969Z" fill="white"/>
<path d="M40.0246 42.4738L32.3569 40.0615L28.5661 46.1784C28.3077 46.6092 27.6185 46.7815 27.1877 46.3508L23.2246 42.4738L19.2615 46.3508C18.8308 46.7815 18.2277 46.6092 17.8831 46.1784L14.0923 40.0615L6.33845 42.4738C3.92615 43.4215 2.03076 45.6615 1.51384 48.4184L0.135376 55.1384H46.4L44.9354 48.5046C44.4185 45.6615 42.6092 43.4215 40.0246 42.4738ZM24.0861 52.7261H22.3631V51.0031H24.0861V52.7261ZM24.0861 48.6769H22.3631V46.9538H24.0861V48.6769Z" fill="white"/>
<path d="M31.4092 10.4247C33.3046 11.8893 34.3385 13.8708 34.3385 16.3693C34.1662 19.7293 35.0277 22.8308 33.0462 27.3108C33.8215 28.3447 34.3385 29.637 34.5108 31.0155H37.0092C37.0092 20.9355 37.0092 20.9355 37.0092 20.9355C37.0092 20.8493 37.0954 20.5908 37.0954 20.5047C37.2677 20.0739 38.0431 19.9878 38.3015 20.2462L40.0246 21.2801L41.7477 20.2462C42.1785 19.9878 42.6954 20.1601 42.9539 20.5047C43.2123 20.9355 43.04 21.4524 42.6954 21.7108L40.5416 23.0031C40.2831 23.1755 39.9385 23.1755 39.68 23.0031L38.8185 22.4862V31.0155H41.3169C41.5754 29.0339 42.5231 27.1385 44.0739 25.9324C46.4862 24.037 47.8646 21.1939 47.8646 18.0924C47.8646 15.3355 46.7446 12.837 44.7631 10.8555C42.7815 8.96007 40.1969 8.01238 37.44 8.09853C35.2862 8.09853 33.1323 8.96007 31.4092 10.4247Z" fill="white"/>
</svg>
