<svg width="150" height="150" viewBox="0 0 150 150" fill="none" xmlns="http://www.w3.org/2000/svg">
<path d="M71.4008 21.648V21.0996C71.4008 20.9637 71.3758 20.8355 71.3242 20.7105C71.2727 20.5855 71.1992 20.4762 71.1039 20.3809C71.0086 20.2855 70.8992 20.2121 70.7742 20.1605C70.6508 20.109 70.5211 20.084 70.3867 20.084C70.2508 20.084 70.1227 20.109 69.9977 20.1605C69.8727 20.2121 69.7633 20.2855 69.668 20.3809C69.5727 20.4762 69.4992 20.5855 69.4477 20.7105C69.3961 20.8355 69.3711 20.9637 69.3711 21.0996V21.648C69.3711 21.7824 69.3961 21.9121 69.4477 22.0371C69.4992 22.1605 69.5727 22.2715 69.668 22.3668C69.7633 22.4605 69.8727 22.534 69.9977 22.5855C70.1227 22.6371 70.2508 22.6637 70.3867 22.6637C70.5211 22.6637 70.6508 22.6371 70.7742 22.5855C70.8992 22.534 71.0086 22.4605 71.1039 22.3668C71.1992 22.2715 71.2727 22.1605 71.3242 22.0371C71.3758 21.9121 71.4008 21.7824 71.4008 21.648Z" fill="#83B645"/>
<path d="M70.3868 42.4814C70.2509 42.4814 70.1212 42.508 69.9962 42.5596C69.8712 42.6111 69.7602 42.6861 69.6649 42.7814C69.5696 42.8783 69.4977 42.9877 69.4462 43.1143C69.3946 43.2393 69.3696 43.3689 69.3712 43.5049V44.0533C69.3712 44.1877 69.3962 44.3174 69.4477 44.4424C69.4993 44.5658 69.5727 44.6768 69.668 44.7721C69.7634 44.8674 69.8727 44.9408 69.9977 44.9924C70.1227 45.0424 70.2509 45.0689 70.3868 45.0689C70.5212 45.0689 70.6509 45.0424 70.7743 44.9924C70.8993 44.9408 71.0087 44.8674 71.104 44.7721C71.1993 44.6768 71.2727 44.5658 71.3243 44.4424C71.3759 44.3174 71.4009 44.1877 71.4009 44.0533V43.5049C71.404 43.3689 71.379 43.2377 71.329 43.1127C71.2774 42.9861 71.204 42.8752 71.1087 42.7799C71.0134 42.683 70.9024 42.6096 70.7774 42.558C70.6524 42.5064 70.5212 42.4814 70.3868 42.4814Z" fill="#83B645"/>
<path d="M81.3086 31.5527C81.1742 31.5527 81.0445 31.5793 80.9195 31.6309C80.7945 31.6824 80.6852 31.7559 80.5898 31.8512C80.4945 31.9465 80.4211 32.0559 80.3695 32.1793C80.318 32.3043 80.293 32.434 80.293 32.5684C80.293 32.7027 80.318 32.8324 80.3695 32.9574C80.4211 33.0809 80.4945 33.1918 80.5898 33.2871C80.6852 33.3824 80.7945 33.4543 80.9195 33.5059C81.0445 33.5574 81.1742 33.584 81.3086 33.584H81.8648C81.9992 33.584 82.1289 33.5574 82.2539 33.5059C82.3773 33.4543 82.4867 33.3824 82.582 33.2871C82.6773 33.1918 82.7508 33.0809 82.8023 32.9574C82.8539 32.8324 82.8805 32.7027 82.8805 32.5684C82.8805 32.434 82.8539 32.3043 82.8023 32.1793C82.7508 32.0559 82.6773 31.9465 82.582 31.8512C82.4867 31.7559 82.3773 31.6824 82.2539 31.6309C82.1289 31.5793 81.9992 31.5527 81.8648 31.5527H81.3086Z" fill="#83B645"/>
<path d="M58.918 31.5527C58.7836 31.5527 58.6539 31.5793 58.5305 31.6309C58.4055 31.6824 58.2961 31.7559 58.2008 31.8512C58.1055 31.9465 58.032 32.0559 57.9805 32.1793C57.9289 32.3043 57.9023 32.434 57.9023 32.5684C57.9023 32.7027 57.9289 32.8324 57.9805 32.9574C58.032 33.0809 58.1055 33.1918 58.2008 33.2871C58.2961 33.3824 58.4055 33.4543 58.5305 33.5059C58.6539 33.5574 58.7836 33.584 58.918 33.584H59.468C59.6023 33.584 59.732 33.5574 59.8555 33.5059C59.9805 33.4543 60.0898 33.3824 60.1852 33.2871C60.2805 33.1918 60.3539 33.0809 60.4055 32.9574C60.457 32.8324 60.482 32.7027 60.482 32.5684C60.482 32.434 60.457 32.3043 60.4055 32.1793C60.3539 32.0559 60.2805 31.9465 60.1852 31.8512C60.0898 31.7559 59.9805 31.6824 59.8555 31.6309C59.732 31.5793 59.6023 31.5527 59.468 31.5527H58.918Z" fill="#83B645"/>
<path d="M85.3228 27.1466C85.2775 27.0184 85.2103 26.9044 85.1197 26.8044C85.0291 26.7044 84.9228 26.6263 84.7994 26.5684C84.6775 26.5122 84.5494 26.4809 84.4134 26.4747C84.2791 26.4684 84.1478 26.4903 84.0213 26.5372C83.8947 26.5825 83.7822 26.6513 83.6822 26.7419C83.5822 26.8325 83.5041 26.9388 83.4478 27.0606C83.39 27.1825 83.3588 27.3122 83.3525 27.4466C83.3463 27.5809 83.3666 27.7106 83.4119 27.8372C83.9728 29.3653 84.2509 30.9419 84.2478 32.5684C84.2478 32.8341 84.24 33.1013 84.2259 33.3669C84.2103 33.6325 84.1869 33.8981 84.1572 34.1622C84.1275 34.4263 84.0884 34.6903 84.0431 34.9513C83.9978 35.2138 83.9447 35.4747 83.8853 35.7341C83.8244 35.9934 83.7556 36.2513 83.6806 36.5059C83.6056 36.7606 83.5228 37.0138 83.4338 37.2653C83.3431 37.5153 83.2463 37.7638 83.1416 38.0075C83.0384 38.2528 82.9275 38.495 82.8088 38.7341C82.6916 38.9716 82.5666 39.2075 82.4338 39.4388C82.3025 39.67 82.165 39.8966 82.0197 40.12C81.8759 40.3434 81.7244 40.5622 81.5666 40.7778C81.4103 40.9919 81.2463 41.2028 81.0775 41.4075C80.9072 41.6138 80.7322 41.8138 80.5509 42.0091C80.3713 42.2044 80.1838 42.3934 79.9931 42.5778C79.8009 42.7622 79.6041 42.9419 79.4009 43.1153C79.1994 43.2888 78.9916 43.4559 78.7806 43.6169C78.5681 43.7778 78.3525 43.9325 78.1322 44.0809C77.9119 44.2309 77.6869 44.3731 77.4572 44.5091C77.2291 44.645 76.9963 44.7731 76.7603 44.8966C76.5228 45.0184 76.2838 45.1341 76.04 45.2434C75.7978 45.3513 75.5509 45.4528 75.3025 45.5481C75.0541 45.6419 74.8025 45.7294 74.5494 45.8091C74.2947 45.8888 74.0384 45.9622 73.7806 46.0278C73.5228 46.0919 73.2634 46.1497 73.0025 46.2013C72.74 46.2513 72.4775 46.2934 72.2134 46.3294C71.9494 46.3638 71.6853 46.3919 71.4197 46.4122C71.1541 46.4325 70.8884 46.445 70.6228 46.4497C70.3572 46.4544 70.09 46.4513 69.8244 46.4403C69.5588 46.4294 69.2931 46.4106 69.0275 46.3856C68.7634 46.3591 68.4994 46.3263 68.2369 46.2841C67.9728 46.2434 67.7119 46.195 67.4509 46.1388C67.1916 46.0825 66.9338 46.0184 66.6759 45.9481C66.4197 45.8763 66.165 45.7981 65.9134 45.7122C65.6619 45.6263 65.4119 45.5341 65.165 45.4341C64.9197 45.3341 64.6759 45.2263 64.4353 45.1122C64.1947 44.9981 63.9572 44.8778 63.7244 44.7497C63.49 44.6231 63.2603 44.4888 63.0353 44.3466C62.8088 44.2059 62.5869 44.0591 62.3697 43.9044C62.1525 43.7513 61.94 43.5919 61.7322 43.4263C61.5244 43.2591 61.3213 43.0872 61.1228 42.9106C60.9244 42.7325 60.7322 42.5497 60.5431 42.3606C60.3556 42.1716 60.1744 41.9778 59.9978 41.7778C59.8213 41.5794 59.6509 41.3747 59.4853 41.1653C59.3213 40.9575 59.1619 40.7434 59.0103 40.5247C58.8572 40.3075 58.7119 40.0841 58.5713 39.8575C58.4322 39.6309 58.2994 39.4013 58.1728 39.1669C58.0463 38.9325 57.9275 38.695 57.8134 38.4528C57.7009 38.2122 57.5963 37.9684 57.4978 37.7216C57.3978 37.4731 57.3072 37.2231 57.2228 36.9716C57.1384 36.7184 57.0619 36.4638 56.9916 36.2075C56.9228 35.9497 56.8603 35.6919 56.8056 35.4309C56.7509 35.17 56.7041 34.9091 56.665 34.645C56.6244 34.3825 56.5931 34.1184 56.5681 33.8528C56.5447 33.5872 56.5275 33.3216 56.5181 33.0559C56.5088 32.7903 56.5072 32.5247 56.5134 32.2575C56.5197 31.9919 56.5338 31.7263 56.5556 31.4606C56.5775 31.195 56.6056 30.9309 56.6431 30.6669C56.6791 30.4044 56.7244 30.1419 56.7759 29.8809C56.8275 29.62 56.8869 29.3606 56.9541 29.1028C57.0213 28.845 57.0947 28.5888 57.1759 28.3356C57.2572 28.0825 57.3463 27.8309 57.4431 27.5825C57.5384 27.3356 57.6416 27.0903 57.7509 26.8466C57.8619 26.6044 57.9791 26.3653 58.1025 26.1309C58.2259 25.895 58.3572 25.6622 58.4947 25.4341C58.6306 25.2059 58.7744 24.9825 58.9244 24.7622C59.0744 24.5434 59.2306 24.3278 59.3931 24.1169C59.5556 23.9059 59.7244 23.6997 59.8994 23.4981C60.0728 23.2981 60.2541 23.1013 60.4384 22.9106C60.6244 22.72 60.815 22.5356 61.0119 22.3544C61.2088 22.1747 61.4088 22.0013 61.615 21.8325C61.8213 21.6653 62.0338 21.5028 62.2494 21.3466C62.465 21.1903 62.6838 21.0403 62.9088 20.8981C63.1322 20.7544 63.3603 20.6169 63.5931 20.4872C63.8259 20.3575 64.0603 20.2341 64.3009 20.1169C64.54 19.9997 64.7822 19.8903 65.0275 19.7872C65.2728 19.6856 65.5213 19.5903 65.7728 19.5013C66.0228 19.4122 66.2775 19.3309 66.5322 19.2575C66.7884 19.1841 67.0463 19.1169 67.3056 19.0591C67.565 18.9997 67.8259 18.9481 68.0884 18.9044C68.3509 18.8606 68.615 18.8231 68.8791 18.795C69.1447 18.7669 69.4088 18.745 69.6744 18.7309C69.9416 18.7184 70.2072 18.7122 70.4728 18.7138C70.74 18.7153 71.0056 18.7247 71.2713 18.7419C71.5369 18.7591 71.8009 18.7841 72.065 18.8169C72.3291 18.8497 72.5931 18.8888 72.8541 18.9372C73.1166 18.9841 73.3775 19.0388 73.6353 19.1013C73.8947 19.1638 74.1509 19.2341 74.4056 19.3106C74.6603 19.3888 74.9134 19.4731 75.1634 19.5653C75.4119 19.6575 75.6603 19.7559 75.9041 19.8622C76.1478 19.9684 76.3884 20.0809 76.6259 20.2013C76.8634 20.32 77.0978 20.4466 77.3291 20.5809C77.5588 20.7138 77.7853 20.8544 78.0072 20.9997C78.2291 21.1466 78.4478 21.2997 78.6603 21.4591C78.8744 21.6169 79.0838 21.7825 79.2869 21.9528C79.4916 22.1247 79.69 22.3013 79.8838 22.4841C80.0775 22.6653 80.2666 22.8544 80.4494 23.0466L70.4244 31.2294L67.34 28.4091C67.2509 28.3263 67.1494 28.2622 67.0369 28.2169C66.9244 28.1716 66.8072 28.1466 66.6853 28.1434C66.5634 28.1388 66.4463 28.1575 66.3306 28.1966C66.215 28.2356 66.1103 28.295 66.0166 28.3716C65.9213 28.4481 65.8431 28.5403 65.7806 28.645C65.7197 28.7497 65.6775 28.8622 65.6556 28.9825C65.6353 29.1028 65.6353 29.2231 65.6572 29.3434C65.6791 29.4638 65.7213 29.5763 65.7838 29.6809L69.5447 35.9309C69.7166 36.2153 69.9666 36.3778 70.2963 36.42H70.4166C70.7119 36.4278 70.9634 36.3247 71.1681 36.1106L85.2244 21.8216C85.3244 21.7309 85.4025 21.6247 85.4603 21.5013C85.5181 21.3794 85.5494 21.2513 85.5556 21.1169C85.5619 20.9825 85.5431 20.8513 85.4963 20.7247C85.4509 20.5981 85.3838 20.4856 85.2916 20.3856C85.2009 20.2856 85.0947 20.2075 84.9728 20.1497C84.8509 20.0919 84.7228 20.0606 84.5884 20.0544C84.4541 20.0481 84.3228 20.0669 84.1963 20.1122C84.0697 20.1575 83.9556 20.2263 83.8556 20.3169L82.0806 21.7684C81.8619 21.5325 81.6338 21.3044 81.3994 21.0825C81.165 20.8606 80.9244 20.6466 80.6775 20.4388C80.4306 20.2325 80.1759 20.0325 79.9166 19.8403C79.6572 19.6497 79.3916 19.4653 79.1213 19.2903C78.8509 19.1153 78.5744 18.9481 78.2931 18.7903C78.0119 18.6325 77.7275 18.4825 77.4369 18.3419C77.1463 18.2013 76.8525 18.0684 76.5541 17.9466C76.2556 17.8231 75.9541 17.7091 75.6494 17.6044C75.3431 17.5013 75.0353 17.4059 74.7244 17.32C74.4134 17.2341 74.0994 17.1591 73.7838 17.0934C73.4681 17.0263 73.1509 16.97 72.8322 16.9231C72.5119 16.8763 72.1916 16.8388 71.8713 16.8122C71.5494 16.7856 71.2275 16.7669 70.9056 16.7606C70.5822 16.7528 70.2603 16.7544 69.9369 16.7669C69.615 16.7794 69.2931 16.8013 68.9728 16.8341C68.6509 16.8653 68.3322 16.9075 68.0134 16.9591C67.6947 17.0106 67.3791 17.0716 67.0634 17.1434C66.7494 17.2138 66.4369 17.295 66.1275 17.3841C65.8166 17.4747 65.5103 17.5747 65.2072 17.6841C64.9041 17.7919 64.6041 17.9106 64.3072 18.0372C64.0103 18.1653 63.7181 18.3013 63.4306 18.4466C63.1416 18.5919 62.8588 18.745 62.5806 18.9075C62.3009 19.07 62.0275 19.2419 61.7603 19.4216C61.4916 19.5997 61.2291 19.7872 60.9728 19.9825C60.7166 20.1778 60.465 20.3809 60.2213 20.5919C59.9775 20.8028 59.74 21.0216 59.5088 21.2466C59.2775 21.4716 59.0541 21.7044 58.8369 21.9434C58.6213 22.1825 58.4119 22.4278 58.2103 22.6794C58.0088 22.9309 57.815 23.1888 57.6291 23.4528C57.4431 23.7153 57.265 23.9856 57.0963 24.2591C56.9275 24.5341 56.7666 24.8138 56.6134 25.0981C56.4619 25.3825 56.3181 25.6716 56.1838 25.9653C56.0494 26.2575 55.9244 26.5544 55.8072 26.8559C55.6916 27.1575 55.5838 27.4606 55.4869 27.7684C55.3884 28.0763 55.3009 28.3856 55.2228 28.6981C55.1431 29.0122 55.0744 29.3263 55.015 29.6434C54.9556 29.9606 54.9056 30.2794 54.8666 30.5997C54.8259 30.92 54.7963 31.2403 54.7759 31.5622C54.7556 31.8841 54.7463 32.2075 54.7463 32.5294C54.7447 32.8528 54.7541 33.1747 54.7744 33.4966C54.7931 33.8184 54.8228 34.1403 54.8619 34.4591C54.9009 34.7794 54.9494 35.0981 55.0072 35.4153C55.0666 35.7325 55.1353 36.0481 55.2119 36.3622C55.29 36.6747 55.3775 36.9856 55.4744 37.2919C55.5713 37.5997 55.6775 37.9044 55.7931 38.2059C55.9088 38.5075 56.0338 38.8044 56.1666 39.0981C56.3009 39.3919 56.4431 39.6809 56.5947 39.9653C56.7463 40.2497 56.9056 40.5309 57.0744 40.8059C57.2431 41.0809 57.4197 41.3497 57.6056 41.6138C57.79 41.8778 57.9838 42.1372 58.1853 42.3888C58.3853 42.6419 58.5947 42.8872 58.8103 43.1263C59.0259 43.3669 59.2494 43.5997 59.4791 43.8247C59.7103 44.0513 59.9463 44.27 60.19 44.4809C60.4338 44.6919 60.6838 44.8966 60.94 45.0919C61.1963 45.2888 61.4588 45.4763 61.7259 45.6559C61.9947 45.8356 62.2666 46.0075 62.5447 46.1716C62.8228 46.3341 63.1056 46.4888 63.3947 46.6356C63.6822 46.7809 63.9744 46.9184 64.2697 47.0466C64.565 47.1747 64.865 47.2934 65.1681 47.4028C65.4728 47.5122 65.7791 47.6122 66.0884 47.7028C66.3978 47.795 66.7103 47.8763 67.0244 47.9481C67.3384 48.02 67.6556 48.0809 67.9728 48.1341C68.2916 48.1856 68.6119 48.2294 68.9322 48.2622C69.2525 48.295 69.5744 48.3169 69.8978 48.3309C70.2197 48.3434 70.5416 48.3466 70.865 48.3403C71.1869 48.3341 71.5088 48.3169 71.8306 48.2903C72.1525 48.2653 72.4728 48.2278 72.7916 48.1825C73.1103 48.1372 73.4291 48.0809 73.7447 48.0153C74.0603 47.9497 74.3744 47.8747 74.6853 47.7903C74.9963 47.7059 75.3041 47.6106 75.6103 47.5075C75.9166 47.4044 76.2181 47.2919 76.5166 47.17C76.815 47.0466 77.1103 46.9153 77.4009 46.7763C77.6916 46.6356 77.9775 46.4872 78.2588 46.3294C78.54 46.1716 78.8166 46.0059 79.0869 45.8309C79.3588 45.6559 79.6244 45.4731 79.8838 45.2825C80.1447 45.0919 80.3978 44.8934 80.6463 44.6872C80.8947 44.4809 81.1353 44.2669 81.3697 44.045C81.6056 43.8247 81.8322 43.5966 82.0541 43.3606C82.2744 43.1263 82.4884 42.8841 82.6931 42.6356C82.8994 42.3872 83.0978 42.1325 83.2884 41.8731C83.4791 41.6122 83.6619 41.3466 83.8353 41.0747C84.0088 40.8028 84.1744 40.5263 84.3322 40.245C84.49 39.9638 84.6384 39.6763 84.7775 39.3856C84.9166 39.095 85.0478 38.7997 85.1697 38.5013C85.2916 38.2028 85.4025 37.9013 85.5056 37.595C85.6088 37.2888 85.7025 36.9809 85.7869 36.6684C85.8713 36.3575 85.9463 36.0434 86.0103 35.7278C86.0759 35.4122 86.1306 35.095 86.1759 34.7747C86.2213 34.4559 86.2572 34.1356 86.2822 33.8138C86.3088 33.4919 86.3244 33.17 86.3306 32.8481C86.3369 32.5247 86.3338 32.2028 86.3197 31.8809C86.3056 31.5575 86.2822 31.2356 86.2494 30.9153C86.215 30.595 86.1728 30.2747 86.1197 29.9575C86.0666 29.6388 86.0041 29.3216 85.9306 29.0075C85.8588 28.6934 85.7775 28.3809 85.6853 28.0716C85.5947 27.7638 85.4931 27.4559 85.3838 27.1528L85.3228 27.1466Z" fill="#83B645"/>
<mask id="mask0_449_12" style="mask-type:luminance" maskUnits="userSpaceOnUse" x="104" y="56" width="31" height="31">
<path d="M104.021 56.3613H134.321V86.6613H104.021V56.3613Z" fill="white"/>
</mask>
<g mask="url(#mask0_449_12)">
<path d="M119.15 86.6191C110.807 86.6191 104.021 79.8332 104.021 71.491C104.021 63.1488 110.807 56.3613 119.15 56.3613C127.492 56.3613 134.279 63.1488 134.279 71.491C134.279 79.8332 127.492 86.6191 119.15 86.6191Z" fill="#83B645"/>
</g>
<path d="M119.151 84.1449C112.173 84.1449 106.496 78.4668 106.496 71.4902C106.496 64.5121 112.173 58.834 119.151 58.834C126.129 58.834 131.805 64.5121 131.805 71.4902C131.805 78.4668 126.129 84.1449 119.151 84.1449Z" fill="#83B645"/>
<path d="M110.105 80.3516L109.72 79.9719C109.594 79.8423 109.477 79.7063 109.353 79.5735C109.291 79.5079 109.233 79.4391 109.177 79.3688L109.005 79.1594C108.888 79.0219 108.783 78.8735 108.675 78.7282C108.247 78.1438 107.867 77.5235 107.541 76.8735C107.219 76.2219 106.959 75.5376 106.759 74.8376C106.558 74.136 106.416 73.4173 106.334 72.6907C106.249 71.9641 106.241 71.2298 106.291 70.4985C106.341 69.7688 106.447 69.0407 106.624 68.3266C106.98 66.9048 107.58 65.5407 108.394 64.3173C109.217 63.1016 110.241 62.0219 111.419 61.1454C112.603 60.2813 113.928 59.6063 115.333 59.1954C116.036 58.9907 116.753 58.8485 117.478 58.7657C118.203 58.6829 118.933 58.6563 119.658 58.7016C120.383 58.7501 121.103 58.8579 121.808 59.0282C122.159 59.1141 122.506 59.2141 122.85 59.3282C123.191 59.4469 123.527 59.5782 123.856 59.7251L123.844 59.7532C122.511 59.2204 121.088 58.9173 119.653 58.8641C118.936 58.836 118.217 58.8719 117.505 58.9657C116.794 59.061 116.091 59.2126 115.405 59.4251C114.036 59.8563 112.744 60.5204 111.594 61.3782C110.449 62.2423 109.45 63.2985 108.652 64.4891C107.852 65.6798 107.264 67.0094 106.906 68.3985C106.727 69.0938 106.619 69.8048 106.563 70.5188C106.509 71.2344 106.505 71.9532 106.575 72.6688C106.713 74.0954 107.081 75.5032 107.691 76.8048C108.297 78.1048 109.125 79.3016 110.127 80.3298L110.105 80.3516Z" fill="#83B645"/>
<path d="M116.857 72.9543H115.868L123.03 82.1152H119.891L112.729 72.9543L112.699 72.9168V70.4809H116.857C118.204 70.4809 119.343 69.5746 119.698 68.3371H112.726L114.326 65.8637H119.296C118.763 65.0855 117.868 64.573 116.857 64.573H112.734L113.341 63.634L114.334 62.0996H125.546L123.649 64.573H121.41C121.668 64.9715 121.876 65.4043 122.023 65.8637H125.599L123.702 68.3371H122.223C122.093 69.2121 121.752 70.0199 121.255 70.7059C121.087 70.9402 120.898 71.1605 120.695 71.3652C119.712 72.3465 118.355 72.9543 116.857 72.9543Z" fill="white"/>
<mask id="mask1_449_12" style="mask-type:luminance" maskUnits="userSpaceOnUse" x="23" y="32" width="30" height="24">
<path d="M23.418 32.6768H52.818V55.1768H23.418V32.6768Z" fill="white"/>
</mask>
<g mask="url(#mask1_449_12)">
<path d="M70.525 32.6768C41.4406 32.6768 17.875 56.2627 17.875 85.3268C17.875 114.391 41.4406 137.977 70.525 137.977C99.6109 137.977 123.175 114.391 123.175 85.3268C123.175 56.2627 99.6109 32.6768 70.525 32.6768ZM70.525 134.644C43.2875 134.644 21.2078 112.564 21.2078 85.3268C21.2078 58.0893 43.2875 36.0096 70.525 36.0096C97.7625 36.0096 119.842 58.0893 119.842 85.3268C119.842 112.564 97.7625 134.644 70.525 134.644Z" fill="#83B645"/>
</g>
<mask id="mask2_449_12" style="mask-type:luminance" maskUnits="userSpaceOnUse" x="87" y="32" width="37" height="24">
<path d="M87.8438 32.6768H123.173V55.1768H87.8438V32.6768Z" fill="white"/>
</mask>
<g mask="url(#mask2_449_12)">
<path d="M70.523 32.6768C41.4387 32.6768 17.873 56.2627 17.873 85.3268C17.873 114.391 41.4387 137.977 70.523 137.977C99.609 137.977 123.173 114.391 123.173 85.3268C123.173 56.2627 99.609 32.6768 70.523 32.6768ZM70.523 134.644C43.2855 134.644 21.2059 112.564 21.2059 85.3268C21.2059 58.0893 43.2855 36.0096 70.523 36.0096C97.7605 36.0096 119.84 58.0893 119.84 85.3268C119.84 112.564 97.7605 134.644 70.523 134.644Z" fill="#83B645"/>
</g>
<mask id="mask3_449_12" style="mask-type:luminance" maskUnits="userSpaceOnUse" x="38" y="57" width="70" height="77">
<path d="M38.4004 57.7715H107.029V133.6H38.4004V57.7715Z" fill="white"/>
</mask>
<g mask="url(#mask3_449_12)">
<path d="M73.0002 57.8467C66.069 57.8936 61.8002 59.5123 59.2862 62.567C56.5471 65.8951 56.0487 70.6295 56.0143 76.2873C54.2643 76.792 54.2533 78.5232 54.2565 79.9654C54.6002 82.0264 55.919 84.2748 57.6362 85.042C58.483 87.8982 59.6112 90.8654 61.0174 93.5764C62.108 95.6811 63.344 97.6436 64.7549 99.2561L63.3252 104.223C56.894 107.148 48.9783 109.783 44.0877 112.592C42.3158 113.797 40.2658 116.436 40.2112 120.194C39.5783 124.233 39.0096 128.4 38.4252 132.487C38.3455 132.99 38.7955 133.509 39.3049 133.503H106.146C106.655 133.511 107.105 132.99 107.025 132.487L105.266 120.194C105.266 116.808 103.613 113.772 101.253 112.511C99.5315 111.65 89.8205 107.009 82.0971 104.14L80.6408 99.0639C81.983 97.4889 83.1658 95.5967 84.2127 93.5764C85.6143 90.8732 86.7487 87.9186 87.594 85.0686C87.6205 85.0686 87.6487 85.0686 87.6768 85.0686C89.7596 84.4795 90.8127 81.7826 91.194 79.9654C91.0627 77.8107 90.7158 77.0295 89.2705 76.2873C89.6502 71.4092 89.1908 67.0029 87.2908 63.6639C83.4565 59.1764 78.8815 57.9732 73.0002 57.8467ZM76.9299 69.7561C79.6658 70.7561 82.7752 71.1404 85.0096 72.967C85.8268 74.8311 86.2893 77.3592 86.4393 79.3342C86.4393 79.6904 86.6815 80.0342 87.0158 80.1576C86.2487 84.0529 84.7283 88.7654 82.6471 92.7795C81.3127 95.3545 79.7393 97.6264 78.0299 99.2279C76.319 100.829 74.5205 101.753 72.6158 101.753C70.7096 101.753 68.9112 100.829 67.2002 99.2279C65.4908 97.6264 63.9174 95.3545 62.583 92.7795C60.5096 88.7779 59.0065 84.0967 58.2408 80.2123C58.719 80.242 59.1768 79.8123 59.1752 79.3342C59.3221 77.0014 59.6565 74.9529 60.2752 73.0764C63.3377 72.8904 65.558 73.4967 68.0799 73.4607C70.5705 73.4248 73.2643 72.5904 76.9299 69.7561ZM79.2112 100.545L80.1455 103.811C77.5315 107.351 74.994 111.59 72.7252 115.089C70.0862 111.478 68.0862 107.239 65.3049 103.784L66.1846 100.683C68.0643 102.389 70.2283 103.509 72.6158 103.509C75.069 103.509 77.294 102.333 79.2112 100.545ZM64.4799 105.622L71.3502 116.187C70.4846 117.286 69.9362 118.747 69.2893 120.029C69.1252 120.356 69.1955 120.786 69.4549 121.044L70.0049 121.565L68.9049 127.575L60.4674 107.323C61.8721 106.739 63.2721 106.148 64.4799 105.622ZM80.9971 105.622C82.2862 106.094 83.658 106.629 85.0377 107.187L76.5174 127.548L75.419 121.565L75.9674 121.045C76.2283 120.786 76.2971 120.356 76.133 120.029C75.4908 118.765 74.8533 117.353 74.0987 116.215C76.7049 112.219 78.7049 109.073 80.9971 105.622ZM86.6315 107.845C88.2487 108.517 89.8299 109.201 91.3596 109.876L85.1752 119.069C84.9565 119.401 85.0049 119.883 85.2846 120.167L88.1987 123.075L80.2283 131.747H76.6549L77.0955 130.703L86.6315 107.845ZM58.8455 108.009L68.7674 131.747H65.194L57.2237 123.075L60.1377 120.167C60.4174 119.883 60.4658 119.401 60.2471 119.069L54.119 109.958C55.6799 109.314 57.283 108.654 58.8455 108.009Z" fill="#83B645"/>
</g>
<mask id="mask4_449_12" style="mask-type:luminance" maskUnits="userSpaceOnUse" x="15" y="57" width="26" height="30">
<path d="M15.7305 57.7715H40.6305V86.3996H15.7305V57.7715Z" fill="white"/>
</mask>
<g mask="url(#mask4_449_12)">
<path fill-rule="evenodd" clip-rule="evenodd" d="M34.9922 86.0695C36.2391 86.0695 37.2469 85.0617 37.2469 83.8148C37.2469 79.832 37.2469 71.7133 37.2469 68.9664C37.2469 68.3695 37.4844 67.7945 37.9078 67.3711C38.5016 66.7773 39.3734 65.9055 39.9688 65.3102C40.3906 64.8883 40.6297 64.3133 40.6297 63.7164C40.6297 62.7977 40.6297 61.3586 40.6297 60.1414C40.6297 59.5414 40.3906 58.9695 39.9688 58.5461C39.5453 58.1242 38.9734 57.8867 38.375 57.8867C33.6578 57.8867 22.7984 57.8867 18.0828 57.8867C17.4828 57.8867 16.9109 58.1242 16.4875 58.5461C16.0656 58.9695 15.8281 59.5414 15.8281 60.1414C15.8281 65.4211 15.8281 78.5352 15.8281 83.8148C15.8281 84.4133 16.0656 84.9867 16.4875 85.4086C16.9109 85.832 17.4828 86.0695 18.0828 86.0695C22.1969 86.0695 30.8766 86.0695 34.9922 86.0695Z" fill="#83B645"/>
</g>
<path fill-rule="evenodd" clip-rule="evenodd" d="M33.8664 84.9422C34.4883 84.9422 34.993 84.4391 34.993 83.8156V60.7047C34.993 60.0828 34.4883 59.5781 33.8664 59.5781H18.6461C18.0242 59.5781 17.5195 60.0828 17.5195 60.7047V83.8156C17.5195 84.4391 18.0242 84.9422 18.6461 84.9422H33.8664Z" fill="white"/>
<mask id="mask5_449_12" style="mask-type:luminance" maskUnits="userSpaceOnUse" x="15" y="57" width="18" height="33">
<path d="M15.7305 57.7715H32.7992V89.5715H15.7305V57.7715Z" fill="white"/>
</mask>
<g mask="url(#mask5_449_12)">
<path fill-rule="evenodd" clip-rule="evenodd" d="M30.2188 89.4118C30.8422 89.5368 31.4828 89.3586 31.9688 88.9258C32.4563 88.4914 32.7375 87.8493 32.7375 87.1696C32.7375 81.3164 32.7375 67.7321 32.7375 62.7321C32.7375 61.6352 32.0094 60.693 31.0031 60.4914C27.9813 59.8836 21.7422 58.6274 18.2438 57.9258C17.6219 57.8008 16.9812 57.9789 16.4953 58.4118C16.0078 58.8446 15.7266 59.4883 15.7266 60.1664C15.7266 66.0211 15.7266 79.6055 15.7266 84.6055C15.7266 85.7024 16.4547 86.6446 17.4609 86.8461C20.4828 87.4539 26.7219 88.7086 30.2188 89.4118Z" fill="#83B645"/>
</g>
</svg>
