<svg width="21" height="14" viewBox="0 0 21 14" fill="none" xmlns="http://www.w3.org/2000/svg">
<path d="M8.14032 9.99976L13.3303 6.99976L8.14032 3.99976V9.99976ZM19.7003 2.16976C19.8303 2.63976 19.9203 3.26976 19.9803 4.06976C20.0503 4.86976 20.0803 5.55976 20.0803 6.15976L20.1403 6.99976C20.1403 9.18976 19.9803 10.7998 19.7003 11.8298C19.4503 12.7298 18.8703 13.3098 17.9703 13.5598C17.5003 13.6898 16.6403 13.7798 15.3203 13.8398C14.0203 13.9098 12.8303 13.9398 11.7303 13.9398L10.1403 13.9998C5.95032 13.9998 3.34032 13.8398 2.31032 13.5598C1.41032 13.3098 0.83032 12.7298 0.58032 11.8298C0.45032 11.3598 0.36032 10.7298 0.30032 9.92976C0.23032 9.12976 0.20032 8.43976 0.20032 7.83976L0.14032 6.99976C0.14032 4.80976 0.30032 3.19976 0.58032 2.16976C0.83032 1.26976 1.41032 0.689756 2.31032 0.439756C2.78032 0.309756 3.64032 0.219756 4.96032 0.159756C6.26032 0.0897557 7.45032 0.0597558 8.55032 0.0597558L10.1403 -0.000244141C14.3303 -0.000244141 16.9403 0.159756 17.9703 0.439756C18.8703 0.689756 19.4503 1.26976 19.7003 2.16976Z" fill="#234930"/>
</svg>
